<svg width="140" height="156" viewBox="0 0 140 156" fill="none" xmlns="http://www.w3.org/2000/svg">
<path d="M25.2141 37.8161C23.7199 30.6252 27.6342 18.7264 29.6703 13.2606C30.1946 11.853 31.9515 11.4979 32.971 12.601C36.6005 16.5281 43.669 24.8619 45.1234 31.6311C47.1673 41.1436 36.6234 54.6311 36.6234 54.6311C36.6234 54.6311 27.1684 47.2214 25.2141 37.8161Z" fill="#F5F5F5"/>
<g style="mix-blend-mode:multiply">
<path fill-rule="evenodd" clip-rule="evenodd" d="M29.3514 14.128C33.1576 18.4313 38.8368 25.6433 40.1234 31.6312C41.5961 38.4852 36.5337 47.4029 33.5891 51.852C35.324 53.6128 36.6234 54.6311 36.6234 54.6311C36.6234 54.6311 47.1673 41.1436 45.1234 31.6311C43.6689 24.8619 36.6005 16.5281 32.9709 12.601C31.9515 11.4979 30.1946 11.853 29.6702 13.2606C29.5684 13.5341 29.4618 13.8237 29.3514 14.128Z" fill="#F5F5F5"/>
</g>
<path d="M114.416 37.8161C115.91 30.6252 111.996 18.7264 109.96 13.2606C109.435 11.853 107.678 11.4979 106.659 12.601C103.03 16.5281 95.9611 24.8619 94.5066 31.6311C92.4627 41.1436 103.007 54.6311 103.007 54.6311C103.007 54.6311 112.462 47.2214 114.416 37.8161Z" fill="#F5F5F5"/>
<g style="mix-blend-mode:multiply">
<path fill-rule="evenodd" clip-rule="evenodd" d="M110.279 14.128C106.472 18.4313 100.793 25.6433 99.5066 31.6312C98.0339 38.4852 103.096 47.4029 106.041 51.852C104.306 53.6128 103.007 54.6311 103.007 54.6311C103.007 54.6311 92.4627 41.1436 94.5066 31.6311C95.9611 24.8619 103.03 16.5281 106.659 12.601C107.679 11.4979 109.435 11.853 109.96 13.2606C110.062 13.5341 110.168 13.8237 110.279 14.128Z" fill="#F5F5F5"/>
</g>
<path d="M22.6735 71.2729C20.171 46.1844 39.874 24.4183 65.087 24.4183H74.817C100.03 24.4183 119.733 46.1843 117.231 71.2728L114.734 96.3072C112.56 118.101 94.2223 134.701 72.32 134.701H67.584C45.6818 134.701 27.3443 118.101 25.1705 96.3073L22.6735 71.2729Z" fill="#F5F5F5"/>
<path fill-rule="evenodd" clip-rule="evenodd" d="M44.8228 29.5282C49.2483 27.1315 54.1545 25.493 59.3752 24.7962C54.7348 35.4133 52.7497 42.089 51.1667 53.6311C46.8315 44.0096 45.8124 37.7497 44.8228 29.5282ZM95.2687 29.6303C94.2845 37.8758 92.8267 44.0868 87.8334 53.6311C85.7193 42.5992 83.4591 34.2864 78.9431 24.6146C84.8317 25.1779 90.3504 26.9347 95.2687 29.6303ZM77.6223 24.5087C71.6707 35.6893 70.9522 45.9678 71 57.6311C65.012 46.6917 61.7183 36.4145 60.5184 24.6592C62.018 24.5001 63.5422 24.4183 65.087 24.4183H74.817C75.7601 24.4183 76.6955 24.4488 77.6223 24.5087Z" fill="#1F1F1F"/>
<path fill-rule="evenodd" clip-rule="evenodd" d="M22.5052 64.9839C22.4089 67.049 22.4616 69.149 22.6735 71.2729L22.7889 72.4304L37.4559 69.0626L22.5052 64.9839ZM23.2232 58.9451H36.9165L25.0219 52.4515C24.2568 54.5473 23.6524 56.7171 23.2232 58.9451ZM24.0705 85.279L36.5 78.1337H23.3578L24.0705 85.279Z" fill="#1F1F1F"/>
<path fill-rule="evenodd" clip-rule="evenodd" d="M116.546 78.1337L115.888 84.7352L104.404 78.1337H116.546ZM117.411 65.2535C117.49 67.2316 117.433 69.2413 117.231 71.2728L117.138 72.2059L103.448 69.0626L117.411 65.2535ZM115.046 52.9081C115.734 54.862 116.283 56.8785 116.681 58.9451H103.988L115.046 52.9081Z" fill="#1F1F1F"/>
<path fill-rule="evenodd" clip-rule="evenodd" d="M111.565 108.729C105.042 124.105 89.819 134.701 72.32 134.701H67.584C50.1864 134.701 35.0381 124.227 28.4534 108.996C34.25 98.4422 45.4704 91.2887 58.3616 91.2887H81.8048C94.5871 91.2887 105.727 98.3218 111.565 108.729Z" fill="#1F1F1F"/>
<path d="M81.3608 132.258C84.5212 134.731 90.3575 134.309 90.3575 134.309C90.3575 134.309 89.0775 128.914 85.9171 126.441C82.7566 123.968 77.0198 123.872 77.0198 123.872C77.0198 123.872 78.2003 129.785 81.3608 132.258Z" fill="#A6C65A"/>
<path d="M83.6066 132.217C84.7653 137.267 80.827 144.072 80.827 144.072C80.827 144.072 74.9219 139.828 73.7632 134.777C72.6045 129.726 76.0833 123.542 76.0833 123.542C76.0833 123.542 82.4479 127.166 83.6066 132.217Z" fill="#CCE772"/>
<path d="M52.0724 41.4727C56.6755 44.5703 66.076 42.4804 66.076 42.4804C66.076 42.4804 63.2215 33.5965 58.6185 30.4989C54.0154 27.4014 44.8753 28.7143 44.8753 28.7143C44.8753 28.7143 47.4693 38.3752 52.0724 41.4727Z" fill="#A6C65A"/>
<path d="M57.8376 40.3238C61.0221 47.87 57.7109 59.1096 57.7109 59.1096C57.7109 59.1096 48.2184 53.7299 45.0339 46.1836C41.8494 38.6374 44.7197 28.4415 44.7197 28.4415C44.7197 28.4415 54.653 32.7775 57.8376 40.3238Z" fill="#CCE772"/>
<path d="M59 118.631C63.7273 126.631 80.5354 126.631 85 118.631" stroke="#F5F5F5" stroke-width="2" stroke-linecap="round" stroke-linejoin="round"/>
<ellipse cx="56.5" cy="102.631" rx="2.5" ry="3" fill="#F5F5F5"/>
<ellipse cx="86.5" cy="102.631" rx="2.5" ry="3" fill="#F5F5F5"/>
<circle cx="39" cy="85.6311" r="6" fill="#FFDED0"/>
<circle cx="100.805" cy="85.6311" r="6" fill="#FFDED0"/>
<ellipse cx="6.5" cy="7.5" rx="6.5" ry="7.5" transform="matrix(-1 0 0 1 56 63.6312)" fill="#181818"/>
<circle cx="52" cy="69" r="2" fill="white"/>
<ellipse cx="6.5" cy="7.5" rx="6.5" ry="7.5" transform="matrix(-1 0 0 1 97 63.6312)" fill="#181818"/>
<circle cx="93" cy="69" r="2" fill="white"/>
</svg>
