<svg width="140" height="156" viewBox="0 0 140 156" fill="none" xmlns="http://www.w3.org/2000/svg">
<rect width="140" height="156" rx="4" fill="#EAEAEA"/>
<path fill-rule="evenodd" clip-rule="evenodd" d="M111.094 64.3949C111.124 64.7557 111.314 65.0865 111.61 65.2945C120.899 71.8123 126.971 82.6035 126.971 94.8129C126.971 114.715 110.838 130.848 90.9362 130.848H49.0351C29.1335 130.848 13 114.715 13 94.8129C13 83.0528 18.6334 72.6085 27.349 66.0312C27.6331 65.8168 27.8099 65.4868 27.8325 65.1315C29.0083 46.6484 44.3718 32.0212 63.1517 32.0212H75.8293C94.359 32.0212 109.563 46.2613 111.094 64.3949Z" fill="#D5DE72"/>
<g style="mix-blend-mode:multiply">
<path fill-rule="evenodd" clip-rule="evenodd" d="M74.2445 57.3763C83.58 57.3763 91.1479 49.8084 91.1479 40.4729C91.1479 38.5922 90.8408 36.7833 90.274 35.0935C85.8632 33.1191 80.9744 32.0212 75.8292 32.0212H63.1516C61.9174 32.0212 60.6979 32.0844 59.4962 32.2077C58.1237 34.6513 57.3411 37.4707 57.3411 40.4729C57.3411 49.8084 64.909 57.3763 74.2445 57.3763Z" fill="#D5DE72"/>
</g>
<g style="mix-blend-mode:multiply">
<path fill-rule="evenodd" clip-rule="evenodd" d="M29.2229 57.3105C31.4929 49.675 36.2702 43.1188 42.6001 38.5962C46.336 40.5287 48.8894 44.4285 48.8894 48.9247C48.8894 55.3429 43.6865 60.5458 37.2683 60.5458C34.1458 60.5458 31.3109 59.3143 29.2229 57.3105Z" fill="#D5DE72"/>
</g>
<g style="mix-blend-mode:multiply">
<path fill-rule="evenodd" clip-rule="evenodd" d="M104.849 47.1492C108.199 51.9378 110.394 57.5939 111.03 63.7132C105.867 63.6115 101.713 59.3943 101.713 54.2069C101.713 51.4067 102.923 48.8892 104.849 47.1492Z" fill="#D5DE72"/>
</g>
<path fill-rule="evenodd" clip-rule="evenodd" d="M126.515 89.0658C126.815 90.9373 126.971 92.857 126.971 94.813C126.971 114.715 110.838 130.848 90.9362 130.848H49.035C29.1334 130.848 13 114.715 13 94.813C13 91.661 13.4047 88.6036 14.1649 85.6898C17.7241 83.1315 21.8187 81.675 26.1754 81.675C33.1546 81.675 39.4612 85.4127 43.9717 91.4298C50.3056 85.4126 59.1617 81.675 68.9623 81.675C78.4486 81.675 87.05 85.1768 93.3357 90.858C97.812 85.1768 103.937 81.675 110.693 81.675C116.706 81.675 122.219 84.4495 126.515 89.0658Z" fill="#FFF9BA"/>
<circle cx="28.8166" cy="99.6349" r="8.45172" fill="#FFCEB9"/>
<circle cx="110.164" cy="99.6349" r="8.45172" fill="#FFCEB9"/>
<ellipse cx="44.3317" cy="72.5443" rx="7.06334" ry="8.82918" fill="#433D3C"/>
<ellipse cx="42.5659" cy="69.4541" rx="2.64875" ry="3.09021" fill="white"/>
<circle cx="46.539" cy="73.8687" r="1.32438" fill="white"/>
<ellipse cx="7.06334" cy="8.82918" rx="7.06334" ry="8.82918" transform="matrix(-1 0 0 1 101.201 63.7151)" fill="#433D3C"/>
<ellipse cx="2.64875" cy="3.09021" rx="2.64875" ry="3.09021" transform="matrix(-1 0 0 1 98.5519 66.3639)" fill="white"/>
<circle cx="1.32438" cy="1.32438" r="1.32438" transform="matrix(-1 0 0 1 93.2544 72.5443)" fill="white"/>
<ellipse cx="58.2431" cy="93.7486" rx="2.64116" ry="3.69763" transform="rotate(10 58.2431 93.7486)" fill="#433D3C"/>
<ellipse cx="82.7293" cy="93.9322" rx="2.64116" ry="3.69763" transform="rotate(-10 82.7293 93.9322)" fill="#433D3C"/>
<path d="M99.2832 130.143C83.0732 115.942 86.8796 118.122 63.6189 113.429" stroke="#5EA985" stroke-width="2.60879" stroke-linecap="round"/>
<path d="M85.1168 123.659C84.8036 120.803 82.6705 117.83 82.6705 117.83C82.6705 117.83 81.233 121.195 81.5463 124.051C81.8595 126.906 83.9925 129.88 83.9925 129.88C83.9925 129.88 85.4301 126.514 85.1168 123.659Z" fill="#5EA985"/>
<path d="M87.584 114.257C84.9086 115.303 82.5925 118.136 82.5925 118.136C82.5925 118.136 86.2163 118.648 88.8918 117.602C91.5672 116.556 93.8834 113.723 93.8834 113.723C93.8834 113.723 90.2595 113.211 87.584 114.257Z" fill="#5EA985"/>
<path d="M76.131 119.953C75.6217 117.126 73.2887 114.306 73.2887 114.306C73.2887 114.306 72.0866 117.762 72.596 120.59C73.1053 123.417 75.4382 126.237 75.4382 126.237C75.4382 126.237 76.6403 122.78 76.131 119.953Z" fill="#5EA985"/>
<path d="M67.2817 117.237C66.2728 114.548 63.4712 112.193 63.4712 112.193C63.4712 112.193 62.9097 115.81 63.9186 118.499C64.9276 121.189 67.7292 123.544 67.7292 123.544C67.7292 123.544 68.2907 119.927 67.2817 117.237Z" fill="#5EA985"/>
<path fill-rule="evenodd" clip-rule="evenodd" d="M101.641 124.829C101.78 124.428 101.909 124.007 102.026 123.571C102.904 120.289 102.729 117.392 101.635 117.099C100.541 116.806 98.9424 119.23 98.0644 122.511C97.9478 122.947 97.8497 123.377 97.7699 123.794C97.5846 123.412 97.3786 123.023 97.1528 122.632C95.453 119.691 93.2802 117.765 92.2997 118.332C91.3192 118.898 91.9023 121.742 93.6021 124.684C93.8277 125.074 94.0617 125.447 94.3002 125.798C93.8991 125.659 93.4786 125.53 93.0429 125.413C89.761 124.535 86.8632 124.71 86.5706 125.804C86.2779 126.898 88.7011 128.497 91.983 129.375C92.4188 129.491 92.8478 129.59 93.2648 129.669C92.8828 129.855 92.4939 130.061 92.1033 130.286C89.1618 131.986 87.2366 134.159 87.8031 135.139C88.3697 136.12 91.2136 135.537 94.1551 133.837C94.5458 133.611 94.9185 133.377 95.2698 133.139C95.1307 133.54 95.0014 133.961 94.8848 134.396C94.0067 137.678 94.1818 140.576 95.2757 140.869C96.3697 141.161 97.9683 138.738 98.8464 135.456C98.963 135.02 99.061 134.591 99.1408 134.174C99.3261 134.556 99.5321 134.945 99.7578 135.336C101.458 138.277 103.63 140.202 104.611 139.636C105.591 139.069 105.008 136.225 103.309 133.284C103.083 132.893 102.849 132.521 102.611 132.17C103.012 132.309 103.432 132.438 103.868 132.555C107.15 133.433 110.048 133.258 110.34 132.164C110.633 131.07 108.21 129.471 104.928 128.593C104.492 128.476 104.063 128.378 103.646 128.299C104.028 128.113 104.417 127.907 104.807 127.682C107.749 125.982 109.674 123.809 109.108 122.828C108.541 121.848 105.697 122.431 102.756 124.131C102.365 124.357 101.992 124.591 101.641 124.829Z" fill="white"/>
<circle cx="98.4553" cy="128.984" r="2.81939" transform="rotate(-75.0218 98.4553 128.984)" fill="#FED402"/>
<path fill-rule="evenodd" clip-rule="evenodd" d="M40.5816 38.2327C41.0174 38.3493 41.4381 38.4786 41.8392 38.6177C41.6007 38.2664 41.3667 37.8937 41.141 37.5031C39.4412 34.5616 38.8581 31.7177 39.8386 31.1511C40.8191 30.5845 42.9919 32.5098 44.6917 35.4513C44.9174 35.8419 45.1234 36.2308 45.3087 36.6128C45.3885 36.1958 45.4865 35.7667 45.6031 35.3309C46.4812 32.049 48.0798 29.6258 49.1738 29.9184C50.2677 30.2111 50.4428 33.1089 49.5647 36.3908C49.4481 36.8266 49.3188 37.2474 49.1796 37.6486C49.531 37.41 49.9037 37.176 50.2943 36.9502C53.2359 35.2505 56.0798 34.6674 56.6463 35.6479C57.2129 36.6284 55.2877 38.8012 52.3462 40.501C51.9556 40.7267 51.5667 40.9327 51.1847 41.118C51.6017 41.1977 52.0307 41.2957 52.4664 41.4123C55.7483 42.2904 58.1716 43.889 57.8789 44.983C57.5862 46.0769 54.6884 46.252 51.4065 45.3739C50.9709 45.2574 50.5503 45.1281 50.1492 44.989C50.3876 45.3402 50.6216 45.7128 50.8473 46.1032C52.547 49.0448 53.1301 51.8887 52.1496 52.4553C51.1691 53.0218 48.9963 51.0966 47.2965 48.1551C47.0708 47.7645 46.8648 47.3756 46.6795 46.9935C46.5997 47.4106 46.5017 47.8397 46.3851 48.2756C45.507 51.5575 43.9084 53.9808 42.8144 53.6881C41.7205 53.3954 41.5454 50.4976 42.4235 47.2157C42.5401 46.7798 42.6695 46.359 42.8086 45.9577C42.4572 46.1963 42.0845 46.4304 41.6937 46.6562C38.7522 48.356 35.9083 48.939 35.3417 47.9585C34.7751 46.978 36.7004 44.8052 39.6419 43.1054C40.0324 42.8798 40.4212 42.6738 40.8032 42.4886C40.3862 42.4088 39.9574 42.3108 39.5217 42.1943C36.2398 41.3162 33.8166 39.7176 34.1093 38.6236C34.402 37.5297 37.2997 37.3546 40.5816 38.2327Z" fill="white"/>
<circle cx="45.994" cy="41.8034" r="2.81939" transform="rotate(-75.0218 45.994 41.8034)" fill="#FED402"/>
<path d="M61.567 111.256H77.414V134.85C77.414 135.648 76.5641 136.158 75.8604 135.783L69.4905 132.385L63.1206 135.783C62.4169 136.158 61.567 135.648 61.567 134.85V111.256Z" fill="#FEB1AA"/>
<path d="M43.6072 105.974C45.9235 109.706 49.1535 112.591 53.6436 112.841C58.2374 113.096 64.1254 110.673 69.4906 110.728C74.6398 110.78 79.7941 112.959 84.2811 112.841C89.3072 112.709 93.496 110.078 95.9022 105.974" stroke="#433D3C" stroke-width="2.64116" stroke-linecap="round" stroke-linejoin="round"/>
</svg>
