<svg width="140" height="156" viewBox="0 0 140 156" fill="none" xmlns="http://www.w3.org/2000/svg">
<rect width="140" height="156" rx="4" fill="#FFE0D3"/>
<path fill-rule="evenodd" clip-rule="evenodd" d="M16 48.5C16 55.9396 20.1662 62.4061 26.2928 65.6938C24.8067 70.0226 24 74.6671 24 79.5C24 102.972 43.0279 122 66.5 122H74.5C97.9721 122 117 102.972 117 79.5C117 74.2963 116.065 69.3109 114.353 64.703C119.568 61.2031 123 55.2523 123 48.5C123 37.7304 114.27 29 103.5 29C96.2823 29 89.9805 32.9214 86.6088 38.7499C82.7713 37.6113 78.707 37 74.5 37H66.5C61.6671 37 57.0226 37.8067 52.6938 39.2928C49.4061 33.1662 42.9396 29 35.5 29C24.7304 29 16 37.7304 16 48.5Z" fill="#CA926A"/>
<path d="M24.6846 52.5992C20.773 48.2988 20.9761 41.6713 25.1437 37.6185V37.6185C29.3695 33.5091 36.1125 33.5561 40.2805 37.7242L45.533 42.9766C46.1395 43.5831 46.0462 44.5908 45.3496 45.0913C40.0015 48.9339 36.298 52.6043 32.1716 58.2593C31.6372 58.9918 30.5625 59.0613 29.9524 58.3905L24.6846 52.5992Z" fill="#ECC79F"/>
<path d="M114.082 51.9714C117.994 47.671 117.791 41.0435 113.623 36.9907V36.9907C109.397 32.8813 102.654 32.9284 98.4861 37.0964L93.2337 42.3488C92.6272 42.9553 92.7204 43.963 93.417 44.4635C98.7652 48.3061 102.469 51.9765 106.595 57.6315C107.129 58.364 108.204 58.4335 108.814 57.7627L114.082 51.9714Z" fill="#ECC79F"/>
<ellipse cx="70.5" cy="93" rx="24.5" ry="19" fill="#ECC79F"/>
<rect x="69.1" y="88.2" width="2.7" height="10.8" rx="1.35" fill="#3A211F"/>
<ellipse cx="70.9" cy="85.95" rx="8.1" ry="4.95" fill="#3A211F"/>
<circle cx="65.95" cy="84.15" r="1.35" fill="white"/>
<path d="M61 94.95C65.5 99 75.5 99 80 94.95" stroke="#3A211F" stroke-width="2.7" stroke-linecap="round"/>
<circle cx="49" cy="75" r="4" fill="#3A211F"/>
<circle cx="93" cy="75" r="4" fill="#3A211F"/>
<circle cx="39" cy="89" r="5" fill="#FFCEB9"/>
<circle cx="102" cy="89" r="5" fill="#FFCEB9"/>
<path fill-rule="evenodd" clip-rule="evenodd" d="M59.4718 127.606C62.2351 127.606 64.7459 126.646 66.743 125.522C66.2244 128.362 66.2676 130.915 66.3084 133.326L66.3171 133.859C66.377 137.689 66.3325 141.237 64.1656 145.633C63.7899 146.395 64.1032 147.318 64.8654 147.694C65.6277 148.069 66.5502 147.756 66.9259 146.994C69.4313 141.911 69.4557 137.744 69.3942 133.81L69.3869 133.357C69.3354 130.22 69.2865 127.243 70.3149 123.796C72.2058 126.831 73.0822 129.814 73.962 132.822L73.9855 132.902C75.0083 136.398 76.0706 140.03 78.9746 143.288C79.5401 143.922 80.5127 143.978 81.1471 143.413C81.7815 142.847 81.8374 141.875 81.2719 141.24C78.8687 138.544 77.9635 135.539 76.9157 131.958L76.8893 131.867C76.3862 130.147 75.8512 128.318 75.0803 126.423C76.7032 127.115 78.5511 127.606 80.5282 127.606C83.7265 127.606 86.6976 126.985 88.9266 125.911C91.0461 124.891 93 123.184 93 120.803C93 118.422 91.0461 116.715 88.9266 115.694C86.6976 114.621 83.7265 114 80.5282 114C75.9032 114 71.9853 116.687 70 118.341C68.0147 116.687 64.0968 114 59.4718 114C56.2735 114 53.3024 114.621 51.0734 115.694C48.9539 116.715 47 118.422 47 120.803C47 123.184 48.9539 124.891 51.0734 125.911C53.3024 126.985 56.2735 127.606 59.4718 127.606ZM52.4085 118.467C50.5711 119.352 50.0775 120.277 50.0775 120.803C50.0775 121.329 50.5711 122.254 52.4085 123.139C54.1366 123.971 56.632 124.528 59.4718 124.528C63.0749 124.528 66.3274 122.326 68.0766 120.861L68.1114 120.773C66.3707 119.309 63.0989 117.077 59.4718 117.077C56.632 117.077 54.1366 117.635 52.4085 118.467ZM72.2368 121.118C72.1446 120.985 72.0506 120.852 71.9546 120.718C73.7111 119.253 76.9464 117.077 80.5282 117.077C83.368 117.077 85.8634 117.635 87.5915 118.467C89.429 119.352 89.9225 120.277 89.9225 120.803C89.9225 121.329 89.429 122.254 87.5915 123.139C85.8634 123.971 83.368 124.528 80.5282 124.528C77.1304 124.528 74.0444 122.57 72.2368 121.118Z" fill="#513831"/>
</svg>
