<svg width="140" height="156" viewBox="0 0 140 156" fill="none" xmlns="http://www.w3.org/2000/svg">
<path d="M48.7171 31.0583C47.7251 36.1537 58.3416 42.9475 58.3416 42.9475L88.3475 42.4019C88.3475 42.4019 77.2418 22 71.5803 22C67.8536 22 69.0332 26.4246 70.2746 29.4487C70.4329 29.8342 69.7362 30.3242 69.4347 30.0365C66.4916 27.2279 61.1224 22.741 57.2093 23.1323C53.388 23.5144 57.6615 28.5487 60.8432 31.7808C61.1428 32.0852 60.6295 32.7804 60.2499 32.5846C56.0538 30.4203 49.3916 27.594 48.7171 31.0583Z" fill="#C79D72"/>
<path d="M12.3344 80.2301C13.902 56.4746 33.6276 38.0078 57.4347 38.0078H81.7823C105.693 38.0078 125.468 56.6311 126.9 80.4992L127.193 85.3924C128.763 111.553 109.438 134.629 83.2319 134.904C73.9746 135.001 64.9496 134.828 55.9694 134.438C29.6826 133.297 10.3702 109.995 12.1028 83.74L12.3344 80.2301Z" fill="#C79D72"/>
<path d="M22.0178 83.6677C23.3619 63.2765 40.2936 47.4241 60.7291 47.4241H77.4266C98.257 47.4241 115.483 63.6487 116.729 84.4418V84.4418C118.095 107.228 101.26 127.342 78.4329 127.458C72.0849 127.49 65.8603 127.37 59.6691 127.122C37.106 126.22 20.5325 106.2 22.0178 83.6677V83.6677Z" fill="#EDD49B"/>
<path d="M89.3152 108.912C89.3152 118.642 80.8086 123.939 70.3152 123.939C59.8218 123.939 51.3152 118.642 51.3152 108.912C51.3152 99.1818 59.8218 89.7393 70.3152 89.7393C80.8086 89.7393 89.3152 99.1818 89.3152 108.912Z" fill="#B19574"/>
<rect x="69.1558" y="100.4" width="2.67357" height="11.5855" rx="1.33678" fill="#09060D"/>
<path d="M62 108C66.0263 112 74.9737 112 79 108" stroke="#09060D" stroke-width="2.5" stroke-linecap="round"/>
<path d="M78.3549 99.0296C78.3549 101.927 74.8314 104.276 70.4849 104.276C66.1383 104.276 62.6148 101.927 62.6148 99.0296C62.6148 96.1319 66.1383 92.5058 70.4849 92.5058C74.8314 92.5058 78.3549 96.1319 78.3549 99.0296Z" fill="#09060D"/>
<circle cx="74.1576" cy="96.9309" r="1.04934" fill="white"/>
<path fill-rule="evenodd" clip-rule="evenodd" d="M23.4962 75.349C22.7149 78.0072 22.2115 80.7887 22.0205 83.6614C21.369 93.4545 24.1621 102.768 29.3894 110.217C36.378 104.474 44.3617 100.045 51.5628 96.2744C59.8595 91.9297 63.3689 81.0046 59.3994 72.6547C56.9389 67.4791 52.0986 64.4162 46.6803 65.2771C35.7085 67.0205 29.1742 70.4062 23.4962 75.349Z" fill="#AA6C56"/>
<path fill-rule="evenodd" clip-rule="evenodd" d="M114.067 72.424C115.549 76.1686 116.471 80.2039 116.727 84.4299C117.271 93.4338 114.947 102.016 110.52 109.092C103.879 103.889 96.4732 99.7954 89.7495 96.2743C81.4528 91.9297 77.9434 81.0045 81.9129 72.6547C84.3733 67.479 89.2137 64.4161 94.632 65.2771C103.285 66.6519 109.177 69.0481 114.067 72.424Z" fill="#AA6C56"/>
<path d="M16.5068 41.8939C21.641 42.7914 26.5038 48.5734 26.5038 48.5734C26.5038 48.5734 19.9678 52.3627 14.8336 51.4651C9.69939 50.5676 4.83659 44.7856 4.83659 44.7856C4.83659 44.7856 11.3726 40.9963 16.5068 41.8939Z" fill="#34876F"/>
<path d="M32.324 35.7918C31.1127 40.8612 25.384 45.4411 25.384 45.4411C25.384 45.4411 22.3446 38.7661 23.5559 33.6968C24.7671 28.6274 30.4958 24.0475 30.4958 24.0475C30.4958 24.0475 33.5352 30.7225 32.324 35.7918Z" fill="#34876F"/>
<circle cx="42.8091" cy="88.856" r="8.47471" fill="#09060D"/>
<circle cx="45.6339" cy="86.9727" r="1.88327" fill="white"/>
<circle cx="8.47471" cy="8.47471" r="8.47471" transform="matrix(-1 0 0 1 106.078 80.3812)" fill="#09060D"/>
<circle cx="1.88327" cy="1.88327" r="1.88327" transform="matrix(-1 0 0 1 96.6614 85.0894)" fill="white"/>
<circle cx="42.8988" cy="108.63" r="5.64981" fill="#FFBAA0"/>
<circle cx="98.4552" cy="108.63" r="5.64981" fill="#FFBAA0"/>
<path d="M48.7853 39.3746C48.9159 39.2644 49.0426 39.147 49.1647 39.0225C51.2524 36.8942 51.2311 33.4878 49.1171 31.4142C47.0031 29.3405 43.597 29.3848 41.5093 31.5131C41.3066 31.7197 41.1238 31.9384 40.9609 32.1667C40.4425 30.1442 38.8056 28.5109 36.6607 28.1368C33.7591 27.6307 31.0267 29.6208 30.5577 32.5816C30.3077 34.1601 30.7514 35.6958 31.6598 36.8624C31.4391 36.8749 31.2169 36.9007 30.994 36.9404C28.0428 37.4663 26.1057 40.2365 26.6675 43.1278C27.2294 46.019 30.0773 47.9365 33.0285 47.4106C33.1878 47.3822 33.3442 47.3473 33.4973 47.3061C33.4591 47.46 33.4272 47.617 33.4019 47.7768C32.9329 50.7377 34.9049 53.5481 37.8064 54.0542C40.7079 54.5602 43.4403 52.5702 43.9093 49.6093C43.951 49.3464 43.9734 49.0846 43.9776 48.8256C45.0987 49.5205 46.477 49.8218 47.8785 49.572C50.8298 49.0461 52.7668 46.2759 52.205 43.3846C51.838 41.4957 50.4952 40.0225 48.7853 39.3746Z" fill="#FFA787"/>
<g style="mix-blend-mode:multiply">
<circle cx="40.1646" cy="40.9735" r="4.04474" transform="rotate(69.1033 40.1646 40.9735)" fill="#FEB1AA" fill-opacity="0.5"/>
</g>
<path d="M33.4435 51.5043C33.5676 51.3995 33.6879 51.288 33.8039 51.1698C35.7871 49.1481 35.7668 45.9124 33.7587 43.9426C31.7506 41.9728 28.5151 42.0149 26.532 44.0365C26.3395 44.2328 26.1658 44.4405 26.0111 44.6574C25.5186 42.7362 23.9637 41.1847 21.9263 40.8294C19.1701 40.3487 16.5746 42.239 16.1291 45.0515C15.8915 46.5509 16.313 48.0097 17.176 49.1179C16.9663 49.1298 16.7552 49.1543 16.5435 49.192C13.7401 49.6916 11.9001 52.323 12.4337 55.0694C12.9674 57.8158 15.6727 59.6373 18.4761 59.1377C18.6274 59.1107 18.7759 59.0775 18.9214 59.0385C18.8851 59.1847 18.8548 59.3338 18.8308 59.4856C18.3852 62.2981 20.2584 64.9678 23.0146 65.4485C25.7708 65.9292 28.3663 64.0388 28.8118 61.2263C28.8514 60.9765 28.8727 60.7279 28.8767 60.4818C29.9416 61.1419 31.2508 61.4281 32.5821 61.1908C35.3856 60.6912 37.2256 58.0598 36.6919 55.3134C36.3433 53.5191 35.0677 52.1196 33.4435 51.5043Z" fill="#FFCE05"/>
<g style="mix-blend-mode:multiply">
<circle cx="25.2546" cy="53.023" r="3.84212" transform="rotate(69.1033 25.2546 53.023)" fill="#FED402"/>
</g>
</svg>
