<svg width="140" height="156" viewBox="0 0 140 156" fill="none" xmlns="http://www.w3.org/2000/svg">
<circle cx="27.5" cy="49.5232" r="19.5" fill="#FFAC42"/>
<circle cx="26.5" cy="49.5" r="13.5" fill="#FFE29C"/>
<circle cx="113.5" cy="49.5232" r="19.5" fill="#FFAC42"/>
<circle cx="113.5" cy="49.5" r="13.5" fill="#FFE29C"/>
<path d="M65.8304 27.5969C65.7769 25.1122 67.7478 23.0545 70.2325 23.0011C72.7172 22.9476 74.7748 24.9185 74.8283 27.4032L74.9042 30.9293L76.0993 27.6459C76.9493 25.3105 79.5316 24.1063 81.867 24.9563C84.2024 25.8064 85.4065 28.3886 84.5565 30.724L80.4523 42.0004C79.6023 44.3358 77.02 45.5399 74.6846 44.6899C73.9368 44.4177 73.3051 43.968 72.8196 43.4057C72.189 43.7665 71.4619 43.9795 70.6844 43.9962C70.0474 44.0099 69.4384 43.8905 68.884 43.6636C68.4693 44.9327 67.4965 46.0053 66.1446 46.4973C63.8092 47.3473 61.2269 46.1432 60.3768 43.8078L56.2726 32.5315C55.4226 30.1961 56.6267 27.6138 58.9621 26.7638C61.2975 25.9138 63.8798 27.1179 64.7298 29.4533L65.942 32.7838L65.8304 27.5969Z" fill="#FFAC42"/>
<path d="M128 88.177C128 113.87 102.033 138 70 138C37.9675 138 12 113.87 12 88.177C12 62.4839 37.9675 34 70 34C102.033 34 128 62.4839 128 88.177Z" fill="#FFAC42"/>
<path fill-rule="evenodd" clip-rule="evenodd" d="M52.4434 56.319C52.1299 57.2098 50.8702 57.2098 50.5567 56.319L44.8398 40.071C49.5617 37.7041 54.6393 35.9372 59.9667 34.9369L52.4434 56.319ZM61.9173 34.6069L69.5567 56.319C69.8702 57.2098 71.1299 57.2098 71.4434 56.319L79.0296 34.7581C76.0872 34.2619 73.0715 34 70 34C67.2572 34 64.5587 34.2088 61.9173 34.6069ZM81.1083 35.1498L88.5567 56.319C88.8702 57.2098 90.1299 57.2098 90.4434 56.319L96.0078 40.5043C91.3635 38.0838 86.3625 36.2447 81.1083 35.1498Z" fill="#6B4A32"/>
<path fill-rule="evenodd" clip-rule="evenodd" d="M13.0558 78.9998C13.8426 75.521 15.0549 72.0585 16.6446 68.688L29.9225 75.0384C30.8233 75.4692 30.6058 76.8091 29.6149 76.9328L13.0558 78.9998ZM12.1525 91.5954C12.0514 90.4604 12 89.3203 12 88.1771C12 85.9068 12.2028 83.6147 12.5945 81.3224L28.6032 84.5078C29.6199 84.7101 29.6951 86.1353 28.7053 86.4434L12.1525 91.5954Z" fill="#6B4A32"/>
<path fill-rule="evenodd" clip-rule="evenodd" d="M127.885 91.1428C127.961 90.1574 128 89.1684 128 88.1771C128 86.0016 127.814 83.8061 127.454 81.6096L112.888 84.5078C111.872 84.7101 111.797 86.1353 112.786 86.4434L127.885 91.1428ZM123.627 69.2718C125.055 72.3957 126.159 75.5943 126.9 78.8081L111.877 76.9328C110.886 76.8091 110.668 75.4692 111.569 75.0384L123.627 69.2718Z" fill="#6B4A32"/>
<path fill-rule="evenodd" clip-rule="evenodd" d="M26.0598 119.956C27.2709 104.382 46.7043 92 70.4999 92C93.8154 92 112.943 103.887 114.845 119.018C104.207 130.322 88.0686 138 70 138C52.4363 138 36.6959 130.745 26.0598 119.956Z" fill="#FFE29C"/>
<circle cx="36.5" cy="99.5" r="7.5" fill="#FF8F75"/>
<circle cx="103.5" cy="99.5" r="7.5" fill="#FF8F75"/>
<circle cx="45" cy="81" r="9" fill="#6B4A32"/>
<circle cx="48.0383" cy="79.2739" r="3.11538" transform="rotate(-150 48.0383 79.2739)" fill="white"/>
<circle cx="43.8505" cy="84.7783" r="2.07692" transform="rotate(-150 43.8505 84.7783)" fill="white"/>
<circle cx="96" cy="81" r="9" fill="#6B4A32"/>
<circle cx="99.0383" cy="79.2739" r="3.11538" transform="rotate(-150 99.0383 79.2739)" fill="white"/>
<circle cx="94.8505" cy="84.7783" r="2.07692" transform="rotate(-150 94.8505 84.7783)" fill="white"/>
<path d="M71.0855 92V98.837C71.0855 101.07 72.8954 102.88 75.1282 102.88H75.693C77.6138 102.88 79.1709 101.323 79.1709 99.4017V99.4017" stroke="#6B4A32" stroke-width="2" stroke-linecap="round" stroke-linejoin="round"/>
<path d="M71.0854 92V98.837C71.0854 101.07 69.2755 102.88 67.0427 102.88H66.4779C64.5571 102.88 63 101.323 63 99.4017V99.4017" stroke="#6B4A32" stroke-width="2" stroke-linecap="round" stroke-linejoin="round"/>
<ellipse cx="71" cy="92.6118" rx="8" ry="4.61181" fill="#6B4A32"/>
<ellipse cx="66.6974" cy="90.5996" rx="1.15989" ry="1.11412" fill="white"/>
<circle cx="49.25" cy="97.25" r="1.25" fill="#6B4A32" fill-opacity="0.7"/>
<circle cx="53.25" cy="98.25" r="1.25" fill="#6B4A32" fill-opacity="0.7"/>
<circle cx="50.25" cy="101.25" r="1.25" fill="#6B4A32" fill-opacity="0.7"/>
<circle cx="1.25" cy="1.25" r="1.25" transform="matrix(-1 0 0 1 92 96)" fill="#6B4A32" fill-opacity="0.7"/>
<circle cx="1.25" cy="1.25" r="1.25" transform="matrix(-1 0 0 1 88 97)" fill="#6B4A32" fill-opacity="0.7"/>
<circle cx="1.25" cy="1.25" r="1.25" transform="matrix(-1 0 0 1 91 100)" fill="#6B4A32" fill-opacity="0.7"/>
<path d="M104.93 42.0032C105.025 41.9487 105.118 41.8892 105.21 41.8247C106.768 40.722 107.143 38.5735 106.048 37.0259C104.952 35.4783 102.802 35.1176 101.243 36.2203C101.092 36.3273 100.952 36.4442 100.823 36.5695C100.728 35.2362 99.8826 34.0204 98.574 33.54C96.8037 32.8902 94.8552 33.8322 94.222 35.644C93.8844 36.6099 93.9887 37.6281 94.4279 38.4667C94.2874 38.4494 94.1445 38.4402 93.9996 38.4398C92.0802 38.4345 90.5438 39.9587 90.5679 41.8443C90.592 43.7299 92.1674 45.2629 94.0868 45.2682C94.1904 45.2685 94.2928 45.2644 94.394 45.2559C94.3524 45.3485 94.3144 45.4438 94.2802 45.5416C93.6469 47.3534 94.5686 49.349 96.3389 49.9989C98.1091 50.6487 100.058 49.7067 100.691 47.8949C100.747 47.734 100.791 47.5716 100.823 47.4089C101.45 47.9746 102.284 48.3216 103.196 48.3242C105.115 48.3295 106.651 46.8053 106.627 44.9197C106.612 43.6878 105.934 42.6064 104.93 42.0032Z" fill="white"/>
<g style="mix-blend-mode:multiply">
<circle cx="99.3168" cy="42.027" r="2.58966" transform="rotate(79.3678 99.3168 42.027)" fill="#FED402"/>
</g>
<path d="M108.253 129.031C108.412 128.94 108.567 128.841 108.719 128.733C111.319 126.893 111.946 123.308 110.118 120.725C108.29 118.142 104.701 117.54 102.101 119.38C101.848 119.559 101.614 119.754 101.4 119.963C101.24 117.738 99.8295 115.709 97.6457 114.908C94.6915 113.823 91.4399 115.395 90.3831 118.419C89.8197 120.031 89.9938 121.73 90.7268 123.129C90.4924 123.1 90.2538 123.085 90.012 123.084C86.809 123.075 84.245 125.619 84.2852 128.766C84.3254 131.913 86.9545 134.471 90.1575 134.48C90.3304 134.48 90.5014 134.473 90.6702 134.459C90.6008 134.614 90.5374 134.773 90.4803 134.936C89.4235 137.959 90.9616 141.29 93.9158 142.374C96.87 143.459 100.122 141.887 101.178 138.863C101.272 138.594 101.346 138.323 101.399 138.052C102.446 138.996 103.837 139.575 105.359 139.579C108.562 139.588 111.125 137.045 111.085 133.898C111.059 131.842 109.928 130.038 108.253 129.031Z" fill="white"/>
<g style="mix-blend-mode:multiply">
<circle cx="98.8854" cy="129.071" r="4.32162" transform="rotate(79.3678 98.8854 129.071)" fill="#FED402"/>
</g>
<path d="M25.5133 96.55C19.6702 96.0369 16.3555 95.9065 10.3498 96.0611" stroke="#61432D" stroke-width="1.8" stroke-linecap="round" stroke-linejoin="round"/>
<path d="M24.959 105.504C19.344 106.53 16.2587 107.26 10.9118 108.939" stroke="#61432D" stroke-width="1.8" stroke-linecap="round" stroke-linejoin="round"/>
<path d="M24.6208 101.215C18.7504 100.98 15.884 101.345 10.0218 101.846" stroke="#61432D" stroke-width="1.8" stroke-linecap="round" stroke-linejoin="round"/>
<path d="M114.513 96.55C120.356 96.0369 123.671 95.9065 129.677 96.0611" stroke="#61432D" stroke-width="1.8" stroke-linecap="round" stroke-linejoin="round"/>
<path d="M115.068 105.504C120.683 106.53 123.768 107.26 129.115 108.939" stroke="#61432D" stroke-width="1.8" stroke-linecap="round" stroke-linejoin="round"/>
<path d="M115.406 101.215C121.276 100.98 124.143 101.345 130.005 101.846" stroke="#61432D" stroke-width="1.8" stroke-linecap="round" stroke-linejoin="round"/>
</svg>
