<svg width="140" height="156" viewBox="0 0 140 156" fill="none" xmlns="http://www.w3.org/2000/svg">
<path fill-rule="evenodd" clip-rule="evenodd" d="M77.7634 19.3029C80.3582 20.2474 81.6962 23.1166 80.7517 25.7115L76.9895 36.0481C76.1803 38.2712 73.9584 39.5718 71.7065 39.3048C71.3371 39.5734 70.9243 39.7955 70.4737 39.9595C67.8788 40.904 65.0096 39.5661 64.0651 36.9712L60.3029 26.6346C59.3584 24.0397 60.6964 21.1705 63.2913 20.226C65.8861 19.2815 68.7554 20.6195 69.6998 23.2144L70.3593 25.0263L71.3548 22.2913C72.2993 19.6964 75.1685 18.3584 77.7634 19.3029Z" fill="#282828"/>
<ellipse cx="70" cy="77.5" rx="49" ry="50.5" fill="#282828"/>
<path fill-rule="evenodd" clip-rule="evenodd" d="M26.5311 100.83C26.528 100.807 26.525 100.785 26.522 100.762C23.5644 78.6321 33.4747 59.0473 48.6572 57.0183C56.4102 55.9822 64.0387 59.7243 70.042 66.5817C76.0453 59.7243 83.6739 55.9822 91.4268 57.0183C106.573 59.0425 116.472 78.5384 113.583 100.603C105.447 116.874 88.9841 128 70 128C51.1044 128 34.7068 116.977 26.5311 100.83Z" fill="white"/>
<circle cx="40.5" cy="97.5" r="7.5" fill="#FFC6AD"/>
<circle cx="99.5" cy="97.5" r="7.5" fill="#FFC6AD"/>
<g filter="url(#filter0_f_60_212)">
<path d="M21.2922 90.7108C21.413 89.9505 22.3136 89.6043 22.9248 90.0724C49.4566 110.394 91.9741 109.492 116.625 90.0478C117.217 89.5807 118.103 89.8895 118.259 90.6272L122.725 111.705C123.477 115.254 121.755 118.89 118.443 120.371C86.6782 134.567 51.7394 134.543 22.026 120.298C18.9739 118.835 17.3548 115.492 17.8859 112.149L21.2922 90.7108Z" fill="#8ED2C9"/>
</g>
<path d="M21.2922 90.7108C21.413 89.9505 22.3136 89.6043 22.9248 90.0724C49.4566 110.394 91.9741 109.492 116.625 90.0478C117.217 89.5807 118.103 89.8895 118.259 90.6272L122.725 111.705C123.477 115.254 121.755 118.89 118.443 120.371C86.6782 134.567 51.7394 134.543 22.026 120.298C18.9739 118.835 17.3548 115.492 17.8859 112.149L21.2922 90.7108Z" fill="#8ED2C9"/>
<g filter="url(#filter1_f_60_212)">
<path d="M85.9926 117C84.8241 117 83.9035 118.001 84.0081 119.165C85.097 131.28 86.7591 138.195 93.0864 146.995C93.5314 147.614 94.2981 147.912 95.0474 147.772L95.1403 147.755C95.6759 149.311 96.5568 150.558 97.5879 151.678C97.9621 152.084 98.5947 152.11 99.0009 151.736C99.4071 151.361 99.433 150.729 99.0588 150.322C98.2246 149.417 97.5621 148.484 97.1338 147.383L99.5366 146.935C100.058 148.642 100.987 149.983 102.088 151.178C102.462 151.584 103.095 151.61 103.501 151.236C103.907 150.861 103.933 150.229 103.559 149.822C102.646 148.831 101.938 147.807 101.518 146.565L103.613 146.175C104.146 147.769 105.039 149.039 106.088 150.178C106.462 150.584 107.095 150.61 107.501 150.236C107.907 149.861 107.933 149.229 107.559 148.822C106.705 147.895 106.031 146.939 105.603 145.804L107.697 145.414C108.236 146.897 109.092 148.097 110.088 149.178C110.462 149.584 111.095 149.61 111.501 149.236C111.907 148.861 111.933 148.229 111.559 147.822C110.765 146.96 110.126 146.073 109.697 145.041L111.787 144.651C112.329 146.026 113.146 147.155 114.088 148.178C114.462 148.584 115.095 148.61 115.501 148.236C115.907 147.861 115.933 147.229 115.559 146.822C114.826 146.027 114.225 145.209 113.8 144.276L115.883 143.887C116.424 145.156 117.2 146.214 118.088 147.178C118.462 147.584 119.095 147.61 119.501 147.236C119.907 146.861 119.933 146.229 119.559 145.822C118.887 145.094 118.327 144.347 117.911 143.509L119.987 143.122C120.521 144.288 121.256 145.274 122.088 146.178C122.462 146.584 123.095 146.61 123.501 146.236C123.907 145.861 123.933 145.229 123.559 144.822C122.818 144.018 122.212 143.192 121.786 142.246C122.239 141.636 122.341 140.78 121.93 140.043C117.581 132.238 115.458 126.953 113.658 118.604C113.457 117.674 112.639 117 111.687 117H85.9926Z" fill="#8ED2C9"/>
</g>
<path fill-rule="evenodd" clip-rule="evenodd" d="M85.9926 117C84.8241 117 83.9035 118.001 84.0081 119.165C85.097 131.28 86.7591 138.195 93.0864 146.995C93.5314 147.614 94.298 147.912 95.0474 147.772L95.1403 147.755C95.6759 149.311 96.5568 150.558 97.5879 151.678C97.9621 152.084 98.5947 152.11 99.0009 151.736C99.4071 151.361 99.433 150.729 99.0588 150.323C98.2246 149.417 97.5621 148.484 97.1338 147.383L99.5366 146.935C100.058 148.642 100.987 149.983 102.088 151.178C102.462 151.584 103.095 151.61 103.501 151.236C103.907 150.861 103.933 150.229 103.559 149.823C102.646 148.831 101.938 147.807 101.518 146.565L103.613 146.175C104.146 147.769 105.039 149.039 106.088 150.178C106.462 150.584 107.095 150.61 107.501 150.236C107.907 149.861 107.933 149.229 107.559 148.823C106.705 147.895 106.031 146.939 105.603 145.804L107.697 145.414C108.236 146.897 109.092 148.097 110.088 149.178C110.462 149.584 111.095 149.61 111.501 149.236C111.907 148.861 111.933 148.229 111.559 147.823C110.765 146.96 110.126 146.073 109.697 145.041L111.787 144.651C112.329 146.026 113.146 147.155 114.088 148.178C114.462 148.584 115.095 148.61 115.501 148.236C115.907 147.861 115.933 147.229 115.559 146.823C114.826 146.027 114.225 145.209 113.8 144.276L115.883 143.887C116.424 145.156 117.2 146.214 118.088 147.178C118.462 147.584 119.095 147.61 119.501 147.236C119.907 146.861 119.933 146.229 119.559 145.823C118.887 145.094 118.327 144.347 117.911 143.509L119.987 143.122C120.521 144.288 121.256 145.274 122.088 146.178C122.462 146.584 123.095 146.61 123.501 146.236C123.907 145.861 123.933 145.229 123.559 144.823C122.818 144.018 122.212 143.192 121.786 142.246C122.239 141.636 122.341 140.78 121.93 140.043C117.581 132.238 115.458 126.953 113.658 118.604C113.457 117.674 112.639 117 111.687 117H85.9926Z" fill="#8ED2C9"/>
<path d="M98.1139 124.589C98.1818 124.549 98.2484 124.507 98.3137 124.461C99.4285 123.672 99.697 122.135 98.9133 121.027C98.1296 119.92 96.5906 119.662 95.4758 120.451C95.3676 120.527 95.2673 120.611 95.1752 120.701C95.1066 119.747 94.5021 118.877 93.5657 118.533C92.2991 118.068 90.905 118.742 90.4518 120.038C90.2103 120.73 90.2849 121.458 90.5992 122.058C90.4987 122.046 90.3964 122.039 90.2927 122.039C88.9194 122.035 87.8201 123.126 87.8373 124.475C87.8546 125.824 88.9818 126.921 90.3551 126.925C90.4292 126.925 90.5026 126.922 90.5749 126.916C90.5452 126.982 90.518 127.05 90.4935 127.12C90.0404 128.417 90.6999 129.845 91.9665 130.309C93.2332 130.774 94.6273 130.1 95.0804 128.804C95.1207 128.689 95.1521 128.573 95.1752 128.456C95.6238 128.861 96.2205 129.109 96.8727 129.111C98.246 129.115 99.3453 128.024 99.3281 126.675C99.3168 125.794 98.8318 125.02 98.1139 124.589Z" fill="white"/>
<g style="mix-blend-mode:multiply">
<circle cx="94.0973" cy="124.606" r="1.85293" transform="rotate(79.3678 94.0973 124.606)" fill="#FED402"/>
</g>
<path d="M112.93 134.003C113.025 133.949 113.118 133.889 113.21 133.825C114.768 132.722 115.143 130.574 114.048 129.026C112.952 127.478 110.801 127.118 109.243 128.22C109.092 128.327 108.952 128.444 108.823 128.57C108.727 127.236 107.882 126.02 106.574 125.54C104.804 124.89 102.855 125.832 102.222 127.644C101.884 128.61 101.989 129.628 102.428 130.467C102.287 130.449 102.144 130.44 101.999 130.44C100.08 130.435 98.5437 131.959 98.5678 133.844C98.5919 135.73 100.167 137.263 102.087 137.268C102.19 137.269 102.293 137.264 102.394 137.256C102.352 137.349 102.314 137.444 102.28 137.542C101.647 139.353 102.569 141.349 104.339 141.999C106.109 142.649 108.057 141.707 108.691 139.895C108.747 139.734 108.791 139.572 108.823 139.409C109.45 139.975 110.284 140.322 111.196 140.324C113.115 140.33 114.651 138.805 114.627 136.92C114.612 135.688 113.934 134.606 112.93 134.003Z" fill="white"/>
<g style="mix-blend-mode:multiply">
<circle cx="107.317" cy="134.027" r="2.58966" transform="rotate(79.3678 107.317 134.027)" fill="#FED402"/>
</g>
<circle cx="6.5" cy="6.5" r="6.5" transform="matrix(-1 0 0 1 54 78)" fill="#282828"/>
<circle cx="1.5" cy="1.5" r="1.5" transform="matrix(-1 0 0 1 52 81)" fill="white"/>
<circle cx="6.5" cy="6.5" r="6.5" transform="matrix(-1 0 0 1 99 78)" fill="#282828"/>
<circle cx="1.5" cy="1.5" r="1.5" transform="matrix(-1 0 0 1 97 81)" fill="white"/>
<path d="M79 86.5C79 84.0147 74.9706 82 70 82C65.0294 82 61 84.0147 61 86.5C61 88.9853 65.0294 94 70 94C74.9706 94 79 88.9853 79 86.5Z" fill="#FED402"/>
<circle cx="27" cy="22" r="2" fill="white"/>
<circle cx="126" cy="56" r="2" fill="white"/>
<circle cx="109" cy="23" r="2" fill="white"/>
<circle cx="18" cy="139" r="2" fill="white"/>
<circle cx="89" cy="52" r="2" fill="white"/>
<circle cx="49" cy="94" r="2" fill="white"/>
<circle cx="18" cy="44" r="2" fill="white"/>
<circle cx="128" cy="18" r="2" fill="white"/>
<circle cx="132.5" cy="120.5" r="1.5" fill="white"/>
<circle cx="126.5" cy="139.5" r="1.5" fill="white"/>
<circle cx="7.5" cy="122.5" r="1.5" fill="white"/>
<defs>
<filter id="filter0_f_60_212" x="16.7861" y="88.8263" width="107.113" height="43.1737" filterUnits="userSpaceOnUse" color-interpolation-filters="sRGB">
<feFlood flood-opacity="0" result="BackgroundImageFix"/>
<feBlend mode="normal" in="SourceGraphic" in2="BackgroundImageFix" result="shape"/>
<feGaussianBlur stdDeviation="0.5" result="effect1_foregroundBlur_60_212"/>
</filter>
<filter id="filter1_f_60_212" x="83" y="116" width="41.8234" height="37" filterUnits="userSpaceOnUse" color-interpolation-filters="sRGB">
<feFlood flood-opacity="0" result="BackgroundImageFix"/>
<feBlend mode="normal" in="SourceGraphic" in2="BackgroundImageFix" result="shape"/>
<feGaussianBlur stdDeviation="0.5" result="effect1_foregroundBlur_60_212"/>
</filter>
</defs>
</svg>
