<svg width="140" height="156" viewBox="0 0 140 156" fill="none" xmlns="http://www.w3.org/2000/svg">
<rect width="140" height="156" rx="4" fill="#EAEAEA"/>
<ellipse cx="14.4403" cy="10.329" rx="14.4403" ry="10.329" transform="matrix(0.54801 0.836472 -0.831491 0.555539 36.1769 23.3054)" fill="#B1C1C9"/>
<ellipse cx="7.63481" cy="5.60285" rx="7.63481" ry="5.60285" transform="matrix(0.54801 0.836472 -0.831491 0.555539 34.3174 30.3054)" fill="#FFDED0"/>
<ellipse cx="14.4403" cy="10.329" rx="14.4403" ry="10.329" transform="matrix(-0.54801 0.836472 0.831491 0.555539 102.968 23.3054)" fill="#B1C1C9"/>
<ellipse cx="7.63481" cy="5.60285" rx="7.63481" ry="5.60285" transform="matrix(-0.54801 0.836472 0.831491 0.555539 104.368 30.3054)" fill="#FFDED0"/>
<path d="M73.4989 22.5595C74.7768 17.829 80.7317 13.8358 80.7317 13.8358C80.7317 13.8358 83.3796 19.927 82.1018 24.6575C80.8239 29.3879 75.3389 33.7991 75.3389 33.7991C75.3389 33.7991 72.2211 27.2899 73.4989 22.5595Z" fill="#ACCC5F"/>
<path d="M62.7782 24.578C59.6771 21.5623 52.9629 21.5993 52.9629 21.5993C52.9629 21.5993 53.3492 27.7566 56.4504 30.7723C59.5515 33.788 66.0501 34.3261 66.0501 34.3261C66.0501 34.3261 65.8794 27.5937 62.7782 24.578Z" fill="#ACCC5F"/>
<path d="M73.1987 21.122C70.6361 15.1961 61.8439 11.1483 61.8439 11.1483C61.8439 11.1483 59.2093 19.6576 61.7719 25.5835C64.3345 31.5094 72.6585 36.1567 72.6585 36.1567C72.6585 36.1567 75.7613 27.0479 73.1987 21.122Z" fill="#BBD468"/>
<path d="M73.4989 22.5595C74.7768 17.829 80.7317 13.8358 80.7317 13.8358C80.7317 13.8358 83.3796 19.927 82.1018 24.6575C80.8239 29.3879 75.3389 33.7991 75.3389 33.7991C75.3389 33.7991 72.2211 27.2899 73.4989 22.5595Z" fill="#ACCC5F"/>
<path d="M62.7782 24.578C59.6771 21.5623 52.9629 21.5993 52.9629 21.5993C52.9629 21.5993 53.3492 27.7566 56.4504 30.7723C59.5515 33.788 66.0501 34.3261 66.0501 34.3261C66.0501 34.3261 65.8794 27.5937 62.7782 24.578Z" fill="#ACCC5F"/>
<path d="M73.1987 21.122C70.6361 15.1961 61.8439 11.1483 61.8439 11.1483C61.8439 11.1483 59.2093 19.6576 61.7719 25.5835C64.3345 31.5094 72.6585 36.1567 72.6585 36.1567C72.6585 36.1567 75.7613 27.0479 73.1987 21.122Z" fill="#BBD468"/>
<path d="M27.0736 67.7595C28.152 45.1127 46.8274 27.3054 69.5 27.3054V27.3054C92.1726 27.3054 110.848 45.1126 111.926 67.7595L112.836 86.8568C114.014 111.6 94.271 132.305 69.5 132.305V132.305C44.729 132.305 24.986 111.6 26.1642 86.8569L27.0736 67.7595Z" fill="#B1C1C9"/>
<circle cx="51" cy="67.3054" r="9" fill="white"/>
<circle cx="52.9" cy="66.4054" r="7.2" fill="#525151"/>
<circle cx="2.25" cy="2.25" r="2.25" transform="matrix(-1 0 0 1 58.3 60.9053)" fill="white"/>
<circle cx="1.35" cy="1.35" r="1.35" transform="matrix(-1 0 0 1 53.8 65.4053)" fill="white"/>
<circle cx="89" cy="67.3054" r="9" fill="white"/>
<circle cx="90.9" cy="66.4054" r="7.2" fill="#525151"/>
<circle cx="2.25" cy="2.25" r="2.25" transform="matrix(-1 0 0 1 96.3 60.9053)" fill="white"/>
<circle cx="1.35" cy="1.35" r="1.35" transform="matrix(-1 0 0 1 91.8 65.4053)" fill="white"/>
<ellipse cx="40" cy="78.7054" rx="4" ry="2.4" fill="#FFDED0"/>
<ellipse cx="99" cy="78.7054" rx="4" ry="2.4" fill="#FFDED0"/>
<path d="M106.944 129.68C103.848 127.455 98.387 127.915 96.725 128.118C96.4511 128.151 96.2689 128.405 96.3245 128.675C96.6616 130.315 97.9658 135.638 101.062 137.864C104.158 140.089 109.619 139.629 111.281 139.426C111.555 139.393 111.737 139.139 111.682 138.869C111.345 137.229 110.04 131.906 106.944 129.68Z" fill="#BBD468"/>
<path d="M99.356 139.227C99.2248 135.975 96.0882 132.547 95.0163 131.467C94.8219 131.271 94.5128 131.283 94.3348 131.494C93.3534 132.657 90.5032 136.327 90.6344 139.579C90.7656 142.831 93.9022 146.259 94.9741 147.34C95.1685 147.535 95.4775 147.523 95.6556 147.312C96.6369 146.149 99.4872 142.48 99.356 139.227Z" fill="#BBD468"/>
<rect x="44" y="131.305" width="8" height="8" rx="2" fill="#FBFBFB"/>
<rect x="88" y="131.305" width="8" height="8" rx="2" fill="#FBFBFB"/>
<path d="M19 109.167C19 93.2017 33.0636 81.0924 48.9852 82.2782C63.0738 83.3275 75.7644 83.3828 89.9019 82.3626C105.851 81.2118 120 93.3004 120 109.291V109.291C120 122.812 109.748 134.228 96.2549 135.098C77.4304 136.311 61.6815 136.294 42.8708 135.085C29.3141 134.214 19 122.752 19 109.167V109.167Z" fill="#D9E7EE"/>
<circle cx="45.5" cy="91.8054" r="3.5" fill="#525151"/>
<circle cx="95.5" cy="91.8054" r="3.5" fill="#525151"/>
<path d="M48 111.305C56 124.639 84.4444 124.639 92 111.305" stroke="#525151" stroke-width="2.5" stroke-linecap="round" stroke-linejoin="round"/>
<circle cx="36.25" cy="102.555" r="1.25" fill="#525151"/>
<circle cx="40.25" cy="103.555" r="1.25" fill="#525151"/>
<circle cx="37.25" cy="106.555" r="1.25" fill="#525151"/>
<circle cx="1.25" cy="1.25" r="1.25" transform="matrix(-1 0 0 1 106 101.305)" fill="#525151"/>
<circle cx="1.25" cy="1.25" r="1.25" transform="matrix(-1 0 0 1 102 102.305)" fill="#525151"/>
<circle cx="1.25" cy="1.25" r="1.25" transform="matrix(-1 0 0 1 105 105.305)" fill="#525151"/>
</svg>
