<svg width="140" height="156" viewBox="0 0 140 156" fill="none" xmlns="http://www.w3.org/2000/svg">
<path fill-rule="evenodd" clip-rule="evenodd" d="M54.953 41.0228C47.214 33.1559 38.8695 25.5159 36.0967 26.024C32.7487 26.6376 29.0945 42.4102 26.6886 55.0526C18.1528 62.8274 13 72.912 13 83.9315C13 108.523 38.6612 128.458 70.3158 128.458C101.97 128.458 127.632 108.523 127.632 83.9315C127.632 72.7828 122.357 62.5911 113.641 54.7801C111.235 42.1847 107.609 26.6332 104.285 26.024C101.518 25.5168 93.1992 33.1273 85.4723 40.9786C80.6445 39.9529 75.5625 39.4052 70.3158 39.4052C64.9944 39.4052 59.8423 39.9686 54.953 41.0228Z" fill="white"/>
<path fill-rule="evenodd" clip-rule="evenodd" d="M38.4999 93C59.7629 93 76.9999 75.763 76.9999 54.5C76.9999 49.1765 75.9195 44.1055 73.9659 39.494C72.759 39.4351 71.5419 39.4052 70.3158 39.4052C64.9943 39.4052 59.8423 39.9686 54.953 41.0227C47.2139 33.1558 38.8695 25.5158 36.0966 26.024C32.7487 26.6376 29.0945 42.4102 26.6886 55.0526C18.3033 62.6903 13.1828 72.557 13.0048 83.3493C19.7953 89.3548 28.7219 93 38.4999 93Z" fill="#FFCE05"/>
<path fill-rule="evenodd" clip-rule="evenodd" d="M127.488 87.1075C121.254 91.4523 113.675 94 105.5 94C84.237 94 67 76.763 67 55.5C67 49.7543 68.2586 44.3025 70.5153 39.4055C75.6913 39.4191 80.7057 39.9659 85.4724 40.9786C93.1992 33.1273 101.518 25.5168 104.285 26.024C107.609 26.6332 111.235 42.1847 113.641 54.7801C122.357 62.5911 127.632 72.7828 127.632 83.9315C127.632 84.9994 127.583 86.0585 127.488 87.1075Z" fill="#FFCE05"/>
<path d="M117.018 81.5641C123.824 79.13 125.004 78.7228 132.291 77.4238" stroke="#333333" stroke-width="1.89474" stroke-linecap="round" stroke-linejoin="round"/>
<path d="M115.474 94.694C122.543 96.61 125.723 97.0008 132.466 100.101" stroke="#333333" stroke-width="1.89474" stroke-linecap="round" stroke-linejoin="round"/>
<path d="M117.791 88.5152C124.3 88.1322 126.462 88.8996 132.962 89.714" stroke="#333333" stroke-width="1.89474" stroke-linecap="round" stroke-linejoin="round"/>
<path d="M22.9816 81.5641C16.1759 79.13 14.9964 78.7228 7.70881 77.4238" stroke="#333333" stroke-width="1.89474" stroke-linecap="round" stroke-linejoin="round"/>
<path d="M24.5263 94.694C17.4572 96.61 14.2768 97.0008 7.53461 100.101" stroke="#333333" stroke-width="1.89474" stroke-linecap="round" stroke-linejoin="round"/>
<path d="M22.2092 88.5152C15.7001 88.1322 13.5382 88.8996 7.03822 89.714" stroke="#333333" stroke-width="1.89474" stroke-linecap="round" stroke-linejoin="round"/>
<path d="M76.3159 87.8263C76.3159 89.6575 74.1951 91.1421 71.579 91.1421C68.9629 91.1421 66.8422 89.6575 66.8422 87.8263C66.8422 85.995 68.9629 84.0368 71.579 84.0368C74.1951 84.0368 76.3159 85.995 76.3159 87.8263Z" fill="#333333"/>
<path d="M71.579 86.4052V93.0368C71.579 95.1297 69.8823 96.8263 67.7895 96.8263H66.6053C65.1664 96.8263 64 95.6599 64 94.221V94.221" stroke="#323232" stroke-width="1.42105" stroke-linecap="round" stroke-linejoin="round"/>
<path d="M71.579 86.4052V93.0368C71.579 95.1297 73.2756 96.8263 75.3685 96.8263H76.5527C77.9915 96.8263 79.158 95.6599 79.158 94.221V94.221" stroke="#323232" stroke-width="1.42105" stroke-linecap="round" stroke-linejoin="round"/>
<circle cx="73.4737" cy="86.4052" r="0.947369" fill="white"/>
<g style="mix-blend-mode:multiply">
<path d="M31.0309 51.2815C32.4296 44.3599 33.7836 39.7047 36.5874 32.5455C36.8013 31.9994 37.4593 31.7788 37.9572 32.0887C43.3891 35.47 46.377 38.0603 50.4967 42.4955C50.9739 43.0092 50.7381 43.8441 50.0648 44.0396C42.9379 46.1085 38.5094 47.4849 32.6157 52.2136C31.9116 52.7785 30.8521 52.1663 31.0309 51.2815Z" fill="#FFCE05" fill-opacity="0.6"/>
<path d="M107.766 50.6079C107.052 43.5123 106.373 39.2937 103.426 32.0323C103.206 31.4913 102.549 31.2809 102.056 31.5943C97.1314 34.7267 94.3205 37.0521 89.7085 41.3642C89.1733 41.8645 89.3871 42.7576 90.0891 42.9671C97.0859 45.055 100.397 46.5407 106.18 51.425C106.837 51.9798 107.852 51.4634 107.766 50.6079Z" fill="#FFCE05" fill-opacity="0.6"/>
</g>
<ellipse cx="45.5" cy="78.5" rx="6.5" ry="7.5" fill="#333333"/>
<circle cx="44" cy="76" r="2" fill="white"/>
<ellipse cx="97.5" cy="78.5" rx="6.5" ry="7.5" fill="#333333"/>
<circle cx="96" cy="76" r="2" fill="white"/>
<path d="M73.0418 120.351C72.6106 120.593 72.1214 120.721 71.6234 120.721H70.3304C69.8324 120.721 69.3432 120.593 68.912 120.351L58.3126 114.398C56.3264 113.283 53.8676 114.805 54.0127 117.031C54.4083 123.104 54.4004 127.894 54.0061 133.968C53.8617 136.192 56.3178 137.71 58.3019 136.595L69.3262 130.404C69.7574 130.162 70.2466 130.034 70.7446 130.034H71.2092C71.7072 130.034 72.1964 130.162 72.6276 130.404L83.7058 136.626C85.6793 137.734 88.1246 136.238 87.9951 134.025C87.637 127.908 87.6204 123.1 87.9814 116.986C88.1124 114.768 85.6615 113.264 83.6836 114.375L73.0418 120.351Z" fill="#FFC547"/>
<ellipse cx="37" cy="95" rx="8" ry="5" fill="#FFA787"/>
<ellipse cx="103" cy="95" rx="8" ry="5" fill="#FFA787"/>
</svg>
