<svg width="140" height="156" viewBox="0 0 140 156" fill="none" xmlns="http://www.w3.org/2000/svg">
<rect width="140" height="156" rx="4" fill="#EBEBEB"/>
<path d="M67.7968 16.0612C67.7653 13.866 68.9275 12.0482 70.3926 12.0009C71.8578 11.9537 73.0712 13.6949 73.1027 15.8901L73.1475 19.0053L73.8522 16.1045C74.3534 14.0412 75.8761 12.9774 77.2533 13.7284C78.6304 14.4793 79.3405 16.7607 78.8392 18.824L76.4191 28.7862C75.9178 30.8495 74.3951 31.9133 73.0179 31.1623C72.577 30.9219 72.2045 30.5246 71.9182 30.0278C71.5464 30.3466 71.1176 30.5347 70.6591 30.5495C70.2835 30.5616 69.9244 30.4561 69.5975 30.2556C69.3529 31.3769 68.7793 32.3244 67.9821 32.7592C66.6049 33.5101 65.0822 32.4463 64.5809 30.383L62.1608 20.4208C61.6595 18.3575 62.3696 16.0761 63.7467 15.3252C65.1239 14.5742 66.6466 15.638 67.1478 17.7013L67.8626 20.6437L67.7968 16.0612Z" fill="#FAFAFA"/>
<path d="M17 95C17 124.271 40.7289 148 70 148V148C99.2711 148 123 124.271 123 95V81H17V95Z" fill="#A97337"/>
<g style="mix-blend-mode:multiply">
<path fill-rule="evenodd" clip-rule="evenodd" d="M63.5605 128.126C63.5605 128.657 63.4203 129.182 63.1479 129.672C62.8755 130.163 62.4763 130.608 61.973 130.983C61.4697 131.359 60.8722 131.656 60.2146 131.859C59.557 132.062 58.8522 132.167 58.1405 132.167C57.4287 132.167 56.7239 132.062 56.0663 131.859C55.4087 131.656 54.8112 131.359 54.3079 130.983C53.8046 130.608 53.4054 130.163 53.133 129.672C52.8607 129.182 52.7205 128.657 52.7205 128.126L58.1405 128.126H63.5605ZM74.4005 128.134C74.3992 128.662 74.259 129.185 73.988 129.672C73.7156 130.163 73.3164 130.608 72.8131 130.983C72.3098 131.359 71.7123 131.656 71.0547 131.859C70.3971 132.062 69.6923 132.167 68.9805 132.167C68.2688 132.167 67.564 132.062 66.9064 131.859C66.2488 131.656 65.6513 131.359 65.148 130.983C64.6447 130.608 64.2455 130.163 63.9731 129.672C63.7007 129.182 63.5605 128.657 63.5605 128.126L68.9805 128.126L74.4005 128.126L74.4005 128.126H79.8205H85.2405C85.2405 128.657 85.1003 129.182 84.828 129.672C84.5556 130.163 84.1564 130.608 83.6531 130.983C83.1498 131.359 82.5523 131.656 81.8947 131.859C81.2371 132.062 80.5323 132.167 79.8205 132.167C79.1088 132.167 78.404 132.062 77.7464 131.859C77.0888 131.656 76.4913 131.359 75.988 130.983C75.4847 130.608 75.0855 130.163 74.8131 129.672C74.5421 129.185 74.4019 128.662 74.4005 128.134Z" fill="#4B2807" fill-opacity="0.5"/>
</g>
<g style="mix-blend-mode:multiply">
<path fill-rule="evenodd" clip-rule="evenodd" d="M63.5605 119.236C63.5605 119.749 63.4203 120.257 63.1479 120.731C62.8755 121.205 62.4763 121.635 61.973 121.998C61.4697 122.361 60.8722 122.648 60.2146 122.845C59.557 123.041 58.8522 123.142 58.1405 123.142C57.4287 123.142 56.7239 123.041 56.0663 122.845C55.4087 122.648 54.8112 122.361 54.3079 121.998C53.8046 121.635 53.4054 121.205 53.133 120.731C52.8607 120.257 52.7205 119.749 52.7205 119.236L58.1405 119.236H63.5605ZM74.4005 119.244C74.3992 119.754 74.259 120.259 73.988 120.731C73.7156 121.205 73.3164 121.635 72.8131 121.998C72.3098 122.361 71.7123 122.648 71.0547 122.845C70.3971 123.041 69.6923 123.142 68.9805 123.142C68.2688 123.142 67.564 123.041 66.9064 122.845C66.2488 122.648 65.6513 122.361 65.148 121.998C64.6447 121.635 64.2455 121.205 63.9731 120.731C63.7007 120.257 63.5605 119.749 63.5605 119.236L68.9805 119.236L74.4005 119.236L74.4005 119.236H79.8205H85.2405C85.2405 119.749 85.1003 120.257 84.828 120.731C84.5556 121.205 84.1564 121.635 83.6531 121.998C83.1498 122.361 82.5523 122.648 81.8947 122.845C81.2371 123.041 80.5323 123.142 79.8205 123.142C79.1088 123.142 78.404 123.041 77.7464 122.845C77.0888 122.648 76.4913 122.361 75.988 121.998C75.4847 121.635 75.0855 121.205 74.8131 120.731C74.5421 120.259 74.4019 119.754 74.4005 119.244Z" fill="#4B2807" fill-opacity="0.5"/>
</g>
<g style="mix-blend-mode:multiply">
<path fill-rule="evenodd" clip-rule="evenodd" d="M62.8378 137.016V137.016L69.5225 137.016H76.2072C76.2072 138.338 75.5029 139.606 74.2493 140.54C72.9956 141.475 71.2954 142 69.5225 142C67.7496 142 66.0493 141.475 64.7957 140.54C63.544 139.607 62.8399 138.342 62.8378 137.022C62.8368 137.675 62.6639 138.32 62.329 138.923C61.993 139.528 61.5006 140.077 60.8799 140.54C60.2592 141.003 59.5223 141.37 58.7112 141.621C57.9002 141.871 57.031 142 56.1531 142C55.2753 142 54.406 141.871 53.595 141.621C52.784 141.37 52.0471 141.003 51.4263 140.54C50.8056 140.077 50.3132 139.528 49.9773 138.923C49.6413 138.319 49.4684 137.671 49.4684 137.016L56.1531 137.016H62.8378ZM89.0677 138.923C89.4036 138.319 89.5765 137.671 89.5765 137.016H82.8919L76.2072 137.016C76.2072 137.671 76.3801 138.319 76.716 138.923C77.052 139.528 77.5443 140.077 78.1651 140.54C78.7858 141.003 79.5227 141.37 80.3337 141.621C81.1448 141.871 82.014 142 82.8919 142C83.7697 142 84.639 141.871 85.45 141.621C86.261 141.37 86.9979 141.003 87.6186 140.54C88.2394 140.077 88.7318 139.528 89.0677 138.923Z" fill="#4B2807" fill-opacity="0.5"/>
</g>
<path fill-rule="evenodd" clip-rule="evenodd" d="M33.1519 81H17V95C17 115.914 29.1141 133.999 46.7084 142.621C51.9817 135.865 55.1982 126.872 55.1982 117C55.1982 100.28 45.9714 86.0819 33.1519 81ZM105.893 81H123V95C123 116.188 110.567 134.471 92.5996 142.954C87.1704 136.162 83.8469 127.035 83.8469 117C83.8469 100.28 93.0736 86.0819 105.893 81Z" fill="#62401A"/>
<path d="M69.5 25.9417C38.8371 25.9417 13.8791 48.8783 13.0227 77.477C13.0076 77.7035 13 77.9319 13 78.1619V103.332C13 109.306 18.1574 114.149 24.5194 114.149C30.8814 114.149 36.0388 109.306 36.0388 103.332V93.8533L36.0388 103.847C36.0388 109.536 40.9507 114.149 47.0097 114.149C53.0688 114.149 57.9806 109.536 57.9806 103.847L57.9806 93.8533V103.332C57.9806 109.306 63.138 114.149 69.5 114.149C75.862 114.149 81.0194 109.306 81.0194 103.332L81.0194 103.847C81.0194 109.536 85.9313 114.149 91.9903 114.149C98.0494 114.149 102.961 109.536 102.961 103.847V103.354C102.974 109.318 108.126 114.149 114.481 114.149C120.843 114.149 126 109.306 126 103.332V78.1619C126 77.9319 125.992 77.7035 125.977 77.477C125.121 48.8783 100.163 25.9417 69.5 25.9417Z" fill="#DBDBDB"/>
<path fill-rule="evenodd" clip-rule="evenodd" d="M69.5 21.1619C38.2959 21.1619 13 46.4578 13 77.6619V80.5194V89.0735V97.8497C13 104.212 18.1574 109.369 24.5194 109.369C30.8814 109.369 36.0388 104.212 36.0388 97.8497V89.0735L36.0389 98.3982C36.0389 104.457 40.9507 109.369 47.0097 109.369C53.0688 109.369 57.9806 104.457 57.9806 98.3982L57.9806 89.0735V97.8497C57.9806 104.212 63.138 109.369 69.5 109.369C75.852 109.369 81.0033 104.228 81.0194 97.8797V98.3982C81.0194 104.457 85.9312 109.369 91.9903 109.369C98.0493 109.369 102.961 104.457 102.961 98.3982L102.961 97.8497C102.961 104.212 108.119 109.369 114.481 109.369C120.843 109.369 126 104.212 126 97.8497V89.0735V80.5194V77.6619C126 46.4578 100.704 21.1619 69.5 21.1619Z" fill="#FAFAFA"/>
<path d="M72.0418 107.97C71.6106 108.16 71.1214 108.26 70.6234 108.26H69.3304C68.8325 108.26 68.3432 108.16 67.912 107.97L57.3126 103.312C55.3264 102.439 52.8676 103.63 53.0127 105.372C53.4083 110.125 53.4004 113.873 53.0061 118.627C52.8617 120.368 55.3178 121.555 57.3019 120.683L68.3262 115.838C68.7574 115.648 69.2466 115.549 69.7446 115.549H70.2092C70.7072 115.549 71.1964 115.648 71.6276 115.838L82.7058 120.707C84.6793 121.574 87.1246 120.404 86.9951 118.672C86.637 113.884 86.6204 110.122 86.9814 105.337C87.1124 103.601 84.6615 102.424 82.6836 103.293L72.0418 107.97Z" fill="#FFCEB9"/>
<path d="M56.025 81.3895C54.0017 79.6857 54.1598 76.5223 56.3428 75.0286L68.6109 66.6346C70.0366 65.6592 71.9273 65.7091 73.2995 66.7584L84.2579 75.1384C86.2184 76.6376 86.3668 79.5371 84.5696 81.2286L73.5936 91.5589C72.1151 92.9505 69.8287 93.0136 68.2756 91.7058L56.025 81.3895Z" fill="#FFD500"/>
<ellipse cx="64.5" cy="79.3636" rx="1.5" ry="1.36364" fill="#512E0C"/>
<ellipse cx="76.2412" cy="79.3636" rx="1.5" ry="1.36364" fill="#512E0C"/>
<circle cx="44" cy="64" r="12" fill="#FFD500"/>
<circle cx="44" cy="64" r="8" fill="#323232"/>
<circle cx="47" cy="61.6666" r="3" fill="white"/>
<circle cx="42" cy="67.3334" r="2" fill="white"/>
<circle cx="96" cy="64" r="12" fill="#FFD500"/>
<circle cx="96" cy="64" r="8" fill="#323232"/>
<circle cx="99" cy="61.6666" r="3" fill="white"/>
<circle cx="94" cy="67.3334" r="2" fill="white"/>
<ellipse cx="36" cy="81.9091" rx="6" ry="4" fill="#FFCEB9"/>
<ellipse cx="104" cy="81.9091" rx="6" ry="4" fill="#FFCEB9"/>
<path d="M107.577 39.9395L108.646 35.5529C108.964 34.2468 107.916 33 106.5 33C105.084 33 104.036 34.2468 104.354 35.5529L105.423 39.9395L105.945 42.1802L107.219 42.1019L107.577 39.9395Z" fill="#FFE591"/>
<path d="M108.669 43.0119L113.303 44.0237C114.683 44.325 116 43.333 116 41.9926C116 40.6522 114.683 39.6602 113.303 39.9614L108.669 40.9732L106.412 41.4123V42.4218L108.669 43.0119Z" fill="#FFE591"/>
<path d="M104.331 43.0119L99.6969 44.0238C98.3172 44.3251 97 43.333 97 41.9926C97 40.6522 98.3172 39.6603 99.6969 39.9615L104.331 40.9733L105.849 41.3204L106.138 42.6205L104.331 43.0119Z" fill="#FFE591"/>
<path d="M105.199 39.0197L103.207 36.0028C102.456 34.8662 100.784 34.686 99.7825 35.6338C98.7812 36.5816 98.9716 38.1647 100.172 38.8752L103.359 40.7612L105.614 42.1802L106.5 41.3043L105.199 39.0197Z" fill="#FFE591"/>
<path d="M109.641 40.7612L112.828 38.8752C114.028 38.1647 114.219 36.5817 113.218 35.6339C112.216 34.6861 110.544 34.8663 109.793 36.0029L107.801 39.0197L106.139 41.5462L106.979 42.6571L109.641 40.7612Z" fill="#FFE591"/>
<path d="M109.641 43.2241L112.828 45.11C114.028 45.8205 114.219 47.4036 113.218 48.3514C112.216 49.2992 110.544 49.119 109.793 47.9824L107.801 44.9655L106.237 42.9596L107.51 41.8474L109.641 43.2241Z" fill="#FFE591"/>
<path d="M105.199 44.9656L103.207 47.9824C102.456 49.119 100.784 49.2992 99.7825 48.3514C98.7812 47.4037 98.9716 45.8206 100.172 45.1101L103.359 43.2241L106.138 41.6175L106.851 42.1837L105.199 44.9656Z" fill="#FFE591"/>
<path d="M107.72 44.1711L108.772 48.4878C109.085 49.773 108.054 51 106.66 51C105.267 51 104.236 49.773 104.549 48.4878L105.601 44.1711L106.005 41.8321L107.031 41.726L107.72 44.1711Z" fill="#FFE591"/>
<path d="M106.5 44.1103C107.736 44.1103 108.737 43.1623 108.737 41.9929C108.737 40.8236 107.736 39.8756 106.5 39.8756C105.265 39.8756 104.263 40.8236 104.263 41.9929C104.263 43.1623 105.265 44.1103 106.5 44.1103Z" fill="#FFD500"/>
<g style="mix-blend-mode:multiply">
<path fill-rule="evenodd" clip-rule="evenodd" d="M105.934 44.0418C106.115 44.0865 106.305 44.1103 106.5 44.1103C107.736 44.1103 108.737 43.1623 108.737 41.9929C108.737 40.8236 107.736 39.8756 106.5 39.8756C106.372 39.8756 106.246 39.8859 106.123 39.9056C107.084 40.1429 107.794 40.9703 107.794 41.9545C107.794 43.0021 106.99 43.8721 105.934 44.0418Z" fill="#FED402" fill-opacity="0.5"/>
</g>
<path d="M92.3492 24.2527L93.6983 18.4039C94.1001 16.6624 92.7774 15 90.9902 15C89.203 15 87.8804 16.6624 88.2821 18.4039L89.6312 24.2527L90.2898 27.2403L91.8976 27.1358L92.3492 24.2527Z" fill="#FFE591"/>
<path d="M93.7277 28.3492L99.5765 29.6982C101.318 30.1 102.98 28.7773 102.98 26.9901C102.98 25.2029 101.318 23.8803 99.5765 24.2819L93.7277 25.631L90.8785 26.2164V27.5623L93.7277 28.3492Z" fill="#FFE591"/>
<path d="M88.2527 28.3492L82.4039 29.6983C80.6624 30.1001 79 28.7774 79 26.9902C79 25.203 80.6624 23.8804 82.4039 24.282L88.2527 25.6311L90.1685 26.0939L90.5339 27.8274L88.2527 28.3492Z" fill="#FFE591"/>
<path d="M89.3483 23.0262L86.8337 19.0038C85.8863 17.4883 83.7756 17.248 82.5118 18.5117C81.2481 19.7755 81.4884 21.8862 83.0038 22.8336L87.0263 25.3483L89.8719 27.2403L90.9903 26.0724L89.3483 23.0262Z" fill="#FFE591"/>
<path d="M94.9541 25.3483L98.9766 22.8337C100.492 21.8863 100.732 19.7756 99.4686 18.5118C98.2049 17.2481 96.0941 17.4884 95.1468 19.0038L92.6322 23.0263L90.534 26.3949L91.5951 27.8762L94.9541 25.3483Z" fill="#FFE591"/>
<path d="M94.9541 28.6321L98.9766 31.1467C100.492 32.094 100.732 34.2048 99.4686 35.4685C98.2049 36.7322 96.0941 36.4919 95.1468 34.9765L92.6322 30.954L90.6577 28.2794L92.2653 26.7966L94.9541 28.6321Z" fill="#FFE591"/>
<path d="M89.3483 30.9541L86.8337 34.9766C85.8863 36.492 83.7756 36.7323 82.5118 35.4686C81.2481 34.2049 81.4884 32.0941 83.0038 31.1468L87.0263 28.6322L90.5339 26.4899L91.4336 27.2449L89.3483 30.9541Z" fill="#FFE591"/>
<path d="M92.53 29.8949L93.8576 35.6504C94.2529 37.364 92.9513 39 91.1926 39C89.434 39 88.1325 37.364 88.5277 35.6504L89.8553 29.8949L90.3658 26.7761L91.6604 26.6347L92.53 29.8949Z" fill="#FFE591"/>
<path d="M90.9906 29.8137C92.5497 29.8137 93.8137 28.5498 93.8137 26.9906C93.8137 25.4314 92.5497 24.1675 90.9906 24.1675C89.4314 24.1675 88.1674 25.4314 88.1674 26.9906C88.1674 28.5498 89.4314 29.8137 90.9906 29.8137Z" fill="#FFD500"/>
<g style="mix-blend-mode:multiply">
<path fill-rule="evenodd" clip-rule="evenodd" d="M90.2758 29.7224C90.5041 29.782 90.7436 29.8137 90.9906 29.8137C92.5497 29.8137 93.8137 28.5498 93.8137 26.9906C93.8137 25.4314 92.5497 24.1675 90.9906 24.1675C90.8283 24.1675 90.6693 24.1812 90.5145 24.2074C91.7276 24.5239 92.6229 25.6271 92.6229 26.9393C92.6229 28.3362 91.6083 29.4962 90.2758 29.7224Z" fill="#FED402" fill-opacity="0.5"/>
</g>
</svg>
