<svg width="140" height="156" viewBox="0 0 140 156" fill="none" xmlns="http://www.w3.org/2000/svg">
<rect width="140" height="156" rx="4" fill="#FFD4CE"/>
<path fill-rule="evenodd" clip-rule="evenodd" d="M54.931 50.0394C47.7368 42.7264 39.9799 35.6243 37.4023 36.0967C34.2901 36.6671 30.8932 51.3291 28.6567 63.0814C20.7219 70.3087 15.9319 79.6832 15.9319 89.9269C15.9319 112.787 39.7862 131.318 69.212 131.318C98.6378 131.318 122.492 112.787 122.492 89.9269C122.492 79.5631 117.589 70.089 109.487 62.828C107.25 51.1195 103.88 36.663 100.79 36.0967C98.2168 35.6252 90.4841 42.6998 83.3014 49.9983C78.8135 49.0448 74.0893 48.5357 69.212 48.5357C64.2653 48.5357 59.4759 49.0594 54.931 50.0394Z" fill="white"/>
<g style="mix-blend-mode:multiply">
<path fill-rule="evenodd" clip-rule="evenodd" d="M38.5 107C58.6584 107 75 90.6584 75 70.5C75 62.2619 72.2708 54.6612 67.6671 48.5528C63.2674 48.6501 59.0012 49.1618 54.931 50.0394C47.7368 42.7264 39.9799 35.6243 37.4023 36.0967C34.2901 36.6671 30.8932 51.3291 28.6567 63.0814C20.7219 70.3088 15.9319 79.6833 15.9319 89.9269C15.9319 93.5754 16.5395 97.1137 17.6805 100.484C23.5855 104.592 30.7615 107 38.5 107Z" fill="#D4D4D4"/>
</g>
<path d="M115.684 94.2463C122.01 91.9837 123.107 91.6051 129.881 90.3976" stroke="#333333" stroke-width="1.76133" stroke-linecap="round" stroke-linejoin="round"/>
<path d="M114.68 107.015C121.263 108.752 124.006 109.913 130.875 110.546" stroke="#333333" stroke-width="1.76133" stroke-linecap="round" stroke-linejoin="round"/>
<path d="M115.48 100.826C121.531 101.183 123.541 100.469 129.583 99.7121" stroke="#333333" stroke-width="1.76133" stroke-linecap="round" stroke-linejoin="round"/>
<path d="M22.3165 94.2463C15.99 91.9837 14.8935 91.6051 8.11904 90.3976" stroke="#333333" stroke-width="1.76133" stroke-linecap="round" stroke-linejoin="round"/>
<path d="M23.32 107.015C16.7369 108.752 13.9939 109.913 7.1248 110.546" stroke="#333333" stroke-width="1.76133" stroke-linecap="round" stroke-linejoin="round"/>
<path d="M22.5197 100.826C16.469 101.183 14.4593 100.469 8.417 99.7121" stroke="#333333" stroke-width="1.76133" stroke-linecap="round" stroke-linejoin="round"/>
<circle cx="46.6903" cy="84.6903" r="10.6903" fill="white"/>
<circle cx="46.5" cy="84.5" r="8.5" fill="#333333"/>
<circle cx="42.5" cy="80.5" r="1.5" fill="white"/>
<circle cx="45.5" cy="84.5" r="2.5" fill="white"/>
<circle cx="93.6903" cy="84.6903" r="10.6903" fill="white"/>
<circle cx="93.5" cy="84.5" r="8.5" fill="#333333"/>
<circle cx="89.5" cy="80.5" r="1.5" fill="white"/>
<circle cx="92.5" cy="84.5" r="2.5" fill="white"/>
<path d="M69.6035 95.0151V101.18C69.6035 103.125 68.0263 104.702 66.0808 104.702H64.98C63.6425 104.702 62.5582 103.618 62.5582 102.281V102.281" stroke="#323232" stroke-width="1.32099" stroke-linecap="round" stroke-linejoin="round"/>
<path d="M69.6035 95.0151V101.18C69.6035 103.125 71.1806 104.702 73.1261 104.702H74.227C75.5645 104.702 76.6488 103.618 76.6488 102.281V102.281" stroke="#323232" stroke-width="1.32099" stroke-linecap="round" stroke-linejoin="round"/>
<path d="M74.0068 96.3361C74.0068 98.0384 72.0353 99.4185 69.6035 99.4185C67.1716 99.4185 65.2001 98.0384 65.2001 96.3361C65.2001 94.6338 67.1716 92.8135 69.6035 92.8135C72.0353 92.8135 74.0068 94.6338 74.0068 96.3361Z" fill="#323232"/>
<path d="M32.9868 59.5758C34.287 53.1415 35.5457 48.8142 38.1521 42.159C38.3509 41.6513 38.9626 41.4463 39.4254 41.7344C44.4748 44.8776 47.2523 47.2855 51.082 51.4084C51.5256 51.8859 51.3064 52.6621 50.6805 52.8438C44.0554 54.767 39.9388 56.0465 34.46 60.4423C33.8055 60.9674 32.8206 60.3983 32.9868 59.5758Z" fill="#AAAAAA"/>
<path d="M104.319 58.9496C103.655 52.3536 103.024 48.432 100.284 41.682C100.08 41.1791 99.4689 40.9834 99.011 41.2747C94.4331 44.1866 91.8201 46.3483 87.5328 50.3567C87.0353 50.8219 87.234 51.6521 87.8866 51.8468C94.3907 53.7877 97.4689 55.1688 102.845 59.7092C103.456 60.2249 104.399 59.7448 104.319 58.9496Z" fill="#AAAAAA"/>
<ellipse cx="42" cy="100" rx="6" ry="2" fill="#FFC7C3"/>
<ellipse cx="98" cy="100" rx="6" ry="2" fill="#FFC7C3"/>
<path d="M88.7974 49.4472C88.8932 49.3328 88.9846 49.2129 89.0712 49.0876C90.5503 46.9455 90.0469 44.0335 87.9469 42.5833C85.8468 41.1332 82.9453 41.6942 81.4662 43.8363C81.3226 44.0442 81.1976 44.2594 81.0911 44.4799C80.3604 42.8285 78.7304 41.682 76.846 41.6912C74.2969 41.7037 72.2477 43.8264 72.269 46.4325C72.2804 47.8218 72.8779 49.068 73.8196 49.927C73.633 49.9715 73.4469 50.0277 73.2623 50.0959C70.8177 50.9993 69.5586 53.6676 70.4501 56.0558C71.3415 58.444 74.0459 59.6477 76.4904 58.7444C76.6224 58.6956 76.7509 58.6417 76.8758 58.583C76.8651 58.7206 76.8602 58.8599 76.8614 59.0005C76.8827 61.6066 78.9664 63.7091 81.5156 63.6966C84.0647 63.6842 86.1139 61.5614 86.0925 58.9553C86.0906 58.7239 86.0725 58.4964 86.0392 58.2741C87.0953 58.6967 88.3148 58.7429 89.4757 58.3139C91.9203 57.4106 93.1794 54.7423 92.2879 52.3541C91.7056 50.7938 90.3494 49.7391 88.7974 49.4472Z" fill="#FFA787"/>
<g style="mix-blend-mode:multiply">
<circle cx="81.2914" cy="51.6056" r="2.83182" transform="rotate(34.6255 81.2914 51.6056)" fill="#FFA787" fill-opacity="0.5"/>
</g>
</svg>
