<svg width="140" height="156" viewBox="0 0 140 156" fill="none" xmlns="http://www.w3.org/2000/svg">
<rect width="140" height="156" rx="4" fill="#8ED2C9"/>
<path fill-rule="evenodd" clip-rule="evenodd" d="M54.931 50.0394C47.7368 42.7264 39.98 35.6243 37.4023 36.0967C34.2901 36.6671 30.8932 51.3291 28.6567 63.0814C20.7219 70.3087 15.9319 79.6832 15.9319 89.9269C15.9319 112.787 39.7862 131.318 69.212 131.318C98.6379 131.318 122.492 112.787 122.492 89.9269C122.492 79.5631 117.589 70.089 109.487 62.828C107.25 51.1195 103.88 36.663 100.79 36.0967C98.2169 35.6252 90.4842 42.6998 83.3014 49.9983C78.8135 49.0448 74.0893 48.5357 69.212 48.5357C64.2653 48.5357 59.476 49.0594 54.931 50.0394Z" fill="#CCCCCC"/>
<g style="mix-blend-mode:multiply">
<path fill-rule="evenodd" clip-rule="evenodd" d="M54.9397 50.0375C52.7937 55.9182 51.1247 62.911 54.8034 63.9621C59.6706 65.3527 61.4173 60.2423 61.9886 57.5782C61.6207 60.7112 61.6659 67.575 69.212 67.2156C76.0195 66.8915 76.4966 61.5934 76.1621 58.4171C76.9154 61.2818 78.8585 65.5495 83.6207 63.9621C87.5533 62.6512 85.7184 55.7207 83.3713 49.9273C83.348 49.951 83.3247 49.9747 83.3014 49.9984C78.8135 49.0448 74.0893 48.5357 69.212 48.5357C64.2685 48.5357 59.4821 49.0588 54.9397 50.0375Z" fill="#C4C4C4" fill-opacity="0.6"/>
</g>
<path d="M118.684 94.2463C125.01 91.9837 126.106 91.6051 132.881 90.3976" stroke="#333333" stroke-width="1.76133" stroke-linecap="round" stroke-linejoin="round"/>
<path d="M117.68 107.015C124.263 108.752 127.006 109.913 133.875 110.546" stroke="#333333" stroke-width="1.76133" stroke-linecap="round" stroke-linejoin="round"/>
<path d="M118.48 100.826C124.531 101.183 126.541 100.469 132.583 99.7121" stroke="#333333" stroke-width="1.76133" stroke-linecap="round" stroke-linejoin="round"/>
<path d="M21.3164 94.2463C14.9899 91.9837 13.8935 91.6051 7.11901 90.3976" stroke="#333333" stroke-width="1.76133" stroke-linecap="round" stroke-linejoin="round"/>
<path d="M22.32 107.015C15.7369 108.752 12.9939 109.913 6.1248 110.546" stroke="#333333" stroke-width="1.76133" stroke-linecap="round" stroke-linejoin="round"/>
<path d="M21.5198 100.826C15.469 101.183 13.4593 100.469 7.41703 99.7121" stroke="#333333" stroke-width="1.76133" stroke-linecap="round" stroke-linejoin="round"/>
<circle cx="46.4371" cy="85.1697" r="10.6903" fill="white"/>
<mask id="mask0_36_464" style="mask-type:alpha" maskUnits="userSpaceOnUse" x="35" y="74" width="23" height="22">
<circle cx="46.4371" cy="85.1697" r="10.6903" fill="white"/>
</mask>
<g mask="url(#mask0_36_464)">
<circle cx="48.2963" cy="82.381" r="9.76068" fill="#333333"/>
</g>
<circle cx="49.813" cy="79.2497" r="1.98149" fill="white"/>
<circle cx="10.6903" cy="10.6903" r="10.6903" transform="matrix(-1 0 0 1 104.536 74.4794)" fill="white"/>
<mask id="mask1_36_464" style="mask-type:alpha" maskUnits="userSpaceOnUse" x="83" y="74" width="22" height="22">
<circle cx="10.6903" cy="10.6903" r="10.6903" transform="matrix(-1 0 0 1 104.536 74.4794)" fill="white"/>
</mask>
<g mask="url(#mask1_36_464)">
<circle cx="9.76068" cy="9.76068" r="9.76068" transform="matrix(-1 0 0 1 101.748 72.6203)" fill="#333333"/>
</g>
<circle cx="1.98149" cy="1.98149" r="1.98149" transform="matrix(-1 0 0 1 92.4518 77.2682)" fill="white"/>
<ellipse cx="69.5" cy="101.5" rx="18.5" ry="13.5" fill="white" fill-opacity="0.25"/>
<path d="M74.0068 96.3361C74.0068 98.0384 72.0353 99.4185 69.6035 99.4185C67.1716 99.4185 65.2001 98.0384 65.2001 96.3361C65.2001 94.6338 67.1716 92.8135 69.6035 92.8135C72.0353 92.8135 74.0068 94.6338 74.0068 96.3361Z" fill="#333333"/>
<path d="M69.6035 95.0151V101.18C69.6035 103.125 68.0263 104.702 66.0808 104.702H64.98C63.6425 104.702 62.5582 103.618 62.5582 102.281V102.281" stroke="#323232" stroke-width="1.32099" stroke-linecap="round" stroke-linejoin="round"/>
<path d="M69.6035 95.0151V101.18C69.6035 103.125 71.1806 104.702 73.1261 104.702H74.2269C75.5645 104.702 76.6488 103.618 76.6488 102.281V102.281" stroke="#323232" stroke-width="1.32099" stroke-linecap="round" stroke-linejoin="round"/>
<path d="M32.9868 59.5758C34.2869 53.1415 35.5457 48.8142 38.152 42.159C38.3508 41.6513 38.9625 41.4463 39.4254 41.7344C44.4748 44.8776 47.2523 47.2855 51.082 51.4084C51.5255 51.8859 51.3064 52.6621 50.6805 52.8438C44.0554 54.767 39.9387 56.0465 34.46 60.4423C33.8055 60.9674 32.8206 60.3983 32.9868 59.5758Z" fill="#B0B0B0"/>
<path d="M104.319 58.9496C103.655 52.3536 103.024 48.432 100.284 41.682C100.08 41.1791 99.4689 40.9834 99.011 41.2747C94.4331 44.1866 91.8201 46.3483 87.5328 50.3567C87.0353 50.8219 87.234 51.6521 87.8866 51.8468C94.3907 53.7877 97.4689 55.1688 102.845 59.7092C103.456 60.2249 104.399 59.7448 104.319 58.9496Z" fill="#B0B0B0"/>
<circle cx="1.82108" cy="1.82108" r="1.82108" transform="matrix(-0.993492 0.113903 0.113903 0.993492 84.365 34.2369)" fill="#FFC547"/>
<circle cx="1.82108" cy="1.82108" r="1.82108" transform="matrix(-0.993492 0.113903 0.113903 0.993492 73.5845 28.1408)" fill="#FFC547"/>
<circle cx="1.82108" cy="1.82108" r="1.82108" transform="matrix(-0.993492 0.113903 0.113903 0.993492 60.7567 30.8336)" fill="#FFC547"/>
<path d="M82.6645 40.9443L80.2448 52.6171C80.1301 53.1701 79.5431 53.4852 79.0157 53.2835C72.3485 50.7346 67.7755 49.823 60.5975 50.6923C60.0412 50.7596 59.5461 50.3235 59.5572 49.7633L59.8045 37.1836C59.8207 36.362 60.831 35.9805 61.3862 36.5863L65.4389 41.009C65.8636 41.4724 66.619 41.3764 66.9142 40.8214L70.5478 33.9899C70.9297 33.2719 71.9898 33.3767 72.2237 34.1556L74.7168 42.457C74.8852 43.018 75.5319 43.2763 76.0405 42.9858L81.3213 39.9689C82.0023 39.5799 82.8237 40.1764 82.6645 40.9443Z" fill="#FFC547"/>
<ellipse cx="42" cy="108" rx="6" ry="2" fill="#FFA787"/>
<ellipse cx="98" cy="108" rx="6" ry="2" fill="#FFA787"/>
<circle cx="41.7892" cy="83.3105" r="19.9862" stroke="#323232" stroke-width="1.85918"/>
<circle cx="97.5645" cy="83.3105" r="19.9862" stroke="#323232" stroke-width="1.85918"/>
<path d="M61.7753 81.7739C67.7276 80.7146 71.2207 80.7337 77.5783 81.7739V85.6345C71.5072 84.669 68.0455 84.6554 61.7753 85.6345V81.7739Z" fill="#242424"/>
</svg>
