<svg width="140" height="156" viewBox="0 0 140 156" fill="none" xmlns="http://www.w3.org/2000/svg">
<rect width="140" height="156" rx="4" fill="#FFF4D0"/>
<circle cx="32.9615" cy="34.9615" r="25.9615" fill="#C4C4C4"/>
<circle cx="31.6301" cy="34.9306" r="17.9733" fill="#FFDED0"/>
<circle cx="25.9615" cy="25.9615" r="25.9615" transform="matrix(-1 0 0 1 133.923 9)" fill="#C4C4C4"/>
<circle cx="17.9733" cy="17.9733" r="17.9733" transform="matrix(-1 0 0 1 127.266 16.9573)" fill="#FFDED0"/>
<path fill-rule="evenodd" clip-rule="evenodd" d="M68.9443 135.572C68.9463 135.596 68.9482 135.62 68.9501 135.644C68.9508 135.62 68.9516 135.596 68.9525 135.572H68.9443ZM111.879 118.519C112.124 118.501 112.37 118.492 112.619 118.492C118.012 118.492 122.384 122.864 122.384 128.257V129.095C122.384 134.488 118.012 138.86 112.619 138.86C110.198 138.86 107.983 137.979 106.276 136.52C106.175 141.825 101.843 146.096 96.5128 146.096C92.2947 146.096 88.7013 143.421 87.3357 139.676C86.4298 143.863 82.7042 147 78.2458 147C73.2057 147 69.102 142.991 68.9501 137.987C68.5659 143.029 64.3535 147 59.2135 147C54.4903 147 50.5502 143.647 49.6443 139.191C48.3129 142.698 44.9209 145.191 40.9466 145.191C35.8103 145.191 31.6465 141.027 31.6465 135.891V135.704C29.8618 137.644 27.3016 138.86 24.4574 138.86C19.0643 138.86 14.6923 134.488 14.6923 129.095V128.257C14.6923 122.864 19.0643 118.492 24.4574 118.492C24.6956 118.492 24.9318 118.5 25.1657 118.517C31.0792 108.233 42.1764 101.307 54.891 101.307H82.1527C94.8683 101.307 105.966 108.234 111.879 118.519Z" fill="#D5DE72"/>
<path fill-rule="evenodd" clip-rule="evenodd" d="M122.007 89.0514C119.874 86.4731 118.538 83.2694 118.538 79.9232V79.9232C118.538 51.9053 96.7983 29.1923 69.9806 29.1923C43.163 29.1923 21.423 51.9053 21.423 79.9232V79.9232C21.423 83.2694 20.0869 86.4731 17.9539 89.0514C14.6251 93.0753 12.7692 97.552 12.7692 102.269C12.7692 119.793 38.3836 134 69.9806 134C101.578 134 127.192 119.793 127.192 102.269C127.192 97.552 125.336 93.0753 122.007 89.0514Z" fill="#C4C4C4"/>
<path fill-rule="evenodd" clip-rule="evenodd" d="M119.698 85.3191C120.282 86.6571 121.067 87.915 122.007 89.0514C125.336 93.0753 127.192 97.552 127.192 102.269C127.192 119.793 101.578 134 69.9806 134C38.3836 134 12.7692 119.793 12.7692 102.269C12.7692 97.552 14.6251 93.0753 17.9539 89.0514C18.894 87.915 19.6793 86.6571 20.2637 85.3191C22.9096 84.4616 25.7208 83.9999 28.6346 83.9999C36.7856 83.9999 44.1336 87.6127 49.3076 93.3977C54.4816 87.6127 61.8296 83.9998 69.9806 83.9998C78.1317 83.9998 85.4797 87.6127 90.6537 93.3977C95.8276 87.6127 103.176 83.9998 111.327 83.9998C114.24 83.9998 117.052 84.4615 119.698 85.3191Z" fill="#EBEBEB"/>
<rect x="69.5662" y="86.1956" width="1.92307" height="11.5384" rx="0.961536" fill="#433D3C"/>
<ellipse cx="70.5732" cy="85.8046" rx="7.13278" ry="4.68937" fill="#433D3C"/>
<circle cx="66.8949" cy="84.289" r="1.4423" fill="white"/>
<path d="M62.7691 94.7207C66.4128 98.1193 74.51 98.1193 78.1537 94.7207" stroke="#433D3C" stroke-width="1.92307" stroke-linecap="round"/>
<ellipse cx="6.42867" cy="8.03584" rx="6.42867" ry="8.03584" transform="matrix(-1 0 0 1 54.4727 67.6537)" fill="#433D3C"/>
<ellipse cx="2.41075" cy="2.81254" rx="2.41075" ry="2.81254" transform="matrix(-1 0 0 1 52.0619 70.0645)" fill="white"/>
<circle cx="1.20538" cy="1.20538" r="1.20538" transform="matrix(-1 0 0 1 47.2404 75.6896)" fill="white"/>
<ellipse cx="6.42867" cy="8.03584" rx="6.42867" ry="8.03584" transform="matrix(-1 0 0 1 99.8031 67.6537)" fill="#433D3C"/>
<ellipse cx="2.41075" cy="2.81254" rx="2.41075" ry="2.81254" transform="matrix(-1 0 0 1 97.3924 70.0645)" fill="white"/>
<circle cx="1.20538" cy="1.20538" r="1.20538" transform="matrix(-1 0 0 1 92.5709 75.6896)" fill="white"/>
<circle cx="31" cy="101" r="11" fill="#FFDED0"/>
<circle cx="109" cy="101" r="11" fill="#FFDED0"/>
<path d="M91.6152 87.3238C98.2846 86.9139 102.068 86.8097 108.923 86.9332" stroke="#343434" stroke-width="1.5" stroke-linecap="round" stroke-linejoin="round"/>
<path d="M108.849 98.4229C102.313 97.2514 98.5845 96.7139 91.7754 96.0493" stroke="#343434" stroke-width="1.5" stroke-linecap="round" stroke-linejoin="round"/>
<path d="M91.5558 91.9295C98.141 91.7842 101.363 92.0583 107.949 92.4421" stroke="#343434" stroke-width="1.5" stroke-linecap="round" stroke-linejoin="round"/>
<path d="M50.2691 87.3238C43.5998 86.9139 39.8164 86.8097 32.9615 86.9332" stroke="#343434" stroke-width="1.5" stroke-linecap="round" stroke-linejoin="round"/>
<path d="M33.0356 98.4229C39.5709 97.2514 43.2999 96.7139 50.1089 96.0493" stroke="#343434" stroke-width="1.5" stroke-linecap="round" stroke-linejoin="round"/>
<path d="M50.3286 91.9295C43.7434 91.7842 40.5213 92.0583 33.935 92.4421" stroke="#343434" stroke-width="1.5" stroke-linecap="round" stroke-linejoin="round"/>
<path d="M52.1808 29.4505C51.8919 29.8204 51.5093 30.1252 51.0716 30.3343L49.935 30.877C49.4972 31.0861 49.0197 31.192 48.5504 31.1842L37.0164 30.9926C34.8551 30.9567 33.2603 33.1755 34.2168 34.8506C36.8259 39.4196 38.6023 43.1571 40.5173 48.0586C41.2185 49.8534 43.9426 50.0056 45.2719 48.3038L52.6576 38.8485C52.9465 38.4786 53.3291 38.1738 53.7669 37.9647L54.1753 37.7697C54.613 37.5607 55.0905 37.4547 55.5598 37.4625L67.6148 37.6628C69.7623 37.6985 71.355 35.5058 70.4171 33.8347C67.8246 29.2155 66.0199 25.4739 64.0608 20.5555C63.3501 18.7712 60.6354 18.6268 59.3103 20.3232L52.1808 29.4505Z" fill="#FF8A70"/>
</svg>
