<svg width="140" height="156" viewBox="0 0 140 156" fill="none" xmlns="http://www.w3.org/2000/svg">
<g clip-path="url(#clip0_106_783)">
<path d="M34.3721 64.9804C29.63 59.8237 24.8892 55.413 23.2575 49.5963C19.3072 35.5153 26.6835 20.4129 26.9447 19.8305L27.9089 17.6624C28.191 17.0282 28.9768 16.8049 29.5502 17.196L31.4859 18.516C32.3284 19.0905 59.2095 33.2458 49.3788 54.3922L34.3721 64.9804Z" fill="#B9997B"/>
<path d="M36.6658 62.5615C33.1753 58.7658 29.6857 55.5192 28.4847 51.2377C25.5769 40.873 31.0064 29.7565 31.1987 29.3278L31.7656 28.0531C32.0477 27.4189 32.8335 27.1956 33.4069 27.5866L34.5413 28.3602C35.1615 28.7831 54.948 39.2025 47.7119 54.7678L36.6658 62.5615Z" fill="#FDF5CF"/>
<path d="M105.628 64.9804C110.37 59.8237 115.111 55.413 116.742 49.5963C120.693 35.5153 113.317 20.4129 113.055 19.8305L112.091 17.6624C111.809 17.0282 111.023 16.8049 110.45 17.196L108.514 18.516C107.672 19.0905 80.7905 33.2458 90.6212 54.3922L105.628 64.9804Z" fill="#B9997B"/>
<path d="M103.334 62.5615C106.825 58.7658 110.314 55.5192 111.515 51.2377C114.423 40.873 108.993 29.7565 108.801 29.3278L108.234 28.0531C107.952 27.4189 107.166 27.1956 106.593 27.5866L105.459 28.3602C104.838 28.7831 85.0519 39.2025 92.288 54.7678L103.334 62.5615Z" fill="#FDF5CF"/>
<path fill-rule="evenodd" clip-rule="evenodd" d="M76.129 23.2002C78.5769 24.0911 79.839 26.7977 78.948 29.2456L75.399 38.9964C74.6357 41.0936 72.5397 42.3204 70.4155 42.0686C70.067 42.322 69.6776 42.5315 69.2525 42.6862C66.8047 43.5772 64.0981 42.3151 63.2071 39.8672L59.6581 30.1164C58.7672 27.6685 60.0293 24.9619 62.4771 24.071C64.9249 23.1801 67.6316 24.4422 68.5225 26.89L69.1446 28.5992L70.0836 26.0192C70.9746 23.5714 73.6812 22.3092 76.129 23.2002Z" fill="#B9997B"/>
<path fill-rule="evenodd" clip-rule="evenodd" d="M107.185 61.9755C107.231 62.3347 107.443 62.6536 107.757 62.8339C118.006 68.7175 124.909 79.7705 124.909 92.4358C124.909 111.274 109.637 126.545 90.7995 126.545H51.1378C32.2999 126.545 17.0287 111.274 17.0287 92.4358C17.0287 79.7705 23.9317 68.7175 34.1805 62.8339C34.4945 62.6536 34.7066 62.3347 34.7527 61.9755C36.8547 45.5989 50.8473 32.9432 67.7957 32.9432H74.1416C91.09 32.9432 105.083 45.5989 107.185 61.9755Z" fill="#B9997B"/>
<path fill-rule="evenodd" clip-rule="evenodd" d="M122.804 104.259C117.996 117.269 105.481 126.545 90.7995 126.545H51.1378C36.4564 126.545 23.9415 117.269 19.1335 104.259C23.9415 91.2482 36.4564 81.9726 51.1378 81.9726H90.7995C105.481 81.9726 117.996 91.2482 122.804 104.259Z" fill="#FDF5CF"/>
<ellipse cx="46.0007" cy="70.2725" rx="6.68583" ry="8.35729" fill="#433D3C"/>
<ellipse cx="44.3292" cy="67.3474" rx="2.50719" ry="2.92505" fill="white"/>
<circle cx="48.09" cy="71.526" r="1.25359" fill="white"/>
<ellipse cx="6.68583" cy="8.35729" rx="6.68583" ry="8.35729" transform="matrix(-1 0 0 1 102.83 61.9152)" fill="#433D3C"/>
<ellipse cx="2.50719" cy="2.92505" rx="2.50719" ry="2.92505" transform="matrix(-1 0 0 1 100.323 64.4223)" fill="white"/>
<circle cx="1.25359" cy="1.25359" r="1.25359" transform="matrix(-1 0 0 1 95.3087 70.2724)" fill="white"/>
<path d="M80.7245 82.4025C80.7245 79.5697 76.6709 77.7422 71.6707 77.7422C66.6704 77.7422 62.6169 79.5697 62.6169 82.4025C62.6169 85.2354 66.6704 88.6922 71.6707 88.6922C76.6709 88.6922 80.7245 85.2354 80.7245 82.4025Z" fill="#433D3C"/>
<circle cx="75.8247" cy="82.3012" r="1.27818" fill="white"/>
<path d="M71.6297 81.3672V90.7896C71.6297 93.8667 74.1242 96.3612 77.2013 96.3612H77.9797C80.6269 96.3612 82.7728 94.2152 82.7728 91.568V91.568" stroke="#433D3C" stroke-width="2.34332" stroke-linecap="round" stroke-linejoin="round"/>
<path d="M71.6297 81.3672V90.7896C71.6297 93.8667 69.1353 96.3612 66.0582 96.3612H65.2798C62.6326 96.3612 60.4866 94.2152 60.4866 91.568V91.568" stroke="#433D3C" stroke-width="2.34332" stroke-linecap="round" stroke-linejoin="round"/>
<ellipse cx="38.2006" cy="94.6757" rx="6.68583" ry="4.90294" fill="#FFCEB9"/>
<ellipse cx="103.945" cy="94.6757" rx="6.68583" ry="4.90294" fill="#FFCEB9"/>
<path d="M50.6901 37.1027L51.8715 31.9808C52.2234 30.4558 51.065 29 49.5 29C47.9349 29 46.7767 30.4558 47.1285 31.9808L48.3099 37.1027L48.8867 39.719L50.2946 39.6275L50.6901 37.1027Z" fill="#FFE591"/>
<path d="M51.8973 40.6901L57.0192 41.8715C58.5442 42.2233 60 41.065 60 39.4999C60 37.9348 58.5442 36.7766 57.0192 37.1283L51.8973 38.3097L49.4022 38.8223V40.001L51.8973 40.6901Z" fill="#FFE591"/>
<path d="M47.1027 40.6901L41.9808 41.8715C40.4558 42.2234 39 41.065 39 39.5C39 37.9349 40.4558 36.7766 41.9808 37.1284L47.1027 38.3098L48.7804 38.7151L49.1004 40.2331L47.1027 40.6901Z" fill="#FFE591"/>
<path d="M48.0621 36.0287L45.8601 32.5061C45.0305 31.179 43.182 30.9686 42.0754 32.0753C40.9687 33.1819 41.1791 35.0304 42.5062 35.86L46.0288 38.0621L48.5207 39.719L49.5 38.6963L48.0621 36.0287Z" fill="#FFE591"/>
<path d="M52.9712 38.0621L56.4938 35.8601C57.8209 35.0305 58.0313 33.182 56.9246 32.0754C55.818 30.9687 53.9696 31.1791 53.14 32.5062L50.9379 36.0288L49.1005 38.9787L50.0297 40.2758L52.9712 38.0621Z" fill="#FFE591"/>
<path d="M52.9712 40.9378L56.4938 43.1399C57.8209 43.9695 58.0313 45.8179 56.9246 46.9246C55.818 48.0312 53.9696 47.8208 53.14 46.4937L50.9379 42.9712L49.2088 40.629L50.6166 39.3304L52.9712 40.9378Z" fill="#FFE591"/>
<path d="M48.0621 42.9712L45.8601 46.4938C45.0305 47.8209 43.182 48.0313 42.0754 46.9246C40.9687 45.818 41.1791 43.9696 42.5062 43.14L46.0288 40.9379L49.1004 39.0619L49.8883 39.723L48.0621 42.9712Z" fill="#FFE591"/>
<path d="M50.8484 42.0436L52.011 47.0838C52.3572 48.5845 51.2174 50.0171 49.6773 50.0171C48.1372 50.0171 46.9974 48.5845 47.3435 47.0838L48.5061 42.0436L48.9532 39.3125L50.0869 39.1886L50.8484 42.0436Z" fill="#FFE591"/>
<path d="M49.5003 41.9726C50.8657 41.9726 51.9726 40.8658 51.9726 39.5004C51.9726 38.135 50.8657 37.0281 49.5003 37.0281C48.1349 37.0281 47.0281 38.135 47.0281 39.5004C47.0281 40.8658 48.1349 41.9726 49.5003 41.9726Z" fill="#FFD500"/>
<g style="mix-blend-mode:multiply">
<path fill-rule="evenodd" clip-rule="evenodd" d="M48.8744 41.8927C49.0743 41.9448 49.2841 41.9726 49.5003 41.9726C50.8657 41.9726 51.9725 40.8657 51.9725 39.5004C51.9725 38.135 50.8657 37.0281 49.5003 37.0281C49.3582 37.0281 49.2189 37.0401 49.0834 37.0631C50.1457 37.3403 50.9298 38.3063 50.9298 39.4555C50.9298 40.6787 50.0413 41.6945 48.8744 41.8927Z" fill="#FED402" fill-opacity="0.5"/>
</g>
<path d="M22.1669 98.1684C21.7016 97.3379 20.6966 96.9864 19.8007 97.3084L17.9512 97.973C16.6884 98.4268 16.2369 99.9634 16.9305 101.112C18.015 102.908 18.6015 104.529 18.9091 106.604C19.1061 107.934 20.434 108.835 21.6989 108.381L23.5528 107.714C24.4436 107.394 24.9953 106.492 24.8292 105.56C24.3178 102.689 23.5904 100.709 22.1669 98.1684Z" fill="#3F2B1F"/>
<path d="M41.9926 114.051C37.9168 107.173 29.3924 104.96 21.8684 107.676V107.676C14.22 110.436 9.01811 117.78 10.4296 125.791C11.9573 134.463 15.2305 144.588 22.2389 147.281C32.3933 151.182 41.6059 147.801 46.965 138.301C50.7074 131.668 46.5157 121.685 41.9926 114.051Z" fill="#9F784E"/>
<g style="mix-blend-mode:multiply">
<path fill-rule="evenodd" clip-rule="evenodd" d="M48.4103 132.412C48.3935 134.54 47.9593 136.539 46.965 138.301C41.606 147.801 32.3934 151.182 22.239 147.281C15.2305 144.588 11.9574 134.463 10.4296 125.791C9.92672 122.937 10.2634 120.167 11.2511 117.659C11.2461 118.462 11.3054 119.278 11.4335 120.102C12.794 128.851 15.8935 139.139 22.9489 141.85C33.1032 145.751 42.8834 142.221 48.2425 132.722C48.3003 132.619 48.3563 132.516 48.4103 132.412Z" fill="#9F784E" fill-opacity="0.6"/>
</g>
<path d="M6.89868 121.556C6.4439 116.206 11.9181 110.463 21.5898 106.987C28.9312 104.349 35.0501 103.733 39.2181 105.846C41.3753 106.721 43.2994 108.734 44.2718 111.439C45.8716 115.891 44.2894 120.535 40.7379 121.811C39.2171 122.358 37.5819 122.198 36.0834 121.488C35.38 122.989 34.2204 124.153 32.6996 124.7C31.4472 125.15 30.1172 125.121 28.8499 124.7C28.2265 126.64 26.9247 128.175 25.107 128.828C23.4408 129.427 21.6372 129.178 20.0265 128.286C19.3124 129.593 18.2284 130.6 16.8459 131.097C13.2944 132.373 9.11841 129.799 7.51863 125.347C7.06012 124.071 6.86298 122.779 6.89868 121.556Z" fill="#322318"/>
<path d="M6.12958 119.415C5.67479 114.066 11.1489 108.322 20.8207 104.847C28.1621 102.209 34.281 101.592 38.449 103.705C40.6062 104.581 42.5303 106.593 43.5027 109.299C45.1025 113.751 43.5203 118.395 39.9688 119.671C38.448 120.217 36.8128 120.058 35.3143 119.347C34.6109 120.849 33.4513 122.013 31.9305 122.559C30.6781 123.009 29.3481 122.981 28.0808 122.56C27.4574 124.5 26.1555 126.035 24.3379 126.688C22.6717 127.287 20.868 127.038 19.2574 126.145C18.5433 127.453 17.4593 128.46 16.0768 128.957C12.5253 130.233 8.34931 127.658 6.74952 123.206C6.29101 121.931 6.09387 120.639 6.12958 119.415Z" fill="#5E4030"/>
<path d="M52.5464 114.615C52.241 114.07 51.5815 113.839 50.9936 114.05L49.78 114.486C48.9513 114.784 48.655 115.792 49.1101 116.546C49.8218 117.725 50.2067 118.789 50.4085 120.15C50.5378 121.023 51.4092 121.614 52.2392 121.316L53.4558 120.879C54.0404 120.669 54.4024 120.076 54.2934 119.465C53.9578 117.581 53.4805 116.282 52.5464 114.615Z" fill="#3F2B1F"/>
<path d="M65.5563 125.037C62.8817 120.524 57.2879 119.071 52.3505 120.853V120.853C47.3314 122.664 43.9179 127.484 44.8441 132.741C45.8466 138.431 47.9945 145.076 52.5936 146.843C59.2571 149.403 65.3026 147.184 68.8193 140.95C71.2751 136.597 68.5245 130.046 65.5563 125.037Z" fill="#9F784E"/>
<g style="mix-blend-mode:multiply">
<path fill-rule="evenodd" clip-rule="evenodd" d="M69.7677 137.086C69.7567 138.482 69.4717 139.794 68.8193 140.95C65.3026 147.184 59.2571 149.403 52.5936 146.843C47.9945 145.076 45.8467 138.431 44.8441 132.741C44.5141 130.868 44.735 129.05 45.3832 127.405C45.3799 127.932 45.4188 128.467 45.5029 129.007C46.3957 134.749 48.4296 141.5 53.0595 143.279C59.7229 145.839 66.1409 143.523 69.6576 137.289C69.6956 137.222 69.7323 137.154 69.7677 137.086Z" fill="#9F784E" fill-opacity="0.6"/>
</g>
<path d="M42.5271 129.962C42.2286 126.451 45.8209 122.682 52.1677 120.402C56.9852 118.67 61.0005 118.266 63.7357 119.652C65.1512 120.227 66.4139 121.548 67.052 123.323C68.1018 126.245 67.0635 129.292 64.7329 130.129C63.735 130.488 62.6619 130.383 61.6786 129.917C61.217 130.902 60.456 131.666 59.4581 132.025C58.6363 132.32 57.7635 132.301 56.9318 132.025C56.5227 133.298 55.6685 134.306 54.4757 134.734C53.3823 135.127 52.1987 134.964 51.1418 134.378C50.6732 135.236 49.9618 135.897 49.0546 136.223C46.724 137.06 43.9837 135.371 42.9339 132.449C42.633 131.612 42.5036 130.765 42.5271 129.962Z" fill="#322318"/>
<path d="M42.0224 128.557C41.7239 125.047 45.3162 121.278 51.663 118.997C56.4805 117.266 60.4958 116.861 63.231 118.248C64.6465 118.822 65.9092 120.143 66.5473 121.919C67.5971 124.84 66.5588 127.887 64.2282 128.725C63.2303 129.083 62.1572 128.979 61.1739 128.512C60.7123 129.498 59.9513 130.262 58.9534 130.62C58.1316 130.916 57.2588 130.897 56.4271 130.62C56.018 131.894 55.1638 132.901 53.971 133.33C52.8776 133.723 51.694 133.559 50.6371 132.974C50.1685 133.831 49.4571 134.492 48.5499 134.818C46.2193 135.656 43.479 133.966 42.4292 131.045C42.1283 130.208 41.9989 129.36 42.0224 128.557Z" fill="#5E4030"/>
<path d="M103.502 113.552C120.304 132.982 123.551 144.587 127.119 172.321" stroke="#BBD468" stroke-width="1.84133" stroke-linecap="round"/>
<path d="M101.792 106.096C103.014 107.316 103.897 108.943 104.53 110.54C105.623 113.3 103.033 115.687 100.345 114.429C98.8298 113.721 97.2835 112.789 96.089 111.596C94.9342 110.443 94.0236 108.96 93.3225 107.495C92.0202 104.773 94.4776 102.162 97.2727 103.298C98.9078 103.963 100.567 104.872 101.792 106.096Z" fill="#BBD468"/>
<path d="M106.052 119.804C107.269 119.946 108.502 120.365 109.584 120.845C111.152 121.541 110.92 123.537 109.234 123.854C108.071 124.074 106.774 124.199 105.557 124.057C104.34 123.916 103.107 123.496 102.025 123.016C100.457 122.32 100.689 120.325 102.375 120.007C103.538 119.788 104.835 119.663 106.052 119.804Z" fill="#BBD468"/>
<path d="M113.497 117.969C113.33 119.183 112.886 120.408 112.383 121.48C111.655 123.033 109.665 122.76 109.382 121.068C109.187 119.9 109.089 118.601 109.255 117.387C109.422 116.174 109.866 114.949 110.369 113.877C111.097 112.324 113.087 112.597 113.37 114.289C113.565 115.457 113.663 116.755 113.497 117.969Z" fill="#BBD468"/>
<path d="M112.277 129.403C113.494 129.544 114.728 129.964 115.81 130.444C117.378 131.14 117.146 133.135 115.46 133.453C114.297 133.672 113 133.797 111.783 133.656C110.566 133.514 109.333 133.095 108.25 132.615C106.682 131.919 106.914 129.923 108.6 129.606C109.764 129.387 111.06 129.261 112.277 129.403Z" fill="#BBD468"/>
<path d="M120.64 128.882C120.187 130.02 119.461 131.101 118.716 132.021C117.636 133.354 115.769 132.611 115.902 130.9C115.993 129.72 116.21 128.435 116.663 127.297C117.116 126.159 117.842 125.077 118.588 124.157C119.668 122.825 121.534 123.568 121.402 125.278C121.311 126.459 121.094 127.743 120.64 128.882Z" fill="#BBD468"/>
<path d="M117.745 139.941C118.949 140.166 120.151 140.669 121.197 141.223C122.714 142.025 122.345 144 120.641 144.2C119.465 144.339 118.163 144.374 116.959 144.149C115.754 143.924 114.553 143.421 113.506 142.867C111.99 142.065 112.359 140.09 114.063 139.889C115.238 139.751 116.541 139.715 117.745 139.941Z" fill="#BBD468"/>
<path d="M125.248 140.036C124.636 141.097 123.762 142.063 122.892 142.867C121.632 144.03 119.892 143.027 120.268 141.353C120.528 140.198 120.927 138.958 121.539 137.897C122.151 136.835 123.025 135.869 123.895 135.066C125.155 133.902 126.895 134.906 126.519 136.579C126.259 137.735 125.86 138.975 125.248 140.036Z" fill="#BBD468"/>
<path d="M120.641 151.157C121.823 151.483 122.977 152.085 123.974 152.725C125.417 153.652 124.884 155.588 123.169 155.645C121.986 155.684 120.685 155.61 119.504 155.285C118.323 154.96 117.168 154.357 116.172 153.717C114.728 152.791 115.262 150.854 116.976 150.797C118.16 150.758 119.46 150.832 120.641 151.157Z" fill="#BBD468"/>
<path d="M129.103 152.492C128.37 153.474 127.388 154.33 126.429 155.024C125.04 156.031 123.431 154.829 124.003 153.211C124.397 152.095 124.94 150.911 125.673 149.929C126.407 148.948 127.388 148.092 128.347 147.397C129.736 146.39 131.345 147.593 130.774 149.21C130.379 150.326 129.836 151.511 129.103 152.492Z" fill="#BBD468"/>
<path d="M88.5018 123.552C105.304 142.982 108.551 154.587 112.118 182.321" stroke="#BBD468" stroke-width="1.84133" stroke-linecap="round"/>
<path d="M86.7919 116.096C88.0135 117.316 88.8973 118.943 89.5298 120.54C90.623 123.3 88.0333 125.687 85.3444 124.429C83.8297 123.721 82.2834 122.789 81.0889 121.596C79.9341 120.443 79.0235 118.96 78.3224 117.495C77.0201 114.773 79.4775 112.162 82.2726 113.298C83.9078 113.963 85.5672 114.872 86.7919 116.096Z" fill="#BBD468"/>
<path d="M91.0517 129.804C92.2687 129.946 93.502 130.365 94.5842 130.845C96.1521 131.541 95.9202 133.537 94.2344 133.854C93.071 134.074 91.7743 134.199 90.5573 134.057C89.3403 133.916 88.107 133.496 87.0248 133.016C85.4569 132.32 85.6889 130.325 87.3746 130.007C88.538 129.788 89.8347 129.663 91.0517 129.804Z" fill="#BBD468"/>
<path d="M98.4968 127.969C98.3303 129.183 97.8857 130.408 97.3833 131.48C96.6553 133.033 94.665 132.76 94.3822 131.068C94.1871 129.9 94.0886 128.601 94.2551 127.387C94.4216 126.174 94.8662 124.949 95.3686 123.877C96.0965 122.324 98.0868 122.597 98.3696 124.289C98.5648 125.457 98.6633 126.755 98.4968 127.969Z" fill="#BBD468"/>
<path d="M97.2772 139.403C98.4943 139.544 99.7276 139.964 100.81 140.444C102.378 141.14 102.146 143.135 100.46 143.453C99.2965 143.672 97.9999 143.797 96.7828 143.656C95.5658 143.514 94.3325 143.095 93.2504 142.615C91.6824 141.919 91.9144 139.923 93.6002 139.606C94.7636 139.387 96.0602 139.261 97.2772 139.403Z" fill="#BBD468"/>
<path d="M105.64 138.882C105.187 140.02 104.461 141.101 103.716 142.021C102.636 143.354 100.769 142.611 100.902 140.9C100.993 139.72 101.209 138.435 101.663 137.297C102.116 136.159 102.842 135.077 103.588 134.157C104.668 132.825 106.534 133.568 106.402 135.278C106.31 136.459 106.094 137.743 105.64 138.882Z" fill="#BBD468"/>
<path d="M102.745 149.941C103.949 150.166 105.151 150.669 106.197 151.223C107.714 152.025 107.345 154 105.641 154.2C104.465 154.339 103.163 154.374 101.959 154.149C100.754 153.924 99.5527 153.421 98.5063 152.867C96.99 152.065 97.359 150.09 99.0626 149.889C100.238 149.751 101.541 149.715 102.745 149.941Z" fill="#BBD468"/>
<path d="M110.248 150.036C109.636 151.097 108.762 152.063 107.892 152.867C106.632 154.03 104.892 153.027 105.268 151.353C105.528 150.198 105.927 148.958 106.539 147.897C107.151 146.835 108.025 145.869 108.895 145.066C110.155 143.902 111.895 144.906 111.519 146.579C111.259 147.735 110.86 148.975 110.248 150.036Z" fill="#BBD468"/>
<path d="M114.103 162.492C113.37 163.474 112.388 164.33 111.429 165.024C110.04 166.031 108.431 164.829 109.003 163.211C109.397 162.095 109.94 160.911 110.673 159.929C111.407 158.948 112.388 158.092 113.347 157.397C114.736 156.39 116.345 157.593 115.774 159.21C115.379 160.326 114.836 161.511 114.103 162.492Z" fill="#BBD468"/>
</g>
<defs>
<clipPath id="clip0_106_783">
<rect width="140" height="156" rx="4" fill="white"/>
</clipPath>
</defs>
</svg>
