<svg width="140" height="156" viewBox="0 0 140 156" fill="none" xmlns="http://www.w3.org/2000/svg">
<ellipse cx="15.6705" cy="9.26049" rx="15.6705" ry="9.26049" transform="matrix(0.864804 0.502109 0.509896 -0.860236 12.1187 47.2263)" fill="#FFDE73"/>
<ellipse cx="10.8288" cy="6.39925" rx="10.8288" ry="6.39925" transform="matrix(0.864804 0.502109 0.509896 -0.860236 17.7648 47.196)" fill="#FFC2A9"/>
<ellipse cx="15.6705" cy="9.26049" rx="15.6705" ry="9.26049" transform="matrix(-0.864804 0.502109 -0.509896 -0.860236 127.437 47.2263)" fill="#FFDE73"/>
<ellipse cx="10.8288" cy="6.39925" rx="10.8288" ry="6.39925" transform="matrix(-0.864804 0.502109 -0.509896 -0.860236 121.79 47.196)" fill="#FFC2A9"/>
<path d="M39 23H44L46 56H37L39 23Z" fill="#FFDE73"/>
<circle cx="41.5" cy="21.5" r="8.5" fill="#FFDE73"/>
<path d="M96 23H101L103 56H94L96 23Z" fill="#FFDE73"/>
<circle cx="98.5" cy="21.5" r="8.5" fill="#FFDE73"/>
<rect x="28" y="32" width="85" height="105" rx="42.5" fill="#FFDE73"/>
<path fill-rule="evenodd" clip-rule="evenodd" d="M71.9192 32.0233C82.9551 32.3854 92.9265 36.9549 100.281 44.1795C98.2969 50.4528 92.4295 55 85.5 55C76.9396 55 70 48.0604 70 39.5C70 36.7889 70.6961 34.2403 71.9192 32.0233Z" fill="#C37D2C"/>
<path fill-rule="evenodd" clip-rule="evenodd" d="M33.2828 53.9623C36.7003 47.7826 41.6122 42.5444 47.5309 38.7354C49.0716 40.5625 50 42.9228 50 45.5C50 51.299 45.299 56 39.5 56C37.1733 56 35.0233 55.2432 33.2828 53.9623Z" fill="#C37D2C"/>
<path fill-rule="evenodd" clip-rule="evenodd" d="M112.928 72.0004C112.976 72.8274 113 73.6609 113 74.5V86C113 86 113 86 113 86C109.134 86 106 82.866 106 79C106 75.1581 109.095 72.0391 112.928 72.0004Z" fill="#C37D2C"/>
<path fill-rule="evenodd" clip-rule="evenodd" d="M28.0723 96.9996C28.0243 96.1725 28 95.3391 28 94.5V83C31.866 83 35 86.134 35 90C35 93.8419 31.905 96.9609 28.0723 96.9996Z" fill="#C37D2C"/>
<ellipse cx="41" cy="85.4" rx="4" ry="2.4" fill="#ED653B" fill-opacity="0.6"/>
<ellipse cx="100" cy="85.4" rx="4" ry="2.4" fill="#ED653B" fill-opacity="0.6"/>
<circle cx="9" cy="9" r="9" transform="matrix(-1 0 0 1 56 64)" fill="#333333"/>
<circle cx="3" cy="3" r="3" transform="matrix(-1 0 0 1 53 67)" fill="white"/>
<circle cx="1.5" cy="1.5" r="1.5" transform="matrix(-1 0 0 1 47 74)" fill="white"/>
<circle cx="94" cy="73" r="9" fill="#333333"/>
<circle cx="91" cy="70" r="3" fill="white"/>
<circle cx="95.5" cy="75.5" r="1.5" fill="white"/>
<ellipse cx="70" cy="112.5" rx="46" ry="27.5" fill="#FFCEB9"/>
<ellipse cx="50" cy="102.5" rx="3" ry="4.5" fill="#333333"/>
<ellipse cx="93" cy="102.5" rx="3" ry="4.5" fill="#333333"/>
<path d="M103.7 125.228C101.284 121.501 95.1127 119.712 93.3408 119.265C93.0732 119.197 92.8139 119.365 92.7664 119.637C92.4518 121.438 91.5667 127.801 93.9829 131.528C96.3991 135.255 102.57 137.044 104.342 137.491C104.609 137.559 104.869 137.391 104.916 137.119C105.231 135.319 106.116 128.955 103.7 125.228Z" fill="#CCE772"/>
<path d="M91.5869 132.274C92.8233 128.688 90.8267 123.617 90.1573 122.088C90.0466 121.835 89.7518 121.733 89.5088 121.864C88.0394 122.656 83.3413 125.419 82.1049 129.005C80.8685 132.591 82.8651 137.663 83.5345 139.192C83.6452 139.444 83.94 139.546 84.183 139.415C85.6524 138.624 90.3505 135.86 91.5869 132.274Z" fill="#CCE772"/>
<path d="M47 116C56 130.5 88 130.5 96.5 116" stroke="#333333" stroke-width="2.5" stroke-linecap="round" stroke-linejoin="round"/>
<path d="M70.2047 63.8444C72.5955 50.919 76.2711 45.7546 86.4431 34.9892" stroke="#CCE772" stroke-width="1.24764" stroke-linecap="round"/>
<path d="M67.4845 68.123C67.7547 65.6375 70.275 63.0621 70.275 63.0621C70.275 63.0621 71.8946 65.9151 71.6244 68.4007C71.3542 70.8862 69.1348 73.5515 69.1348 73.5515C69.1348 73.5515 67.2144 70.6085 67.4845 68.123Z" fill="#CCE772"/>
<path d="M72.4351 61.2211C71.4709 59.8067 71.3528 57.6072 71.3528 57.6072C71.3528 57.6072 73.3755 58.5479 74.3397 59.9623C75.3039 61.3767 75.422 63.5762 75.422 63.5762C75.422 63.5762 73.3993 62.6355 72.4351 61.2211Z" fill="#CCE772"/>
<path d="M67.6873 58.8483C69.23 57.871 71.5256 57.6831 71.5256 57.6831C71.5256 57.6831 70.3962 59.6651 68.8535 60.6425C67.3108 61.6198 65.0152 61.8077 65.0152 61.8077C65.0152 61.8077 66.1446 59.8257 67.6873 58.8483Z" fill="#CCE772"/>
<path d="M74.6144 55.2229C73.6502 53.8085 73.5321 51.609 73.5321 51.609C73.5321 51.609 75.5548 52.5497 76.519 53.9641C77.4832 55.3785 77.6013 57.578 77.6013 57.578C77.6013 57.578 75.5787 56.6373 74.6144 55.2229Z" fill="#CCE772"/>
<path d="M69.7236 51.9724C71.4452 51.3687 73.6906 51.7161 73.6906 51.7161C73.6906 51.7161 72.1135 53.404 70.3919 54.0077C68.6702 54.6115 66.4249 54.2641 66.4249 54.2641C66.4249 54.2641 68.0019 52.5762 69.7236 51.9724Z" fill="#CCE772"/>
<path d="M77.5708 49.9379C76.7139 48.4575 76.7542 46.2471 76.7542 46.2471C76.7542 46.2471 78.697 47.3236 79.554 48.804C80.4109 50.2844 80.3706 52.4948 80.3706 52.4948C80.3706 52.4948 78.4277 51.4183 77.5708 49.9379Z" fill="#CCE772"/>
<path d="M72.6297 46.3348C74.3661 45.7784 76.5965 46.189 76.5965 46.189C76.5965 46.189 74.9718 47.8348 73.2354 48.3912C71.4989 48.9475 69.2685 48.537 69.2685 48.537C69.2685 48.537 70.8933 46.8912 72.6297 46.3348Z" fill="#CCE772"/>
<path d="M81.4388 44.3327C80.7182 42.7813 80.9513 40.5719 80.9513 40.5719C80.9513 40.5719 82.7844 41.8069 83.505 43.3583C84.2257 44.9097 83.9926 47.1191 83.9926 47.1191C83.9926 47.1191 82.1595 45.884 81.4388 44.3327Z" fill="#CCE772"/>
<path d="M77.2307 40.6424C78.9671 40.086 81.1975 40.4966 81.1975 40.4966C81.1975 40.4966 79.5727 42.1423 77.8363 42.6987C76.0999 43.2551 73.8695 42.8445 73.8695 42.8445C73.8695 42.8445 75.4942 41.1987 77.2307 40.6424Z" fill="#CCE772"/>
<path d="M100 58.5238C100 55.5783 102.443 53.1905 105.458 53.1905C105.893 53.1905 106.317 53.2403 106.723 53.3345C107.201 50.8664 109.42 49 112.085 49C114.698 49 116.882 50.7948 117.417 53.1919C117.459 53.1909 117.5 53.1905 117.542 53.1905C120.557 53.1905 123 55.5783 123 58.5238C123 62.1005 120.033 65 116.373 65H106.627C102.967 65 100 62.1005 100 58.5238Z" fill="white"/>
<path d="M16 69.3333C16 66.756 18.1248 64.6667 20.7458 64.6667C21.1244 64.6667 21.4928 64.7103 21.8458 64.7927C22.2619 62.6331 24.1912 61 26.5085 61C28.7809 61 30.6802 62.5705 31.1453 64.6679C31.1815 64.6671 31.2178 64.6667 31.2542 64.6667C33.8753 64.6667 36 66.756 36 69.3333C36 72.4629 33.4199 75 30.2373 75H21.7627C18.5801 75 16 72.4629 16 69.3333Z" fill="white"/>
</svg>
