<svg width="140" height="156" viewBox="0 0 140 156" fill="none" xmlns="http://www.w3.org/2000/svg">
<g clip-path="url(#clip0_118_518)">
<rect width="140" height="156" rx="4" fill="#A5D6D0"/>
<circle cx="20" cy="68" r="14" fill="#9B7963"/>
<circle cx="20" cy="68" r="10" fill="#3B2F1E"/>
<circle cx="120" cy="68" r="14" fill="#9B7963"/>
<circle cx="120" cy="68" r="10" fill="#3B2F1E"/>
<path d="M68.1607 32.0612C68.1218 29.866 69.5574 28.0482 71.3674 28.0009C73.1773 27.9537 74.6761 29.6949 74.7151 31.8901L74.7704 35.0053L75.6409 32.1045C76.2601 30.0412 78.1411 28.9774 79.8423 29.7284C81.5435 30.4793 82.4206 32.7607 81.8014 34.824L78.8118 44.7862C78.1926 46.8495 76.3116 47.9133 74.6104 47.1623C74.0657 46.9219 73.6056 46.5246 73.2519 46.0278C72.7926 46.3466 72.2629 46.5347 71.6966 46.5495C71.2325 46.5616 70.7889 46.4561 70.3851 46.2556C70.083 47.3769 69.3744 48.3244 68.3896 48.7592C66.6884 49.5101 64.8074 48.4463 64.1882 46.383L61.1986 36.4208C60.5794 34.3575 61.4565 32.0761 63.1577 31.3252C64.8589 30.5742 66.7399 31.638 67.3591 33.7013L68.2421 36.6437L68.1607 32.0612Z" fill="#9B7963"/>
<ellipse cx="70" cy="90" rx="55" ry="51" fill="#9B7963"/>
<path fill-rule="evenodd" clip-rule="evenodd" d="M17.9126 106.419C23.2238 97.2216 33.4044 91 45.0909 91C51.6589 91 57.7512 92.9651 62.7708 96.3193C67.43 99.4327 74.57 99.4327 79.2293 96.3193C84.2489 92.9651 90.3412 91 96.9092 91C107.704 91 117.213 96.3081 122.788 104.367C116.097 125.538 94.9958 141 70 141C45.8194 141 25.2833 126.53 17.9126 106.419Z" fill="#F5E8CF"/>
<path d="M63 108.5L66.5 109.5L71.5 107L76 109.5L80 108.5L79.6497 112.528C79.2821 116.756 75.7433 120 71.5 120V120C67.2567 120 63.7179 116.756 63.3503 112.528L63 108.5Z" fill="#FEB1AA"/>
<path d="M71.5 95.4366V104.315C71.5 107.215 73.8505 109.565 76.75 109.565H77.4834C79.9779 109.565 82 107.543 82 105.049V105.049" stroke="#3B2F1E" stroke-width="2.5" stroke-linecap="round" stroke-linejoin="round"/>
<path d="M71.5 95.4366V104.315C71.5 107.215 69.1495 109.565 66.25 109.565H65.5166C63.0221 109.565 61 107.543 61 105.049V105.049" stroke="#3B2F1E" stroke-width="2.5" stroke-linecap="round" stroke-linejoin="round"/>
<path d="M81.7781 96.2313C81.7781 99.5389 77.1268 102.22 71.3891 102.22C65.6513 102.22 61 99.5389 61 96.2313C61 92.9236 65.6513 88 71.3891 88C77.1268 88 81.7781 92.9236 81.7781 96.2313Z" fill="#3B2F1E"/>
<ellipse cx="66" cy="93.5" rx="2" ry="1.5" transform="rotate(-25.5447 66 93.5)" fill="white"/>
<ellipse cx="39.5" cy="97" rx="5.5" ry="3" fill="#FFCEB9"/>
<ellipse cx="101.5" cy="97" rx="5.5" ry="3" fill="#FFCEB9"/>
<circle cx="40.5" cy="87.5" r="7.5" fill="#3B2F1E"/>
<circle cx="37.5" cy="85.5" r="2.5" fill="white"/>
<circle cx="40.5" cy="89.5" r="1.5" fill="white"/>
<circle cx="99.5" cy="87.5" r="7.5" fill="#3B2F1E"/>
<circle cx="96.5" cy="85.5" r="2.5" fill="white"/>
<circle cx="99.5" cy="89.5" r="1.5" fill="white"/>
<path d="M35.735 102.947L13.735 100.947M36.4981 107.42L13.735 108.947M37.5421 111.706L14.735 116.947" stroke="#3B2F1E" stroke-width="2" stroke-linecap="round"/>
<path d="M105.265 102.947L127.265 100.947M104.502 107.42L127.265 108.947M103.458 111.706L126.265 116.947" stroke="#3B2F1E" stroke-width="2" stroke-linecap="round"/>
<circle cx="93.5" cy="60.5" r="3.75" stroke="white" stroke-width="1.5"/>
<circle cx="103" cy="46" r="5" stroke="white" stroke-width="2"/>
<circle cx="112.5" cy="28.5" r="6.25" stroke="white" stroke-width="2.5"/>
<path d="M10.8575 -15.1652C11.942 -15.8032 12.956 -16.5093 13.8927 -17.2712C16.5992 -16.0342 19.7286 -15.3312 22.9996 -15.3312C25.6791 -15.3312 28.2534 -15.782 30.5831 -16.6187C24.3252 -8.03855 12.9623 12.3557 25.9179 34.3909C40.1904 58.6665 28.7108 80.1339 22.6525 88.7486C22.3003 89.2494 21.316 88.9354 21.5257 88.3889C24.7023 80.1127 25.2208 60.6908 10.8575 37.7288C-2.06262 17.0739 4.16674 -2.50458 7.11175 -13.3351C8.4143 -13.8564 9.66732 -14.4654 10.8575 -15.1652Z" fill="#017B4E"/>
<path d="M30.2458 -14C30.9661 -6.76579 32.9471 1.68882 37.3692 10.54C48.2319 32.282 33.1915 60.7797 29.099 67.8187C28.872 68.2094 28.2544 68.0306 28.2874 67.5837C28.7632 61.1007 29.533 38.7171 19.9663 17.2337C15.7634 7.79487 16.5471 -2.30284 19.103 -11.1578C23.0603 -11.3324 26.8431 -12.3158 30.2458 -14V-14Z" fill="#09A76D"/>
<path d="M110.577 158.538C110.004 158.81 109.469 159.112 108.974 159.438C107.545 158.909 105.892 158.608 104.164 158.608C102.749 158.608 101.389 158.801 100.159 159.159C103.464 155.49 109.466 146.77 102.623 137.349C95.0845 126.97 101.148 117.791 104.347 114.107C104.533 113.893 105.053 114.028 104.943 114.261C103.265 117.8 102.991 126.104 110.577 135.922C117.401 144.753 114.111 153.124 112.556 157.755C111.868 157.978 111.206 158.238 110.577 158.538Z" fill="#017B4E"/>
<path d="M101.25 158.029C100.595 158.323 99.9817 158.649 99.4154 159C97.7793 158.43 95.8877 158.106 93.9103 158.106C92.2906 158.106 90.7345 158.313 89.3261 158.699C93.109 154.743 99.9778 145.339 92.1462 135.179C83.5186 123.986 90.4579 114.088 94.1201 110.116C94.3331 109.885 94.9281 110.03 94.8013 110.282C92.8811 114.098 92.5676 123.053 101.25 133.64C109.06 143.164 105.295 152.191 103.514 157.185C102.727 157.425 101.97 157.706 101.25 158.029Z" fill="#02905D"/>
<path d="M115.996 159.075C116.376 155.982 117.423 152.367 119.758 148.582C125.496 139.286 117.552 127.102 115.39 124.092C115.27 123.925 114.944 124.001 114.962 124.193C115.213 126.964 115.62 136.535 110.567 145.72C108.347 149.756 108.761 154.074 110.111 157.86C112.201 157.934 114.199 158.355 115.996 159.075V159.075Z" fill="#09A76D"/>
</g>
<defs>
<clipPath id="clip0_118_518">
<rect width="140" height="156" rx="4" fill="white"/>
</clipPath>
</defs>
</svg>
