<svg width="140" height="156" viewBox="0 0 140 156" fill="none" xmlns="http://www.w3.org/2000/svg">
<rect width="140" height="156" rx="4" fill="#FFEDB2"/>
<path d="M24.0285 19.6887C13.4705 25.1696 20.574 66.2711 20.574 66.2711L59.14 42.2937C59.14 42.2937 32.3894 15.3483 24.0285 19.6887Z" fill="#888888"/>
<path d="M27.4445 26.7029C19.7269 30.7092 24.9194 60.7531 24.9194 60.7531L53.1098 43.2264C53.1098 43.2264 33.556 23.5302 27.4445 26.7029Z" fill="#464646"/>
<path d="M116.422 19.2905C126.98 24.7714 119.877 65.8729 119.877 65.8729L81.311 41.8955C81.311 41.8955 108.062 14.9501 116.422 19.2905Z" fill="#888888"/>
<path d="M113.007 26.3047C120.724 30.311 115.532 60.3549 115.532 60.3549L87.3411 42.8282C87.3411 42.8282 106.895 23.132 113.007 26.3047Z" fill="#464646"/>
<path d="M20.0195 61.2451C19.9704 61.3797 19.8758 61.4878 19.756 61.5463C11.2785 65.6905 4.25259 74.5052 3.02494 78.3453C2.92172 78.6681 3.15365 78.9749 3.46251 78.9751C8.61542 78.9778 9.85035 79.053 13.9428 81.1432C14.2621 81.3063 14.3297 81.7782 14.0712 82.0424L10.0851 86.1169C9.74099 86.4687 9.98956 87.1505 10.4564 87.1866C12.3369 87.3322 14.6617 87.957 17.1871 88.8769C17.3589 88.9395 17.4856 89.1029 17.519 89.3C21.449 112.47 39.7911 130 61.825 130H74.7062C96.2649 130 114.289 113.218 118.738 90.7913C118.773 90.612 118.887 90.4624 119.041 90.3952C122.989 88.6722 126.754 87.4024 129.543 87.1866C130.01 87.1505 130.258 86.4687 129.914 86.1169L125.928 82.0424C125.67 81.7782 125.737 81.3063 126.056 81.1432C130.149 79.053 131.384 78.9778 136.537 78.9751C136.846 78.9749 137.078 78.6714 136.975 78.3485C135.563 73.9212 126.43 62.8678 116.252 60.003C116.102 59.9608 115.978 59.845 115.915 59.6882C108.895 42.1959 93.0847 30 74.7062 30H61.825C42.906 30 26.7087 42.9238 20.0195 61.2451Z" fill="#888888"/>
<path d="M119.981 61.2451C120.03 61.3797 120.124 61.4878 120.244 61.5463C128.722 65.6905 135.748 74.5052 136.975 78.3453C137.078 78.6681 136.846 78.9749 136.537 78.9751C131.384 78.9778 130.149 79.053 126.056 81.1432C125.737 81.3063 125.67 81.7782 125.928 82.0424L129.914 86.1169C130.258 86.4687 130.01 87.1505 129.543 87.1866C127.662 87.3322 125.338 87.957 122.813 88.8769C122.641 88.9395 122.515 89.1029 122.481 89.3C118.551 112.47 100.209 130 78.1752 130H65.2939C43.7353 130 25.7109 113.218 21.2622 90.7913C21.2267 90.612 21.1133 90.4624 20.9592 90.3952C17.0115 88.6723 13.2449 87.4024 10.4564 87.1866C9.98956 87.1505 9.74099 86.4687 10.0851 86.1169L14.0712 82.0424C14.3297 81.7782 14.2621 81.3063 13.9428 81.1432C9.85035 79.053 8.61542 78.9778 3.46251 78.9751C3.15365 78.9749 2.92177 78.6714 3.02481 78.3485C4.43748 73.9212 13.5705 62.8678 23.7478 60.003C23.8977 59.9608 24.022 59.845 24.0849 59.6883C31.1054 42.1959 46.9154 30 65.2939 30H78.1752C97.0942 30 113.291 42.9238 119.981 61.2451Z" fill="#888888"/>
<path fill-rule="evenodd" clip-rule="evenodd" d="M120.04 61.364C116.685 60.471 113.15 60 109.5 60C88.8069 60 71.8303 75.1366 70.1386 96.4855C70.1017 96.4823 70.0648 96.4791 70.0279 96.476C69.9852 96.4724 69.9425 96.4688 69.8998 96.4654C68.4461 74.6573 51.3617 60 30.5 60C26.8637 60 23.3421 60.4453 19.9981 61.2963C19.9453 61.407 19.8602 61.4954 19.756 61.5463C11.2785 65.6905 4.25259 74.5052 3.02494 78.3453C3.00889 78.3955 3.00094 78.4453 3.00013 78.4936C2.99412 78.7568 3.20065 78.9749 3.46251 78.9751C8.61542 78.9778 9.85035 79.053 13.9428 81.1432C14.2621 81.3063 14.3297 81.7782 14.0712 82.0424L10.0851 86.1169C9.74099 86.4687 9.98956 87.1505 10.4564 87.1866C10.6915 87.2048 10.9335 87.2305 11.1819 87.2633C12.9212 87.493 14.9774 88.072 17.1871 88.8769C17.3589 88.9395 17.4856 89.1029 17.519 89.3C21.449 112.47 39.7911 130 61.825 130H65.2687L65.2939 130L74.7062 130L78.1752 130C100.209 130 118.551 112.47 122.481 89.3C122.515 89.1029 122.641 88.9395 122.813 88.8769C124.501 88.2622 126.098 87.7791 127.534 87.4829C128.247 87.3359 128.919 87.2349 129.543 87.1866C130.01 87.1505 130.258 86.4687 129.914 86.1169L125.928 82.0424C125.67 81.7782 125.737 81.3063 126.056 81.1432C130.149 79.053 131.384 78.9778 136.537 78.9751C136.799 78.9749 137.007 78.7559 137 78.492C136.999 78.4442 136.991 78.3949 136.975 78.3453C135.748 74.5052 128.722 65.6905 120.244 61.5463C120.162 61.5063 120.092 61.443 120.04 61.364Z" fill="#EDEDED"/>
<path fill-rule="evenodd" clip-rule="evenodd" d="M41.5152 124.651C41.9168 124.072 42.2953 123.473 42.6485 122.855C46.349 116.378 50.5465 110.594 55.4173 105.039C64.2333 94.9835 63.0029 79.0024 51.4191 72.3205C43.7931 67.9215 34.0718 69.1623 28.2212 75.7408C24.2237 80.2357 20.71 84.5617 17.4354 89.0809C17.4766 89.1454 17.5055 89.2199 17.5191 89.3C20.146 104.787 29.2118 117.754 41.5152 124.651Z" fill="#888888"/>
<path fill-rule="evenodd" clip-rule="evenodd" d="M122.693 88.9422C118.69 84.4023 114.46 80.15 109.644 75.7599C103.138 69.8289 93.3398 69.6111 86.2154 74.7831C75.3935 82.6393 75.8404 98.6615 85.6591 107.74C90.9807 112.661 95.6808 117.867 99.971 123.779C111.516 116.695 119.961 104.157 122.481 89.3C122.506 89.1525 122.583 89.0239 122.693 88.9422Z" fill="#888888"/>
<rect x="69.2783" y="92.4829" width="2" height="12" rx="1" fill="#2D2D2D"/>
<ellipse cx="70.3255" cy="92.0763" rx="7.41811" ry="4.87696" fill="#2D2D2D"/>
<circle cx="66.5001" cy="90.5" r="1.5" fill="white"/>
<path d="M62.2092 101.349C65.9987 104.884 74.4198 104.884 78.2092 101.349" stroke="#2D2D2D" stroke-width="2.5" stroke-linecap="round"/>
<ellipse cx="29.0001" cy="97.5" rx="6" ry="4.5" fill="#FFD4DC"/>
<ellipse cx="111" cy="97.5" rx="6" ry="4.5" fill="#FFD4DC"/>
<circle cx="1" cy="1" r="1" transform="matrix(1 0 0 -1 37.0001 109.5)" fill="#EDEDED"/>
<circle cx="1" cy="1" r="1" transform="matrix(1 0 0 -1 41.0001 108.5)" fill="#EDEDED"/>
<circle cx="1" cy="1" r="1" transform="matrix(1 0 0 -1 38.0001 105.5)" fill="#EDEDED"/>
<circle cx="102" cy="108.5" r="1" transform="rotate(180 102 108.5)" fill="#EDEDED"/>
<circle cx="98.0001" cy="107.5" r="1" transform="rotate(180 98.0001 107.5)" fill="#EDEDED"/>
<circle cx="101" cy="104.5" r="1" transform="rotate(180 101 104.5)" fill="#EDEDED"/>
<circle cx="11" cy="11" r="11" transform="matrix(-1 0 0 1 54.0001 75)" fill="white"/>
<circle cx="43.0001" cy="86" r="8" fill="#2D2D2D"/>
<ellipse cx="43.34" cy="82.4374" rx="2.3399" ry="2.4374" fill="white"/>
<ellipse cx="47.6001" cy="86.6667" rx="1.6" ry="1.66667" fill="white"/>
<circle cx="11" cy="11" r="11" transform="matrix(-1 0 0 1 54.0001 75)" fill="white"/>
<circle cx="43.0001" cy="86" r="8" fill="#2D2D2D"/>
<ellipse cx="43.34" cy="83.4374" rx="2.3399" ry="2.4374" fill="white"/>
<ellipse cx="47.6001" cy="87.6667" rx="1.6" ry="1.66667" fill="white"/>
<circle cx="11" cy="11" r="11" transform="matrix(-1 0 0 1 108 75)" fill="white"/>
<circle cx="8" cy="8" r="8" transform="matrix(-1 0 0 1 105 78)" fill="#2D2D2D"/>
<ellipse cx="2.3399" cy="2.4374" rx="2.3399" ry="2.4374" transform="matrix(-1 0 0 1 99.0001 81)" fill="white"/>
<ellipse cx="1.6" cy="1.66667" rx="1.6" ry="1.66667" transform="matrix(-1 0 0 1 94.0001 86)" fill="white"/>
<path d="M68.0203 36.2373C68.2453 36.2003 68.4706 36.1524 68.6956 36.0932C72.5418 35.0813 74.845 31.164 73.8399 27.3437C72.8348 23.5234 68.9021 21.2467 65.0559 22.2586C64.6826 22.3568 64.3237 22.4824 63.981 22.6327C64.769 19.9613 64.0097 16.9714 61.8078 15.0772C58.8293 12.5149 54.339 12.9278 51.7785 15.9996C50.4135 17.6372 49.8724 19.6999 50.1161 21.6572C49.8547 21.5207 49.5825 21.3984 49.3 21.2916C45.5593 19.8776 41.4472 21.7279 40.1153 25.4243C38.7833 29.1207 40.736 33.2636 44.4767 34.6776C44.6786 34.7539 44.8816 34.8207 45.0851 34.8783C44.9362 35.0285 44.7924 35.1866 44.6542 35.3524C42.0937 38.4242 42.4326 42.9916 45.4111 45.554C48.3897 48.1164 52.88 47.7034 55.4405 44.6316C55.6679 44.3588 55.8724 44.0742 56.0542 43.7803C56.8639 45.3425 58.2371 46.6295 60.0135 47.301C63.7542 48.715 67.8663 46.8648 69.1983 43.1683C70.0684 40.7534 69.5367 38.1479 68.0203 36.2373Z" fill="#F09AA5"/>
<g style="mix-blend-mode:multiply">
<circle cx="57.0509" cy="32.1784" r="5.39568" transform="rotate(99.9151 57.0509 32.1784)" fill="#ED653B" fill-opacity="0.5"/>
</g>
<g style="mix-blend-mode:multiply">
<path fill-rule="evenodd" clip-rule="evenodd" d="M53.4161 36.167C54.1481 36.8355 55.0729 37.3102 56.1218 37.4936C59.0573 38.0067 61.8529 36.043 62.366 33.1076C62.8277 30.4664 61.2843 27.9385 58.8321 27.0844C60.1489 28.2867 60.8421 30.1155 60.5124 32.002C59.9992 34.9375 57.2036 36.9012 54.2682 36.388C53.9739 36.3366 53.6893 36.2622 53.4161 36.167Z" fill="#ED653B" fill-opacity="0.5"/>
</g>
<path d="M16.7366 113.451C30.2025 128.631 38.9515 132.381 60.2972 138.061" stroke="#BBD468" stroke-width="1.84133" stroke-linecap="round"/>
<path d="M11.0763 111.336C11.6528 112.091 12.4006 112.737 13.2013 113.283C15.6534 114.957 18.4437 112.639 17.3292 109.887C16.9776 109.02 16.5346 108.173 15.977 107.443C15.4528 106.758 14.8017 106.142 14.1062 105.6C11.727 103.744 8.72677 105.898 9.73211 108.743C10.0623 109.677 10.4989 110.581 11.0763 111.336Z" fill="#BBD468"/>
<path d="M21.3674 116.099C21.3561 116.79 21.4547 117.501 21.6078 118.179C21.9862 119.852 24.0074 119.885 24.4405 118.225C24.6157 117.553 24.7377 116.845 24.749 116.154C24.7603 115.464 24.6617 114.752 24.5086 114.075C24.1302 112.402 22.1091 112.368 21.676 114.028C21.5007 114.7 21.3788 115.408 21.3674 116.099Z" fill="#BBD468"/>
<path d="M19.1556 121.738C19.8463 121.735 20.5559 121.622 21.2298 121.455C22.8948 121.042 22.8864 119.02 21.218 118.622C20.5427 118.46 19.8322 118.353 19.1415 118.356C18.4508 118.359 17.7411 118.472 17.0672 118.639C15.4022 119.052 15.4106 121.073 17.079 121.472C17.7543 121.633 18.4649 121.741 19.1556 121.738Z" fill="#BBD468"/>
<path d="M28.2354 121.973C28.2241 122.663 28.3227 123.375 28.4758 124.052C28.8542 125.726 30.8753 125.759 31.3084 124.099C31.4837 123.427 31.6056 122.719 31.617 122.028C31.6283 121.338 31.5297 120.626 31.3766 119.949C30.9982 118.275 28.9771 118.242 28.544 119.902C28.3687 120.574 28.2468 121.282 28.2354 121.973Z" fill="#BBD468"/>
<path d="M26.9567 128.467C27.6265 128.298 28.2881 128.018 28.9021 127.693C30.419 126.893 29.9249 124.932 28.2095 124.946C27.5153 124.952 26.7997 125.019 26.13 125.188C25.4602 125.356 24.7986 125.637 24.1846 125.961C22.6677 126.762 23.1618 128.722 24.8771 128.708C25.5714 128.702 26.287 128.636 26.9567 128.467Z" fill="#BBD468"/>
<path d="M35.9176 127.351C35.9539 128.041 36.1014 128.744 36.3008 129.409C36.7936 131.052 38.8122 130.946 39.1299 129.26C39.2584 128.578 39.3313 127.863 39.295 127.173C39.2587 126.483 39.1112 125.78 38.9118 125.115C38.419 123.472 36.4004 123.578 36.0827 125.264C35.9542 125.946 35.8813 126.661 35.9176 127.351Z" fill="#BBD468"/>
<path d="M35.2114 133.236C35.8499 132.973 36.4644 132.6 37.0255 132.191C38.4117 131.18 37.6412 129.312 35.9456 129.572C35.2594 129.677 34.5608 129.846 33.9223 130.109C33.2837 130.372 32.6692 130.745 32.1082 131.154C30.7219 132.164 31.4924 134.033 33.188 133.773C33.8743 133.668 34.5728 133.499 35.2114 133.236Z" fill="#BBD468"/>
<path d="M44.3993 130.786C44.4934 131.471 44.6994 132.159 44.954 132.805C45.5831 134.401 47.5857 134.125 47.7606 132.419C47.8314 131.728 47.8438 131.01 47.7497 130.325C47.6556 129.641 47.4496 128.953 47.195 128.307C46.5658 126.711 44.5633 126.986 44.3884 128.693C44.3176 129.383 44.3051 130.102 44.3993 130.786Z" fill="#BBD468"/>
<path d="M44.5637 137.551C45.1667 137.214 45.7328 136.771 46.2416 136.299C47.4986 135.132 46.5126 133.367 44.8597 133.826C44.1907 134.012 43.517 134.262 42.914 134.599C42.311 134.936 41.7449 135.378 41.2362 135.851C39.9791 137.018 40.9651 138.783 42.6181 138.324C43.2871 138.138 43.9608 137.888 44.5637 137.551Z" fill="#BBD468"/>
<path d="M122.341 112.987C108.876 128.166 100.127 131.916 78.7808 137.596" stroke="#BBD468" stroke-width="1.84133" stroke-linecap="round"/>
<path d="M128.002 110.872C127.425 111.626 126.677 112.272 125.877 112.819C123.425 114.492 120.634 112.174 121.749 109.423C122.1 108.555 122.544 107.708 123.101 106.979C123.625 106.293 124.276 105.677 124.972 105.135C127.351 103.28 130.351 105.433 129.346 108.278C129.016 109.212 128.579 110.116 128.002 110.872Z" fill="#BBD468"/>
<path d="M117.711 115.634C117.722 116.325 117.623 117.037 117.47 117.714C117.092 119.387 115.071 119.42 114.638 117.76C114.462 117.089 114.34 116.38 114.329 115.69C114.318 114.999 114.416 114.287 114.569 113.61C114.948 111.937 116.969 111.904 117.402 113.564C117.577 114.235 117.699 114.944 117.711 115.634Z" fill="#BBD468"/>
<path d="M119.923 121.273C119.232 121.27 118.522 121.157 117.848 120.99C116.183 120.577 116.192 118.556 117.86 118.157C118.535 117.995 119.246 117.888 119.937 117.891C120.627 117.894 121.337 118.007 122.011 118.174C123.676 118.587 123.667 120.608 121.999 121.007C121.324 121.169 120.613 121.276 119.923 121.273Z" fill="#BBD468"/>
<path d="M110.843 121.508C110.854 122.199 110.755 122.91 110.602 123.588C110.224 125.261 108.203 125.294 107.77 123.634C107.594 122.962 107.472 122.254 107.461 121.563C107.45 120.873 107.548 120.161 107.701 119.484C108.08 117.811 110.101 117.777 110.534 119.437C110.709 120.109 110.831 120.817 110.843 121.508Z" fill="#BBD468"/>
<path d="M112.121 128.002C111.452 127.833 110.79 127.553 110.176 127.229C108.659 126.428 109.153 124.468 110.869 124.482C111.563 124.487 112.278 124.554 112.948 124.723C113.618 124.892 114.279 125.172 114.893 125.496C116.41 126.297 115.916 128.257 114.201 128.243C113.507 128.238 112.791 128.171 112.121 128.002Z" fill="#BBD468"/>
<path d="M103.16 126.886C103.124 127.576 102.977 128.279 102.777 128.944C102.284 130.587 100.266 130.481 99.9482 128.795C99.8196 128.113 99.7468 127.398 99.7831 126.708C99.8194 126.019 99.9668 125.315 100.166 124.65C100.659 123.007 102.678 123.113 102.995 124.799C103.124 125.481 103.197 126.196 103.16 126.886Z" fill="#BBD468"/>
<path d="M103.867 132.771C103.228 132.508 102.614 132.135 102.053 131.726C100.666 130.716 101.437 128.847 103.132 129.107C103.819 129.212 104.517 129.381 105.156 129.644C105.794 129.908 106.409 130.28 106.97 130.689C108.356 131.7 107.586 133.569 105.89 133.308C105.204 133.203 104.505 133.034 103.867 132.771Z" fill="#BBD468"/>
<path d="M94.6788 130.322C94.5847 131.006 94.3787 131.694 94.124 132.34C93.4949 133.936 91.4924 133.661 91.3175 131.954C91.2467 131.263 91.2342 130.545 91.3283 129.861C91.4225 129.176 91.6285 128.488 91.8831 127.842C92.5122 126.246 94.5148 126.522 94.6897 128.228C94.7604 128.919 94.7729 129.637 94.6788 130.322Z" fill="#BBD468"/>
<path d="M94.5143 137.086C93.9114 136.749 93.3453 136.307 92.8365 135.834C91.5794 134.667 92.5655 132.902 94.2184 133.361C94.8874 133.547 95.5611 133.797 96.1641 134.134C96.767 134.471 97.3331 134.914 97.8419 135.386C99.099 136.553 98.1129 138.318 96.46 137.859C95.791 137.673 95.1173 137.423 94.5143 137.086Z" fill="#BBD468"/>
<path d="M53.5247 134.237C53.6953 134.209 53.8662 134.173 54.0369 134.128C56.9537 133.36 58.7003 130.39 57.9381 127.492C57.1759 124.595 54.1934 122.869 51.2766 123.636C50.9935 123.711 50.7213 123.806 50.4615 123.92C51.0591 121.894 50.4832 119.626 48.8134 118.19C46.5546 116.247 43.1493 116.56 41.2075 118.889C40.1723 120.131 39.762 121.696 39.9468 123.18C39.7486 123.077 39.5421 122.984 39.3279 122.903C36.4911 121.83 33.3726 123.234 32.3625 126.037C31.3524 128.84 32.8333 131.982 35.6701 133.054C35.8232 133.112 35.9771 133.163 36.1315 133.206C36.0186 133.32 35.9095 133.44 35.8047 133.566C33.8629 135.895 34.1199 139.359 36.3787 141.302C38.6376 143.246 42.0428 142.932 43.9846 140.603C44.1571 140.396 44.3122 140.18 44.4501 139.957C45.0641 141.142 46.1055 142.118 47.4526 142.627C50.2894 143.7 53.4079 142.296 54.418 139.493C55.0779 137.662 54.6747 135.686 53.5247 134.237Z" fill="#F09AA5"/>
<g style="mix-blend-mode:multiply">
<circle cx="45.2059" cy="131.159" r="4.09188" transform="rotate(99.9151 45.2059 131.159)" fill="#ED653B" fill-opacity="0.5"/>
</g>
<g style="mix-blend-mode:multiply">
<path fill-rule="evenodd" clip-rule="evenodd" d="M42.4495 134.184C43.0047 134.691 43.706 135.051 44.5014 135.19C46.7275 135.579 48.8476 134.09 49.2367 131.864C49.5868 129.861 48.4164 127.944 46.5567 127.296C47.5553 128.208 48.0811 129.595 47.831 131.025C47.4419 133.251 45.3218 134.741 43.0957 134.351C42.8725 134.312 42.6567 134.256 42.4495 134.184Z" fill="#ED653B" fill-opacity="0.5"/>
</g>
<path d="M101.547 134.114C101.718 134.086 101.889 134.049 102.059 134.005C104.976 133.237 106.723 130.266 105.961 127.369C105.198 124.472 102.216 122.746 99.2991 123.513C99.0159 123.587 98.7438 123.683 98.4839 123.797C99.0815 121.771 98.5056 119.503 96.8359 118.067C94.577 116.124 91.1718 116.437 89.23 118.766C88.1948 120.008 87.7845 121.572 87.9693 123.057C87.771 122.953 87.5646 122.861 87.3504 122.78C84.5136 121.707 81.3951 123.11 80.385 125.914C79.3749 128.717 80.8557 131.859 83.6925 132.931C83.8456 132.989 83.9996 133.04 84.154 133.083C84.041 133.197 83.932 133.317 83.8272 133.443C81.8854 135.772 82.1424 139.236 84.4012 141.179C86.66 143.122 90.0653 142.809 92.0071 140.48C92.1795 140.273 92.3346 140.057 92.4725 139.834C93.0866 141.019 94.1279 141.995 95.4751 142.504C98.3119 143.576 101.43 142.173 102.44 139.37C103.1 137.539 102.697 135.563 101.547 134.114Z" fill="#F09AA5"/>
<g style="mix-blend-mode:multiply">
<circle cx="93.2284" cy="131.036" r="4.09188" transform="rotate(99.9151 93.2284 131.036)" fill="#ED653B" fill-opacity="0.5"/>
</g>
<g style="mix-blend-mode:multiply">
<path fill-rule="evenodd" clip-rule="evenodd" d="M90.4719 134.061C91.0271 134.568 91.7284 134.928 92.5238 135.067C94.75 135.456 96.8701 133.967 97.2592 131.74C97.6093 129.737 96.4388 127.82 94.5792 127.173C95.5778 128.084 96.1036 129.471 95.8535 130.902C95.4643 133.128 93.3442 134.617 91.1181 134.228C90.8949 134.189 90.6792 134.133 90.4719 134.061Z" fill="#ED653B" fill-opacity="0.5"/>
</g>
<path d="M80.4124 130.852C80.5617 130.726 80.7064 130.592 80.846 130.449C83.2313 128.018 83.2069 124.126 80.7916 121.756C78.3762 119.387 74.4845 119.438 72.0991 121.869C71.8676 122.105 71.6587 122.355 71.4725 122.616C70.8802 120.305 69.0099 118.439 66.5592 118.012C63.244 117.434 60.1221 119.707 59.5862 123.09C59.3006 124.894 59.8075 126.648 60.8455 127.981C60.5933 127.996 60.3394 128.025 60.0848 128.07C56.7127 128.671 54.4995 131.836 55.1414 135.14C55.7833 138.443 59.0373 140.634 62.4093 140.033C62.5913 140.001 62.7699 139.961 62.9449 139.914C62.9013 140.09 62.8648 140.269 62.8359 140.452C62.3 143.835 64.5531 147.046 67.8683 147.624C71.1835 148.202 74.3054 145.928 74.8413 142.546C74.8889 142.245 74.9145 141.946 74.9193 141.65C76.2003 142.444 77.775 142.788 79.3764 142.503C82.7484 141.902 84.9616 138.737 84.3197 135.433C83.9003 133.275 82.3661 131.592 80.4124 130.852Z" fill="#94D9FF"/>
<g style="mix-blend-mode:multiply">
<circle cx="70.5627" cy="132.679" r="4.62138" transform="rotate(69.1033 70.5627 132.679)" fill="#94D9FF" fill-opacity="0.5"/>
</g>
<g style="mix-blend-mode:multiply">
<path fill-rule="evenodd" clip-rule="evenodd" d="M69.6387 137.207C70.4705 137.378 71.359 137.321 72.211 136.996C74.5955 136.086 75.7904 133.415 74.8801 131.03C74.061 128.885 71.8166 127.702 69.6381 128.15C71.1341 128.457 72.4464 129.498 73.0315 131.03C73.9419 133.415 72.7469 136.086 70.3625 136.996C70.1234 137.087 69.8815 137.157 69.6387 137.207Z" fill="#94D9FF" fill-opacity="0.5"/>
</g>
</svg>
