<svg width="140" height="156" viewBox="0 0 140 156" fill="none" xmlns="http://www.w3.org/2000/svg">
<rect width="140" height="156" rx="4" fill="#F1F1F1"/>
<path d="M114.257 131.219C119.349 133.422 128.208 129.647 128.208 129.647C128.208 129.647 123.776 121.435 118.683 119.233C113.591 117.03 104.846 119.994 104.846 119.994C104.846 119.994 109.164 129.017 114.257 131.219Z" fill="#FFCE05"/>
<path d="M116.06 132.572C117.85 139.494 113.132 148.903 113.132 148.903C113.132 148.903 105.234 143.162 103.444 136.239C101.654 129.317 105.812 120.766 105.812 120.766C105.812 120.766 114.27 125.649 116.06 132.572Z" fill="#FFCE05"/>
<path fill-rule="evenodd" clip-rule="evenodd" d="M29.9719 126.156C27.4737 121.775 25.534 117.77 24.1937 114.793C22.9384 112.006 24.1152 108.656 26.5913 107.586L70.3348 88.6901L113.067 107.607C115.482 108.676 116.651 111.926 115.476 114.687C114.188 117.718 112.293 121.84 109.82 126.348C99.2268 136.086 85.2804 142 69.9999 142C54.6193 142 40.5904 136.008 29.9719 126.156Z" fill="#FFCE05"/>
<ellipse cx="70" cy="76.3862" rx="60" ry="51.5" fill="#FFD4DC"/>
<path d="M50.9818 23.4977C42.4512 16.174 3.75125 36.7518 7.86666 47.2521C11.9821 57.7525 30.9305 78.454 42.3207 69.679C53.711 60.904 59.5123 30.8213 50.9818 23.4977Z" fill="#FFA6B4"/>
<g style="mix-blend-mode:multiply">
<path fill-rule="evenodd" clip-rule="evenodd" d="M43.9857 22.0235C46.9974 21.7759 49.466 22.1962 50.9819 23.4977C59.5124 30.8213 53.7111 60.904 42.3208 69.679C39.9763 71.4852 37.3116 72.0425 34.522 71.697C36.2172 71.4681 37.8335 70.8248 39.3208 69.679C50.7111 60.904 56.5124 30.8213 47.9819 23.4977C47.0073 22.661 45.639 22.1885 43.9857 22.0235Z" fill="#FFA6B4" fill-opacity="0.6"/>
</g>
<path d="M89.6906 23.4977C98.2211 16.174 136.921 36.7518 132.806 47.2521C128.69 57.7525 109.742 78.454 98.3516 69.679C86.9614 60.904 81.16 30.8213 89.6906 23.4977Z" fill="#FFA6B4"/>
<g style="mix-blend-mode:multiply">
<path fill-rule="evenodd" clip-rule="evenodd" d="M96.6867 22.0235C93.675 21.7759 91.2064 22.1962 89.6905 23.4977C81.16 30.8213 86.9613 60.904 98.3515 69.679C100.696 71.4852 103.361 72.0425 106.15 71.697C104.455 71.4681 102.839 70.8248 101.352 69.679C89.9613 60.904 84.16 30.8213 92.6905 23.4977C93.6651 22.661 95.0334 22.1885 96.6867 22.0235Z" fill="#FFA6B4" fill-opacity="0.6"/>
</g>
<ellipse cx="70" cy="100.972" rx="24" ry="16" fill="#FFA6B4"/>
<ellipse cx="59.5068" cy="101.74" rx="3.4254" ry="4.6913" transform="rotate(1 59.5068 101.74)" fill="#413E4E"/>
<g style="mix-blend-mode:multiply">
<ellipse cx="79.6124" cy="101.727" rx="3.4254" ry="4.6913" fill="#413E4E"/>
</g>
<circle cx="32" cy="98.8862" r="8" fill="#FFA6B4"/>
<circle cx="108" cy="98.8862" r="8" fill="#FFA6B4"/>
<ellipse cx="44.6858" cy="82.1587" rx="6.68583" ry="8.35729" fill="#413E4E"/>
<ellipse cx="43.0144" cy="79.2336" rx="2.50719" ry="2.92505" fill="white"/>
<circle cx="46.7752" cy="83.4123" r="1.25359" fill="white"/>
<ellipse cx="6.68583" cy="8.35729" rx="6.68583" ry="8.35729" transform="matrix(-1 0 0 1 101.515 73.8014)" fill="#413E4E"/>
<ellipse cx="2.50719" cy="2.92505" rx="2.50719" ry="2.92505" transform="matrix(-1 0 0 1 99.0082 76.3086)" fill="white"/>
<circle cx="1.25359" cy="1.25359" r="1.25359" transform="matrix(-1 0 0 1 93.9938 82.1587)" fill="white"/>
<ellipse cx="1.93269" cy="1.78352" rx="1.93269" ry="1.78352" transform="matrix(-0.993902 0.110268 0.117654 0.993055 85.9724 18.0143)" fill="#FFCE05"/>
<ellipse cx="1.93269" cy="1.78352" rx="1.93269" ry="1.78352" transform="matrix(-0.993902 0.110268 0.117654 0.993055 74.4481 12.1864)" fill="#FFCE05"/>
<ellipse cx="1.93269" cy="1.78352" rx="1.93269" ry="1.78352" transform="matrix(-0.993902 0.110268 0.117654 0.993055 61.6934 15.0775)" fill="#FFCE05"/>
<path d="M84.1174 24.4585L81.8098 36.1651C81.7123 36.6599 81.1958 36.9492 80.717 36.7826C73.4874 34.2661 68.1903 33.4345 60.3882 34.3662C59.8786 34.4271 59.4258 34.0226 59.4397 33.51L59.7834 20.8199C59.8031 20.0926 60.6856 19.7486 61.2004 20.2676L65.8851 24.9906C66.2709 25.3794 66.9186 25.2993 67.1915 24.8289L71.3696 17.6277C71.7295 17.0074 72.659 17.1135 72.8787 17.7999L75.607 26.3244C75.7654 26.8193 76.3339 27.0522 76.791 26.8095L82.9094 23.5609C83.5265 23.2332 84.2526 23.7727 84.1174 24.4585Z" fill="#FFCE05"/>
</svg>
