<svg width="140" height="156" viewBox="0 0 140 156" fill="none" xmlns="http://www.w3.org/2000/svg">
<rect width="140" height="156" rx="4" fill="#B9E6FF"/>
<path fill-rule="evenodd" clip-rule="evenodd" d="M54.931 50.0394C47.7368 42.7264 39.9799 35.6243 37.4023 36.0967C34.2901 36.6671 30.8932 51.3291 28.6567 63.0814C20.7219 70.3087 15.9319 79.6832 15.9319 89.9269C15.9319 112.787 39.7862 131.318 69.212 131.318C98.6378 131.318 122.492 112.787 122.492 89.9269C122.492 79.5631 117.589 70.089 109.487 62.828C107.25 51.1195 103.88 36.663 100.79 36.0967C98.2168 35.6252 90.4841 42.6998 83.3014 49.9983C78.8135 49.0448 74.0893 48.5357 69.212 48.5357C64.2653 48.5357 59.4759 49.0594 54.931 50.0394Z" fill="#EDEDED"/>
<g style="mix-blend-mode:multiply">
<path fill-rule="evenodd" clip-rule="evenodd" d="M55.0372 50.0165L54 63.5L64 56L70.5 71L76.5 56L85 63.5L83.2681 49.9913C78.7901 49.0423 74.0772 48.5357 69.212 48.5357C64.3038 48.5357 59.5506 49.0513 55.0372 50.0165Z" fill="#EBEBEB"/>
</g>
<g style="mix-blend-mode:multiply">
<path fill-rule="evenodd" clip-rule="evenodd" d="M120.886 79.8008L106.162 85.6127L122.357 92.8948C122.447 91.9145 122.492 90.9248 122.492 89.9268C122.492 86.4335 121.935 83.0413 120.886 79.8008ZM122.02 95.464L105.614 96.5649L119.217 104.247C120.545 101.449 121.496 98.5089 122.02 95.464ZM117.992 106.602L103 109.264L111.35 115.26C113.993 112.611 116.231 109.707 117.992 106.602Z" fill="#E4E4E4"/>
</g>
<g style="mix-blend-mode:multiply">
<path fill-rule="evenodd" clip-rule="evenodd" d="M26.6739 114.854L34.4591 109.264L20.5411 106.793C22.1947 109.668 24.2582 112.37 26.6739 114.854ZM19.0056 103.816L31.8456 96.565L16.4158 95.5295C16.915 98.3952 17.7916 101.168 19.0056 103.816ZM16.0313 92.4769L31.2971 85.6127L17.4302 80.1393C16.4509 83.2772 15.9319 86.555 15.9319 89.9269C15.9319 90.7832 15.9654 91.6334 16.0313 92.4769Z" fill="#E4E4E4"/>
</g>
<path d="M74.0068 98.3361C74.0068 100.038 72.0353 101.418 69.6035 101.418C67.1716 101.418 65.2001 100.038 65.2001 98.3361C65.2001 96.6338 67.1716 94.8135 69.6035 94.8135C72.0353 94.8135 74.0068 96.6338 74.0068 98.3361Z" fill="#0F0E0F"/>
<path d="M69.6035 97.0151V103.18C69.6035 105.125 68.0263 106.702 66.0808 106.702H64.98C63.6425 106.702 62.5582 105.618 62.5582 104.281V104.281" stroke="#1C1B1C" stroke-width="1.32099" stroke-linecap="round" stroke-linejoin="round"/>
<path d="M69.6034 97.0151V103.18C69.6034 105.125 71.1806 106.702 73.1261 106.702H74.2269C75.5645 106.702 76.6487 105.618 76.6487 104.281V104.281" stroke="#1C1B1C" stroke-width="1.32099" stroke-linecap="round" stroke-linejoin="round"/>
<circle cx="46.4371" cy="85.1697" r="10.6903" fill="white"/>
<mask id="mask0_36_643" style="mask-type:alpha" maskUnits="userSpaceOnUse" x="35" y="74" width="23" height="22">
<circle cx="46.4371" cy="85.1697" r="10.6903" fill="#FEDE77"/>
</mask>
<g mask="url(#mask0_36_643)">
<circle cx="49" cy="86" r="8" fill="#1C1B1C"/>
</g>
<circle cx="10.6903" cy="10.6903" r="10.6903" transform="matrix(-1 0 0 1 102.253 74.4794)" fill="white"/>
<mask id="mask1_36_643" style="mask-type:alpha" maskUnits="userSpaceOnUse" x="80" y="74" width="23" height="22">
<circle cx="10.6903" cy="10.6903" r="10.6903" transform="matrix(-1 0 0 1 102.253 74.4794)" fill="white"/>
</mask>
<g mask="url(#mask1_36_643)">
<circle cx="8" cy="8" r="8" transform="matrix(-1 0 0 1 97 78)" fill="#0F0E0F"/>
</g>
<g style="mix-blend-mode:multiply">
<path d="M32.9868 59.5758C34.287 53.1415 35.5457 48.8142 38.1521 42.159C38.3509 41.6513 38.9626 41.4463 39.4254 41.7344C44.4748 44.8776 47.2523 47.2855 51.082 51.4084C51.5256 51.8859 51.3064 52.6621 50.6805 52.8438C44.0554 54.767 39.9388 56.0465 34.46 60.4423C33.8055 60.9674 32.8206 60.3983 32.9868 59.5758Z" fill="#EBEBEB"/>
<path d="M104.319 58.9496C103.655 52.3536 103.024 48.432 100.284 41.682C100.08 41.1791 99.4689 40.9834 99.011 41.2747C94.4331 44.1866 91.8201 46.3483 87.5328 50.3567C87.0353 50.8219 87.234 51.6521 87.8866 51.8468C94.3907 53.7877 97.4689 55.1688 102.845 59.7092C103.456 60.2249 104.399 59.7448 104.319 58.9496Z" fill="#EBEBEB"/>
</g>
<circle cx="41" cy="104" r="6" fill="#FFCEB9"/>
<circle cx="97" cy="104" r="6" fill="#FFCEB9"/>
<path d="M115.36 63.2602L116.71 57.4067C117.112 55.6638 115.789 54 114 54C112.211 54 110.888 55.6638 111.29 57.4067L112.64 63.2602L113.299 66.2503L114.908 66.1457L115.36 63.2602Z" fill="white"/>
<path d="M116.74 67.3601L122.593 68.7102C124.336 69.1123 126 67.7885 126 65.9999C126 64.2112 124.336 62.8875 122.593 63.2895L116.74 64.6397L113.888 65.2255V66.5726L116.74 67.3601Z" fill="white"/>
<path d="M111.26 67.3601L105.407 68.7103C103.664 69.1124 102 67.7886 102 66C102 64.2113 103.664 62.8876 105.407 63.2896L111.26 64.6397L113.178 65.1029L113.543 66.8379L111.26 67.3601Z" fill="white"/>
<path d="M112.357 62.0328L109.84 58.007C108.892 56.4903 106.779 56.2499 105.515 57.5146C104.25 58.7794 104.49 60.8919 106.007 61.84L110.033 64.3567L112.881 66.2503L114 65.0815L112.357 62.0328Z" fill="white"/>
<path d="M117.967 64.3567L121.993 61.8401C123.51 60.8919 123.75 58.7795 122.485 57.5147C121.221 56.2499 119.108 56.4904 118.16 58.0071L115.643 62.0329L113.543 65.4042L114.605 66.8867L117.967 64.3567Z" fill="white"/>
<path d="M117.967 67.6432L121.993 70.1599C123.51 71.108 123.75 73.2205 122.485 74.4852C121.221 75.75 119.108 75.5095 118.16 73.9928L115.643 69.9671L113.667 67.2902L115.276 65.8062L117.967 67.6432Z" fill="white"/>
<path d="M112.357 69.9671L109.84 73.9929C108.892 75.5096 106.779 75.7501 105.515 74.4853C104.25 73.2206 104.49 71.1081 106.007 70.1599L110.033 67.6433L113.543 65.4993L114.444 66.2549L112.357 69.9671Z" fill="white"/>
<path d="M115.541 68.907L116.87 74.6672C117.265 76.3823 115.963 78.0196 114.203 78.0196C112.442 78.0196 111.14 76.3823 111.535 74.6672L112.864 68.907L113.375 65.7857L114.671 65.6442L115.541 68.907Z" fill="white"/>
<path d="M114 68.8258C115.561 68.8258 116.826 67.5608 116.826 66.0004C116.826 64.4399 115.561 63.175 114 63.175C112.44 63.175 111.175 64.4399 111.175 66.0004C111.175 67.5608 112.44 68.8258 114 68.8258Z" fill="#FED402"/>
<g style="mix-blend-mode:multiply">
<path fill-rule="evenodd" clip-rule="evenodd" d="M113.285 68.7345C113.513 68.7941 113.753 68.8259 114 68.8259C115.561 68.8259 116.826 67.5609 116.826 66.0004C116.826 64.44 115.561 63.175 114 63.175C113.838 63.175 113.679 63.1887 113.524 63.215C114.738 63.5318 115.634 64.6358 115.634 65.9491C115.634 67.3472 114.619 68.5081 113.285 68.7345Z" fill="#FED402" fill-opacity="0.5"/>
</g>
<path fill-rule="evenodd" clip-rule="evenodd" d="M62.2183 132.056C64.2607 132.056 66.1165 131.347 67.5926 130.516C67.2093 132.616 67.2412 134.502 67.2714 136.284L67.2779 136.678C67.3221 139.51 67.2892 142.132 65.6876 145.381C65.4099 145.944 65.6415 146.626 66.2049 146.904C66.7683 147.182 67.4501 146.95 67.7279 146.387C69.5797 142.63 69.5977 139.55 69.5523 136.642L69.5469 136.307C69.5088 133.988 69.4727 131.788 70.2327 129.241C71.6304 131.484 72.2782 133.689 72.9284 135.912L72.9458 135.971C73.7018 138.555 74.487 141.24 76.6334 143.648C77.0513 144.117 77.7703 144.158 78.2392 143.74C78.7081 143.322 78.7494 142.603 78.3314 142.134C76.5551 140.141 75.8861 137.92 75.1116 135.273L75.0921 135.206C74.7202 133.935 74.3248 132.583 73.755 131.182C74.9545 131.693 76.3204 132.056 77.7817 132.056C80.1457 132.056 82.3417 131.597 83.9892 130.804C85.5558 130.05 87 128.788 87 127.028C87 125.268 85.5558 124.007 83.9892 123.252C82.3417 122.459 80.1457 122 77.7817 122C74.3632 122 71.4674 123.986 70 125.208C68.5326 123.986 65.6368 122 62.2183 122C59.8543 122 57.6583 122.459 56.0108 123.252C54.4442 124.007 53 125.268 53 127.028C53 128.788 54.4442 130.05 56.0108 130.804C57.6583 131.597 59.8543 132.056 62.2183 132.056ZM56.9976 125.302C55.6395 125.956 55.2746 126.639 55.2746 127.028C55.2746 127.417 55.6395 128.101 56.9976 128.755C58.2749 129.37 60.1193 129.782 62.2183 129.782C64.8814 129.782 67.2855 128.154 68.5784 127.071L68.6041 127.006C67.3175 125.924 64.8992 124.275 62.2183 124.275C60.1193 124.275 58.2749 124.687 56.9976 125.302ZM71.6533 127.261C71.5852 127.163 71.5157 127.064 71.4447 126.966C72.743 125.883 75.1343 124.275 77.7817 124.275C79.8807 124.275 81.7252 124.687 83.0024 125.302C84.3605 125.956 84.7254 126.639 84.7254 127.028C84.7254 127.417 84.3605 128.101 83.0024 128.755C81.7252 129.37 79.8807 129.782 77.7817 129.782C75.2703 129.782 72.9893 128.334 71.6533 127.261Z" fill="#ED653B"/>
</svg>
