<svg width="140" height="156" viewBox="0 0 140 156" fill="none" xmlns="http://www.w3.org/2000/svg">
<g clip-path="url(#clip0_106_1211)">
<path d="M66.8369 29.0727C68.1147 24.3423 74.0696 20.349 74.0696 20.349C74.0696 20.349 76.7176 26.4403 75.4397 31.1707C74.1619 35.9012 68.6768 40.3123 68.6768 40.3123C68.6768 40.3123 65.559 33.8032 66.8369 29.0727Z" fill="#ACCC5F"/>
<path d="M63.8862 26.4706C59.7595 21.5054 50.1836 20.0954 50.1836 20.0954C50.1836 20.0954 50.0501 29.0022 54.1767 33.9675C58.3034 38.9328 67.5988 41.0497 67.5988 41.0497C67.5988 41.0497 68.0128 31.4359 63.8862 26.4706Z" fill="#BBD468"/>
<circle cx="27.5" cy="52.5232" r="19.5" fill="#454545"/>
<circle cx="26.5" cy="52.5" r="13.5" fill="#FFDED0"/>
<circle cx="113.5" cy="52.5232" r="19.5" fill="#454545"/>
<circle cx="113.5" cy="52.5" r="13.5" fill="#FFDED0"/>
<path d="M128 88.177C128 113.87 102.033 138 70 138C37.9675 138 12 113.87 12 88.177C12 62.4839 37.9675 34 70 34C102.033 34 128 62.4839 128 88.177Z" fill="#FBFBFB"/>
<circle cx="39" cy="83" r="13" fill="#454545"/>
<circle cx="43.3888" cy="80.5066" r="4.5" transform="rotate(-150 43.3888 80.5066)" fill="white"/>
<circle cx="37.3398" cy="88.4576" r="3" transform="rotate(-150 37.3398 88.4576)" fill="white"/>
<circle cx="103" cy="83" r="13" fill="#454545"/>
<circle cx="107.389" cy="80.5066" r="4.5" transform="rotate(-150 107.389 80.5066)" fill="white"/>
<circle cx="101.34" cy="88.4576" r="3" transform="rotate(-150 101.34 88.4576)" fill="white"/>
<ellipse cx="32.5" cy="104.5" rx="7.5" ry="5.5" fill="#FFC6AD"/>
<ellipse cx="109.5" cy="104.5" rx="7.5" ry="5.5" fill="#FFC6AD"/>
<rect x="69.9038" y="98.0093" width="2.14795" height="8.91294" rx="1.07397" fill="#454545"/>
<ellipse cx="70.935" cy="95.6118" rx="7.30303" ry="4.61181" fill="#454545"/>
<ellipse cx="67.1974" cy="93.5996" rx="1.15989" ry="1.11412" fill="white"/>
<path d="M63.5 104.493C67.3663 107.836 74.6337 107.836 78.5 104.493" stroke="#454545" stroke-width="2.5" stroke-linecap="round"/>
<path d="M60.4643 82.7857C60.4643 95.1805 49.9475 105.321 36.8571 105.321C23.7668 105.321 13.25 95.1805 13.25 82.7857C13.25 70.3909 23.7668 60.25 36.8571 60.25C49.9475 60.25 60.4643 70.3909 60.4643 82.7857Z" stroke="#323232" stroke-width="2.5"/>
<path d="M126.75 82.7857C126.75 95.1805 116.233 105.321 103.143 105.321C90.0525 105.321 79.5357 95.1805 79.5357 82.7857C79.5357 70.3909 90.0525 60.25 103.143 60.25C116.233 60.25 126.75 70.3909 126.75 82.7857Z" stroke="#323232" stroke-width="2.5"/>
<path d="M60.6095 81.0383C67.6834 79.8336 71.8348 79.8553 79.3905 81.0383V85.4286C72.1753 84.3306 68.0612 84.3152 60.6095 85.4286V81.0383Z" fill="#242424"/>
<path d="M94.4798 109.717C94.7095 109.347 94.5626 108.86 94.1689 108.675C89.7785 106.619 87.152 105.095 83.1302 102.389C82.7702 102.147 82.2777 102.272 82.0794 102.658C78.3565 109.898 76.0403 114.109 71.5148 121.155C67.2019 129.528 64.6268 134.134 59.5976 142.1C55.9381 149.53 53.6204 153.663 49.213 160.438C48.9975 160.77 49.088 161.214 49.4167 161.434C53.5326 164.179 56.1828 165.696 60.6534 167.827C61.0042 167.994 61.4258 167.852 61.6047 167.507C65.3264 160.33 67.6919 156.224 72.0584 149.19C76.4925 140.885 79.123 136.311 83.9756 128.245C87.8609 120.785 90.1412 116.691 94.4798 109.717Z" fill="#BCD466"/>
<g style="mix-blend-mode:multiply" opacity="0.25">
<path fill-rule="evenodd" clip-rule="evenodd" d="M56.7422 165.872C54.2959 164.574 52.1887 163.283 49.4167 161.434C49.088 161.214 48.9975 160.77 49.213 160.438C53.6204 153.663 55.9381 149.53 59.5976 142.1C64.6268 134.134 67.2019 129.528 71.5147 121.155C76.0403 114.109 78.3565 109.898 82.0793 102.658C82.2777 102.272 82.7702 102.147 83.1302 102.389C84.2057 103.113 85.1815 103.752 86.1179 104.339C85.9336 104.392 85.7699 104.517 85.6744 104.703C81.9515 111.944 79.6353 116.155 75.1098 123.2C70.7969 131.574 68.2218 136.179 63.1926 144.145C59.5331 151.575 57.2154 155.709 52.808 162.484C52.5925 162.815 52.683 163.26 53.0117 163.479C54.3764 164.389 55.5799 165.165 56.7422 165.872ZM90.4202 106.823C91.5594 107.423 92.7753 108.022 94.1689 108.675C94.3757 108.772 94.5144 108.953 94.5662 109.156C93.1047 108.402 91.789 107.661 90.4202 106.823Z" fill="#BCD466"/>
</g>
<path d="M90.4942 130.883C93.2568 134.879 92.4368 142.259 92.4368 142.259C92.4368 142.259 86.1042 140.641 83.3417 136.645C80.5791 132.648 80.7783 125.394 80.7783 125.394C80.7783 125.394 87.7317 126.887 90.4942 130.883Z" fill="#ACCC5F"/>
<path d="M96.4307 129.627C102.519 127.116 107.226 118.141 107.226 118.141C107.226 118.141 98.9764 115.239 92.8886 117.751C86.8008 120.263 81.5342 128.741 81.5342 128.741C81.5342 128.741 90.3429 132.139 96.4307 129.627Z" fill="#BBD468"/>
<path d="M49.5782 136.334C46.5083 130.971 47.6057 122.14 47.6057 122.14C47.6057 122.14 54.8067 125.257 57.8766 130.62C60.9465 135.983 60.5612 144.774 60.5612 144.774C60.5612 144.774 52.6481 141.697 49.5782 136.334Z" fill="#ACCC5F"/>
<path d="M55.5404 131.908C55.1437 126.59 59.4077 120.041 59.4077 120.041C59.4077 120.041 64.0438 125.062 64.4404 130.379C64.8371 135.697 61.0817 142.482 61.0817 142.482C61.0817 142.482 55.937 137.225 55.5404 131.908Z" fill="#BBD468"/>
<rect width="14.3366" height="5.94194" rx="2.97097" transform="matrix(-0.86916 -0.494531 -0.494531 0.86916 85.4448 125.662)" fill="#8BB554"/>
<rect width="14.3366" height="5.94194" rx="2.97097" transform="matrix(-0.86916 -0.494531 -0.494531 0.86916 73.6909 146.32)" fill="#8BB554"/>
</g>
<defs>
<clipPath id="clip0_106_1211">
<rect width="140" height="156" rx="4" fill="white"/>
</clipPath>
</defs>
</svg>
