<svg width="140" height="156" viewBox="0 0 140 156" fill="none" xmlns="http://www.w3.org/2000/svg">
<rect width="140" height="156" rx="4" fill="#EAEAEA"/>
<path d="M48.0114 70.4923C58.0153 46.7518 54.9117 25.5772 29.0761 22.6578" stroke="#FFEBA8" stroke-width="4" stroke-linecap="round"/>
<ellipse cx="7.38182" cy="9.49091" rx="7.38182" ry="9.49091" transform="matrix(-0.398439 0.917195 0.917195 0.398439 24.8828 11)" fill="#FFD974"/>
<path d="M91.5721 70.4923C81.5682 46.7518 84.6718 25.5772 110.507 22.6578" stroke="#FFEBA8" stroke-width="4" stroke-linecap="round"/>
<ellipse cx="108.937" cy="21.5521" rx="7.38182" ry="9.49091" transform="rotate(66.5194 108.937 21.5521)" fill="#FFD974"/>
<path d="M11.63 86.5034C12.9584 60.9985 34.0256 41 59.5651 41H80.4349C105.974 41 127.042 60.9985 128.37 86.5034V86.5034C129.8 113.957 107.925 137 80.4349 137H59.5651C32.0746 137 10.2002 113.957 11.63 86.5034V86.5034Z" fill="#FFEBA8"/>
<g style="mix-blend-mode:multiply">
<path fill-rule="evenodd" clip-rule="evenodd" d="M11.6563 86.041C11.6468 86.1949 11.6381 86.3491 11.63 86.5034C10.2002 113.957 32.0746 137 59.5651 137H80.4349C107.925 137 129.8 113.957 128.37 86.5034C128.362 86.349 128.353 86.1949 128.344 86.0409C126.797 110.986 106.055 131 80.4349 131H59.5651C33.9454 131 13.2034 110.986 11.6563 86.041Z" fill="#FFEBA8" fill-opacity="0.7"/>
</g>
<circle cx="15" cy="15" r="15" transform="matrix(-1 0 0 1 55 62)" fill="white"/>
<ellipse cx="41.4475" cy="75.434" rx="11.6555" ry="11.1893" fill="#393939"/>
<circle cx="44.711" cy="72.6367" r="3.72976" fill="white"/>
<circle cx="38.6502" cy="79.6301" r="2.3311" fill="white"/>
<circle cx="15" cy="15" r="15" transform="matrix(-1 0 0 1 115 62)" fill="white"/>
<ellipse cx="101.448" cy="75.434" rx="11.6555" ry="11.1893" fill="#393939"/>
<circle cx="104.711" cy="72.6367" r="3.72976" fill="white"/>
<circle cx="98.6503" cy="79.6301" r="2.3311" fill="white"/>
<path d="M83 89C83 90.8385 82.6637 92.659 82.0104 94.3576C81.3571 96.0561 80.3996 97.5995 79.1924 98.8995C77.9852 100.2 76.5521 101.231 74.9749 101.934C73.3977 102.638 71.7072 103 70 103C68.2928 103 66.6023 102.638 65.0251 101.934C63.4479 101.231 62.0148 100.2 60.8076 98.8995C59.6004 97.5995 58.6429 96.0561 57.9896 94.3576C57.3363 92.659 57 90.8385 57 89L83 89Z" fill="#393939"/>
<path fill-rule="evenodd" clip-rule="evenodd" d="M79.764 98.2431C79.5803 98.4681 79.3897 98.6871 79.1924 98.8995C77.9853 100.2 76.5522 101.231 74.9749 101.934C73.3977 102.638 71.7072 103 70 103C68.2929 103 66.6024 102.638 65.0252 101.934C63.4479 101.231 62.0148 100.2 60.8076 98.8995C60.6104 98.6871 60.4198 98.4681 60.2361 98.2431C61.499 96.2838 63.6096 95 66 95C67.4873 95 68.8662 95.4969 70 96.3443C71.1339 95.4969 72.5128 95 74 95C76.3905 95 78.5011 96.2838 79.764 98.2431Z" fill="#ED653B"/>
<ellipse cx="26.5" cy="98.5" rx="5.5" ry="4.5" fill="#FEB1AA"/>
<ellipse cx="116.5" cy="98.5" rx="5.5" ry="4.5" fill="#FEB1AA"/>
<path d="M85.3476 112.677C85.4406 112.614 85.5454 112.564 85.6597 112.532C86.2301 112.369 86.8242 112.696 86.9868 113.262C88.5569 118.725 89.085 121.899 89.1174 127.603C89.1207 128.191 88.6426 128.672 88.0496 128.677C87.4565 128.681 86.9731 128.208 86.9697 127.619C86.9409 122.541 86.5157 119.609 85.2458 115.001C84.462 117.246 83.1093 120.432 81.3153 122.048C78.369 124.701 73.1217 125.094 73.1217 125.094C73.1217 125.094 73.1867 119.081 76.1559 116.618C78.5619 114.622 83.544 113.16 85.3476 112.677Z" fill="#8ED2C9"/>
<path d="M97.1283 127.48C98.0554 132.701 94.0538 135.746 90.2089 136.428C86.3639 137.111 81.7659 134.995 80.9418 130.354C80.1177 125.713 83.3688 120.767 87.6438 121.982C91.0578 119.581 96.2011 122.258 97.1283 127.48Z" fill="#EB735A"/>
<path d="M105.894 113.874C105.777 113.794 105.645 113.732 105.502 113.691C104.785 113.486 104.039 113.897 103.835 114.607C101.863 121.468 101.2 125.454 101.16 132.617C101.155 133.356 101.756 133.96 102.5 133.966C103.245 133.971 103.852 133.377 103.857 132.638C103.893 126.26 104.427 122.579 106.021 116.792C107.006 119.611 108.704 123.612 110.957 125.641C114.657 128.973 121.247 129.466 121.247 129.466C121.247 129.466 121.165 121.915 117.436 118.822C114.415 116.315 108.159 114.48 105.894 113.874Z" fill="#8ED2C9"/>
<path d="M91.0996 132.462C89.9353 139.019 94.9604 142.843 99.7888 143.7C104.617 144.557 110.391 141.9 111.426 136.072C112.461 130.243 108.379 124.032 103.01 125.559C98.7228 122.543 92.2638 125.905 91.0996 132.462Z" fill="#FB7B60"/>
</svg>
