<svg width="140" height="156" viewBox="0 0 140 156" fill="none" xmlns="http://www.w3.org/2000/svg">
<g clip-path="url(#clip0_109_76)">
<circle cx="18" cy="81" r="16" fill="#D2714C"/>
<circle cx="19" cy="81" r="12" fill="#FFE1C2"/>
<circle cx="16" cy="16" r="16" transform="matrix(-1 0 0 1 137 65)" fill="#D2714C"/>
<circle cx="12" cy="12" r="12" transform="matrix(-1 0 0 1 132 69)" fill="#FFE1C2"/>
<path fill-rule="evenodd" clip-rule="evenodd" d="M76.7634 27.3029C79.3582 28.2474 80.6962 31.1166 79.7517 33.7115L75.9895 44.0481C75.1803 46.2712 72.9584 47.5718 70.7065 47.3048C70.3371 47.5734 69.9243 47.7955 69.4737 47.9595C66.8788 48.904 64.0096 47.5661 63.0651 44.9712L59.3029 34.6346C58.3584 32.0397 59.6964 29.1705 62.2913 28.226C64.8861 27.2815 67.7554 28.6195 68.6998 31.2144L69.3593 33.0263L70.3548 30.2913C71.2993 27.6964 74.1685 26.3584 76.7634 27.3029Z" fill="#D2714C"/>
<path d="M121 86.1518C121 109.816 97.9427 129 69.5 129C41.0573 129 18 109.816 18 86.1518C18 62.4874 41.0573 36 69.5 36C97.9427 36 121 62.4874 121 86.1518Z" fill="#D2714C"/>
<path fill-rule="evenodd" clip-rule="evenodd" d="M26.3676 109.573C26.838 100.159 34.5875 92 44.862 92H94.224C104.46 92 112.192 100.098 112.713 109.47C103.534 121.221 87.6193 128.994 69.522 129C69.5147 129 69.5073 129 69.5 129C69.4927 129 69.4854 129 69.478 129C51.4335 128.994 35.5588 121.266 26.3676 109.573Z" fill="#FFE1C2"/>
<path fill-rule="evenodd" clip-rule="evenodd" d="M70 93.3809C66.5546 101.678 59.1294 107.419 50.525 107.419C38.6371 107.419 29 96.4603 29 82.9424C29 69.4244 38.6371 58.4659 50.525 58.4659C59.1294 58.4659 66.5546 64.2068 70 72.5039C73.4454 64.2068 80.8706 58.4659 89.475 58.4659C101.363 58.4659 111 69.4244 111 82.9424C111 96.4603 101.363 107.419 89.475 107.419C80.8706 107.419 73.4454 101.678 70 93.3809Z" fill="#FFE1C2"/>
<ellipse cx="8" cy="10" rx="8" ry="10" transform="matrix(-1 0 0 1 57 78)" fill="#562B30"/>
<ellipse cx="3" cy="3.5" rx="3" ry="3.5" transform="matrix(-1 0 0 1 54 81)" fill="white"/>
<circle cx="1.5" cy="1.5" r="1.5" transform="matrix(-1 0 0 1 48 88)" fill="white"/>
<ellipse cx="92" cy="88" rx="8" ry="10" fill="#562B30"/>
<ellipse cx="90" cy="84.5" rx="3" ry="3.5" fill="white"/>
<circle cx="94.5" cy="89.5" r="1.5" fill="white"/>
<path d="M77.6846 98.1462C77.6846 100.014 74.7433 101.218 71.1151 101.218C67.4869 101.218 64.5457 100.014 64.5457 98.1462C64.5457 96.2788 67.4869 94 71.1151 94C74.7433 94 77.6846 96.2788 77.6846 98.1462Z" fill="#562B30"/>
<circle cx="74.1293" cy="96.5811" r="0.927448" fill="white"/>
<path d="M71.0855 95.9034V102.74C71.0855 104.973 72.8954 106.783 75.1282 106.783H75.693C77.6138 106.783 79.1709 105.226 79.1709 103.305V103.305" stroke="#562B30" stroke-width="1.70032" stroke-linecap="round" stroke-linejoin="round"/>
<path d="M71.0854 95.9034V102.74C71.0854 104.973 69.2755 106.783 67.0427 106.783H66.4779C64.5571 106.783 63 105.226 63 103.305V103.305" stroke="#562B30" stroke-width="1.70032" stroke-linecap="round" stroke-linejoin="round"/>
<ellipse cx="40.5" cy="102.5" rx="7.5" ry="5.5" fill="#FFB99B"/>
<ellipse cx="99.5" cy="102.5" rx="7.5" ry="5.5" fill="#FFB99B"/>
<g clip-path="url(#clip1_109_76)">
<path d="M89.2903 123.113C90.0381 121.574 90.2817 120.057 90.1381 118.666C90.0199 117.523 90.3419 116.349 91.0152 115.372C91.0624 115.304 91.1111 115.236 91.1617 115.17L93.1207 112.598C94.2316 111.14 94.109 109.098 92.7857 108.027C91.4128 106.915 89.3375 107.253 88.1924 108.756L87.1178 110.166C86.1464 111.441 84.6502 112.187 83.1256 112.15C81.6369 112.113 80.0511 112.537 78.5146 113.552C73.1861 117.07 67.2085 119.491 60.9467 120.575C54.6849 121.659 48.4412 121.354 42.6139 119.767C38.9693 118.775 35.6348 120.547 33.8035 123.292C31.9647 126.049 31.6415 129.786 34.0429 132.691C36.9592 136.219 40.6771 139.08 45.0278 140.998C56.4531 146.034 70.1826 143.657 80.2604 134.898C84.1016 131.559 87.1486 127.522 89.2903 123.113V123.113Z" fill="#EEBF00"/>
<path d="M91.0152 115.372C91.0624 115.304 91.1111 115.236 91.1617 115.17L92.1893 113.821L93.1207 112.598C94.2316 111.14 94.109 109.098 92.7857 108.027C91.4128 106.915 89.3375 107.253 88.1924 108.756L87.199 110.06L87.1178 110.166C86.1464 111.441 84.6502 112.187 83.1256 112.15C81.6369 112.113 80.0511 112.537 78.5146 113.552C73.1861 117.07 67.2085 119.491 60.9467 120.575C54.6849 121.659 48.4412 121.354 42.6139 119.767C38.9693 118.775 35.6348 120.547 33.8035 123.292C41.6097 130.61 52.3743 133.915 63.3514 132.363C74.2551 130.822 84.3199 124.636 91.0152 115.372V115.372Z" fill="#FFD422"/>
<path d="M92.1893 113.821L93.1206 112.598C94.2316 111.14 94.109 109.098 92.7857 108.027C91.4128 106.915 89.3375 107.253 88.1923 108.756L87.1989 110.06C88.4942 111.747 90.2116 113.041 92.1893 113.821Z" fill="#AA6100"/>
</g>
<g clip-path="url(#clip2_109_76)">
<path d="M107.195 46.7688C106.931 45.8878 106.476 45.1993 105.914 44.701C105.451 44.2916 105.152 43.71 105.063 43.0789C105.057 43.0347 105.052 42.9902 105.048 42.9455L104.888 41.216C104.798 40.2352 104.007 39.472 103.094 39.5292C102.147 39.5885 101.448 40.4762 101.542 41.4872L101.629 42.4359C101.708 43.2934 101.387 44.1322 100.771 44.6716C100.169 45.1984 99.6951 45.9425 99.456 46.9024C98.6264 50.231 97.1413 53.3616 95.0579 56.0665C92.9744 58.7715 90.3931 60.9202 87.5109 62.4105C85.7082 63.3426 85.0331 65.2559 85.3063 67.0076C85.5807 68.7665 86.8112 70.3627 88.8173 70.6392C91.2534 70.975 93.7643 70.7556 96.1827 69.933C102.534 67.7728 107.102 61.842 107.906 54.7135C108.212 51.9963 107.95 49.2916 107.195 46.7688V46.7688Z" fill="#EEBF00"/>
<path d="M105.063 43.0789C105.057 43.0347 105.052 42.9902 105.048 42.9455L104.964 42.0383L104.888 41.216C104.798 40.2352 104.007 39.472 103.094 39.5292C102.147 39.5885 101.448 40.4762 101.542 41.4872L101.623 42.3642L101.629 42.4359C101.708 43.2934 101.387 44.1322 100.771 44.6716C100.169 45.1984 99.6951 45.9425 99.456 46.9024C98.6264 50.231 97.1413 53.3616 95.0579 56.0665C92.9744 58.7715 90.3931 60.9202 87.5109 62.4105C85.7082 63.3426 85.0331 65.2559 85.3063 67.0076C91.0547 67.0655 96.515 64.4604 100.294 59.8566C104.048 55.2834 105.782 49.1777 105.063 43.0789V43.0789Z" fill="#FFD422"/>
<path d="M104.964 42.0384L104.888 41.2161C104.798 40.2352 104.007 39.4721 103.094 39.5292C102.147 39.5885 101.448 40.4762 101.542 41.4872L101.623 42.3642C102.748 42.5609 103.898 42.4488 104.964 42.0384Z" fill="#AA6100"/>
</g>
<g clip-path="url(#clip3_109_76)">
<path d="M26.679 43.6889C26.4541 43.0999 26.4134 42.5357 26.5108 42.0297C26.5909 41.614 26.5105 41.1729 26.2948 40.7929C26.2797 40.7663 26.264 40.7399 26.2476 40.7139L25.6114 39.7073C25.2507 39.1365 25.3613 38.3913 25.8812 38.0408C26.4207 37.6771 27.1714 37.8675 27.5433 38.4559L27.8922 39.008C28.2077 39.5071 28.7327 39.8287 29.2933 39.864C29.8407 39.8986 30.409 40.1051 30.9402 40.5267C32.7823 41.9888 34.8978 43.0691 37.1606 43.6682C39.4234 44.2672 41.7243 44.3559 43.9134 43.961C45.2826 43.714 46.4492 44.4715 47.0329 45.5376C47.6191 46.6081 47.6176 47.9898 46.643 48.9785C45.4596 50.1793 44.0034 51.1096 42.3454 51.6735C37.9913 53.1543 33.0299 51.8409 29.6136 48.3031C28.3115 46.9546 27.3232 45.3755 26.679 43.6889V43.6889Z" fill="#EEBF00"/>
<path d="M26.2948 40.7929C26.2797 40.7663 26.264 40.7399 26.2476 40.7139L25.9139 40.1859L25.6114 39.7073C25.2507 39.1365 25.3613 38.3913 25.8812 38.0408C26.4207 37.6771 27.1714 37.8675 27.5433 38.4559L27.8659 38.9663L27.8922 39.008C28.2076 39.5071 28.7327 39.8287 29.2933 39.864C29.8407 39.8986 30.409 40.1051 30.9402 40.5267C32.7823 41.9888 34.8978 43.0691 37.1606 43.6682C39.4234 44.2672 41.7243 44.3559 43.9134 43.961C45.2826 43.714 46.4492 44.4715 47.0329 45.5376C43.9334 47.9718 39.8774 48.8385 35.8995 47.9164C31.9481 47.0004 28.4538 44.4072 26.2948 40.7929V40.7929Z" fill="#FFD422"/>
<path d="M25.9139 40.1859L25.6114 39.7073C25.2506 39.1365 25.3612 38.3913 25.8812 38.0408C26.4207 37.6771 27.1714 37.8675 27.5432 38.4559L27.8658 38.9663C27.3364 39.5437 26.6646 39.9634 25.9139 40.1859Z" fill="#AA6100"/>
</g>
</g>
<defs>
<clipPath id="clip0_109_76">
<rect width="140" height="156" rx="4" fill="white"/>
</clipPath>
<clipPath id="clip1_109_76">
<rect width="52" height="56" fill="white" transform="translate(59.9348 83) rotate(37.2993)"/>
</clipPath>
<clipPath id="clip2_109_76">
<rect width="27.9379" height="30.0869" fill="white" transform="translate(81 41.5679) rotate(-5.27369)"/>
</clipPath>
<clipPath id="clip3_109_76">
<rect width="19.1533" height="20.6267" fill="white" transform="matrix(-0.845318 0.534264 0.534264 0.845318 38.7394 29.9135)"/>
</clipPath>
</defs>
</svg>
