<svg width="140" height="156" viewBox="0 0 140 156" fill="none" xmlns="http://www.w3.org/2000/svg">
<rect width="140" height="156" rx="4" fill="#19222F"/>
<path d="M38.4554 21.8353C30.5455 22.9184 23.6509 60.1729 23.6509 60.1729L59.701 55.8643C59.701 55.8643 45.9258 20.8124 38.4554 21.8353Z" fill="#FFCFBB"/>
<path d="M39.3563 27.8276C33.2665 28.6615 27.9584 57.3437 27.9584 57.3437L55.7133 54.0265C55.7133 54.0265 45.1078 27.04 39.3563 27.8276Z" fill="#FFDED0"/>
<path d="M100.63 21.8353C108.54 22.9184 115.434 60.1729 115.434 60.1729L79.3844 55.8643C79.3844 55.8643 93.1595 20.8124 100.63 21.8353Z" fill="#FFCFBB"/>
<path d="M99.729 27.8276C105.819 28.6615 111.127 57.3437 111.127 57.3437L83.3721 54.0265C83.3721 54.0265 93.9776 27.04 99.729 27.8276Z" fill="#FFDED0"/>
<rect x="19" y="35" width="100" height="103" rx="45.6567" fill="#FFD1BD"/>
<g style="mix-blend-mode:multiply">
<path fill-rule="evenodd" clip-rule="evenodd" d="M64.2439 113.878C64.2439 114.513 64.1188 115.142 63.8757 115.729C63.6326 116.316 63.2763 116.849 62.8271 117.299C62.3779 117.748 61.8446 118.104 61.2577 118.347C60.6708 118.59 60.0418 118.715 59.4065 118.715C58.7712 118.715 58.1422 118.59 57.5553 118.347C56.9684 118.104 56.4351 117.748 55.9859 117.299C55.5368 116.849 55.1804 116.316 54.9373 115.729C54.6942 115.142 54.5691 114.513 54.5691 113.878L59.4065 113.878H64.2439ZM73.9187 113.878H69.0813H64.2439C64.2439 114.513 64.369 115.142 64.6121 115.729C64.8552 116.316 65.2115 116.849 65.6607 117.299C66.1099 117.748 66.6432 118.104 67.2301 118.347C67.817 118.59 68.446 118.715 69.0813 118.715C69.7166 118.715 70.3456 118.59 70.9325 118.347C71.5194 118.104 72.0527 117.748 72.5019 117.299C72.951 116.849 73.3074 116.316 73.5505 115.729C73.7936 115.142 73.9187 114.513 73.9187 113.878ZM73.9187 113.878H78.7561H83.5935C83.5935 114.513 83.4684 115.142 83.2253 115.729C82.9822 116.316 82.6258 116.849 82.1767 117.299C81.7275 117.748 81.1942 118.104 80.6073 118.347C80.0204 118.59 79.3913 118.715 78.7561 118.715C78.1208 118.715 77.4918 118.59 76.9049 118.347C76.318 118.104 75.7847 117.748 75.3355 117.299C74.8863 116.849 74.53 116.316 74.2869 115.729C74.0438 115.142 73.9187 114.513 73.9187 113.878Z" fill="#F4B89F" fill-opacity="0.5"/>
</g>
<g style="mix-blend-mode:multiply">
<path fill-rule="evenodd" clip-rule="evenodd" d="M64.2439 103.236C64.2439 103.85 64.1188 104.458 63.8757 105.025C63.6326 105.593 63.2763 106.108 62.8271 106.542C62.3779 106.977 61.8446 107.321 61.2577 107.556C60.6708 107.791 60.0418 107.912 59.4065 107.912C58.7712 107.912 58.1422 107.791 57.5553 107.556C56.9684 107.321 56.4351 106.977 55.9859 106.542C55.5368 106.108 55.1804 105.593 54.9373 105.025C54.6942 104.458 54.5691 103.85 54.5691 103.236L59.4065 103.236H64.2439ZM73.9187 103.236H69.0813H64.2439C64.2439 103.85 64.369 104.458 64.6121 105.025C64.8552 105.593 65.2115 106.108 65.6607 106.542C66.1099 106.977 66.6432 107.321 67.2301 107.556C67.817 107.791 68.446 107.912 69.0813 107.912C69.7166 107.912 70.3456 107.791 70.9325 107.556C71.5194 107.321 72.0527 106.977 72.5019 106.542C72.951 106.108 73.3074 105.593 73.5505 105.025C73.7936 104.458 73.9187 103.85 73.9187 103.236ZM73.9187 103.236H78.7561H83.5935C83.5935 103.85 83.4684 104.458 83.2253 105.025C82.9822 105.593 82.6258 106.108 82.1767 106.542C81.7275 106.977 81.1942 107.321 80.6073 107.556C80.0204 107.791 79.3913 107.912 78.7561 107.912C78.1208 107.912 77.4918 107.791 76.9049 107.556C76.318 107.321 75.7847 106.977 75.3355 106.542C74.8863 106.108 74.53 105.593 74.2869 105.025C74.0438 104.458 73.9187 103.85 73.9187 103.236Z" fill="#F4B89F" fill-opacity="0.5"/>
</g>
<g style="mix-blend-mode:multiply">
<path fill-rule="evenodd" clip-rule="evenodd" d="M57.6328 124.52H63.5989H69.565H75.5311C75.5311 126.103 74.9026 127.62 73.7837 128.739C72.6648 129.858 71.1473 130.486 69.565 130.486C67.9827 130.486 66.4652 129.858 65.3463 128.739C64.23 127.623 63.6017 126.109 63.5989 124.531C63.5975 125.311 63.4432 126.083 63.1448 126.803C62.8449 127.527 62.4055 128.185 61.8515 128.739C61.2975 129.293 60.6398 129.732 59.9159 130.032C59.1921 130.332 58.4163 130.486 57.6328 130.486C56.8493 130.486 56.0735 130.332 55.3497 130.032C54.6258 129.732 53.9681 129.293 53.4141 128.739C52.8601 128.185 52.4206 127.527 52.1208 126.803C51.821 126.08 51.6667 125.304 51.6667 124.52L57.6328 124.52ZM87.0093 126.803C87.3091 126.08 87.4634 125.304 87.4634 124.52H81.4973L75.5312 124.52C75.5312 125.304 75.6855 126.08 75.9853 126.803C76.2852 127.527 76.7246 128.185 77.2786 128.739C77.8326 129.293 78.4903 129.732 79.2142 130.032C79.938 130.332 80.7138 130.486 81.4973 130.486C82.2808 130.486 83.0566 130.332 83.7804 130.032C84.5043 129.732 85.162 129.293 85.716 128.739C86.27 128.185 86.7095 127.527 87.0093 126.803Z" fill="#F4B89F" fill-opacity="0.5"/>
</g>
<path fill-rule="evenodd" clip-rule="evenodd" d="M24.1966 59.4821C20.8776 65.811 19 73.0146 19 80.6566V92.3433C19 110.643 29.7661 126.428 45.3098 133.71C51.297 126.967 54.9332 118.089 54.9332 108.362V96.9481C54.9332 78.4062 41.7204 62.9503 24.1966 59.4821Z" fill="#FFDED0"/>
<path fill-rule="evenodd" clip-rule="evenodd" d="M113.817 59.5078C117.128 65.8305 119 73.0249 119 80.6567V92.3434C119 110.604 108.28 126.36 92.7902 133.663C86.8278 126.926 83.2085 118.067 83.2085 108.362V96.9481C83.2085 78.4515 96.3568 63.0258 113.817 59.5078Z" fill="#FFDED0"/>
<path d="M69.0708 74.5354C69.0708 90.2951 56.2951 103.071 40.5354 103.071C24.7757 103.071 12 90.2951 12 74.5354C12 58.7757 24.7757 46 40.5354 46C56.2951 46 69.0708 58.7757 69.0708 74.5354Z" fill="white"/>
<path d="M62.5041 74.252C62.5041 86.5415 52.5415 96.5041 40.252 96.5041C27.9626 96.5041 18 86.5415 18 74.252C18 61.9626 27.9626 52 40.252 52C52.5415 52 62.5041 61.9626 62.5041 74.252Z" fill="#F3F3F3"/>
<path d="M55.5923 74.7961C55.5923 82.9678 48.9678 89.5923 40.7961 89.5923C32.6245 89.5923 26 82.9678 26 74.7961C26 66.6245 32.6245 60 40.7961 60C48.9678 60 55.5923 66.6245 55.5923 74.7961Z" fill="#323232"/>
<path d="M41.007 69.877C41.007 72.7955 38.6411 75.1614 35.7226 75.1614C32.8042 75.1614 30.4383 72.7955 30.4383 69.877C30.4383 66.9586 32.8042 64.5927 35.7226 64.5927C38.6411 64.5927 41.007 66.9586 41.007 69.877Z" fill="#F7F7F7"/>
<path d="M127.071 74.5354C127.071 90.2951 114.295 103.071 98.5354 103.071C82.7757 103.071 70 90.2951 70 74.5354C70 58.7757 82.7757 46 98.5354 46C114.295 46 127.071 58.7757 127.071 74.5354Z" fill="white"/>
<path d="M120.504 74.252C120.504 86.5415 110.541 96.5041 98.252 96.5041C85.9626 96.5041 76 86.5415 76 74.252C76 61.9626 85.9626 52 98.252 52C110.541 52 120.504 61.9626 120.504 74.252Z" fill="#F3F3F3"/>
<path d="M113.592 74.7961C113.592 82.9678 106.968 89.5923 98.7961 89.5923C90.6245 89.5923 84 82.9678 84 74.7961C84 66.6245 90.6245 60 98.7961 60C106.968 60 113.592 66.6245 113.592 74.7961Z" fill="#323232"/>
<path d="M109.581 69.877C109.581 72.7955 107.215 75.1614 104.297 75.1614C101.379 75.1614 99.0127 72.7955 99.0127 69.877C99.0127 66.9586 101.379 64.5927 104.297 64.5927C107.215 64.5927 109.581 66.9586 109.581 69.877Z" fill="#F7F7F7"/>
<path d="M78 77.5949C78 74.5049 74.1944 72 69.5 72C64.8056 72 61 74.5049 61 77.5949C61 80.6849 64.8056 89 69.5 89C74.1944 89 78 80.6849 78 77.5949Z" fill="#FFD500"/>
<ellipse cx="35.7032" cy="95.9797" rx="7.2561" ry="4.35366" fill="#FFB99B"/>
<ellipse cx="103.427" cy="95.9797" rx="7.2561" ry="4.35366" fill="#FFB99B"/>
<g filter="url(#filter0_f_109_259)">
<path d="M104 108L108.051 118.949L119 123L108.051 127.051L104 138L99.9486 127.051L89 123L99.9486 118.949L104 108Z" fill="white"/>
</g>
<path d="M104 108L108.051 118.949L119 123L108.051 127.051L104 138L99.9486 127.051L89 123L99.9486 118.949L104 108Z" fill="white"/>
<g filter="url(#filter1_f_109_259)">
<path d="M116.5 16L118.526 21.4743L124 23.5L118.526 25.5257L116.5 31L114.474 25.5257L109 23.5L114.474 21.4743L116.5 16Z" fill="white"/>
</g>
<path d="M116.5 16L118.526 21.4743L124 23.5L118.526 25.5257L116.5 31L114.474 25.5257L109 23.5L114.474 21.4743L116.5 16Z" fill="white"/>
<g filter="url(#filter2_f_109_259)">
<path d="M22.5 28L25.336 35.664L33 38.5L25.336 41.336L22.5 49L19.664 41.336L12 38.5L19.664 35.664L22.5 28Z" fill="white"/>
</g>
<path d="M22.5 28L25.336 35.664L33 38.5L25.336 41.336L22.5 49L19.664 41.336L12 38.5L19.664 35.664L22.5 28Z" fill="white"/>
<defs>
<filter id="filter0_f_109_259" x="85.25" y="104.25" width="37.5" height="37.5" filterUnits="userSpaceOnUse" color-interpolation-filters="sRGB">
<feFlood flood-opacity="0" result="BackgroundImageFix"/>
<feBlend mode="normal" in="SourceGraphic" in2="BackgroundImageFix" result="shape"/>
<feGaussianBlur stdDeviation="1.875" result="effect1_foregroundBlur_109_259"/>
</filter>
<filter id="filter1_f_109_259" x="105.842" y="12.8421" width="21.3158" height="21.3158" filterUnits="userSpaceOnUse" color-interpolation-filters="sRGB">
<feFlood flood-opacity="0" result="BackgroundImageFix"/>
<feBlend mode="normal" in="SourceGraphic" in2="BackgroundImageFix" result="shape"/>
<feGaussianBlur stdDeviation="1.57895" result="effect1_foregroundBlur_109_259"/>
</filter>
<filter id="filter2_f_109_259" x="7.57895" y="23.5789" width="29.8421" height="29.8421" filterUnits="userSpaceOnUse" color-interpolation-filters="sRGB">
<feFlood flood-opacity="0" result="BackgroundImageFix"/>
<feBlend mode="normal" in="SourceGraphic" in2="BackgroundImageFix" result="shape"/>
<feGaussianBlur stdDeviation="2.21053" result="effect1_foregroundBlur_109_259"/>
</filter>
</defs>
</svg>
