<svg width="140" height="156" viewBox="0 0 140 156" fill="none" xmlns="http://www.w3.org/2000/svg">
<rect width="140" height="156" rx="4" fill="#FFEBA8"/>
<path fill-rule="evenodd" clip-rule="evenodd" d="M16 41.2111C16 30.0488 25.0488 21 36.2111 21C47.3734 21 56.4222 30.0488 56.4222 41.2111V42.9546C56.4222 43.5069 56.8699 43.9546 57.4222 43.9546H81.5778C82.1301 43.9546 82.5778 43.5069 82.5778 42.9546V41.2111C82.5778 30.0488 91.6266 21 102.789 21C113.951 21 123 30.0488 123 41.2111V79.0244V79.0244C123 79.5632 122.563 80 122.024 80H57.4222C56.8699 80 56.4222 80.4478 56.4222 81V81C56.4222 81.5523 55.9745 82 55.4222 82H17C16.4477 82 16 81.5523 16 81V80V43.9546V41.2111Z" fill="#51B36A"/>
<path d="M8 91.69C8 73.7387 22.2289 58.9635 40.1762 58.5866C60.8262 58.1529 78.6467 58.1521 99.2987 58.5856C117.246 58.9624 131.474 73.7379 131.474 91.6888V91.6888C131.474 110.086 116.56 125 98.1625 125H41.31C22.9134 125 8 110.087 8 91.69V91.69Z" fill="#59C385"/>
<circle cx="36" cy="41" r="15" fill="white"/>
<circle cx="11" cy="11" r="11" transform="matrix(-1 0 0 1 46 33)" fill="#393939"/>
<circle cx="4.05263" cy="4.05263" r="4.05263" transform="matrix(-1 0 0 1 42.4459 36.6986)" fill="white"/>
<circle cx="1.73684" cy="1.73684" r="1.73684" transform="matrix(-1 0 0 1 35.3685 46.092)" fill="white"/>
<circle cx="104" cy="41" r="15" fill="white"/>
<circle cx="11" cy="11" r="11" transform="matrix(-1 0 0 1 114 33)" fill="#393939"/>
<circle cx="4.05263" cy="4.05263" r="4.05263" transform="matrix(-1 0 0 1 110.446 36.6986)" fill="white"/>
<circle cx="1.73684" cy="1.73684" r="1.73684" transform="matrix(-1 0 0 1 103.368 46.092)" fill="white"/>
<path fill-rule="evenodd" clip-rule="evenodd" d="M113.467 121.502C109.037 123.74 104.029 125 98.7263 125H40.7474C35.4449 125 30.4367 123.74 26.0061 121.502C24.7695 118.189 24.1052 114.677 24.1052 111.042C24.1052 90.8808 44.5352 74.5369 69.7368 74.5369C94.9384 74.5369 115.368 90.8808 115.368 111.042C115.368 114.677 114.704 118.189 113.467 121.502Z" fill="#89E3B4"/>
<ellipse cx="54.1684" cy="68.2421" rx="3.22105" ry="4.29474" fill="#393939"/>
<ellipse cx="85.3053" cy="68.2421" rx="3.22105" ry="4.29474" fill="#393939"/>
<circle cx="23" cy="82.8315" r="11" fill="#FFAA97"/>
<circle cx="117" cy="82.8315" r="11" fill="#FFAA97"/>
<path d="M54 102.842H62.5895V108.284C62.5895 110.063 61.1474 111.505 59.3684 111.505H57.2211C55.4421 111.505 54 110.063 54 108.284V102.842Z" fill="#F2F2F2"/>
<path d="M78.5895 102.842H87.179V108.284C87.179 110.063 85.7368 111.505 83.9579 111.505H81.8105C80.0316 111.505 78.5895 110.063 78.5895 108.284V102.842Z" fill="#F2F2F2"/>
<path d="M42 96C44.4869 100.007 47.955 103.105 52.7759 103.373C57.7082 103.647 64.03 101.046 69.7906 101.104C75.3193 101.161 80.8534 103.5 85.6709 103.373C91.0674 103.231 95.5648 100.407 98.1483 96" stroke="#433D3C" stroke-width="2.83577" stroke-linecap="round" stroke-linejoin="round"/>
<rect x="64" y="47" width="12" height="3" rx="1.5" fill="#89E3B4" fill-opacity="0.8"/>
<rect x="64" y="52" width="12" height="3" rx="1.5" fill="#89E3B4" fill-opacity="0.8"/>
<path d="M74.7022 72.9454C74.7156 72.8032 74.7225 72.659 74.7225 72.5131C74.7225 70.0206 72.7155 68 70.2397 68C67.7639 68 65.7569 70.0206 65.7569 72.5131C65.7569 72.7551 65.7758 72.9926 65.8122 73.2243C64.3187 72.3207 62.3855 72.3042 60.8863 73.3367C58.8583 74.7334 58.3926 77.5208 59.8461 79.5626C60.621 80.6511 61.7849 81.3079 63.0101 81.4723C62.8857 81.609 62.7682 81.7545 62.6584 81.9087C61.2049 83.9504 61.6706 86.7379 63.6986 88.1346C65.7267 89.5313 68.549 89.0084 70.0026 86.9666C70.081 86.8564 70.1539 86.744 70.2212 86.6298C70.2885 86.744 70.3614 86.8564 70.4399 86.9666C71.8934 89.0084 74.7158 89.5313 76.7438 88.1346C78.7718 86.7379 79.2376 83.9504 77.784 81.9087C77.6549 81.7273 77.5151 81.558 77.3659 81.4009C78.4419 81.1593 79.4409 80.5322 80.1311 79.5626C81.5847 77.5208 81.1189 74.7334 79.0909 73.3367C77.766 72.4242 76.102 72.331 74.7022 72.9454Z" fill="#FFE799"/>
<g style="mix-blend-mode:multiply">
<circle cx="70.493" cy="78.9469" r="3.38163" transform="rotate(24.6549 70.493 78.9469)" fill="#FFCE05" fill-opacity="0.6"/>
</g>
<path d="M44.3704 132.552C46.6686 133.8 49.1869 135.075 52.0488 136.453C52.3794 136.612 52.7826 136.466 52.9493 136.127C53.116 135.788 52.9831 135.384 52.6525 135.224C49.8461 133.873 47.3752 132.624 45.1203 131.401C45.1213 131.308 45.1106 131.216 45.089 131.126C45.1028 131.078 45.1145 131.027 45.1237 130.974C45.3999 129.397 45.5854 127.344 45.2015 125.498C45.0126 124.59 44.6755 123.683 44.2759 122.833C43.2508 120.651 40.4699 121.148 40.3935 123.527C40.3637 124.454 40.4148 125.412 40.6036 126.32C40.833 127.423 41.2809 128.525 41.794 129.525C39.341 128.081 37.1062 126.621 34.8887 125.017C34.9029 124.972 34.9153 124.925 34.9256 124.876C35.2565 123.308 35.5134 121.26 35.1946 119.4C35.0377 118.485 34.7328 117.566 34.3636 116.7C33.4163 114.481 30.6225 114.879 30.4632 117.256C30.4011 118.183 30.4186 119.143 30.5754 120.058C30.6986 120.777 30.9131 121.498 31.1783 122.194C28.8608 120.347 26.4445 118.276 23.7131 115.845L22.8117 116.875C25.5235 119.289 27.9307 121.353 30.2401 123.197C29.5468 123.182 28.8492 123.218 28.1795 123.328C27.2705 123.476 26.3636 123.768 25.5133 124.124C23.3111 125.045 23.848 127.831 26.2599 127.998C27.1912 128.062 28.1518 128.049 29.0609 127.9C30.8195 127.613 32.5701 126.788 33.9187 126.005C35.9962 127.515 38.085 128.898 40.3448 130.256C39.664 130.337 38.986 130.467 38.3446 130.664C37.4603 130.935 36.5974 131.348 35.7993 131.815C33.7322 133.026 34.6389 135.702 37.0601 135.536C37.995 135.472 38.9488 135.328 39.833 135.056C41.525 134.537 43.1389 133.501 44.3704 132.552Z" fill="#BBD468"/>
<path d="M14.0327 104.846C14.033 102.535 14.8996 100.221 16.6374 99.9653C19.6345 99.525 23.4198 103.574 25.7616 108.68C27.8157 113.158 27.9878 117.175 25.8959 118.39C25.8572 118.452 25.8156 118.511 25.7708 118.568C25.7218 118.631 25.6696 118.691 25.6144 118.748C24.9485 121.085 20.6279 122.394 15.8045 121.467C10.3097 120.41 5.88492 117.182 5.58964 114.153C5.4178 112.39 7.43075 110.991 9.67731 110.439C8.35044 108.261 7.53526 106.12 8.44879 104.947C9.36032 103.777 11.6175 104.08 14.0327 104.846Z" fill="#FFEBA8"/>
<path d="M14.0326 104.846C14.033 102.535 14.8996 100.221 16.6374 99.9654C19.6345 99.5251 23.4198 103.574 25.7616 108.68C27.8156 113.158 27.9877 117.176 25.8958 118.39C25.8572 118.452 25.8155 118.511 25.7708 118.569C25.7217 118.631 25.6696 118.691 25.6143 118.748C24.9484 121.085 20.6279 122.394 15.8044 121.467C10.3096 120.41 5.88487 117.182 5.5896 114.153C5.41776 112.39 7.43071 110.991 9.67726 110.439C8.3504 108.261 7.53522 106.12 8.44875 104.947C9.36028 103.777 11.6175 104.08 14.0326 104.846Z" fill="white"/>
<path d="M94.9872 132.552C92.689 133.8 90.1707 135.075 87.3089 136.453C86.9783 136.612 86.5751 136.466 86.4084 136.127C86.2416 135.788 86.3745 135.384 86.7052 135.224C89.5116 133.873 91.9825 132.624 94.2374 131.401C94.2364 131.308 94.247 131.216 94.2687 131.126C94.2548 131.078 94.2432 131.027 94.234 130.974C93.9578 129.397 93.7723 127.344 94.1562 125.498C94.345 124.59 94.6821 123.683 95.0817 122.833C96.1068 120.651 98.8878 121.148 98.9642 123.527C98.994 124.454 98.9429 125.412 98.754 126.32C98.5247 127.423 98.0768 128.525 97.5637 129.525C100.017 128.081 102.252 126.621 104.469 125.017C104.455 124.972 104.442 124.925 104.432 124.876C104.101 123.308 103.844 121.26 104.163 119.4C104.32 118.485 104.625 117.566 104.994 116.7C105.941 114.481 108.735 114.879 108.894 117.256C108.957 118.183 108.939 119.143 108.782 120.058C108.659 120.777 108.445 121.498 108.179 122.194C110.497 120.347 112.913 118.276 115.645 115.845L116.546 116.875C113.834 119.289 111.427 121.353 109.118 123.197C109.811 123.182 110.508 123.218 111.178 123.328C112.087 123.476 112.994 123.768 113.844 124.124C116.047 125.045 115.51 127.831 113.098 127.998C112.166 128.062 111.206 128.049 110.297 127.9C108.538 127.613 106.788 126.788 105.439 126.005C103.361 127.515 101.273 128.898 99.0129 130.256C99.6937 130.337 100.372 130.467 101.013 130.664C101.897 130.935 102.76 131.348 103.558 131.815C105.625 133.026 104.719 135.702 102.298 135.536C101.363 135.472 100.409 135.328 99.5246 135.056C97.8326 134.537 96.2188 133.501 94.9872 132.552Z" fill="#BBD468"/>
<path d="M125.325 104.846C125.325 102.535 124.458 100.221 122.72 99.9653C119.723 99.525 115.938 103.574 113.596 108.68C111.542 113.158 111.37 117.175 113.462 118.39C113.5 118.452 113.542 118.511 113.587 118.568C113.636 118.631 113.688 118.691 113.743 118.748C114.409 121.085 118.73 122.394 123.553 121.467C129.048 120.41 133.473 117.182 133.768 114.153C133.94 112.39 131.927 110.991 129.68 110.439C131.007 108.261 131.822 106.12 130.909 104.947C129.997 103.777 127.74 104.08 125.325 104.846Z" fill="#FFEBA8"/>
<path d="M125.325 104.846C125.325 102.535 124.458 100.221 122.72 99.9654C119.723 99.5251 115.938 103.574 113.596 108.68C111.542 113.158 111.37 117.176 113.462 118.39C113.5 118.452 113.542 118.511 113.587 118.569C113.636 118.631 113.688 118.691 113.743 118.748C114.409 121.085 118.73 122.394 123.553 121.467C129.048 120.41 133.473 117.182 133.768 114.153C133.94 112.39 131.927 110.991 129.68 110.439C131.007 108.261 131.822 106.12 130.909 104.947C129.997 103.777 127.74 104.08 125.325 104.846Z" fill="white"/>
<path d="M74.7022 128.945C74.7156 128.803 74.7225 128.659 74.7225 128.513C74.7225 126.021 72.7155 124 70.2397 124C67.7639 124 65.7569 126.021 65.7569 128.513C65.7569 128.755 65.7758 128.993 65.8122 129.224C64.3187 128.321 62.3855 128.304 60.8863 129.337C58.8583 130.733 58.3926 133.521 59.8461 135.563C60.621 136.651 61.7849 137.308 63.0101 137.472C62.8857 137.609 62.7682 137.755 62.6584 137.909C61.2049 139.95 61.6706 142.738 63.6986 144.135C65.7267 145.531 68.549 145.008 70.0026 142.967C70.081 142.856 70.1539 142.744 70.2212 142.63C70.2885 142.744 70.3614 142.856 70.4399 142.967C71.8934 145.008 74.7158 145.531 76.7438 144.135C78.7718 142.738 79.2376 139.95 77.784 137.909C77.6549 137.727 77.5151 137.558 77.3659 137.401C78.4419 137.159 79.4409 136.532 80.1311 135.563C81.5847 133.521 81.1189 130.733 79.0909 129.337C77.766 128.424 76.102 128.331 74.7022 128.945Z" fill="white"/>
<g style="mix-blend-mode:multiply">
<circle cx="70.493" cy="134.947" r="3.38163" transform="rotate(24.6549 70.493 134.947)" fill="#FFCE05" fill-opacity="0.6"/>
</g>
<path d="M92.5122 127.256C92.5238 127.133 92.5297 127.009 92.5297 126.884C92.5297 124.739 90.8026 123 88.6721 123C86.5416 123 84.8145 124.739 84.8145 126.884C84.8145 127.092 84.8308 127.296 84.8622 127.496C83.577 126.718 81.9133 126.704 80.6232 127.592C78.8781 128.794 78.4773 131.193 79.7281 132.95C80.3949 133.887 81.3965 134.452 82.4509 134.593C82.3438 134.711 82.2426 134.836 82.1482 134.969C80.8974 136.726 81.2981 139.125 83.0433 140.326C84.7885 141.528 87.2173 141.078 88.4681 139.321C88.5356 139.227 88.5983 139.13 88.6562 139.032C88.7142 139.13 88.7769 139.227 88.8444 139.321C90.0952 141.078 92.5239 141.528 94.2691 140.326C96.0143 139.125 96.4151 136.726 95.1643 134.969C95.0532 134.813 94.9328 134.667 94.8045 134.532C95.7304 134.324 96.5901 133.784 97.1841 132.95C98.4349 131.193 98.0341 128.794 96.2889 127.592C95.1488 126.807 93.7168 126.727 92.5122 127.256Z" fill="white"/>
<g style="mix-blend-mode:multiply">
<circle cx="88.8901" cy="132.42" r="2.91" transform="rotate(24.6549 88.8901 132.42)" fill="#FFCE05" fill-opacity="0.6"/>
</g>
<path d="M55.5122 127.256C55.5238 127.133 55.5297 127.009 55.5297 126.884C55.5297 124.739 53.8026 123 51.6721 123C49.5416 123 47.8145 124.739 47.8145 126.884C47.8145 127.092 47.8308 127.296 47.8622 127.496C46.577 126.718 44.9133 126.704 43.6232 127.592C41.8781 128.794 41.4773 131.193 42.7281 132.95C43.3949 133.887 44.3965 134.452 45.4509 134.593C45.3438 134.711 45.2426 134.836 45.1482 134.969C43.8974 136.726 44.2981 139.125 46.0433 140.326C47.7885 141.528 50.2173 141.078 51.4681 139.321C51.5356 139.227 51.5983 139.13 51.6562 139.032C51.7142 139.13 51.7769 139.227 51.8444 139.321C53.0952 141.078 55.5239 141.528 57.2691 140.326C59.0143 139.125 59.4151 136.726 58.1643 134.969C58.0532 134.813 57.9328 134.667 57.8045 134.532C58.7304 134.324 59.5901 133.784 60.1841 132.95C61.4349 131.193 61.0341 128.794 59.2889 127.592C58.1488 126.807 56.7168 126.727 55.5122 127.256Z" fill="white"/>
<g style="mix-blend-mode:multiply">
<circle cx="51.8901" cy="132.42" r="2.91" transform="rotate(24.6549 51.8901 132.42)" fill="#FFCE05" fill-opacity="0.6"/>
</g>
</svg>
