<svg width="140" height="156" viewBox="0 0 140 156" fill="none" xmlns="http://www.w3.org/2000/svg">
<rect width="140" height="156" rx="4" fill="#EAEAEA"/>
<path d="M96.5499 25.5515C79.7474 44.9821 76.501 56.5868 72.9332 84.3213" stroke="#5EA985" stroke-width="1.84133" stroke-linecap="round"/>
<path d="M98.2598 18.0956C97.0382 19.3158 96.1544 20.943 95.5219 22.5398C94.4287 25.2997 97.0184 27.6874 99.7072 26.4295C101.222 25.7208 102.768 24.7894 103.963 23.5962C105.118 22.4427 106.028 20.9602 106.729 19.495C108.032 16.7734 105.574 14.1623 102.779 15.2983C101.144 15.9629 99.4845 16.8723 98.2598 18.0956Z" fill="#5EA985"/>
<path d="M94 31.8045C92.783 31.946 91.5496 32.3653 90.4675 32.8455C88.8996 33.5413 89.1315 35.5368 90.8173 35.8544C91.9807 36.0736 93.2774 36.1988 94.4944 36.0573C95.7114 35.9158 96.9447 35.4965 98.0268 35.0163C99.5948 34.3205 99.3628 32.325 97.6771 32.0074C96.5136 31.7882 95.217 31.663 94 31.8045Z" fill="#5EA985"/>
<path d="M86.5549 29.9693C86.7214 31.1832 87.166 32.4076 87.6684 33.4796C88.3964 35.0329 90.3867 34.7599 90.6695 33.068C90.8646 31.9003 90.9631 30.6013 90.7966 29.3875C90.6301 28.1736 90.1855 26.9492 89.6831 25.8772C88.9552 24.3239 86.9649 24.5969 86.6821 26.2889C86.4869 27.4565 86.3884 28.7555 86.5549 29.9693Z" fill="#5EA985"/>
<path d="M87.7744 41.403C86.5574 41.5445 85.3241 41.9638 84.242 42.444C82.674 43.1398 82.906 45.1353 84.5918 45.4529C85.7552 45.6721 87.0518 45.7973 88.2688 45.6558C89.4859 45.5143 90.7192 45.095 91.8013 44.6148C93.3693 43.919 93.1373 41.9235 91.4515 41.6059C90.2881 41.3867 88.9915 41.2615 87.7744 41.403Z" fill="#5EA985"/>
<path d="M79.4113 40.8816C79.8648 42.0198 80.5907 43.1014 81.3361 44.0212C82.4161 45.354 84.2824 44.6105 84.1501 42.9002C84.0589 41.7198 83.8422 40.4353 83.3888 39.2971C82.9354 38.1588 82.2094 37.0772 81.4641 36.1574C80.384 34.8247 78.5177 35.5681 78.65 37.2784C78.7412 38.4588 78.9579 39.7433 79.4113 40.8816Z" fill="#5EA985"/>
<path d="M82.3068 51.9405C81.1024 52.1656 79.9009 52.6689 78.8545 53.2226C77.3382 54.0248 77.7071 55.9996 79.4108 56.2002C80.5866 56.3386 81.8887 56.3742 83.0931 56.1492C84.2975 55.9241 85.499 55.4208 86.5454 54.8671C88.0617 54.0649 87.6927 52.0902 85.9891 51.8895C84.8133 51.7511 83.5112 51.7155 82.3068 51.9405Z" fill="#5EA985"/>
<path d="M74.8038 52.0359C75.416 53.0972 76.2897 54.0634 77.1595 54.8666C78.4197 56.0305 80.1599 55.0267 79.7834 53.3531C79.5235 52.1981 79.1247 50.958 78.5125 49.8967C77.9003 48.8353 77.0265 47.8692 76.1568 47.066C74.8966 45.9021 73.1564 46.9059 73.5329 48.5795C73.7927 49.7345 74.1916 50.9746 74.8038 52.0359Z" fill="#5EA985"/>
<path d="M79.4105 63.1573C78.2292 63.4827 77.0743 64.0852 76.0781 64.7248C74.6346 65.6517 75.1682 67.5884 76.8826 67.6452C78.0659 67.6844 79.3664 67.6104 80.5477 67.2849C81.7289 66.9595 82.8838 66.357 83.88 65.7174C85.3235 64.7905 84.7899 62.8538 83.0755 62.797C81.8922 62.7578 80.5917 62.8318 79.4105 63.1573Z" fill="#5EA985"/>
<path d="M70.9488 64.4921C71.6821 65.4736 72.664 66.3296 73.6226 67.0244C75.0116 68.0311 76.6209 66.8286 76.0491 65.2113C75.6546 64.0951 75.1119 62.9108 74.3785 61.9293C73.6451 60.9478 72.6633 60.0917 71.7047 59.397C70.3157 58.3903 68.7064 59.5928 69.2781 61.2101C69.6727 62.3263 70.2154 63.5106 70.9488 64.4921Z" fill="#5EA985"/>
<path d="M105.923 36.2438C90.1431 56.5139 87.4987 68.2704 85.3639 96.1518" stroke="#5EA985" stroke-width="1.84133" stroke-linecap="round"/>
<path d="M107.246 28.7097C106.089 29.9912 105.29 31.6618 104.741 33.289C103.791 36.1016 106.501 38.3527 109.121 36.958C110.597 36.1723 112.094 35.1624 113.225 33.9093C114.319 32.6979 115.152 31.1704 115.777 29.6711C116.937 26.886 114.349 24.4049 111.616 25.6834C110.017 26.4314 108.407 27.4249 107.246 28.7097Z" fill="#5EA985"/>
<path d="M103.698 42.6198C102.49 42.8237 101.28 43.306 100.224 43.8413C98.694 44.617 99.0285 46.5979 100.728 46.8282C101.902 46.9872 103.203 47.0454 104.411 46.8415C105.619 46.6375 106.829 46.1552 107.885 45.6199C109.415 44.8443 109.081 42.8634 107.381 42.6331C106.208 42.4741 104.906 42.4158 103.698 42.6198Z" fill="#5EA985"/>
<path d="M96.1685 41.1705C96.3973 42.3741 96.9044 43.574 97.4613 44.6187C98.2683 46.1325 100.242 45.7574 100.437 44.0531C100.572 42.8769 100.603 41.5746 100.375 40.371C100.146 39.1673 99.6388 37.9674 99.0818 36.9227C98.2749 35.4089 96.3013 35.7841 96.106 37.4883C95.9712 38.6645 95.9397 39.9668 96.1685 41.1705Z" fill="#5EA985"/>
<path d="M97.9753 52.5262C96.7671 52.7301 95.557 53.2124 94.5011 53.7477C92.971 54.5234 93.3055 56.5043 95.0053 56.7346C96.1785 56.8936 97.4799 56.9518 98.688 56.7479C99.8961 56.5439 101.106 56.0616 102.162 55.5263C103.692 54.7507 103.358 52.7698 101.658 52.5395C100.485 52.3805 99.1834 52.3222 97.9753 52.5262Z" fill="#5EA985"/>
<path d="M89.5964 52.4361C90.1078 53.5495 90.8885 54.5923 91.6802 55.4724C92.8275 56.7478 94.653 55.9092 94.4329 54.208C94.2809 53.0339 93.9984 51.7622 93.487 50.6489C92.9755 49.5355 92.1948 48.4927 91.4031 47.6125C90.2559 46.3371 88.4304 47.1757 88.6505 48.877C88.8024 50.0511 89.0849 51.3227 89.5964 52.4361Z" fill="#5EA985"/>
<path d="M93.0575 63.3313C91.8663 63.618 90.6923 64.1826 89.6758 64.7894C88.2028 65.6687 88.673 67.6218 90.3847 67.7344C91.5661 67.8121 92.8683 67.7806 94.0595 67.4938C95.2507 67.2071 96.4247 66.6425 97.4412 66.0357C98.9142 65.1565 98.444 63.2033 96.7323 63.0907C95.551 63.013 94.2487 63.0445 93.0575 63.3313Z" fill="#5EA985"/>
<path d="M85.5694 63.8129C86.2354 64.8413 87.1578 65.7612 88.0677 66.5186C89.3862 67.6159 91.0724 66.5239 90.6102 64.8719C90.2912 63.7318 89.829 62.5139 89.163 61.4855C88.4969 60.4571 87.5746 59.5372 86.6646 58.7799C85.3462 57.6825 83.66 58.7746 84.1222 60.4266C84.4411 61.5667 84.9033 62.7846 85.5694 63.8129Z" fill="#5EA985"/>
<path d="M90.7427 74.6823C89.5798 75.0681 88.4574 75.7293 87.4954 76.4194C86.1016 77.4193 86.7342 79.326 88.4493 79.2944C89.633 79.2726 90.928 79.1318 92.0909 78.7459C93.2538 78.3601 94.3762 77.6989 95.3381 77.0088C96.732 76.0089 96.0994 74.1022 94.3842 74.1338C93.2006 74.1556 91.9055 74.2965 90.7427 74.6823Z" fill="#5EA985"/>
<path d="M82.3609 76.4511C83.1439 77.3935 84.1685 78.1979 85.1616 78.8424C86.6006 79.7762 88.1458 78.4924 87.4916 76.9067C87.04 75.8123 86.4371 74.6575 85.6541 73.7151C84.8712 72.7727 83.8466 71.9683 82.8535 71.3238C81.4145 70.39 79.8692 71.6738 80.5235 73.2595C80.975 74.354 81.578 75.5087 82.3609 76.4511Z" fill="#5EA985"/>
<path d="M19.5233 44.8197C12.7316 50.4129 27.8242 89.3429 27.8242 89.3429L59.1414 64.4401C59.1414 64.4401 25.9376 39.5373 19.5233 44.8197Z" fill="#C4C4C4"/>
<path d="M19.5233 44.8197C12.7316 50.4129 27.8242 89.3429 27.8242 89.3429L59.1414 64.4401C59.1414 64.4401 25.9376 39.5373 19.5233 44.8197Z" fill="#EF8F35"/>
<path fill-rule="evenodd" clip-rule="evenodd" d="M22.3181 73.2509C18.8456 61.8297 15.6794 47.9853 19.5233 44.8197C22.9699 41.9814 34.151 47.858 43.7597 53.9035C35.1171 50.3848 26.4412 47.8863 23.395 50.395C19.9956 53.1944 20.6479 63.2716 22.3181 73.2509Z" fill="#C4C4C4"/>
<path fill-rule="evenodd" clip-rule="evenodd" d="M22.3181 73.2509C18.8456 61.8297 15.6794 47.9853 19.5233 44.8197C22.9699 41.9814 34.151 47.858 43.7597 53.9035C35.1171 50.3848 26.4412 47.8863 23.395 50.395C19.9956 53.1944 20.6479 63.2716 22.3181 73.2509Z" fill="#542016"/>
<path d="M115.477 44.8197C122.268 50.4129 107.176 89.3429 107.176 89.3429L75.8586 64.4401C75.8586 64.4401 109.062 39.5373 115.477 44.8197Z" fill="#C4C4C4"/>
<path d="M115.477 44.8197C122.268 50.4129 107.176 89.3429 107.176 89.3429L75.8586 64.4401C75.8586 64.4401 109.062 39.5373 115.477 44.8197Z" fill="#EF8F35"/>
<path fill-rule="evenodd" clip-rule="evenodd" d="M112.682 73.2507C116.154 61.8295 119.321 47.9853 115.477 44.8197C112.03 41.9814 100.849 47.858 91.2403 53.9036C99.8829 50.3849 108.559 47.8863 111.605 50.395C115.004 53.1944 114.352 63.2715 112.682 73.2507Z" fill="#C4C4C4"/>
<path fill-rule="evenodd" clip-rule="evenodd" d="M112.682 73.2507C116.154 61.8295 119.321 47.9853 115.477 44.8197C112.03 41.9814 100.849 47.858 91.2403 53.9036C99.8829 50.3849 108.559 47.8863 111.605 50.395C115.004 53.1944 114.352 63.2715 112.682 73.2507Z" fill="#542016"/>
<path d="M76.3662 40.317C78.3637 41.2021 79.4601 43.6684 78.8151 45.8258L75.622 56.5051C75.0065 58.5636 73.0279 59.597 71.1126 58.9185C70.6543 59.6866 69.9849 60.3187 69.1628 60.683C67.1653 61.568 65.023 60.5366 64.378 58.3792L61.1849 47.6999C60.5399 45.5426 61.6363 43.0762 63.6338 42.1912C65.6313 41.3062 67.7735 42.3376 68.4186 44.4949L69.7198 48.8469L71.5814 42.6208C72.2265 40.4634 74.3687 39.432 76.3662 40.317Z" fill="#EF8F35"/>
<path d="M20.0195 112.255C19.9703 112.131 19.8757 112.031 19.7559 111.977C11.2784 108.165 4.25253 100.055 3.02488 96.5224C2.92167 96.2253 3.15359 95.9431 3.46245 95.943C8.61537 95.9405 9.85029 95.8712 13.9427 93.9482C14.262 93.7982 14.3296 93.3641 14.0711 93.121L10.085 89.3724C9.74093 89.0488 9.9895 88.4215 10.4563 88.3883C12.3368 88.2544 14.6617 87.6795 17.187 86.8332C17.3588 86.7756 17.4855 86.6253 17.5189 86.444C21.4489 65.1274 39.791 49 61.8249 49H74.7062C96.2648 49 114.289 64.4392 118.738 85.072C118.773 85.237 118.887 85.3746 119.041 85.4364C122.989 87.0215 126.754 88.1898 129.543 88.3883C130.01 88.4215 130.258 89.0488 129.914 89.3724L125.928 93.121C125.669 93.3641 125.737 93.7982 126.056 93.9482C130.149 95.8712 131.384 95.9405 136.537 95.943C136.845 95.9431 137.078 96.2223 136.975 96.5194C135.563 100.592 126.43 110.762 116.252 113.397C116.102 113.436 115.978 113.543 115.915 113.687C108.895 129.78 93.0847 141 74.7062 141H61.8249C42.9059 141 26.7087 129.11 20.0195 112.255Z" fill="#EF8F35"/>
<g filter="url(#filter0_f_104_108)">
<ellipse cx="32" cy="101.4" rx="9" ry="5.4" fill="#FF6E41"/>
<ellipse cx="104" cy="101.4" rx="9" ry="5.4" fill="#FF6E41"/>
</g>
<path fill-rule="evenodd" clip-rule="evenodd" d="M116.139 113.442C116.041 113.495 115.961 113.581 115.915 113.687C108.895 129.78 93.0847 141 74.7062 141H61.8249C42.9127 141 26.7203 129.119 20.0266 112.273C29.8534 101.166 49.2953 94 68 94C87.3532 94 106.962 101.671 116.139 113.442Z" fill="#FFCEB9"/>
<ellipse cx="6.4" cy="8" rx="6.4" ry="8" transform="matrix(-1 0 0 1 44.8 81)" fill="#542016"/>
<ellipse cx="2.4" cy="2.8" rx="2.4" ry="2.8" transform="matrix(-1 0 0 1 42.4 83.4)" fill="white"/>
<circle cx="1.2" cy="1.2" r="1.2" transform="matrix(-1 0 0 1 37.6 89)" fill="white"/>
<ellipse cx="6.4" cy="8" rx="6.4" ry="8" transform="matrix(-1 0 0 1 106.8 81)" fill="#542016"/>
<ellipse cx="2.4" cy="2.8" rx="2.4" ry="2.8" transform="matrix(-1 0 0 1 104.4 83.4)" fill="white"/>
<circle cx="1.2" cy="1.2" r="1.2" transform="matrix(-1 0 0 1 99.6 89)" fill="white"/>
<rect x="68.2474" y="96.4421" width="2.23684" height="9.66316" rx="1.11842" fill="#542016"/>
<ellipse cx="69.3211" cy="95" rx="7.60526" ry="5" fill="#542016"/>
<circle cx="65.429" cy="92.8184" r="1.20789" fill="white"/>
<path d="M61 103.482C65.0263 107.105 73.9737 107.105 78 103.482" stroke="#542016" stroke-width="2.23684" stroke-linecap="round"/>
<path d="M95.8526 53.4723C95.9689 53.3741 96.0817 53.2696 96.1905 53.1587C98.0496 51.2634 98.0306 48.23 96.1481 46.3834C94.2655 44.5368 91.2323 44.5762 89.3732 46.4715C89.1927 46.6555 89.03 46.8502 88.8849 47.0535C88.4232 45.2525 86.9655 43.798 85.0555 43.4649C82.4716 43.0142 80.0384 44.7864 79.6208 47.423C79.3981 48.8287 79.7932 50.1963 80.6022 51.2351C80.4057 51.2462 80.2077 51.2692 80.0093 51.3046C77.3812 51.7729 75.6562 54.2398 76.1565 56.8145C76.6568 59.3892 79.1929 61.0967 81.821 60.6284C81.9629 60.6031 82.1021 60.572 82.2385 60.5354C82.2045 60.6724 82.1761 60.8122 82.1535 60.9545C81.7359 63.5912 83.4919 66.0939 86.0758 66.5446C88.6596 66.9952 91.0928 65.223 91.5105 62.5864C91.5476 62.3522 91.5675 62.1191 91.5713 61.8884C92.5697 62.5073 93.797 62.7756 95.0451 62.5531C97.6732 62.0848 99.3981 59.6179 98.8979 57.0432C98.571 55.3611 97.3752 54.0492 95.8526 53.4723Z" fill="#F6D384"/>
<circle cx="88.1757" cy="54.8961" r="3.60188" transform="rotate(69.1033 88.1757 54.8961)" fill="white" fill-opacity="0.6"/>
<defs>
<filter id="filter0_f_104_108" x="17" y="90" width="102" height="22.8" filterUnits="userSpaceOnUse" color-interpolation-filters="sRGB">
<feFlood flood-opacity="0" result="BackgroundImageFix"/>
<feBlend mode="normal" in="SourceGraphic" in2="BackgroundImageFix" result="shape"/>
<feGaussianBlur stdDeviation="3" result="effect1_foregroundBlur_104_108"/>
</filter>
</defs>
</svg>
