<svg width="140" height="156" viewBox="0 0 140 156" fill="none" xmlns="http://www.w3.org/2000/svg">
<rect width="140" height="156" rx="4" fill="#FFEEB5"/>
<path d="M58.6018 71.7525C60.7762 69.6618 61.7615 67.0529 60.8694 63.618C57.9689 52.4505 35.0136 37.7692 21.8767 42.0463C8.73975 46.3233 1.74983 57.8564 4.65025 69.0239C5.30272 71.5362 6.46632 73.7659 8.02763 75.6644C7.24868 78.5842 7.29945 81.4206 8.33607 83.9188C9.49807 86.7191 11.7491 88.7337 14.7023 89.9189C13.8524 92.3876 13.766 94.7245 14.5942 96.7205C17.4128 103.513 29.7559 103.787 42.1633 97.3335C54.5707 90.8796 62.3441 80.1413 59.5255 73.3488C59.285 72.7692 58.9751 72.2371 58.6018 71.7525Z" fill="#C4C4C4"/>
<path d="M81.3982 71.7525C79.2238 69.6618 78.2385 67.0529 79.1306 63.618C82.0311 52.4505 104.986 37.7693 118.123 42.0463C131.26 46.3233 138.25 57.8564 135.35 69.024C134.697 71.5362 133.534 73.7659 131.972 75.6645C132.751 78.5842 132.701 81.4206 131.664 83.9188C130.502 86.7191 128.251 88.7337 125.298 89.919C126.148 92.3877 126.234 94.7245 125.406 96.7205C122.587 103.513 110.244 103.787 97.8367 97.3335C85.4293 90.8796 77.6559 80.1413 80.4745 73.3488C80.715 72.7692 81.0249 72.2371 81.3982 71.7525Z" fill="#C4C4C4"/>
<ellipse cx="30.9674" cy="71.0706" rx="17.6578" ry="19.4741" fill="#EAEAEA"/>
<ellipse cx="108.908" cy="71.0706" rx="17.6578" ry="19.4741" fill="#EAEAEA"/>
<path d="M110 84C110 103.204 110.01 118 70.2453 118C30.4804 118 29.5 103.204 29.5 84C29.5 64.7958 48.6521 40 70.6136 40C92.5752 40 110 64.7958 110 84Z" fill="#C4C4C4"/>
<circle cx="52.196" cy="81.0826" r="3.28661" fill="#606060"/>
<circle cx="88.3487" cy="81.0826" r="3.28661" fill="#606060"/>
<path d="M71 89V94.5C71 96.9853 73.0147 99 75.5 99H76.8033C78.5688 99 80 97.5688 80 95.8033V95.8033" stroke="#606060" stroke-width="1.64331" stroke-linecap="round" stroke-linejoin="round"/>
<path d="M71 89V94.5C71 96.9853 68.9853 99 66.5 99H65.1967C63.4312 99 62 97.5688 62 95.8033V95.8033" stroke="#606060" stroke-width="1.64331" stroke-linecap="round" stroke-linejoin="round"/>
<path d="M78.8894 85.6C78.8894 90.2392 80.5503 94 71 94C61.4497 94 63.1106 90.2392 63.1106 85.6C63.1106 80.9608 66.6428 76 71 76C75.3572 76 78.8894 80.9608 78.8894 85.6Z" fill="#606060"/>
<circle cx="67.5" cy="81.5" r="1.5" fill="white"/>
<circle cx="42" cy="94" r="7" fill="#FFCEB9"/>
<circle cx="99" cy="94" r="7" fill="#FFCEB9"/>
<path d="M33.9409 125.842C54.6156 117.134 67.4591 114.363 90.7066 113.037" stroke="#56392B" stroke-width="3.49573" stroke-linecap="round"/>
<path d="M93.5339 104.65C89.708 108.204 87.7321 111.98 89.192 113.308C90.652 114.636 95.1694 113.065 98.9953 109.51C102.821 105.956 104.976 100.304 104.741 100.09C104.506 99.8763 97.3598 101.095 93.5339 104.65Z" fill="#34876F"/>
<g style="mix-blend-mode:multiply">
<path fill-rule="evenodd" clip-rule="evenodd" d="M88.8671 112.864C94.0554 108.049 98.5934 104.539 104.228 100.481C98.8703 104.647 94.8528 108.488 89.8304 113.291C89.7398 113.378 89.6488 113.465 89.5576 113.552C89.4205 113.486 89.2982 113.405 89.1921 113.308C89.053 113.182 88.9452 113.033 88.8671 112.864Z" fill="#34876F" fill-opacity="0.5"/>
</g>
<path d="M95.725 120.528C90.9981 118.308 87.9658 115.314 88.9519 113.604C89.938 111.895 94.7192 112.015 99.4461 114.235C104.173 116.455 107.947 121.182 107.788 121.457C107.63 121.732 100.452 122.749 95.725 120.528Z" fill="#34876F"/>
<g style="mix-blend-mode:multiply">
<path fill-rule="evenodd" clip-rule="evenodd" d="M88.7774 114.126C95.1861 117.132 100.578 119.092 107.18 121.241C100.809 118.906 95.8117 116.47 89.5649 113.426C89.4523 113.371 89.3392 113.316 89.2257 113.261C89.1153 113.365 89.0235 113.48 88.9518 113.604C88.8579 113.767 88.8005 113.942 88.7774 114.126Z" fill="#34876F" fill-opacity="0.5"/>
</g>
<path d="M71.1702 107.163C68.1242 110.479 66.6831 113.859 68.0282 114.9C69.3734 115.942 73.1489 114.285 76.195 110.969C79.241 107.653 80.7079 102.649 80.4914 102.481C80.2749 102.314 74.2162 103.848 71.1702 107.163Z" fill="#34876F"/>
<g style="mix-blend-mode:multiply">
<path fill-rule="evenodd" clip-rule="evenodd" d="M67.7187 114.541C71.8498 110.049 75.511 106.724 80.077 102.852C75.7562 106.797 72.5651 110.373 68.5757 114.842C68.5037 114.923 68.4315 115.004 68.3589 115.085C68.2367 115.037 68.126 114.976 68.0282 114.9C67.9001 114.801 67.7973 114.681 67.7187 114.541Z" fill="#34876F" fill-opacity="0.5"/>
</g>
<path d="M73.0473 121.268C69.0912 119.119 66.6326 116.388 67.5676 114.967C68.5026 113.546 72.6115 113.89 76.5676 116.04C80.5238 118.189 83.5332 122.448 83.3827 122.677C83.2322 122.905 77.0035 123.418 73.0473 121.268Z" fill="#34876F"/>
<g style="mix-blend-mode:multiply">
<path fill-rule="evenodd" clip-rule="evenodd" d="M67.3911 115.407C72.7549 118.318 77.2961 120.277 82.8704 122.46C77.5044 120.128 73.3268 117.78 68.1042 114.844C68.01 114.791 67.9154 114.738 67.8205 114.685C67.7203 114.77 67.6355 114.864 67.5675 114.967C67.4785 115.102 67.4202 115.249 67.3911 115.407Z" fill="#34876F" fill-opacity="0.5"/>
</g>
<path d="M50.9249 112.463C48.4488 116.233 47.5699 119.808 49.0681 120.62C50.5663 121.433 54.0315 119.184 56.5076 115.414C58.9837 111.644 59.6257 106.459 59.3846 106.329C59.1435 106.198 53.401 108.693 50.9249 112.463Z" fill="#34876F"/>
<g style="mix-blend-mode:multiply">
<path fill-rule="evenodd" clip-rule="evenodd" d="M48.7041 120.315C52.063 115.207 55.1457 111.328 59.0349 106.762C55.4001 111.361 52.8224 115.411 49.6 120.474C49.5419 120.566 49.4835 120.657 49.4249 120.749C49.2964 120.722 49.177 120.679 49.0681 120.62C48.9254 120.543 48.8043 120.44 48.7041 120.315Z" fill="#34876F" fill-opacity="0.5"/>
</g>
<path d="M54.7747 126.312C50.8114 124.158 48.3484 121.423 49.2851 119.999C50.2217 118.575 54.3381 118.92 58.3014 121.074C62.2647 123.227 65.2796 127.494 65.1288 127.723C64.978 127.952 58.738 128.465 54.7747 126.312Z" fill="#34876F"/>
<g style="mix-blend-mode:multiply">
<path fill-rule="evenodd" clip-rule="evenodd" d="M49.1084 120.44C54.4819 123.356 59.0313 125.319 64.6157 127.506C59.2399 125.17 55.0548 122.817 49.8228 119.877C49.7284 119.823 49.6337 119.77 49.5386 119.717C49.4382 119.802 49.3532 119.896 49.2851 119.999C49.1959 120.135 49.1376 120.282 49.1084 120.44Z" fill="#34876F" fill-opacity="0.5"/>
</g>
<path d="M79.2876 56.0406C73.5806 52.3578 70.1924 47.9714 71.7603 45.9395C73.3282 43.9076 79.47 44.8924 85.177 48.5752C90.884 52.2581 94.9273 59.0063 94.675 59.3334C94.4226 59.6604 84.9946 59.7235 79.2876 56.0406Z" fill="#34876F"/>
<g style="mix-blend-mode:multiply">
<path fill-rule="evenodd" clip-rule="evenodd" d="M71.4449 46.5813C79.183 51.5692 85.7917 55.0322 93.929 58.9491C86.1218 54.8319 80.1043 50.8251 72.5815 45.816C72.4458 45.7256 72.3097 45.635 72.173 45.544C72.0125 45.6599 71.8743 45.7917 71.7603 45.9395C71.611 46.133 71.5066 46.3478 71.4449 46.5813Z" fill="#34876F" fill-opacity="0.5"/>
</g>
<path d="M62.7971 44.2227C67.0555 41.4747 69.5836 38.2018 68.4137 36.6857C67.2438 35.1695 62.661 35.9043 58.4027 38.6523C54.1443 41.4003 51.1274 46.4356 51.3157 46.6796C51.504 46.9237 58.5388 46.9707 62.7971 44.2227Z" fill="#34876F"/>
<g style="mix-blend-mode:multiply">
<path fill-rule="evenodd" clip-rule="evenodd" d="M68.649 37.1646C62.8752 40.8863 57.944 43.4703 51.8722 46.3929C57.6977 43.3208 62.1877 40.3311 67.801 36.5935C67.9022 36.5261 68.0038 36.4584 68.1058 36.3905C68.2255 36.4771 68.3287 36.5754 68.4137 36.6857C68.5251 36.83 68.603 36.9903 68.649 37.1646Z" fill="#34876F" fill-opacity="0.5"/>
</g>
</svg>
