<svg width="140" height="156" viewBox="0 0 140 156" fill="none" xmlns="http://www.w3.org/2000/svg">
<circle cx="21" cy="80" r="16" fill="#C4C4C4"/>
<g style="mix-blend-mode:multiply">
<circle cx="21" cy="80" r="12" fill="#C4C4C4"/>
</g>
<circle cx="119" cy="80" r="16" fill="#C4C4C4"/>
<g style="mix-blend-mode:multiply">
<circle cx="119" cy="80" r="12" fill="#C4C4C4"/>
</g>
<path d="M67.8427 19.0612C67.8001 16.866 69.3724 15.0482 71.3548 15.0009C73.3371 14.9537 74.9786 16.6949 75.0213 18.8901L75.0819 22.0053L76.0353 19.1045C76.7134 17.0412 78.7736 15.9774 80.6368 16.7284C82.5 17.4793 83.4607 19.7607 82.7825 21.824L79.5081 31.7862C78.83 33.8495 76.7698 34.9133 74.9066 34.1623C74.3101 33.9219 73.8061 33.5246 73.4187 33.0278C72.9157 33.3466 72.3356 33.5347 71.7153 33.5495C71.2071 33.5616 70.7212 33.4561 70.2789 33.2556C69.9481 34.3769 69.172 35.3244 68.0934 35.7592C66.2302 36.5101 64.17 35.4463 63.4919 33.383L60.2175 23.4208C59.5393 21.3575 60.5 19.0761 62.3632 18.3252C64.2264 17.5742 66.2866 18.638 66.9647 20.7013L67.9318 23.6437L67.8427 19.0612Z" fill="#393939"/>
<path d="M23.3099 72.1972C22.0533 47.0652 42.0915 26 67.255 26H74.2809C99.6177 26 119.719 47.3439 118.202 72.6352L118 76L118.909 96.0021C120.048 121.061 100.039 142 74.9546 142H66.6982C41.7445 142 21.7852 121.27 22.7298 96.3345L23.5 76L23.3099 72.1972Z" fill="#393939"/>
<path fill-rule="evenodd" clip-rule="evenodd" d="M42.0941 83.5821C42.6282 83.1146 42.6379 82.2742 42.1238 81.7847C38.3513 78.1923 36 73.1207 36 67.5C36 56.6078 44.83 47.7778 55.7222 47.7778C61.6409 47.7778 66.9506 50.385 70.5656 54.5134C71.0544 55.0717 71.9456 55.0717 72.4345 54.5134C76.0495 50.385 81.3592 47.7778 87.2778 47.7778C98.1701 47.7778 107 56.6078 107 67.5C107 73.1279 104.643 78.2052 100.862 81.7984C100.347 82.2877 100.356 83.1288 100.89 83.5966C106.474 88.4852 110 95.6658 110 103.67C110 116.347 101.102 127.557 88.5072 129C76.7215 130.35 66.3314 130.326 54.5503 128.971C41.9386 127.519 33 116.314 33 103.619C33 95.629 36.5201 88.4613 42.0941 83.5821Z" fill="#B5B5B5"/>
<path fill-rule="evenodd" clip-rule="evenodd" d="M109.81 100.472C109.936 101.52 110 102.588 110 103.67C110 116.348 101.102 127.557 88.5072 129C76.7215 130.35 66.3314 130.326 54.5503 128.971C41.9386 127.519 33 116.314 33 103.619C33 103.061 33.0172 102.507 33.051 101.957C40.8393 91.2205 55.3656 84 72 84C87.8549 84 101.795 90.5596 109.81 100.472Z" fill="#DEDDDD"/>
<circle cx="53" cy="64" r="11" fill="white"/>
<circle cx="53" cy="64" r="7.33333" fill="#393939"/>
<circle cx="55.75" cy="61.8612" r="2.75" fill="white"/>
<circle cx="89" cy="64" r="11" fill="white"/>
<circle cx="89" cy="64" r="7.33333" fill="#393939"/>
<circle cx="91.75" cy="61.8612" r="2.75" fill="white"/>
<ellipse cx="57" cy="98" rx="3" ry="4" fill="#393939"/>
<ellipse cx="86" cy="98" rx="3" ry="4" fill="#393939"/>
<circle cx="43.5" cy="108.5" r="5.5" fill="#FFCEB9"/>
<circle cx="98.5" cy="108.5" r="5.5" fill="#FFCEB9"/>
<circle cx="43.5" cy="108.5" r="5.5" fill="#FFCEB9"/>
<circle cx="98.5" cy="108.5" r="5.5" fill="#FFCEB9"/>
<path d="M94.3366 126.026C80.0694 117.694 72.3492 117.011 54.3927 118.026" stroke="#5EA985" stroke-width="2" stroke-linecap="round"/>
<path d="M82.7302 123.206C82.0791 121.102 80.041 119.174 80.041 119.174C80.041 119.174 79.4485 121.916 80.0996 124.02C80.7508 126.124 82.7889 128.052 82.7889 128.052C82.7889 128.052 83.3814 125.31 82.7302 123.206Z" fill="#5EA985"/>
<path d="M83.2197 115.77C81.358 116.946 80.0268 119.416 80.0268 119.416C80.0268 119.416 82.829 119.274 84.6907 118.098C86.5524 116.922 87.8836 114.452 87.8836 114.452C87.8836 114.452 85.0814 114.594 83.2197 115.77Z" fill="#5EA985"/>
<path d="M75.4274 121.723C74.6328 119.67 72.4666 117.886 72.4666 117.886C72.4666 117.886 72.0646 120.663 72.8592 122.717C73.6538 124.771 75.82 126.554 75.82 126.554C75.82 126.554 76.222 123.777 75.4274 121.723Z" fill="#5EA985"/>
<path d="M68.3715 120.967C67.2208 119.089 64.7695 117.724 64.7695 117.724C64.7695 117.724 64.8729 120.528 66.0236 122.406C67.1743 124.283 69.6256 125.648 69.6256 125.648C69.6256 125.648 69.5222 122.845 68.3715 120.967Z" fill="#5EA985"/>
<path fill-rule="evenodd" clip-rule="evenodd" d="M88.9514 123.374C89.2964 123.398 89.6319 123.434 89.9541 123.48C89.7235 123.251 89.4931 123.004 89.2664 122.743C87.5591 120.776 86.7065 118.72 87.3621 118.151C88.0177 117.582 89.9333 118.715 91.6406 120.682C91.8673 120.943 92.0789 121.206 92.2739 121.467C92.2733 121.141 92.2847 120.804 92.3091 120.459C92.4926 117.861 93.3434 115.805 94.2094 115.866C95.0755 115.927 95.6287 118.083 95.4452 120.681C95.4208 121.026 95.3847 121.361 95.3383 121.683C95.568 121.453 95.8145 121.222 96.0757 120.996C98.0426 119.288 100.098 118.436 100.668 119.091C101.237 119.747 100.104 121.662 98.1366 123.37C97.8754 123.596 97.6127 123.808 97.352 124.003C97.6776 124.003 98.0148 124.014 98.3598 124.038C100.958 124.222 103.014 125.073 102.953 125.939C102.892 126.805 100.736 127.358 98.1382 127.174C97.7933 127.15 97.4579 127.114 97.1358 127.068C97.3663 127.297 97.5966 127.544 97.8233 127.805C99.5306 129.772 100.383 131.827 99.7275 132.397C99.0719 132.966 97.1564 131.833 95.4491 129.866C95.2224 129.604 95.0107 129.342 94.8157 129.081C94.8163 129.407 94.8049 129.744 94.7805 130.089C94.597 132.687 93.7462 134.744 92.8802 134.682C92.0142 134.621 91.4609 132.465 91.6444 129.867C91.6688 129.522 91.7049 129.187 91.7513 128.865C91.5216 129.095 91.2751 129.326 91.0139 129.552C89.047 131.26 86.9912 132.112 86.4221 131.457C85.853 130.801 86.9861 128.886 88.953 127.178C89.2142 126.952 89.4769 126.74 89.7375 126.545C89.412 126.545 89.0748 126.534 88.7298 126.51C86.1318 126.326 84.0753 125.475 84.1364 124.609C84.1976 123.743 86.3533 123.19 88.9514 123.374Z" fill="#ED653B"/>
<circle cx="93.5448" cy="125.274" r="2.16145" transform="rotate(-85.9591 93.5448 125.274)" fill="white" fill-opacity="0.5"/>
<path d="M58 111C62.7273 119 79.5354 119 84 111" stroke="#393939" stroke-width="2" stroke-linecap="round" stroke-linejoin="round"/>
</svg>
