<svg width="140" height="156" viewBox="0 0 140 156" fill="none" xmlns="http://www.w3.org/2000/svg">
<path fill-rule="evenodd" clip-rule="evenodd" d="M49.6053 93.9913C48.2672 96.0014 46.5531 97.7733 44.5541 99.2227C45.4842 101.299 46 103.591 46 106C46 106.091 45.9993 106.181 45.9978 106.271C49.7889 106.966 53.1453 108.953 55.621 111.776C59.011 107.621 63.9724 105 69.5 105C69.8355 105 70.1689 105.01 70.5 105.029C70.8311 105.01 71.1645 105 71.5 105C77.0276 105 81.989 107.621 85.379 111.776C87.8547 108.953 91.2111 106.966 95.0022 106.271C95.0007 106.181 95 106.091 95 106C95 104.69 95.1525 103.415 95.4412 102.19C92.5373 103.795 89.1916 104.71 85.6303 104.71C82.3658 104.71 79.2825 103.942 76.5546 102.577C73.8266 103.942 70.7433 104.71 67.4789 104.71C59.7154 104.71 52.9764 100.363 49.6053 93.9913ZM114.988 122.83C123.474 121.656 130 114.568 130 106C130 101.997 128.576 98.3178 126.193 95.4133C128.588 92.1264 130 88.089 130 83.7249C130 72.6868 120.97 63.7387 109.832 63.7387C104.986 63.7387 100.539 65.4327 97.0608 68.2557C93.812 66.037 89.8742 64.738 85.6303 64.738C82.3658 64.738 79.2825 65.5066 76.5546 66.8711C73.8266 65.5066 70.7433 64.738 67.4789 64.738C60.2074 64.738 53.8347 68.5515 50.2863 74.2704C46.6903 68.0045 39.5779 63.7387 31.3913 63.7387C19.5772 63.7387 10 72.6223 10 83.5808C10 88.1792 11.6863 92.4122 14.5167 95.7768C12.3089 98.622 11 102.163 11 106C11 114.568 17.5255 121.656 26.0122 122.83C26.0041 123.052 26 123.276 26 123.5C26 133.165 33.6112 141 43 141C47.3714 141 51.3574 139.302 54.3693 136.511C57.7179 141.646 63.2466 145 69.5 145C69.8355 145 70.1689 144.99 70.5 144.971C70.8311 144.99 71.1645 145 71.5 145C77.7534 145 83.2821 141.646 86.6307 136.511C89.6426 139.302 93.6286 141 98 141C107.389 141 115 133.165 115 123.5C115 123.276 114.996 123.052 114.988 122.83Z" fill="#FAFAFA"/>
<path fill-rule="evenodd" clip-rule="evenodd" d="M110.489 121.083C118.127 120.029 124 113.662 124 105.965C124 102.369 122.718 99.0636 120.574 96.4544C122.73 93.5017 124 89.8747 124 85.9543C124 76.0384 115.873 68 105.849 68C101.487 68 97.4847 69.5217 94.3547 72.0577C91.4308 70.0646 87.8868 68.8976 84.0672 68.8976C81.1292 68.8976 78.3543 69.5881 75.8991 70.8139C73.444 69.5881 70.669 68.8976 67.731 68.8976C61.1867 68.8976 55.4513 72.3234 52.2577 77.461C49.0213 71.8321 42.6201 68 35.2522 68C24.6195 68 16 75.9805 16 85.8248C16 89.9557 17.5177 93.7584 20.065 96.781C18.078 99.3369 16.9 102.517 16.9 105.965C16.9 113.662 22.773 120.029 30.411 121.083C30.4037 121.283 30.4 121.484 30.4 121.686C30.4 130.368 37.25 137.407 45.7 137.407C49.6342 137.407 53.2216 135.881 55.9323 133.374C58.9461 137.987 63.922 141 69.55 141C69.8519 141 70.152 140.991 70.45 140.974C70.748 140.991 71.048 141 71.35 141C76.978 141 81.9539 137.987 84.9677 133.374C87.6784 135.881 91.2658 137.407 95.2 137.407C103.65 137.407 110.5 130.368 110.5 121.686C110.5 121.484 110.496 121.283 110.489 121.083ZM51.6448 95.177C50.4405 96.9827 48.8978 98.5745 47.0986 99.8766C47.9358 101.742 48.4 103.801 48.4 105.965C48.4 106.046 48.3993 106.127 48.398 106.209C51.81 106.832 54.8308 108.618 57.0589 111.153C60.1099 107.421 64.5751 105.067 69.55 105.067C69.8519 105.067 70.152 105.075 70.45 105.092C70.748 105.075 71.048 105.067 71.35 105.067C76.3249 105.067 80.7901 107.421 83.8411 111.153C86.0692 108.618 89.09 106.832 92.502 106.209C92.5007 106.127 92.5 106.046 92.5 105.965C92.5 104.788 92.6372 103.643 92.897 102.542C90.2835 103.984 87.2724 104.806 84.0672 104.806C81.1292 104.806 78.3543 104.116 75.8991 102.89C73.444 104.116 70.669 104.806 67.731 104.806C60.7438 104.806 54.6788 100.901 51.6448 95.177Z" fill="white"/>
<path d="M13.5061 57.8715C13.224 56.8118 13.8765 55.7781 14.9565 55.5874C18.2836 54.9998 25.4137 54.3189 31.3161 57.6971C39.3101 62.2723 42.025 72.5606 42.025 72.5606C42.025 72.5606 31.0259 76.7468 23.0318 72.1715C17.0333 68.7384 14.4313 61.3475 13.5061 57.8715Z" fill="#FFECD4"/>
<path d="M124.089 57.8715C124.371 56.8118 123.719 55.7781 122.639 55.5874C119.312 54.9998 112.182 54.3189 106.279 57.6971C98.2851 62.2723 95.5703 72.5606 95.5703 72.5606C95.5703 72.5606 106.569 76.7468 114.563 72.1715C120.562 68.7384 123.164 61.3475 124.089 57.8715Z" fill="#FFECD4"/>
<g style="mix-blend-mode:multiply">
<path d="M18.3296 60.6276C18.0166 59.5765 18.672 58.5418 19.7573 58.3844C22.167 58.0348 26.4547 57.8336 30.0578 59.8957C35.3998 62.9532 37.2141 69.8284 37.2141 69.8284C37.2141 69.8284 29.8638 72.6259 24.5217 69.5684C20.8389 67.4606 19.0719 63.1204 18.3296 60.6276Z" fill="#FFECD4" fill-opacity="0.8"/>
</g>
<g style="mix-blend-mode:multiply">
<path d="M119.682 61.0079C119.995 59.9569 119.34 58.9222 118.254 58.7647C115.845 58.4152 111.557 58.2139 107.954 60.2761C102.612 63.3335 100.798 70.2088 100.798 70.2088C100.798 70.2088 108.148 73.0062 113.49 69.9487C117.173 67.8409 118.94 63.5007 119.682 61.0079Z" fill="#FFECD4" fill-opacity="0.8"/>
</g>
<path d="M30.5384 91.3629C29.1695 108.963 43.0822 124 60.7357 124H77.2498C94.9087 124 108.823 108.955 107.446 91.3496L104.598 54.9449C103.674 43.1221 93.8101 34 81.9513 34H56.0181C44.1554 34 34.29 43.1279 33.3702 54.9548L30.5384 91.3629Z" fill="url(#paint0_linear_57_77)"/>
<ellipse cx="50" cy="93.5" rx="4" ry="4.5" fill="#3A211F"/>
<circle cx="51.75" cy="91.75" r="0.75" fill="white"/>
<ellipse cx="4" cy="4.5" rx="4" ry="4.5" transform="matrix(-1 0 0 1 94 89)" fill="#3A211F"/>
<circle cx="0.75" cy="0.75" r="0.75" transform="matrix(-1 0 0 1 92.5 91)" fill="white"/>
<rect x="70.9924" y="102.135" width="1.66414" height="7.21125" rx="0.832068" fill="#3A211F"/>
<path d="M77.714 99.4191C77.714 97.8665 75.0918 96.6078 71.857 96.6078C68.6223 96.6078 66.0001 97.8665 66.0001 99.4191C66.0001 100.972 68.6223 104.661 71.8571 104.661C75.0918 104.661 77.714 100.972 77.714 99.4191Z" fill="#3A211F"/>
<circle cx="68.5625" cy="99.1703" r="1.09818" fill="white"/>
<path fill-rule="evenodd" clip-rule="evenodd" d="M59.6286 22C55.0784 22 51.1921 24.6647 49.6486 28.4202C48.2929 27.8372 46.7847 27.5121 45.1956 27.5121C39.3378 27.5121 34.5804 31.9283 34.5052 37.4027C28.8418 39.0882 25 42.3639 25 46.1286C25 48.8496 27.0068 51.315 30.2577 53.1094C29.5442 54.4528 29.1429 55.9675 29.1429 57.5701C29.1429 63.1052 33.9295 67.5923 39.8341 67.5923C41.4233 67.5923 42.9315 67.2672 44.2872 66.6842C45.8307 70.4398 49.717 73.1044 54.2672 73.1044C57.2465 73.1044 59.9412 71.962 61.88 70.119C63.8296 72.0587 66.5953 73.2697 69.6627 73.2697C72.4913 73.2697 75.0633 72.2399 76.9755 70.5585C78.8661 72.1419 81.361 73.1044 84.0957 73.1044C88.5712 73.1044 92.4043 70.5266 93.9977 66.8685C95.2324 67.3353 96.5813 67.5923 97.9943 67.5923C103.899 67.5923 108.686 63.1052 108.686 57.5701C108.686 56.0055 108.303 54.5247 107.621 53.2053C110.324 51.3867 112 48.8541 112 46.0531C112 41.937 108.38 38.4005 103.203 36.8577C102.832 31.6382 98.1977 27.5121 92.5356 27.5121C91.1226 27.5121 89.7737 27.7691 88.539 28.2359C86.9456 24.5778 83.1124 22 78.637 22C74.4989 22 70.9099 24.2039 69.1328 27.4278C67.3557 24.2039 63.7667 22 59.6286 22Z" fill="#FAFAFA"/>
<path fill-rule="evenodd" clip-rule="evenodd" d="M60.7222 25.1601C56.7329 25.1601 53.3256 27.4964 51.9725 30.789C50.7839 30.2778 49.4616 29.9928 48.0683 29.9928C42.9326 29.9928 38.7617 33.8645 38.6958 38.6641C33.7306 40.1418 30.3624 43.0137 30.3624 46.3143C30.3624 48.6998 32.1218 50.8613 34.9719 52.4345C34.3464 53.6123 33.9946 54.9403 33.9946 56.3453C33.9946 61.198 38.1911 65.1319 43.3678 65.1319C44.7611 65.1319 46.0834 64.847 47.272 64.3358C48.6252 67.6284 52.0324 69.9646 56.0218 69.9646C58.6338 69.9646 60.9963 68.9631 62.696 67.3473C64.4053 69.0479 66.83 70.1095 69.5193 70.1095C71.9992 70.1095 74.2542 69.2067 75.9307 67.7325C77.5882 69.1207 79.7756 69.9646 82.1732 69.9646C86.0969 69.9646 89.4575 67.7046 90.8545 64.4974C91.937 64.9067 93.1196 65.1319 94.3584 65.1319C99.5351 65.1319 103.732 61.198 103.732 56.3453C103.732 54.9736 103.396 53.6753 102.798 52.5186C105.168 50.9242 106.638 48.7038 106.638 46.2481C106.638 42.6395 103.464 39.5389 98.9249 38.1863C98.5995 33.6102 94.5367 29.9928 89.5726 29.9928C88.3338 29.9928 87.1512 30.2181 86.0687 30.6273C84.6717 27.4202 81.3111 25.1601 77.3874 25.1601C73.7594 25.1601 70.6128 27.0923 69.0548 29.9188C67.4968 27.0923 64.3502 25.1601 60.7222 25.1601Z" fill="white"/>
<circle cx="46" cy="106" r="5" fill="#FFC6AD"/>
<circle cx="95" cy="106" r="5" fill="#FFC6AD"/>
<path d="M57.3565 43.4298C61.7226 40.5833 63.4976 32.7118 63.4976 32.7118C63.4976 32.7118 55.579 31.16 51.2129 34.0065C46.8468 36.853 45.0718 44.7245 45.0718 44.7245C45.0718 44.7245 52.9904 46.2763 57.3565 43.4298Z" fill="#34876F"/>
<path d="M86.3233 52.1913C81.9377 48.207 73.0622 48.1947 73.0622 48.1947C73.0622 48.1947 73.9234 57.0284 78.309 61.0127C82.6945 64.9971 91.5701 65.0093 91.5701 65.0093C91.5701 65.0093 90.7089 56.1756 86.3233 52.1913Z" fill="#34876F"/>
<path d="M73.5629 108.174C68.4537 107.144 61.8911 110.419 61.8911 110.419C61.8911 110.419 66.6717 115.981 71.781 117.011C76.8902 118.041 83.4528 114.767 83.4528 114.767C83.4528 114.767 78.6721 109.204 73.5629 108.174Z" fill="#34876F"/>
<path d="M84.1306 127.107C85.6142 129.9 90.2865 131.393 90.2865 131.393C90.2865 131.393 91.6649 126.685 90.1813 123.893C88.6976 121.1 84.0253 119.607 84.0253 119.607C84.0253 119.607 82.647 124.315 84.1306 127.107Z" fill="#34876F"/>
<path d="M58.3862 59.8239C58.5101 59.7527 58.6317 59.675 58.7508 59.5907C60.7853 58.1508 61.2753 55.3453 59.8451 53.3245C58.4149 51.3036 55.6062 50.8325 53.5716 52.2724C53.3741 52.4122 53.1911 52.5649 53.0231 52.7284C52.8979 50.9873 51.7946 49.3998 50.0858 48.7725C47.7741 47.9239 45.2298 49.154 44.4028 51.5199C43.962 52.7812 44.0982 54.1107 44.6718 55.2058C44.4883 55.1832 44.3016 55.1713 44.1124 55.1708C41.6061 55.1638 39.5999 57.1542 39.6313 59.6164C39.6627 62.0787 41.72 64.0804 44.2263 64.0874C44.3616 64.0878 44.4954 64.0824 44.6275 64.0713C44.5732 64.1923 44.5235 64.3167 44.4789 64.4444C43.6519 66.8103 44.8555 69.4162 47.1671 70.2648C49.4788 71.1133 52.0231 69.8833 52.8501 67.5173C52.9235 67.3072 52.9809 67.0952 53.023 66.8827C53.8418 67.6214 54.9307 68.0746 56.121 68.0779C58.6272 68.0849 60.6335 66.0945 60.6021 63.6323C60.5815 62.0237 59.6963 60.6116 58.3862 59.8239Z" fill="#FFCE05"/>
<g style="mix-blend-mode:multiply">
<circle cx="51.0558" cy="59.8549" r="3.38163" transform="rotate(79.3678 51.0558 59.8549)" fill="#FED402"/>
</g>
<defs>
<linearGradient id="paint0_linear_57_77" x1="67.7454" y1="124" x2="67.5032" y2="64.9678" gradientUnits="userSpaceOnUse">
<stop stop-color="#FFECD5"/>
<stop offset="1" stop-color="#FFE9CF"/>
</linearGradient>
</defs>
</svg>
