<svg width="140" height="156" viewBox="0 0 140 156" fill="none" xmlns="http://www.w3.org/2000/svg">
<path d="M14 35.2728V23.8121C14 21.7067 15.7067 20 17.8121 20V20C19.9175 20 21.5841 21.7248 22.0114 23.7863C23.8183 32.5053 31.7237 39.091 40.9393 39.091H60V62H40.9393C26.2269 62 14 50.0084 14 35.2728Z" fill="#FAEDE5"/>
<path d="M126 35.2728V23.8121C126 21.7067 124.293 20 122.188 20V20C120.083 20 118.416 21.7248 117.989 23.7863C116.182 32.5053 108.276 39.091 99.0607 39.091H80V62H99.0607C113.773 62 126 50.0084 126 35.2728Z" fill="#FAEDE5"/>
<path d="M70.3074 74.6224C72.5747 70.095 77.1538 67 82.4335 67C88.1435 67 93.034 70.6201 95.067 75.7573C96.6423 75.1018 98.3634 74.7409 100.166 74.7409C107.39 74.7409 113.303 80.5353 113.776 87.8654C120.381 90.0319 125 94.9984 125 100.779C125 104.712 122.861 108.269 119.413 110.823C120.283 112.676 120.771 114.755 120.771 116.953C120.771 124.726 114.664 131.027 107.131 131.027C105.328 131.027 103.607 130.666 102.032 130.011C99.9986 135.148 95.108 138.768 89.398 138.768C85.9089 138.768 82.7257 137.416 80.3135 135.193C77.8739 137.554 74.5923 139 70.9834 139C67.0699 139 63.5413 137.299 61.0538 134.575C58.5802 137.164 55.1421 138.768 51.3409 138.768C45.5354 138.768 40.577 135.026 38.6078 129.752C36.8781 130.571 34.9539 131.027 32.9263 131.027C25.3929 131.027 19.2858 124.726 19.2858 116.953C19.2858 114.702 19.7978 112.575 20.7081 110.688C16.5604 108.168 14 104.706 14 100.885C14 95.5977 18.9017 90.9975 26.1275 88.6305C26.2234 80.9426 32.2932 74.7409 39.7668 74.7409C41.7944 74.7409 43.7187 75.1974 45.4483 76.0161C47.4176 70.7421 52.3759 67 58.1814 67C63.461 67 68.0401 70.095 70.3074 74.6224Z" fill="#463424"/>
<g style="mix-blend-mode:multiply">
<path fill-rule="evenodd" clip-rule="evenodd" d="M14.1191 99.4637C14.0404 99.931 14 100.405 14 100.885C14 104.431 16.2056 107.669 19.8388 110.13C20.0649 109.338 20.3568 108.574 20.7081 107.846C17.0811 105.643 14.6679 102.718 14.1191 99.4637ZM19.3544 115.531C19.309 115.999 19.2858 116.473 19.2858 116.953C19.2858 124.726 25.3929 131.027 32.9263 131.027C34.9539 131.027 36.8781 130.571 38.6078 129.752C40.577 135.026 45.5354 138.768 51.3409 138.768C55.1421 138.768 58.5802 137.164 61.0538 134.575C63.5412 137.299 67.0699 139 70.9834 139C74.5923 139 77.8739 137.554 80.3135 135.193C82.7257 137.416 85.9089 138.768 89.398 138.768C95.108 138.768 99.9986 135.148 102.032 130.011C103.607 130.666 105.328 131.027 107.131 131.027C114.664 131.027 120.771 124.726 120.771 116.953C120.771 116.473 120.748 115.999 120.703 115.531C120.012 122.637 114.199 128.185 107.131 128.185C105.328 128.185 103.607 127.824 102.032 127.169C99.9986 132.306 95.108 135.926 89.398 135.926C85.9089 135.926 82.7257 134.574 80.3135 132.351C77.8739 134.712 74.5923 136.158 70.9834 136.158C67.0699 136.158 63.5412 134.457 61.0538 131.733C58.5802 134.322 55.1421 135.926 51.3409 135.926C45.5354 135.926 40.577 132.184 38.6078 126.91C36.8781 127.728 34.9539 128.185 32.9263 128.185C25.8577 128.185 20.0449 122.637 19.3544 115.531ZM120.231 110.177C123.196 107.685 125 104.391 125 100.779C125 100.299 124.968 99.8251 124.906 99.3578C124.459 102.723 122.441 105.738 119.413 107.981C119.743 108.682 120.017 109.416 120.231 110.177Z" fill="#463424"/>
</g>
<path d="M39.9317 56.0308C34.4362 56.6181 29.6306 58.2274 25.6479 60.8169C16.0062 67.0851 12.285 78.366 12.1393 78.8454L11.2851 81.6247L14.1662 81.9757C14.9658 82.0731 34.0067 84.2371 43.3982 70.0629L39.9317 56.0308Z" fill="#D18059"/>
<g style="mix-blend-mode:multiply">
<path fill-rule="evenodd" clip-rule="evenodd" d="M11.3653 81.3637C16.8797 81.1288 29.9129 79.1629 37.753 66.6748L35.9663 56.657C37.2442 56.3856 38.5666 56.1767 39.9317 56.0308L43.3982 70.0629C34.0066 84.237 14.9658 82.0731 14.1662 81.9756L11.2851 81.6247L11.3653 81.3637Z" fill="#D18059"/>
</g>
<path d="M100.59 56.0308C106.086 56.6181 110.891 58.2274 114.874 60.8169C124.516 67.0851 128.237 78.366 128.383 78.8454L129.237 81.6247L126.356 81.9757C125.556 82.0731 106.515 84.2371 97.1239 70.0629L100.59 56.0308Z" fill="#D18059"/>
<g style="mix-blend-mode:multiply">
<path fill-rule="evenodd" clip-rule="evenodd" d="M129.157 81.3637C123.642 81.1288 110.609 79.1629 102.769 66.6748L104.556 56.657C103.278 56.3856 101.956 56.1767 100.59 56.0308L97.1239 70.0629C106.515 84.237 125.556 82.0731 126.356 81.9756L129.237 81.6247L129.157 81.3637Z" fill="#D18059"/>
</g>
<path d="M27.4517 74.7145C22.0818 50.1996 40.7497 27 65.8458 27H72.7438C98.0508 27 116.875 50.3945 111.46 75.1154V75.1154C110.822 78.0291 109.857 80.8616 108.583 83.5588L104.195 92.851C102.74 95.9332 101.751 99.2148 101.263 102.588L100.916 104.98C98.6679 120.492 85.3714 132 69.6974 132V132C53.8529 132 40.467 120.247 38.4176 104.535L38.2247 103.056C37.7449 99.3779 36.6531 95.8061 34.9943 92.4885L30.6909 83.8818C29.2359 80.9718 28.1479 77.8925 27.4517 74.7145V74.7145Z" fill="#F0BF8E"/>
<ellipse cx="43" cy="91.4" rx="4" ry="2.4" fill="#FF946D"/>
<ellipse cx="96" cy="91.4" rx="4" ry="2.4" fill="#FF946D"/>
<path d="M75.8897 132.11C76.9223 136.127 81.8436 139.49 81.8436 139.49C81.8436 139.49 84.0795 134.291 83.047 130.274C82.0144 126.256 77.4858 122.535 77.4858 122.535C77.4858 122.535 74.8571 128.092 75.8897 132.11Z" fill="#ACCC5F"/>
<path d="M66.9986 130.455C64.4049 133.039 58.829 133.047 58.829 133.047C58.829 133.047 59.1872 127.806 61.7809 125.222C64.3746 122.637 69.7749 122.141 69.7749 122.141C69.7749 122.141 69.5923 127.871 66.9986 130.455Z" fill="#ACCC5F"/>
<path d="M75.6316 133.334C73.4676 138.392 66.1413 141.888 66.1413 141.888C66.1413 141.888 64.0048 134.663 66.1689 129.605C68.333 124.548 75.2741 120.545 75.2741 120.545C75.2741 120.545 77.7957 128.277 75.6316 133.334Z" fill="#BBD468"/>
<path d="M36 108.42C36 98.658 44.5817 91.2213 54.3134 91.9895C64.8279 92.8195 74.0651 92.8624 84.6198 92.0463C94.3675 91.2925 103 98.7165 103 108.493V108.493C103 116.802 96.6819 123.802 88.3911 124.346C75.0069 125.226 64.0584 125.213 50.6832 124.338C42.3547 123.793 36 116.766 36 108.42V108.42Z" fill="#FAEDE5"/>
<circle cx="51" cy="109" r="3" fill="#463424"/>
<circle cx="89" cy="109" r="3" fill="#463424"/>
<path d="M101.826 42.2774C99.5065 33.2107 87.5903 27 70.3267 27C57.2228 27 47.1998 29.6024 41.8112 35.5408C38.8985 38.2558 37 42.7026 37 47.7276C37 55.995 42.139 62.697 48.4783 62.697C51.1927 62.697 53.6871 61.4682 55.6522 59.4138C57.6173 61.4682 60.1116 62.697 62.8261 62.697C65.0615 62.697 67.1476 61.8636 68.9119 60.4221C70.9995 63.2445 73.9295 65 77.1739 65C80.148 65 82.8579 63.5249 84.8969 61.105C86.7685 62.833 89.0541 63.8485 91.5217 63.8485C97.861 63.8485 103 57.1465 103 48.8791C103 46.5096 102.578 44.2688 101.826 42.2774Z" fill="#4D3A2A"/>
<g style="mix-blend-mode:multiply">
<path fill-rule="evenodd" clip-rule="evenodd" d="M37.0756 46.0004C37.7322 53.4541 42.5869 59.2425 48.4783 59.2425C51.1927 59.2425 53.6871 58.0137 55.6522 55.9593C57.6172 58.0137 60.1116 59.2425 62.8261 59.2425C65.0615 59.2425 67.1476 58.4091 68.9119 56.9676C70.9995 59.79 73.9295 61.5455 77.1739 61.5455C80.148 61.5455 82.8579 60.0703 84.8969 57.6505C86.7685 59.3785 89.0541 60.394 91.5217 60.394C97.4131 60.394 102.268 54.6056 102.924 47.1519C102.974 47.7186 103 48.2949 103 48.8791C103 57.1465 97.861 63.8485 91.5217 63.8485C89.0541 63.8485 86.7685 62.833 84.8969 61.105C82.8579 63.5249 80.148 65 77.1739 65C73.9295 65 70.9995 63.2445 68.9119 60.4221C67.1476 61.8636 65.0615 62.697 62.8261 62.697C60.1116 62.697 57.6172 61.4682 55.6522 59.4138C53.6871 61.4682 51.1927 62.697 48.4783 62.697C42.139 62.697 37 55.995 37 47.7276C37 47.1435 37.0257 46.5671 37.0756 46.0004Z" fill="#4D3A2A"/>
</g>
<circle cx="88" cy="84" r="5" fill="#463424"/>
<circle cx="90" cy="83" r="2" fill="white"/>
<circle cx="52" cy="84" r="5" fill="#463424"/>
<circle cx="54" cy="83" r="2" fill="white"/>
<path d="M81.2748 28.9686C77.8712 27.2497 72.5473 28.5502 70.9369 29.0083C70.6714 29.0838 70.5307 29.3624 70.6275 29.6209C71.2146 31.1889 73.3278 36.2455 76.7314 37.9645C80.135 39.6835 85.4589 38.383 87.0694 37.9248C87.3348 37.8493 87.4755 37.5708 87.3787 37.3123C86.7916 35.7443 84.6784 30.6876 81.2748 28.9686Z" fill="#BBD468"/>
<path d="M72.356 38.9219C72.2248 35.6697 69.0882 32.2416 68.0163 31.1615C67.8219 30.9656 67.5129 30.9781 67.3348 31.189C66.3535 32.3519 63.5032 36.0215 63.6344 39.2738C63.7656 42.526 66.9022 45.9541 67.9741 47.0342C68.1685 47.2301 68.4776 47.2176 68.6556 47.0067C69.637 45.8438 72.4872 42.1741 72.356 38.9219Z" fill="#BBD468"/>
</svg>
