<svg width="140" height="156" viewBox="0 0 140 156" fill="none" xmlns="http://www.w3.org/2000/svg">
<rect width="140" height="156" rx="4" fill="#F1F1F1"/>
<path d="M68.3465 18.8028C68.975 17.3574 71.025 17.3574 71.6535 18.8028L73.0131 21.9297C73.5851 23.2452 75.3897 23.3984 76.1752 22.1981L78.0389 19.3505C78.9019 18.0318 80.9223 18.3771 81.2985 19.9076L82.1143 23.227C82.4566 24.6197 84.209 25.0747 85.1856 24.0246L87.5007 21.5351C88.5736 20.3814 90.5061 21.0619 90.6194 22.6333L90.8659 26.0523C90.969 27.482 92.6184 28.2256 93.758 27.3561L96.4604 25.2941C97.7123 24.3389 99.5012 25.3349 99.3487 26.9022L99.0158 30.3237C98.877 31.7494 100.376 32.7597 101.645 32.0963L104.661 30.5204C106.055 29.7914 107.649 31.074 107.235 32.5924L106.329 35.9174C105.953 37.2983 107.258 38.5461 108.621 38.1079L111.865 37.0643C113.363 36.5828 114.715 38.1149 114.052 39.5409L112.597 42.6719C111.994 43.9687 113.068 45.4177 114.484 45.2173L117.867 44.7385C119.423 44.5182 120.496 46.2556 119.603 47.5486L117.638 50.3924C116.826 51.5682 117.639 53.1766 119.067 53.2195L122.492 53.3224C124.062 53.3695 124.825 55.2622 123.726 56.3853L121.309 58.8568C120.311 59.8779 120.839 61.5996 122.239 61.8843L125.606 62.569C127.144 62.882 127.575 64.8757 126.304 65.7964L123.506 67.8218C122.349 68.6591 122.578 70.4447 123.909 70.9626L127.119 72.212C128.582 72.7814 128.669 74.8189 127.259 75.5107L124.164 77.0304C122.882 77.6596 122.806 79.458 124.029 80.1939L126.987 81.973C128.332 82.7822 128.072 84.805 126.566 85.2479L123.266 86.2182C121.896 86.621 121.515 88.3809 122.597 89.3135L125.214 91.5704C126.403 92.596 125.804 94.5462 124.244 94.7269L120.836 95.1218C119.417 95.2862 118.744 96.9573 119.653 98.0597L121.852 100.727C122.851 101.94 121.929 103.761 120.361 103.674L116.945 103.485C115.518 103.406 114.57 104.941 115.281 106.181L116.997 109.18C117.778 110.544 116.56 112.185 115.028 111.833L111.703 111.069C110.309 110.748 109.114 112.101 109.606 113.445L110.791 116.685C111.331 118.163 109.852 119.575 108.401 118.968L105.26 117.653C103.94 117.1 102.532 118.233 102.791 119.642L103.412 123.027C103.696 124.576 101.999 125.719 100.671 124.874L97.8021 123.048C96.5932 122.279 95.0133 123.159 95.0312 124.592L95.0742 128.025C95.0939 129.6 93.2264 130.441 92.0598 129.383L89.5423 127.099C88.4804 126.135 86.7733 126.737 86.5499 128.153L86.0165 131.534C85.7709 133.091 83.7873 133.606 82.8158 132.365L80.7191 129.687C79.8349 128.558 78.0499 128.863 77.5911 130.222L76.4993 133.457C75.9952 134.95 73.9526 135.123 73.2042 133.736L71.5868 130.738C70.9056 129.476 69.0944 129.476 68.4132 130.738L66.7958 133.736C66.0474 135.123 64.0048 134.95 63.5007 133.457L62.4088 130.222C61.9501 128.863 60.1651 128.558 59.2809 129.687L57.1842 132.365C56.2127 133.606 54.2291 133.091 53.9835 131.534L53.4501 128.153C53.2267 126.737 51.5196 126.135 50.4577 127.099L47.9402 129.383C46.7736 130.441 44.9061 129.6 44.9258 128.025L44.9688 124.592C44.9867 123.159 43.4068 122.279 42.1979 123.048L39.3292 124.874C38.0011 125.719 36.3036 124.576 36.5878 123.027L37.2091 119.642C37.4676 118.233 36.0604 117.1 34.7395 117.653L31.5988 118.968C30.1476 119.575 28.6689 118.163 29.2093 116.685L30.3942 113.445C30.8856 112.101 29.6913 110.748 28.297 111.069L24.9718 111.833C23.4396 112.185 22.222 110.544 23.0031 109.18L24.7195 106.181C25.4297 104.941 24.4824 103.406 23.055 103.485L19.6394 103.674C18.0706 103.761 17.149 101.94 18.1484 100.727L20.3475 98.0597C21.2562 96.9573 20.5829 95.2862 19.1637 95.1218L15.7559 94.7269C14.1958 94.5462 13.5966 92.596 14.7859 91.5704L17.4032 89.3135C18.4847 88.3809 18.1044 86.621 16.7343 86.2182L13.4338 85.2479C11.9276 84.805 11.6677 82.7822 13.0131 81.973L15.9708 80.1939C17.1943 79.458 17.1177 77.6596 15.8361 77.0304L12.7407 75.5107C11.3314 74.8189 11.4182 72.7814 12.8813 72.212L16.0912 70.9626C17.4218 70.4447 17.6511 68.6591 16.4944 67.8218L13.6965 65.7964C12.4246 64.8757 12.8557 62.882 14.3944 62.569L17.761 61.8843C19.1606 61.5996 19.6893 59.8779 18.6906 58.8568L16.2735 56.3853C15.1752 55.2622 15.9384 53.3695 17.5084 53.3224L20.9326 53.2195C22.3611 53.1766 23.1743 51.5682 22.3619 50.3924L20.397 47.5486C19.5037 46.2556 20.577 44.5182 22.1332 44.7385L25.5157 45.2173C26.9317 45.4177 28.0063 43.9687 27.4033 42.6719L25.9476 39.5409C25.2845 38.1149 26.6375 36.5828 28.1346 37.0643L31.379 38.1079C32.7415 38.5461 34.047 37.2983 33.6706 35.9174L32.7646 32.5924C32.3508 31.074 33.9446 29.7914 35.3393 30.5204L38.3545 32.0963C39.624 32.7597 41.123 31.7494 40.9842 30.3237L40.6513 26.9022C40.4988 25.3349 42.2877 24.3389 43.5396 25.2941L46.242 27.3561C47.3816 28.2256 49.031 27.482 49.1341 26.0523L49.3806 22.6333C49.4939 21.0619 51.4264 20.3814 52.4993 21.5351L54.8144 24.0246C55.7911 25.0747 57.5434 24.6197 57.8857 23.227L58.7015 19.9076C59.0777 18.3771 61.0981 18.0318 61.9611 19.3505L63.8248 22.1981C64.6103 23.3984 66.4149 23.2452 66.9869 21.9297L68.3465 18.8028Z" fill="#3B2514"/>
<path d="M68.3344 27.1302C68.9495 25.647 71.0504 25.647 71.6655 27.1302L72.3458 28.771C72.9074 30.1253 74.7646 30.2788 75.5409 29.035L76.4514 27.5762C77.3006 26.2156 79.3704 26.5579 79.7364 28.1194L80.1606 29.9291C80.4943 31.3528 82.2948 31.808 83.265 30.714L84.3897 29.4459C85.4504 28.2498 87.4277 28.9236 87.5374 30.5186L87.6717 32.4718C87.7715 33.9233 89.4608 34.6649 90.5969 33.756L91.928 32.691C93.17 31.6973 94.9967 32.6817 94.8497 34.2655L94.6591 36.3188C94.5256 37.7575 96.0539 38.7609 97.321 38.0665L98.8532 37.2268C100.239 36.4672 101.862 37.7317 101.465 39.2615L100.922 41.3511C100.561 42.7382 101.885 43.9711 103.243 43.5131L104.965 42.9322C106.453 42.4306 107.826 43.9368 107.19 45.3715L106.283 47.4167C105.707 48.7159 106.79 50.1397 108.196 49.9311L110.084 49.6509C111.625 49.422 112.712 51.125 111.854 52.4264L110.595 54.3365C109.82 55.514 110.635 57.0863 112.044 57.1307L114.052 57.194C115.601 57.2427 116.371 59.0929 115.314 60.2259L113.743 61.9108C112.787 62.9357 113.314 64.6116 114.685 64.9039L116.748 65.3438C118.257 65.6656 118.691 67.6106 117.462 68.5434L115.642 69.9249C114.53 70.7691 114.758 72.5028 116.051 73.0304L118.085 73.8606C119.511 74.4425 119.598 76.4283 118.229 77.133L116.243 78.1552C115.003 78.7939 114.926 80.539 116.107 81.2834L118.021 82.4906C119.324 83.3125 119.062 85.2847 117.59 85.7386L115.53 86.3736C114.194 86.7855 113.815 88.4961 114.852 89.434L116.557 90.9757C117.704 92.0124 117.1 93.9166 115.566 94.103L113.521 94.3515C112.125 94.521 111.452 96.1508 112.321 97.2557L113.742 99.0639C114.702 100.285 113.771 102.068 112.22 101.978L110.265 101.865C108.852 101.783 107.9 103.286 108.578 104.529L109.664 106.518C110.414 107.891 109.18 109.501 107.659 109.135L105.85 108.699C104.463 108.364 103.255 109.698 103.725 111.045L104.45 113.124C104.969 114.611 103.465 116.001 102.023 115.368L100.393 114.653C99.0756 114.075 97.6446 115.197 97.8927 116.615L98.2569 118.696C98.5303 120.258 96.7992 121.387 95.4801 120.506L94.0476 119.55C92.8413 118.746 91.2267 119.622 91.244 121.072L91.268 123.082C91.287 124.677 89.378 125.509 88.2224 124.41L86.9939 123.241C85.9368 122.235 84.1853 122.836 83.9682 124.279L83.6845 126.165C83.4462 127.749 81.4151 128.259 80.4568 126.975L79.4379 125.611C78.5616 124.437 76.7257 124.743 76.2769 126.137L75.7208 127.864C75.2289 129.392 73.1357 129.564 72.4012 128.137L71.6032 126.586C70.9321 125.282 69.0678 125.282 68.3967 126.586L67.5987 128.137C66.8642 129.564 64.771 129.392 64.2791 127.864L63.723 126.137C63.2742 124.743 61.4383 124.437 60.562 125.611L59.5431 126.975C58.5848 128.259 56.5537 127.749 56.3154 126.165L56.0317 124.279C55.8146 122.836 54.0631 122.235 53.006 123.241L51.7775 124.41C50.6219 125.509 48.7129 124.677 48.7319 123.082L48.7559 121.072C48.7732 119.622 47.1586 118.746 45.9523 119.55L44.5198 120.506C43.2007 121.387 41.4696 120.258 41.743 118.696L42.1072 116.615C42.3553 115.197 40.9243 114.075 39.6065 114.653L37.9771 115.368C36.5349 116.001 35.0313 114.611 35.55 113.124L36.2749 111.045C36.7449 109.698 35.5373 108.364 34.15 108.699L32.3407 109.135C30.8203 109.501 29.5863 107.891 30.3356 106.518L31.4216 104.529C32.0997 103.286 31.1475 101.783 29.7345 101.865L27.7796 101.978C26.2286 102.068 25.2975 100.285 26.2577 99.0639L27.6793 97.2556C28.5479 96.1508 27.8744 94.521 26.4793 94.3515L24.4343 94.103C22.9 93.9166 22.2961 92.0124 23.4426 90.9757L25.1477 89.434C26.185 88.4961 25.806 86.7855 24.4696 86.3736L22.41 85.7386C20.9376 85.2847 20.6761 83.3125 21.9793 82.4906L23.8933 81.2834C25.0735 80.539 24.9973 78.7939 23.7567 78.1552L21.7711 77.133C20.402 76.4283 20.4894 74.4425 21.915 73.8606L23.9492 73.0304C25.242 72.5028 25.4702 70.7691 24.358 69.9249L22.538 68.5434C21.3091 67.6106 21.7432 65.6656 23.252 65.3438L25.3147 64.9039C26.6854 64.6116 27.2131 62.9357 26.2572 61.9108L24.6858 60.2259C23.629 59.0929 24.399 57.2427 25.9476 57.194L27.9557 57.1307C29.3651 57.0863 30.1804 55.514 29.4045 54.3365L28.1459 52.4264C27.2884 51.125 28.3745 49.422 29.9162 49.6509L31.8039 49.9311C33.2096 50.1397 34.2929 48.7159 33.7169 47.4167L32.81 45.3715C32.1738 43.9368 33.5473 42.4306 35.0345 42.9322L36.7568 43.5131C38.1149 43.9711 39.4386 42.7382 39.0781 41.3511L38.5351 39.2615C38.1376 37.7317 39.7607 36.4672 41.1467 37.2268L42.6789 38.0665C43.946 38.7609 45.4743 37.7575 45.3408 36.3188L45.1502 34.2655C45.0032 32.6817 46.8299 31.6973 48.0719 32.691L49.403 33.756C50.5391 34.6649 52.2284 33.9233 52.3282 32.4718L52.4625 30.5186C52.5722 28.9236 54.5495 28.2498 55.6102 29.4459L56.7349 30.714C57.7051 31.808 59.5056 31.3528 59.8393 29.9291L60.2635 28.1194C60.6295 26.5579 62.6993 26.2156 63.5485 27.5762L64.459 29.035C65.2353 30.2788 67.0925 30.1253 67.6541 28.771L68.3344 27.1302Z" fill="#61432F"/>
<circle cx="42.6106" cy="54.8233" r="8.82334" fill="#FFE6BB"/>
<circle cx="42.1581" cy="54.8128" r="6.10847" fill="#ECC79F"/>
<circle cx="95.4616" cy="54.8233" r="8.82334" fill="#FFE6BB"/>
<circle cx="95.0092" cy="54.8128" r="6.10847" fill="#ECC79F"/>
<path d="M32.3534 75.2051C37.4758 60.24 51.5837 50.0706 67.4011 50.0706H72.2541C88.2433 50.0706 102.43 60.3258 107.443 75.5086L107.604 75.9957C109.95 83.1009 111.489 90.4477 112.191 97.8973V97.8973C114.234 119.572 97.185 138.304 75.4142 138.304H63.725C42.3567 138.304 25.5673 120.014 27.3916 98.724V98.724C28.0767 90.7296 29.755 82.7964 32.3534 75.2051V75.2051Z" fill="#FFE6BB"/>
<circle cx="46.5106" cy="103.745" r="4.89362" fill="#FFCEB9"/>
<circle cx="93.4894" cy="103.745" r="4.89362" fill="#FFCEB9"/>
<path d="M83.7021 86.4346C83.7021 82.4814 77.86 79.2766 69.4674 79.2766C61.0747 79.2766 56.2979 82.4814 56.2979 86.4346C56.2979 90.3879 61.0747 98.8511 69.4674 98.8511C77.86 98.8511 83.7021 90.3879 83.7021 86.4346Z" fill="#ECC79F"/>
<rect x="68.9409" y="87.4327" width="1.60441" height="6.41763" rx="0.802204" fill="#3A211F"/>
<ellipse cx="70.0105" cy="86.0957" rx="4.81322" ry="2.94141" fill="#3A211F"/>
<circle cx="67.069" cy="85.0262" r="0.802204" fill="white"/>
<path d="M64.1277 91.4438C66.8017 93.8505 72.7439 93.8505 75.418 91.4438" stroke="#3A211F" stroke-width="1.76467" stroke-linecap="round"/>
<circle cx="51.8936" cy="77.4156" r="4.40426" fill="#3A211F"/>
<circle cx="53.1131" cy="76.4652" r="1.46809" fill="white"/>
<circle cx="4.40426" cy="4.40426" r="4.40426" transform="matrix(-1 0 0 1 91.7924 73.0114)" fill="#3A211F"/>
<circle cx="1.46809" cy="1.46809" r="1.46809" transform="matrix(-1 0 0 1 90.5452 74.9971)" fill="white"/>
<path d="M52.543 85.6872C46.8241 85.185 43.58 85.0574 37.7021 85.2087" stroke="#ECC79F" stroke-width="1.46809" stroke-linecap="round" stroke-linejoin="round"/>
<path d="M51.073 94.4505C46.1341 95.2977 43.4303 95.9224 38.7694 97.4046" stroke="#ECC79F" stroke-width="1.46809" stroke-linecap="round" stroke-linejoin="round"/>
<path d="M50.6879 90.2334C45.5246 90.0263 43.0035 90.3475 37.8474 90.7879" stroke="#ECC79F" stroke-width="1.46809" stroke-linecap="round" stroke-linejoin="round"/>
<path d="M86.7983 85.6872C92.5172 85.185 95.7613 85.0574 101.639 85.2087" stroke="#ECC79F" stroke-width="1.46809" stroke-linecap="round" stroke-linejoin="round"/>
<path d="M88.2683 94.4505C93.2072 95.2977 95.911 95.9224 100.572 97.4046" stroke="#ECC79F" stroke-width="1.46809" stroke-linecap="round" stroke-linejoin="round"/>
<path d="M87.6748 90.2334C92.838 90.0263 95.3591 90.3475 100.515 90.7879" stroke="#ECC79F" stroke-width="1.46809" stroke-linecap="round" stroke-linejoin="round"/>
<path d="M16.7365 115.451C30.2025 130.631 38.9515 134.381 60.2972 140.061" stroke="#412E1A" stroke-width="1.84133" stroke-linecap="round"/>
<path d="M11.0762 113.336C11.6527 114.091 12.4005 114.737 13.2013 115.283C15.6533 116.957 18.4437 114.639 17.3292 111.887C16.9776 111.02 16.5345 110.173 15.977 109.443C15.4527 108.758 14.8016 108.142 14.1061 107.6C11.7269 105.744 8.72671 107.898 9.73205 110.743C10.0623 111.677 10.4989 112.581 11.0762 113.336Z" fill="#412E1A"/>
<path d="M21.3674 118.099C21.356 118.79 21.4546 119.501 21.6078 120.179C21.9862 121.852 24.0073 121.885 24.4404 120.225C24.6157 119.553 24.7376 118.845 24.7489 118.154C24.7603 117.464 24.6617 116.752 24.5085 116.075C24.1302 114.402 22.109 114.368 21.6759 116.028C21.5006 116.7 21.3787 117.408 21.3674 118.099Z" fill="#412E1A"/>
<path d="M19.1555 123.738C19.8462 123.735 20.5559 123.622 21.2298 123.455C22.8948 123.042 22.8864 121.02 21.2179 120.622C20.5427 120.46 19.8321 120.353 19.1414 120.356C18.4507 120.359 17.741 120.472 17.0671 120.639C15.4021 121.052 15.4105 123.073 17.079 123.472C17.7542 123.633 18.4648 123.741 19.1555 123.738Z" fill="#412E1A"/>
<path d="M28.2354 123.973C28.224 124.663 28.3226 125.375 28.4758 126.052C28.8541 127.726 30.8753 127.759 31.3084 126.099C31.4837 125.427 31.6056 124.719 31.6169 124.028C31.6283 123.338 31.5297 122.626 31.3765 121.949C30.9982 120.275 28.977 120.242 28.5439 121.902C28.3686 122.574 28.2467 123.282 28.2354 123.973Z" fill="#412E1A"/>
<path d="M26.9566 130.467C27.6264 130.298 28.288 130.018 28.902 129.693C30.419 128.893 29.9248 126.932 28.2095 126.946C27.5152 126.952 26.7997 127.019 26.1299 127.188C25.4602 127.356 24.7985 127.637 24.1846 127.961C22.6676 128.762 23.1617 130.722 24.8771 130.708C25.5713 130.702 26.2869 130.636 26.9566 130.467Z" fill="#412E1A"/>
<path d="M35.9176 129.351C35.9539 130.041 36.1013 130.744 36.3007 131.409C36.7935 133.052 38.8122 132.946 39.1298 131.26C39.2584 130.578 39.3312 129.863 39.2949 129.173C39.2586 128.483 39.1112 127.78 38.9117 127.115C38.4189 125.472 36.4003 125.578 36.0827 127.264C35.9541 127.946 35.8813 128.661 35.9176 129.351Z" fill="#412E1A"/>
<path d="M35.2113 135.236C35.8499 134.973 36.4644 134.6 37.0254 134.191C38.4116 133.18 37.6411 131.312 35.9456 131.572C35.2593 131.677 34.5608 131.846 33.9222 132.109C33.2836 132.372 32.6691 132.745 32.1081 133.154C30.7219 134.164 31.4924 136.033 33.1879 135.773C33.8742 135.668 34.5728 135.499 35.2113 135.236Z" fill="#412E1A"/>
<path d="M44.3992 132.786C44.4933 133.471 44.6993 134.159 44.954 134.805C45.5831 136.401 47.5856 136.125 47.7605 134.419C47.8313 133.728 47.8438 133.01 47.7497 132.325C47.6556 131.641 47.4495 130.953 47.1949 130.307C46.5658 128.711 44.5632 128.986 44.3883 130.693C44.3176 131.383 44.3051 132.102 44.3992 132.786Z" fill="#412E1A"/>
<path d="M44.5637 139.551C45.1666 139.214 45.7327 138.771 46.2415 138.299C47.4986 137.132 46.5125 135.367 44.8596 135.826C44.1906 136.012 43.5169 136.262 42.9139 136.599C42.311 136.936 41.7449 137.378 41.2361 137.851C39.979 139.018 40.9651 140.783 42.618 140.324C43.287 140.138 43.9607 139.888 44.5637 139.551Z" fill="#412E1A"/>
<path d="M122.341 114.987C108.875 130.166 100.126 133.916 78.7808 139.596" stroke="#412E1A" stroke-width="1.84133" stroke-linecap="round"/>
<path d="M128.002 112.872C127.425 113.626 126.677 114.272 125.877 114.819C123.425 116.492 120.634 114.174 121.749 111.423C122.1 110.555 122.543 109.708 123.101 108.979C123.625 108.293 124.276 107.677 124.972 107.135C127.351 105.28 130.351 107.433 129.346 110.278C129.016 111.212 128.579 112.116 128.002 112.872Z" fill="#412E1A"/>
<path d="M117.711 117.634C117.722 118.325 117.623 119.037 117.47 119.714C117.092 121.387 115.071 121.42 114.638 119.76C114.462 119.089 114.34 118.38 114.329 117.69C114.318 116.999 114.416 116.287 114.569 115.61C114.948 113.937 116.969 113.904 117.402 115.564C117.577 116.235 117.699 116.944 117.711 117.634Z" fill="#412E1A"/>
<path d="M119.922 123.273C119.232 123.27 118.522 123.157 117.848 122.99C116.183 122.577 116.192 120.556 117.86 120.157C118.535 119.995 119.246 119.888 119.937 119.891C120.627 119.894 121.337 120.007 122.011 120.174C123.676 120.587 123.667 122.608 121.999 123.007C121.324 123.169 120.613 123.276 119.922 123.273Z" fill="#412E1A"/>
<path d="M110.843 123.508C110.854 124.199 110.755 124.91 110.602 125.588C110.224 127.261 108.203 127.294 107.77 125.634C107.594 124.962 107.472 124.254 107.461 123.563C107.45 122.873 107.548 122.161 107.701 121.484C108.08 119.811 110.101 119.777 110.534 121.437C110.709 122.109 110.831 122.817 110.843 123.508Z" fill="#412E1A"/>
<path d="M112.121 130.002C111.452 129.833 110.79 129.553 110.176 129.229C108.659 128.428 109.153 126.468 110.868 126.482C111.563 126.487 112.278 126.554 112.948 126.723C113.618 126.892 114.279 127.172 114.893 127.496C116.41 128.297 115.916 130.257 114.201 130.243C113.507 130.238 112.791 130.171 112.121 130.002Z" fill="#412E1A"/>
<path d="M103.16 128.886C103.124 129.576 102.977 130.279 102.777 130.944C102.284 132.587 100.266 132.481 99.9481 130.795C99.8196 130.113 99.7467 129.398 99.783 128.708C99.8193 128.019 99.9668 127.315 100.166 126.65C100.659 125.007 102.678 125.113 102.995 126.799C103.124 127.481 103.197 128.196 103.16 128.886Z" fill="#412E1A"/>
<path d="M103.867 134.771C103.228 134.508 102.614 134.135 102.053 133.726C100.666 132.716 101.437 130.847 103.132 131.107C103.819 131.212 104.517 131.381 105.156 131.644C105.794 131.908 106.409 132.28 106.97 132.689C108.356 133.7 107.586 135.569 105.89 135.308C105.204 135.203 104.505 135.034 103.867 134.771Z" fill="#412E1A"/>
<path d="M94.6787 132.322C94.5846 133.006 94.3786 133.694 94.124 134.34C93.4949 135.936 91.4923 135.661 91.3174 133.954C91.2466 133.263 91.2342 132.545 91.3283 131.861C91.4224 131.176 91.6284 130.488 91.883 129.842C92.5122 128.246 94.5147 128.522 94.6896 130.228C94.7604 130.919 94.7729 131.637 94.6787 132.322Z" fill="#412E1A"/>
<path d="M94.5143 139.086C93.9113 138.749 93.3452 138.307 92.8364 137.834C91.5794 136.667 92.5654 134.902 94.2183 135.361C94.8873 135.547 95.561 135.797 96.164 136.134C96.767 136.471 97.3331 136.914 97.8419 137.386C99.0989 138.553 98.1129 140.318 96.4599 139.859C95.7909 139.673 95.1172 139.423 94.5143 139.086Z" fill="#412E1A"/>
<path d="M77.0669 128.32C77.0841 128.138 77.0929 127.954 77.0929 127.768C77.0929 124.582 74.528 122 71.364 122C68.2 122 65.6351 124.582 65.6351 127.768C65.6351 128.077 65.6593 128.38 65.7058 128.676C63.7972 127.522 61.3266 127.501 59.4107 128.82C56.8189 130.605 56.2237 134.167 58.0813 136.777C59.0716 138.168 60.5591 139.007 62.1248 139.217C61.9658 139.392 61.8156 139.578 61.6753 139.775C59.8178 142.384 60.413 145.946 63.0047 147.731C65.5965 149.516 69.2034 148.848 71.061 146.239C71.1612 146.098 71.2543 145.954 71.3404 145.808C71.4264 145.954 71.5195 146.098 71.6198 146.239C73.4774 148.848 77.0843 149.516 79.6761 147.731C82.2678 145.946 82.863 142.384 81.0054 139.775C80.8405 139.543 80.6617 139.327 80.4711 139.126C81.8462 138.817 83.1228 138.016 84.005 136.777C85.8626 134.167 85.2674 130.605 82.6756 128.82C80.9824 127.654 78.8559 127.535 77.0669 128.32Z" fill="#FFCE05"/>
<circle cx="71.6877" cy="135.99" r="4.32162" transform="rotate(24.6549 71.6877 135.99)" fill="white" fill-opacity="0.6"/>
<path d="M57.9603 50.137C57.9688 50.0468 57.9732 49.9553 57.9732 49.8628C57.9732 48.2817 56.7001 47 55.1296 47C53.5592 47 52.2861 48.2817 52.2861 49.8628C52.2861 50.0163 52.2981 50.167 52.3212 50.3139C51.3738 49.7407 50.1475 49.7303 49.1965 50.3852C47.9101 51.2712 47.6147 53.0393 48.5367 54.3345C49.0282 55.0249 49.7666 55.4416 50.5437 55.5459C50.4648 55.6325 50.3902 55.7248 50.3206 55.8226C49.3986 57.1178 49.694 58.8859 50.9805 59.7719C52.2669 60.6579 54.0572 60.3262 54.9792 59.031C55.029 58.9611 55.0752 58.8898 55.1179 58.8174C55.1606 58.8898 55.2068 58.9611 55.2566 59.031C56.1786 60.3262 57.9689 60.6579 59.2554 59.7719C60.5418 58.8859 60.8372 57.1178 59.9152 55.8226C59.8333 55.7076 59.7446 55.6002 59.65 55.5006C60.3325 55.3473 60.9662 54.9495 61.404 54.3345C62.326 53.0393 62.0306 51.2712 60.7442 50.3852C59.9037 49.8064 58.8482 49.7473 57.9603 50.137Z" fill="white"/>
<circle cx="55.2903" cy="53.9439" r="2.14505" transform="rotate(24.6549 55.2903 53.9439)" fill="#FFE36B"/>
<path d="M73.0026 47.137C73.0112 47.0468 73.0156 46.9553 73.0156 46.8628C73.0156 45.2817 71.7371 44 70.1599 44C68.5828 44 67.3043 45.2817 67.3043 46.8628C67.3043 47.0163 67.3164 47.167 67.3396 47.3139C66.3882 46.7407 65.1566 46.7303 64.2016 47.3852C62.9097 48.2712 62.6131 50.0393 63.539 51.3345C64.0326 52.0249 64.7741 52.4416 65.5546 52.5459C65.4753 52.6325 65.4004 52.7248 65.3305 52.8226C64.4046 54.1178 64.7012 55.8859 65.9931 56.7719C67.285 57.6579 69.083 57.3262 70.0089 56.031C70.0589 55.9611 70.1053 55.8898 70.1482 55.8174C70.1911 55.8898 70.2375 55.9611 70.2874 56.031C71.2134 57.3262 73.0113 57.6579 74.3032 56.7719C75.5951 55.8859 75.8918 54.1178 74.9658 52.8226C74.8836 52.7076 74.7945 52.6002 74.6995 52.5006C75.3849 52.3473 76.0213 51.9495 76.461 51.3345C77.3869 50.0393 77.0903 48.2712 75.7984 47.3852C74.9544 46.8064 73.8944 46.7473 73.0026 47.137Z" fill="#FFCE05"/>
<ellipse cx="2.15259" cy="2.14664" rx="2.15259" ry="2.14664" transform="matrix(0.909505 0.415692 -0.418615 0.908164 69.2621 48.0996)" fill="white" fill-opacity="0.6"/>
<path d="M86.9603 50.137C86.9688 50.0468 86.9732 49.9553 86.9732 49.8628C86.9732 48.2817 85.7001 47 84.1296 47C82.5592 47 81.2861 48.2817 81.2861 49.8628C81.2861 50.0163 81.2981 50.167 81.3212 50.3139C80.3738 49.7407 79.1475 49.7303 78.1965 50.3852C76.9101 51.2712 76.6147 53.0393 77.5367 54.3345C78.0282 55.0249 78.7666 55.4416 79.5437 55.5459C79.4648 55.6325 79.3902 55.7248 79.3206 55.8226C78.3986 57.1178 78.694 58.8859 79.9805 59.7719C81.2669 60.6579 83.0572 60.3262 83.9792 59.031C84.029 58.9611 84.0752 58.8898 84.1179 58.8174C84.1606 58.8898 84.2068 58.9611 84.2566 59.031C85.1786 60.3262 86.9689 60.6579 88.2554 59.7719C89.5418 58.8859 89.8372 57.1178 88.9152 55.8226C88.8333 55.7076 88.7446 55.6002 88.65 55.5006C89.3325 55.3473 89.9662 54.9495 90.404 54.3345C91.326 53.0393 91.0306 51.2712 89.7442 50.3852C88.9037 49.8064 87.8482 49.7473 86.9603 50.137Z" fill="white"/>
<circle cx="84.2903" cy="53.9439" r="2.14505" transform="rotate(24.6549 84.2903 53.9439)" fill="#FFE36B"/>
</svg>
