<svg width="140" height="156" viewBox="0 0 140 156" fill="none" xmlns="http://www.w3.org/2000/svg">
<rect width="140" height="156" rx="4" fill="#EAEAEA"/>
<circle cx="27.2474" cy="36.5232" r="19.5" fill="#FFE36B"/>
<g style="mix-blend-mode:multiply">
<circle cx="26.2474" cy="36.5" r="13.5" fill="#FFE36B"/>
</g>
<circle cx="113.247" cy="36.5232" r="19.5" fill="#FFE36B"/>
<g style="mix-blend-mode:multiply">
<circle cx="113.247" cy="36.5" r="13.5" fill="#FFE36B"/>
</g>
<path d="M65.5778 14.5969C65.5243 12.1122 67.4952 10.0545 69.9799 10.0011C72.4646 9.94758 74.5222 11.9185 74.5757 14.4032L74.6516 17.9293L75.8467 14.6459C76.6967 12.3105 79.279 11.1063 81.6144 11.9563C83.9498 12.8064 85.1539 15.3886 84.3039 17.724L80.1997 29.0004C79.3497 31.3358 76.7674 32.5399 74.432 31.6899C73.6842 31.4177 73.0525 30.968 72.567 30.4057C71.9364 30.7665 71.2093 30.9795 70.4318 30.9962C69.7948 31.0099 69.1858 30.8905 68.6314 30.6636C68.2167 31.9327 67.2439 33.0053 65.892 33.4973C63.5566 34.3473 60.9743 33.1432 60.1243 30.8078L56.02 19.5315C55.17 17.1961 56.3741 14.6138 58.7095 13.7638C61.0449 12.9138 63.6272 14.1179 64.4772 16.4533L65.6894 19.7838L65.5778 14.5969Z" fill="#FFE36B"/>
<path d="M127.747 75.177C127.747 100.87 101.78 125 69.7474 125C37.7149 125 11.7474 100.87 11.7474 75.177C11.7474 49.4839 37.7149 21 69.7474 21C101.78 21 127.747 49.4839 127.747 75.177Z" fill="#FFE36B"/>
<path fill-rule="evenodd" clip-rule="evenodd" d="M71.121 21.0175C79.4355 21.2289 87.3174 23.3504 94.4128 26.8258C93.1422 32.0896 88.4015 36 82.7474 36C76.12 36 70.7474 30.6274 70.7474 24C70.7474 22.9704 70.8771 21.9711 71.121 21.0175Z" fill="#343434"/>
<path fill-rule="evenodd" clip-rule="evenodd" d="M49.7474 31C53.0611 31 55.7474 28.3137 55.7474 25C55.7474 24.2731 55.6181 23.5764 55.3814 22.9316C51.4783 23.9928 47.7334 25.463 44.192 27.2709C45.0873 29.4587 47.2373 31 49.7474 31Z" fill="#343434"/>
<circle cx="41.7474" cy="42" r="5" fill="#343434"/>
<circle cx="64.7474" cy="43" r="4" fill="#343434"/>
<circle cx="85.7474" cy="48" r="3" fill="#343434"/>
<circle cx="61.2474" cy="57.5" r="2.5" fill="#343434"/>
<circle cx="79.2474" cy="63.5" r="2.5" fill="#343434"/>
<circle cx="69.5" cy="118.5" r="2.5" fill="#343434"/>
<circle cx="108.747" cy="49" r="3" fill="#343434"/>
<path fill-rule="evenodd" clip-rule="evenodd" d="M29.8275 110.662C25.4037 106.955 21.6415 102.691 18.7132 98.0633C20.2724 96.1914 22.6208 95 25.2474 95C29.9418 95 33.7474 98.8056 33.7474 103.5C33.7474 106.508 32.185 109.151 29.8275 110.662Z" fill="#343434"/>
<path fill-rule="evenodd" clip-rule="evenodd" d="M12.6379 66.7608C13.3701 63.2433 14.5403 59.7368 16.099 56.3195C18.2256 57.0796 19.7474 59.1121 19.7474 61.5C19.7474 64.5376 17.285 67 14.2474 67C13.6874 67 13.147 66.9163 12.6379 66.7608Z" fill="#343434"/>
<path fill-rule="evenodd" clip-rule="evenodd" d="M123.308 56.129C125.615 61.1356 127.089 66.3369 127.573 71.4868C126.694 71.8185 125.742 72 124.747 72C120.329 72 116.747 68.4183 116.747 64C116.747 60.0729 119.577 56.8068 123.308 56.129Z" fill="#343434"/>
<path fill-rule="evenodd" clip-rule="evenodd" d="M120.673 98.2339C118.797 101.173 116.584 103.963 114.079 106.556C112.119 105.714 110.747 103.767 110.747 101.5C110.747 98.4624 113.21 96 116.247 96C118.062 96 119.671 96.8788 120.673 98.2339Z" fill="#343434"/>
<path fill-rule="evenodd" clip-rule="evenodd" d="M52.5745 122.625C48.9871 121.61 45.5486 120.293 42.2963 118.714C43.0377 116.553 45.0874 115 47.5 115C50.5376 115 53 117.462 53 120.5C53 121.253 52.8486 121.971 52.5745 122.625Z" fill="#343434"/>
<path fill-rule="evenodd" clip-rule="evenodd" d="M100.83 116.801C96.0845 119.507 90.8705 121.642 85.3217 123.054C84.4848 121.738 84 120.175 84 118.5C84 113.806 87.8056 110 92.5 110C96.6124 110 100.043 112.92 100.83 116.801Z" fill="#343434"/>
<circle cx="39.7474" cy="65" r="8" fill="#343434"/>
<circle cx="42.4481" cy="63.4658" r="2.76923" transform="rotate(-150 42.4481 63.4658)" fill="white"/>
<circle cx="38.8524" cy="68.8312" r="1.5" transform="rotate(-150 38.8524 68.8312)" fill="white"/>
<circle cx="99.7474" cy="65" r="8" fill="#343434"/>
<circle cx="102.448" cy="63.4658" r="2.76923" transform="rotate(-150 102.448 63.4658)" fill="white"/>
<circle cx="98.8523" cy="68.8312" r="1.5" transform="rotate(-150 98.8523 68.8312)" fill="white"/>
<ellipse cx="25.7474" cy="84.4" rx="6" ry="4.4" fill="#FFA787"/>
<ellipse cx="114.747" cy="84.4" rx="6" ry="4.4" fill="#FFA787"/>
<ellipse cx="69.7108" cy="88.5" rx="29.9634" ry="19.5" fill="#FAFAFA"/>
<path d="M69.7474 81V88.5C69.7474 90.9853 71.7621 93 74.2474 93H74.9114C77.03 93 78.7474 91.2825 78.7474 89.1639V89.1639" stroke="#343434" stroke-width="2" stroke-linecap="round" stroke-linejoin="round"/>
<path d="M69.7474 81V88.5C69.7474 90.9853 67.7327 93 65.2474 93H64.5835C62.4649 93 60.7474 91.2825 60.7474 89.1639V89.1639" stroke="#343434" stroke-width="2" stroke-linecap="round" stroke-linejoin="round"/>
<ellipse cx="69.7474" cy="79.6118" rx="8" ry="4.61181" fill="#343434"/>
<ellipse cx="65.4448" cy="77.5996" rx="1.15989" ry="1.11412" fill="white"/>
<path d="M50.9109 80.55C45.0678 80.0369 41.7531 79.9065 35.7474 80.0611" stroke="#343434" stroke-width="1.5" stroke-linecap="round" stroke-linejoin="round"/>
<path d="M49.409 89.5038C44.3627 90.3695 41.6001 91.0077 36.8379 92.5222" stroke="#343434" stroke-width="1.5" stroke-linecap="round" stroke-linejoin="round"/>
<path d="M49.0155 85.1951C43.74 84.9834 41.164 85.3115 35.8959 85.7616" stroke="#343434" stroke-width="1.5" stroke-linecap="round" stroke-linejoin="round"/>
<path d="M88.9109 80.55C94.7541 80.0369 98.0688 79.9065 104.074 80.0611" stroke="#343434" stroke-width="1.5" stroke-linecap="round" stroke-linejoin="round"/>
<path d="M90.4129 89.5038C95.4591 90.3695 98.2217 91.0077 102.984 92.5222" stroke="#343434" stroke-width="1.5" stroke-linecap="round" stroke-linejoin="round"/>
<path d="M90.8064 85.1951C96.0819 84.9834 98.6578 85.3115 103.926 85.7616" stroke="#343434" stroke-width="1.5" stroke-linecap="round" stroke-linejoin="round"/>
<path d="M55.6778 28.0032C55.7726 27.9487 55.8658 27.8892 55.957 27.8247C57.5151 26.722 57.8903 24.5735 56.795 23.0259C55.6998 21.4783 53.5488 21.1176 51.9908 22.2203C51.8395 22.3273 51.6994 22.4442 51.5707 22.5695C51.4748 21.2362 50.6299 20.0204 49.3213 19.54C47.551 18.8902 45.6026 19.8322 44.9693 21.644C44.6317 22.6099 44.736 23.6281 45.1752 24.4667C45.0348 24.4494 44.8918 24.4402 44.7469 24.4398C42.8276 24.4345 41.2912 25.9587 41.3152 27.8443C41.3393 29.7299 42.9148 31.2629 44.8341 31.2682C44.9377 31.2685 45.0402 31.2644 45.1413 31.2559C45.0997 31.3485 45.0617 31.4438 45.0275 31.5416C44.3943 33.3534 45.316 35.349 47.0862 35.9989C48.8565 36.6487 50.8049 35.7067 51.4382 33.8949C51.4944 33.734 51.5384 33.5716 51.5706 33.4089C52.1977 33.9746 53.0316 34.3216 53.9431 34.3242C55.8624 34.3295 57.3988 32.8053 57.3747 30.9197C57.359 29.6878 56.6811 28.6064 55.6778 28.0032Z" fill="white"/>
<g style="mix-blend-mode:multiply">
<circle cx="50.0641" cy="28.027" r="2.58966" transform="rotate(79.3678 50.0641 28.027)" fill="#FED402"/>
</g>
<path d="M16.7365 112.451C30.2025 127.631 38.9515 131.381 60.2972 137.061" stroke="#BBD468" stroke-width="1.84133" stroke-linecap="round"/>
<path d="M11.0762 110.336C11.6527 111.091 12.4005 111.737 13.2013 112.283C15.6533 113.957 18.4437 111.639 17.3292 108.887C16.9776 108.02 16.5345 107.173 15.977 106.443C15.4527 105.758 14.8016 105.142 14.1061 104.6C11.7269 102.744 8.72671 104.898 9.73205 107.743C10.0623 108.677 10.4989 109.581 11.0762 110.336Z" fill="#BBD468"/>
<path d="M21.3674 115.099C21.356 115.79 21.4546 116.501 21.6078 117.179C21.9862 118.852 24.0073 118.885 24.4404 117.225C24.6157 116.553 24.7376 115.845 24.7489 115.154C24.7603 114.464 24.6617 113.752 24.5085 113.075C24.1302 111.402 22.109 111.368 21.6759 113.028C21.5006 113.7 21.3787 114.408 21.3674 115.099Z" fill="#BBD468"/>
<path d="M19.1555 120.738C19.8462 120.735 20.5559 120.622 21.2297 120.455C22.8948 120.042 22.8863 118.02 21.2179 117.622C20.5427 117.46 19.8321 117.353 19.1414 117.356C18.4507 117.359 17.741 117.472 17.0671 117.639C15.4021 118.052 15.4105 120.073 17.0789 120.472C17.7542 120.633 18.4648 120.741 19.1555 120.738Z" fill="#BBD468"/>
<path d="M28.2354 120.973C28.224 121.663 28.3226 122.375 28.4758 123.052C28.8542 124.726 30.8753 124.759 31.3084 123.099C31.4837 122.427 31.6056 121.719 31.6169 121.028C31.6283 120.338 31.5297 119.626 31.3765 118.949C30.9982 117.275 28.977 117.242 28.5439 118.902C28.3686 119.574 28.2467 120.282 28.2354 120.973Z" fill="#BBD468"/>
<path d="M26.9566 127.467C27.6264 127.298 28.288 127.018 28.902 126.693C30.419 125.893 29.9248 123.932 28.2095 123.946C27.5152 123.952 26.7997 124.019 26.1299 124.188C25.4601 124.356 24.7985 124.637 24.1846 124.961C22.6676 125.762 23.1617 127.722 24.8771 127.708C25.5713 127.702 26.2869 127.636 26.9566 127.467Z" fill="#BBD468"/>
<path d="M35.9175 126.351C35.9538 127.041 36.1013 127.744 36.3007 128.409C36.7935 130.052 38.8121 129.946 39.1298 128.26C39.2584 127.578 39.3312 126.863 39.2949 126.173C39.2586 125.483 39.1112 124.78 38.9117 124.115C38.4189 122.472 36.4003 122.578 36.0826 124.264C35.9541 124.946 35.8813 125.661 35.9175 126.351Z" fill="#BBD468"/>
<path d="M35.2113 132.236C35.8499 131.973 36.4644 131.6 37.0254 131.191C38.4116 130.18 37.6412 128.312 35.9456 128.572C35.2593 128.677 34.5608 128.846 33.9222 129.109C33.2836 129.372 32.6692 129.745 32.1081 130.154C30.7219 131.164 31.4924 133.033 33.1879 132.773C33.8742 132.668 34.5728 132.499 35.2113 132.236Z" fill="#BBD468"/>
<path d="M44.3992 129.786C44.4933 130.471 44.6993 131.159 44.954 131.805C45.5831 133.401 47.5856 133.125 47.7605 131.419C47.8313 130.728 47.8438 130.01 47.7497 129.325C47.6556 128.641 47.4495 127.953 47.1949 127.307C46.5658 125.711 44.5632 125.986 44.3883 127.693C44.3176 128.383 44.3051 129.102 44.3992 129.786Z" fill="#BBD468"/>
<path d="M44.5637 136.551C45.1666 136.214 45.7327 135.771 46.2415 135.299C47.4986 134.132 46.5125 132.367 44.8596 132.826C44.1906 133.012 43.5169 133.262 42.9139 133.599C42.311 133.936 41.7449 134.378 41.2361 134.851C39.979 136.018 40.9651 137.783 42.618 137.324C43.287 137.138 43.9607 136.888 44.5637 136.551Z" fill="#BBD468"/>
<path d="M122.341 111.987C108.876 127.166 100.127 130.916 78.7808 136.596" stroke="#BBD468" stroke-width="1.84133" stroke-linecap="round"/>
<path d="M128.002 109.872C127.425 110.626 126.677 111.272 125.877 111.819C123.425 113.492 120.634 111.174 121.749 108.423C122.1 107.555 122.543 106.708 123.101 105.979C123.625 105.293 124.276 104.677 124.972 104.135C127.351 102.28 130.351 104.433 129.346 107.278C129.016 108.212 128.579 109.116 128.002 109.872Z" fill="#BBD468"/>
<path d="M117.711 114.634C117.722 115.325 117.623 116.037 117.47 116.714C117.092 118.387 115.071 118.42 114.638 116.76C114.462 116.089 114.34 115.38 114.329 114.69C114.318 113.999 114.416 113.287 114.569 112.61C114.948 110.937 116.969 110.904 117.402 112.564C117.577 113.235 117.699 113.944 117.711 114.634Z" fill="#BBD468"/>
<path d="M119.922 120.273C119.232 120.27 118.522 120.157 117.848 119.99C116.183 119.577 116.192 117.556 117.86 117.157C118.535 116.995 119.246 116.888 119.937 116.891C120.627 116.894 121.337 117.007 122.011 117.174C123.676 117.587 123.667 119.608 121.999 120.007C121.324 120.169 120.613 120.276 119.922 120.273Z" fill="#BBD468"/>
<path d="M110.843 120.508C110.854 121.199 110.755 121.91 110.602 122.588C110.224 124.261 108.203 124.294 107.77 122.634C107.594 121.962 107.472 121.254 107.461 120.563C107.45 119.873 107.548 119.161 107.701 118.484C108.08 116.811 110.101 116.777 110.534 118.437C110.709 119.109 110.831 119.817 110.843 120.508Z" fill="#BBD468"/>
<path d="M112.121 127.002C111.452 126.833 110.79 126.553 110.176 126.229C108.659 125.428 109.153 123.468 110.869 123.482C111.563 123.487 112.278 123.554 112.948 123.723C113.618 123.892 114.279 124.172 114.893 124.496C116.41 125.297 115.916 127.257 114.201 127.243C113.507 127.238 112.791 127.171 112.121 127.002Z" fill="#BBD468"/>
<path d="M103.16 125.886C103.124 126.576 102.977 127.279 102.777 127.944C102.284 129.587 100.266 129.481 99.9482 127.795C99.8196 127.113 99.7468 126.398 99.7831 125.708C99.8194 125.019 99.9668 124.315 100.166 123.65C100.659 122.007 102.678 122.113 102.995 123.799C103.124 124.481 103.197 125.196 103.16 125.886Z" fill="#BBD468"/>
<path d="M103.867 131.771C103.228 131.508 102.614 131.135 102.053 130.726C100.666 129.716 101.437 127.847 103.132 128.107C103.819 128.212 104.517 128.381 105.156 128.644C105.794 128.908 106.409 129.28 106.97 129.689C108.356 130.7 107.586 132.569 105.89 132.308C105.204 132.203 104.505 132.034 103.867 131.771Z" fill="#BBD468"/>
<path d="M94.6788 129.322C94.5846 130.006 94.3786 130.694 94.124 131.34C93.4949 132.936 91.4923 132.661 91.3174 130.954C91.2467 130.263 91.2342 129.545 91.3283 128.861C91.4224 128.176 91.6284 127.488 91.8831 126.842C92.5122 125.246 94.5147 125.522 94.6896 127.228C94.7604 127.919 94.7729 128.637 94.6788 129.322Z" fill="#BBD468"/>
<path d="M94.5143 136.086C93.9113 135.749 93.3452 135.307 92.8365 134.834C91.5794 133.667 92.5654 131.902 94.2184 132.361C94.8874 132.547 95.5611 132.797 96.164 133.134C96.767 133.471 97.3331 133.914 97.8419 134.386C99.0989 135.553 98.1129 137.318 96.46 136.859C95.791 136.673 95.1173 136.423 94.5143 136.086Z" fill="#BBD468"/>
<path d="M16.7365 112.451C30.2025 127.631 38.9515 131.381 60.2972 137.061" stroke="#BBD468" stroke-width="1.84133" stroke-linecap="round"/>
<path d="M11.0762 110.336C11.6527 111.091 12.4005 111.737 13.2013 112.283C15.6533 113.957 18.4437 111.639 17.3292 108.887C16.9776 108.02 16.5345 107.173 15.977 106.443C15.4527 105.758 14.8016 105.142 14.1061 104.6C11.7269 102.744 8.72671 104.898 9.73205 107.743C10.0623 108.677 10.4989 109.581 11.0762 110.336Z" fill="#BBD468"/>
<path d="M21.3674 115.099C21.356 115.79 21.4546 116.501 21.6078 117.179C21.9862 118.852 24.0073 118.885 24.4404 117.225C24.6157 116.553 24.7376 115.845 24.7489 115.154C24.7603 114.464 24.6617 113.752 24.5085 113.075C24.1302 111.402 22.109 111.368 21.6759 113.028C21.5006 113.7 21.3787 114.408 21.3674 115.099Z" fill="#BBD468"/>
<path d="M19.1555 120.738C19.8462 120.735 20.5559 120.622 21.2297 120.455C22.8948 120.042 22.8863 118.02 21.2179 117.622C20.5427 117.46 19.8321 117.353 19.1414 117.356C18.4507 117.359 17.741 117.472 17.0671 117.639C15.4021 118.052 15.4105 120.073 17.0789 120.472C17.7542 120.633 18.4648 120.741 19.1555 120.738Z" fill="#BBD468"/>
<path d="M28.2354 120.973C28.224 121.663 28.3226 122.375 28.4758 123.052C28.8542 124.726 30.8753 124.759 31.3084 123.099C31.4837 122.427 31.6056 121.719 31.6169 121.028C31.6283 120.338 31.5297 119.626 31.3765 118.949C30.9982 117.275 28.977 117.242 28.5439 118.902C28.3686 119.574 28.2467 120.282 28.2354 120.973Z" fill="#BBD468"/>
<path d="M26.9566 127.467C27.6264 127.298 28.288 127.018 28.902 126.693C30.419 125.893 29.9248 123.932 28.2095 123.946C27.5152 123.952 26.7997 124.019 26.1299 124.188C25.4601 124.356 24.7985 124.637 24.1846 124.961C22.6676 125.762 23.1617 127.722 24.8771 127.708C25.5713 127.702 26.2869 127.636 26.9566 127.467Z" fill="#BBD468"/>
<path d="M35.9175 126.351C35.9538 127.041 36.1013 127.744 36.3007 128.409C36.7935 130.052 38.8121 129.946 39.1298 128.26C39.2584 127.578 39.3312 126.863 39.2949 126.173C39.2586 125.483 39.1112 124.78 38.9117 124.115C38.4189 122.472 36.4003 122.578 36.0826 124.264C35.9541 124.946 35.8813 125.661 35.9175 126.351Z" fill="#BBD468"/>
<path d="M35.2113 132.236C35.8499 131.973 36.4644 131.6 37.0254 131.191C38.4116 130.18 37.6412 128.312 35.9456 128.572C35.2593 128.677 34.5608 128.846 33.9222 129.109C33.2836 129.372 32.6692 129.745 32.1081 130.154C30.7219 131.164 31.4924 133.033 33.1879 132.773C33.8742 132.668 34.5728 132.499 35.2113 132.236Z" fill="#BBD468"/>
<path d="M44.3992 129.786C44.4933 130.471 44.6993 131.159 44.954 131.805C45.5831 133.401 47.5856 133.125 47.7605 131.419C47.8313 130.728 47.8438 130.01 47.7497 129.325C47.6556 128.641 47.4495 127.953 47.1949 127.307C46.5658 125.711 44.5632 125.986 44.3883 127.693C44.3176 128.383 44.3051 129.102 44.3992 129.786Z" fill="#BBD468"/>
<path d="M44.5637 136.551C45.1666 136.214 45.7327 135.771 46.2415 135.299C47.4986 134.132 46.5125 132.367 44.8596 132.826C44.1906 133.012 43.5169 133.262 42.9139 133.599C42.311 133.936 41.7449 134.378 41.2361 134.851C39.979 136.018 40.9651 137.783 42.618 137.324C43.287 137.138 43.9607 136.888 44.5637 136.551Z" fill="#BBD468"/>
<path d="M122.341 111.987C108.876 127.166 100.127 130.916 78.7808 136.596" stroke="#BBD468" stroke-width="1.84133" stroke-linecap="round"/>
<path d="M128.002 109.872C127.425 110.626 126.677 111.272 125.877 111.819C123.425 113.492 120.634 111.174 121.749 108.423C122.1 107.555 122.543 106.708 123.101 105.979C123.625 105.293 124.276 104.677 124.972 104.135C127.351 102.28 130.351 104.433 129.346 107.278C129.016 108.212 128.579 109.116 128.002 109.872Z" fill="#BBD468"/>
<path d="M117.711 114.634C117.722 115.325 117.623 116.037 117.47 116.714C117.092 118.387 115.071 118.42 114.638 116.76C114.462 116.089 114.34 115.38 114.329 114.69C114.318 113.999 114.416 113.287 114.569 112.61C114.948 110.937 116.969 110.904 117.402 112.564C117.577 113.235 117.699 113.944 117.711 114.634Z" fill="#BBD468"/>
<path d="M119.922 120.273C119.232 120.27 118.522 120.157 117.848 119.99C116.183 119.577 116.192 117.556 117.86 117.157C118.535 116.995 119.246 116.888 119.937 116.891C120.627 116.894 121.337 117.007 122.011 117.174C123.676 117.587 123.667 119.608 121.999 120.007C121.324 120.169 120.613 120.276 119.922 120.273Z" fill="#BBD468"/>
<path d="M110.843 120.508C110.854 121.199 110.755 121.91 110.602 122.588C110.224 124.261 108.203 124.294 107.77 122.634C107.594 121.962 107.472 121.254 107.461 120.563C107.45 119.873 107.548 119.161 107.701 118.484C108.08 116.811 110.101 116.777 110.534 118.437C110.709 119.109 110.831 119.817 110.843 120.508Z" fill="#BBD468"/>
<path d="M112.121 127.002C111.452 126.833 110.79 126.553 110.176 126.229C108.659 125.428 109.153 123.468 110.869 123.482C111.563 123.487 112.278 123.554 112.948 123.723C113.618 123.892 114.279 124.172 114.893 124.496C116.41 125.297 115.916 127.257 114.201 127.243C113.507 127.238 112.791 127.171 112.121 127.002Z" fill="#BBD468"/>
<path d="M103.16 125.886C103.124 126.576 102.977 127.279 102.777 127.944C102.284 129.587 100.266 129.481 99.9482 127.795C99.8196 127.113 99.7468 126.398 99.7831 125.708C99.8194 125.019 99.9668 124.315 100.166 123.65C100.659 122.007 102.678 122.113 102.995 123.799C103.124 124.481 103.197 125.196 103.16 125.886Z" fill="#BBD468"/>
<path d="M103.867 131.771C103.228 131.508 102.614 131.135 102.053 130.726C100.666 129.716 101.437 127.847 103.132 128.107C103.819 128.212 104.517 128.381 105.156 128.644C105.794 128.908 106.409 129.28 106.97 129.689C108.356 130.7 107.586 132.569 105.89 132.308C105.204 132.203 104.505 132.034 103.867 131.771Z" fill="#BBD468"/>
<path d="M94.6788 129.322C94.5846 130.006 94.3786 130.694 94.124 131.34C93.4949 132.936 91.4923 132.661 91.3174 130.954C91.2467 130.263 91.2342 129.545 91.3283 128.861C91.4224 128.176 91.6284 127.488 91.8831 126.842C92.5122 125.246 94.5147 125.522 94.6896 127.228C94.7604 127.919 94.7729 128.637 94.6788 129.322Z" fill="#BBD468"/>
<path d="M94.5143 136.086C93.9113 135.749 93.3452 135.307 92.8365 134.834C91.5794 133.667 92.5654 131.902 94.2184 132.361C94.8874 132.547 95.5611 132.797 96.164 133.134C96.767 133.471 97.3331 133.914 97.8419 134.386C99.0989 135.553 98.1129 137.318 96.46 136.859C95.791 136.673 95.1173 136.423 94.5143 136.086Z" fill="#BBD468"/>
<path d="M77.0669 125.32C77.0841 125.138 77.0929 124.954 77.0929 124.768C77.0929 121.582 74.528 119 71.364 119C68.2 119 65.6351 121.582 65.6351 124.768C65.6351 125.077 65.6593 125.38 65.7058 125.676C63.7972 124.522 61.3266 124.501 59.4107 125.82C56.8189 127.605 56.2237 131.167 58.0813 133.777C59.0716 135.168 60.5591 136.007 62.1248 136.217C61.9658 136.392 61.8156 136.578 61.6753 136.775C59.8178 139.384 60.413 142.946 63.0047 144.731C65.5965 146.516 69.2034 145.848 71.061 143.239C71.1612 143.098 71.2543 142.954 71.3404 142.808C71.4264 142.954 71.5195 143.098 71.6198 143.239C73.4774 145.848 77.0843 146.516 79.6761 144.731C82.2678 142.946 82.863 139.384 81.0054 136.775C80.8405 136.543 80.6617 136.327 80.4711 136.126C81.8462 135.817 83.1228 135.016 84.005 133.777C85.8626 131.167 85.2674 127.605 82.6756 125.82C80.9824 124.654 78.8559 124.535 77.0669 125.32Z" fill="white"/>
<g style="mix-blend-mode:multiply">
<circle cx="71.6877" cy="132.99" r="4.32162" transform="rotate(24.6549 71.6877 132.99)" fill="#FED402"/>
</g>
<path d="M77.0669 125.32C77.0841 125.138 77.0929 124.954 77.0929 124.768C77.0929 121.582 74.528 119 71.364 119C68.2 119 65.6351 121.582 65.6351 124.768C65.6351 125.077 65.6593 125.38 65.7058 125.676C63.7972 124.522 61.3266 124.501 59.4107 125.82C56.8189 127.605 56.2237 131.167 58.0813 133.777C59.0716 135.168 60.5591 136.007 62.1248 136.217C61.9658 136.392 61.8156 136.578 61.6753 136.775C59.8178 139.384 60.413 142.946 63.0047 144.731C65.5965 146.516 69.2034 145.848 71.061 143.239C71.1612 143.098 71.2543 142.954 71.3404 142.808C71.4264 142.954 71.5195 143.098 71.6198 143.239C73.4774 145.848 77.0843 146.516 79.6761 144.731C82.2678 142.946 82.863 139.384 81.0054 136.775C80.8405 136.543 80.6617 136.327 80.4711 136.126C81.8462 135.817 83.1228 135.016 84.005 133.777C85.8626 131.167 85.2674 127.605 82.6756 125.82C80.9824 124.654 78.8559 124.535 77.0669 125.32Z" fill="white"/>
<g style="mix-blend-mode:multiply">
<circle cx="71.6877" cy="132.99" r="4.32162" transform="rotate(24.6549 71.6877 132.99)" fill="#FED402"/>
</g>
</svg>
