<svg width="140" height="156" viewBox="0 0 140 156" fill="none" xmlns="http://www.w3.org/2000/svg">
<rect width="140" height="156" rx="4" fill="#FFEBA8"/>
<path d="M36.9263 33.6358C29.3573 35.4144 26.1038 72.1679 26.1038 72.1679L60.6579 64.6708C60.6579 64.6708 44.0747 31.9561 36.9263 33.6358Z" fill="#C4C4C4"/>
<g style="mix-blend-mode:multiply">
<path d="M38.5092 39.9955C32.8744 41.3195 30.4523 68.6812 30.4523 68.6812L56.1765 63.0999C56.1765 63.0999 43.8309 38.745 38.5092 39.9955Z" fill="#C4C4C4"/>
</g>
<path d="M99.3151 33.6358C106.884 35.4144 110.137 72.1679 110.137 72.1679L75.5834 64.6708C75.5834 64.6708 92.1667 31.9561 99.3151 33.6358Z" fill="#C4C4C4"/>
<g style="mix-blend-mode:multiply">
<path d="M97.7322 39.9955C103.367 41.3195 105.789 68.6812 105.789 68.6812L80.0648 63.0999C80.0648 63.0999 92.4104 38.745 97.7322 39.9955Z" fill="#C4C4C4"/>
</g>
<path d="M72.2589 24.9221C62.5887 36.9887 60.897 44.0426 59.3751 60.8065" stroke="#5EA985" stroke-width="1.10842" stroke-linecap="round"/>
<path d="M68.0564 35.281C66.0194 35.5954 63.9547 37.218 63.9547 37.218C63.9547 37.218 66.4125 38.1425 68.4495 37.8282C70.4866 37.5138 72.5513 35.8912 72.5513 35.8912C72.5513 35.8912 70.0935 34.9666 68.0564 35.281Z" fill="#5EA985"/>
<path d="M61.2391 33.8082C62.0729 35.6932 64.1771 37.2643 64.1771 37.2643C64.1771 37.2643 64.4299 34.6505 63.5961 32.7655C62.7622 30.8806 60.6581 29.3095 60.6581 29.3095C60.6581 29.3095 60.4052 31.9233 61.2391 33.8082Z" fill="#5EA985"/>
<path d="M65.6824 41.8389C63.6719 42.2929 61.7239 44.054 61.7239 44.054C61.7239 44.054 64.2397 44.8069 66.2502 44.3529C68.2607 43.8988 70.2087 42.1378 70.2087 42.1378C70.2087 42.1378 67.6929 41.3849 65.6824 41.8389Z" fill="#5EA985"/>
<path d="M64.0146 48.2678C62.1183 49.0757 60.5185 51.158 60.5185 51.158C60.5185 51.158 63.1285 51.4467 65.0248 50.6389C66.921 49.831 68.5209 47.7486 68.5209 47.7486C68.5209 47.7486 65.9108 47.4599 64.0146 48.2678Z" fill="#5EA985"/>
<path d="M58.5092 40.6005C59.3973 42.4605 61.546 43.97 61.546 43.97C61.546 43.97 61.723 41.35 60.8349 39.49C59.9468 37.63 57.7981 36.1204 57.7981 36.1204C57.7981 36.1204 57.6211 38.7405 58.5092 40.6005Z" fill="#5EA985"/>
<path d="M56.9155 48.4534C58.01 50.2 60.3169 51.4546 60.3169 51.4546C60.3169 51.4546 60.194 48.8314 59.0995 47.0849C58.005 45.3383 55.6981 44.0838 55.6981 44.0838C55.6981 44.0838 55.8211 46.7069 56.9155 48.4534Z" fill="#5EA985"/>
<path fill-rule="evenodd" clip-rule="evenodd" d="M69.0497 29.6571C69.1097 29.3856 69.178 29.123 69.2528 28.8721C69.0429 29.0285 68.8197 29.1828 68.5852 29.3323C66.8194 30.4588 65.0836 30.8948 64.7081 30.3062C64.3327 29.7176 65.4597 28.3273 67.2255 27.2009C67.4599 27.0513 67.6939 26.9139 67.9242 26.7895C67.6652 26.7516 67.3983 26.7028 67.1267 26.6428C65.0816 26.1907 63.5459 25.2716 63.6966 24.5899C63.8473 23.9082 65.6273 23.7221 67.6724 24.1742C67.944 24.2342 68.2066 24.3025 68.4574 24.3773C68.301 24.1674 68.1468 23.9442 67.9972 23.7097C66.8708 21.9439 66.4348 20.2081 67.0234 19.8327C67.612 19.4572 69.0023 20.5842 70.1287 22.35C70.2783 22.5845 70.4157 22.8184 70.5401 23.0487C70.578 22.7897 70.6267 22.5228 70.6868 22.2512C71.1389 20.2061 72.058 18.6704 72.7397 18.8211C73.4214 18.9718 73.6075 20.7519 73.1554 22.7969C73.0954 23.0685 73.0271 23.3311 72.9522 23.582C73.1622 23.4256 73.3854 23.2713 73.6199 23.1218C75.3856 21.9954 77.1214 21.5594 77.4969 22.1479C77.8724 22.7365 76.7453 24.1268 74.9796 25.2532C74.7451 25.4028 74.5112 25.5402 74.2809 25.6646C74.5399 25.7025 74.8068 25.7513 75.0783 25.8113C77.1234 26.2634 78.6591 27.1825 78.5084 27.8642C78.3577 28.5459 76.5777 28.732 74.5326 28.2799C74.2611 28.2199 73.9985 28.1516 73.7476 28.0768C73.904 28.2867 74.0582 28.5099 74.2078 28.7444C75.3342 30.5102 75.7702 32.246 75.1816 32.6214C74.5931 32.9969 73.2028 31.8699 72.0764 30.1041C71.9268 29.8696 71.7894 29.6357 71.6649 29.4054C71.6271 29.6644 71.5783 29.9313 71.5183 30.2029C71.0662 32.2479 70.1471 33.7836 69.4654 33.6329C68.7837 33.4822 68.5976 31.7022 69.0497 29.6571Z" fill="white"/>
<circle cx="71.1026" cy="26.227" r="1.73816" transform="rotate(-167.535 71.1026 26.227)" fill="#FFCE05"/>
<path d="M82.8186 32.756C74.3386 45.6868 73.3249 52.8694 73.4026 69.7021" stroke="#5EA985" stroke-width="1.10842" stroke-linecap="round"/>
<path d="M79.6193 43.4673C77.6214 43.9738 75.7202 45.7852 75.7202 45.7852C75.7202 45.7852 78.2548 46.4721 80.2527 45.9656C82.2506 45.4591 84.1519 43.6476 84.1519 43.6476C84.1519 43.6476 81.6173 42.9608 79.6193 43.4673Z" fill="#5EA985"/>
<path d="M72.6929 42.6489C73.7021 44.4461 75.946 45.8102 75.946 45.8102C75.946 45.8102 75.9494 43.1842 74.9402 41.387C73.931 39.5898 71.6871 38.2257 71.6871 38.2257C71.6871 38.2257 71.6838 40.8517 72.6929 42.6489Z" fill="#5EA985"/>
<path d="M77.8792 50.2211C75.9209 50.8641 74.1491 52.8022 74.1491 52.8022C74.1491 52.8022 76.725 53.3128 78.6833 52.6697C80.6415 52.0267 82.4134 50.0886 82.4134 50.0886C82.4134 50.0886 79.8375 49.578 77.8792 50.2211Z" fill="#5EA985"/>
<path d="M70.6207 49.6698C71.6815 51.437 73.964 52.7355 73.964 52.7355C73.964 52.7355 73.8913 50.1105 72.8305 48.3433C71.7697 46.5761 69.4872 45.2776 69.4872 45.2776C69.4872 45.2776 69.5599 47.9026 70.6207 49.6698Z" fill="#5EA985"/>
<path fill-rule="evenodd" clip-rule="evenodd" d="M80.0738 37.7745C80.1077 37.4984 80.1507 37.2305 80.2014 36.9737C80.0073 37.1493 79.7997 37.3241 79.5805 37.4953C77.9298 38.7844 76.2433 39.3833 75.8136 38.8331C75.3839 38.2828 76.3737 36.7917 78.0245 35.5026C78.2437 35.3315 78.4635 35.1724 78.6809 35.0267C78.4195 35.0136 78.1491 34.9904 77.8731 34.9565C75.7943 34.7007 74.1782 33.9317 74.2635 33.2388C74.3487 32.5458 76.103 32.1914 78.1818 32.4471C78.4578 32.4811 78.7257 32.5241 78.9826 32.5748C78.8069 32.3807 78.6322 32.1731 78.461 31.9539C77.1719 30.3032 76.573 28.6166 77.1232 28.187C77.6735 27.7573 79.1645 28.7471 80.4536 30.3978C80.6248 30.617 80.7838 30.8369 80.9296 31.0543C80.9427 30.7929 80.9659 30.5225 80.9998 30.2465C81.2555 28.1677 82.0246 26.5516 82.7175 26.6369C83.4104 26.7221 83.7648 28.4764 83.5091 30.5552C83.4752 30.8312 83.4322 31.0991 83.3815 31.356C83.5756 31.1803 83.7831 31.0056 84.0023 30.8344C85.6531 29.5453 87.3396 28.9464 87.7693 29.4966C88.199 30.0469 87.2092 31.5379 85.5584 32.827C85.3392 32.9982 85.1194 33.1572 84.902 33.303C85.1634 33.316 85.4337 33.3392 85.7098 33.3732C87.7885 33.6289 89.4046 34.398 89.3194 35.0909C89.2341 35.7838 87.4799 36.1382 85.4011 35.8825C85.125 35.8485 84.8571 35.8055 84.6003 35.7549C84.7759 35.949 84.9507 36.1565 85.1219 36.3757C86.411 38.0265 87.0099 39.713 86.4597 40.1427C85.9094 40.5724 84.4183 39.5826 83.1292 37.9318C82.9581 37.7126 82.7991 37.4928 82.6533 37.2754C82.6402 37.5368 82.617 37.8071 82.5831 38.0831C82.3273 40.1619 81.5583 41.778 80.8654 41.6928C80.1725 41.6075 79.818 39.8532 80.0738 37.7745Z" fill="white"/>
<circle cx="81.7915" cy="34.1648" r="1.73816" transform="rotate(-172.987 81.7915 34.1648)" fill="#FFCE05"/>
<path d="M20.0195 79.7455C19.9703 79.8693 19.8757 79.9687 19.7559 80.0226C11.2784 83.8352 4.25253 91.9448 3.02488 95.4776C2.92167 95.7747 3.15359 96.0569 3.46245 96.057C8.61537 96.0595 9.85029 96.1288 13.9427 98.0518C14.262 98.2018 14.3296 98.6359 14.0711 98.879L10.085 102.628C9.74093 102.951 9.9895 103.578 10.4563 103.612C12.3368 103.746 14.6617 104.32 17.187 105.167C17.3588 105.224 17.4855 105.375 17.5189 105.556C21.4489 126.873 39.791 143 61.8249 143H74.7062C96.2648 143 114.289 127.561 118.738 106.928C118.773 106.763 118.887 106.625 119.041 106.564C122.989 104.978 126.754 103.81 129.543 103.612C130.01 103.578 130.258 102.951 129.914 102.628L125.928 98.879C125.669 98.6359 125.737 98.2018 126.056 98.0518C130.149 96.1288 131.384 96.0595 136.537 96.057C136.845 96.0569 137.078 95.7777 136.975 95.4806C135.563 91.4075 126.43 81.2383 116.252 78.6027C116.102 78.5639 115.978 78.4574 115.915 78.3132C108.895 62.2202 93.0847 51 74.7062 51H61.8249C42.9059 51 26.7087 62.8899 20.0195 79.7455Z" fill="#CFCFCE"/>
<path fill-rule="evenodd" clip-rule="evenodd" d="M116.535 78.678C113.42 78.0049 110.264 77.8237 107.155 78.176C89.71 78.176 75.1453 94.8856 69.5795 117.833C63.3758 94.8029 46.8055 79.0245 29.1548 79.0245C25.7307 79.0245 22.4175 79.4229 19.2687 80.2472C11.0105 84.1453 4.22894 92.0127 3.02488 95.4776C2.92167 95.7747 3.15359 96.0569 3.46245 96.057C8.61537 96.0595 9.85029 96.1288 13.9427 98.0517C14.262 98.2018 14.3296 98.6359 14.0711 98.879L10.085 102.628C9.74093 102.951 9.9895 103.578 10.4563 103.612C12.3368 103.746 14.6617 104.32 17.187 105.167C17.3588 105.224 17.4855 105.375 17.5189 105.556C20.2073 120.138 29.6397 132.292 42.3846 138.516C42.4486 138.547 42.5127 138.578 42.5769 138.609C48.4142 141.425 54.9393 143 61.8249 143L67.2682 143L72 143L74.7062 143C81.4278 143 87.8059 141.499 93.5361 138.808C106.185 132.868 115.676 121.128 118.738 106.928C118.773 106.763 118.887 106.625 119.041 106.564C122.989 104.978 126.754 103.81 129.543 103.612C130.01 103.578 130.258 102.951 129.914 102.628L125.928 98.879C125.669 98.6359 125.737 98.2018 126.056 98.0517C130.149 96.1288 131.384 96.0595 136.537 96.057C136.845 96.0569 137.078 95.7777 136.975 95.4806C135.576 91.4453 126.598 81.4264 116.535 78.678Z" fill="#F4F4F4"/>
<ellipse cx="39.5" cy="113.3" rx="5.5" ry="3.3" fill="#FFC7AF"/>
<ellipse cx="98.5" cy="113.3" rx="5.5" ry="3.3" fill="#FFC7AF"/>
<circle cx="6.5" cy="6.5" r="6.5" transform="matrix(-1 0 0 1 51 96)" fill="#282828"/>
<circle cx="2.25" cy="2.25" r="2.25" transform="matrix(-1 0 0 1 44.5 99)" fill="white"/>
<circle cx="1.5" cy="1.5" r="1.5" transform="matrix(-1 0 0 1 47 103)" fill="white"/>
<circle cx="6.5" cy="6.5" r="6.5" transform="matrix(-1 0 0 1 100 96)" fill="#282828"/>
<circle cx="2.25" cy="2.25" r="2.25" transform="matrix(-1 0 0 1 93.5 99)" fill="white"/>
<circle cx="1.5" cy="1.5" r="1.5" transform="matrix(-1 0 0 1 96 103)" fill="white"/>
<rect x="69.2634" y="115.567" width="1.93315" height="8.35123" rx="0.966577" fill="#282828"/>
<ellipse cx="70.1913" cy="113.321" rx="6.57272" ry="4.32117" fill="#282828"/>
<circle cx="66.8277" cy="111.436" r="1.0439" fill="white"/>
<path d="M63.5 121C66.9797 124.132 73.5203 124.132 77 121" stroke="#282828" stroke-width="1.93315" stroke-linecap="round"/>
<path d="M24.6592 72.5238C26.4917 73.1918 28.9267 72.6353 30.2854 72.2158C30.8456 72.0428 31.0754 71.4123 30.7579 70.9194C29.988 69.7239 28.4823 67.7309 26.6498 67.0629C24.8173 66.3949 22.3822 66.9514 21.0236 67.3709C20.4634 67.5439 20.2335 68.1744 20.551 68.6674C21.321 69.8628 22.8267 71.8558 24.6592 72.5238Z" fill="#5EA985"/>
<path d="M39.1864 71.263C37.5289 72.2911 35.0316 72.2436 33.6159 72.1104C33.0321 72.0554 32.6784 71.4852 32.8885 70.9378C33.3981 69.6103 34.4651 67.3518 36.1226 66.3237C37.7801 65.2956 40.2775 65.3431 41.6932 65.4763C42.2769 65.5313 42.6307 66.1015 42.4205 66.6489C41.9109 67.9764 40.8439 70.2349 39.1864 71.263Z" fill="#5EA985"/>
<path d="M106.512 68.4856C108.515 70.2312 112.308 70.2602 114.036 70.1708C114.549 70.1443 114.925 69.7123 114.881 69.201C114.734 67.4767 114.186 63.7238 112.183 61.9782C110.179 60.2326 106.387 60.2035 104.658 60.2929C104.146 60.3194 103.77 60.7515 103.813 61.2627C103.961 62.9871 104.509 66.74 106.512 68.4856Z" fill="#5EA985"/>
<path d="M72.9579 112.224C71.3852 111.462 70.2202 109.563 69.6217 108.391C69.3564 107.871 69.6471 107.272 70.2193 107.158C71.5102 106.902 73.7224 106.641 75.2951 107.404C76.8677 108.166 78.0328 110.065 78.6313 111.237C78.8966 111.757 78.6059 112.356 78.0337 112.47C76.7427 112.726 74.5306 112.987 72.9579 112.224Z" fill="#5EA985"/>
<path d="M111.154 90.151C108.741 91.2635 105.093 90.2259 103.46 89.6546C102.975 89.4852 102.735 88.9647 102.921 88.4864C103.548 86.873 105.127 83.4251 107.54 82.3126C109.953 81.2001 113.601 82.2378 115.235 82.8091C115.719 82.9785 115.959 83.499 115.774 83.9773C115.147 85.5906 113.567 89.0385 111.154 90.151Z" fill="#5EA985"/>
<path fill-rule="evenodd" clip-rule="evenodd" d="M28.9901 67.4731C29.0502 67.2015 29.1184 66.9389 29.1933 66.6881C28.9834 66.8445 28.7602 66.9987 28.5257 67.1483C26.7599 68.2747 25.0241 68.7107 24.6486 68.1221C24.2732 67.5335 25.4002 66.1432 27.166 65.0168C27.4004 64.8673 27.6344 64.7298 27.8647 64.6054C27.6057 64.5675 27.3388 64.5188 27.0672 64.4587C25.0221 64.0067 23.4864 63.0875 23.6371 62.4059C23.7878 61.7242 25.5678 61.538 27.6129 61.9901C27.8845 62.0501 28.1471 62.1184 28.3979 62.1933C28.2415 61.9833 28.0873 61.7601 27.9377 61.5257C26.8113 59.7599 26.3753 58.0241 26.9639 57.6486C27.5525 57.2731 28.9428 58.4002 30.0692 60.1659C30.2188 60.4004 30.3562 60.6343 30.4806 60.8646C30.5185 60.6056 30.5672 60.3387 30.6273 60.0672C31.0794 58.0221 31.9985 56.4864 32.6802 56.6371C33.3618 56.7878 33.548 58.5678 33.0959 60.6129C33.0359 60.8845 32.9676 61.1471 32.8927 61.3979C33.1027 61.2415 33.3259 61.0873 33.5603 60.9377C35.3261 59.8113 37.0619 59.3753 37.4374 59.9639C37.8129 60.5525 36.6858 61.9428 34.9201 63.0692C34.6856 63.2187 34.4517 63.3561 34.2214 63.4806C34.4804 63.5184 34.7473 63.5672 35.0188 63.6272C37.0639 64.0793 38.5996 64.9984 38.4489 65.6801C38.2982 66.3618 36.5182 66.548 34.4731 66.0959C34.2015 66.0358 33.9389 65.9676 33.6881 65.8927C33.8445 66.1026 33.9987 66.3259 34.1483 66.5603C35.2747 68.3261 35.7107 70.0619 35.1221 70.4374C34.5335 70.8129 33.1433 69.6858 32.0168 67.9201C31.8673 67.6856 31.7299 67.4517 31.6054 67.2214C31.5676 67.4804 31.5188 67.7472 31.4588 68.0188C31.0067 70.0639 30.0876 71.5996 29.4059 71.4489C28.7242 71.2982 28.5381 69.5182 28.9901 67.4731Z" fill="white"/>
<circle cx="31.043" cy="64.043" r="1.73816" transform="rotate(-167.535 31.043 64.043)" fill="#FFCE05"/>
</svg>
