<svg width="140" height="156" viewBox="0 0 140 156" fill="none" xmlns="http://www.w3.org/2000/svg">
<path d="M39.2485 15.7589C42.246 18.3051 29.103 22.7598 30.9479 30.1143C32.7921 37.4694 45.1666 26.4374 47.934 29.9733C50.7013 33.5092 34.888 39.3567 40.8631 48.2428C46.8383 57.1289 61 53.5931 61 53.5931V57.2706C61 57.2706 29.3332 66.1808 18.8806 43.5515C8.42716 20.9214 17.1897 6 22.7236 6C28.2576 6 23.9533 14.8393 27.0279 17.3855C30.1025 19.9317 36.2509 13.2135 39.2485 15.7589V15.7589Z" fill="#FED080"/>
<path d="M98.7515 15.7589C95.754 18.3051 108.897 22.7598 107.052 30.1143C105.208 37.4694 92.8334 26.4374 90.066 29.9733C87.2987 33.5092 103.112 39.3567 97.1369 48.2428C91.1617 57.1289 77 53.5931 77 53.5931V57.2706C77 57.2706 108.667 66.1808 119.119 43.5515C129.573 20.9214 120.81 6 115.276 6C109.742 6 114.047 14.8393 110.972 17.3855C107.898 19.9317 101.749 13.2135 98.7515 15.7589V15.7589Z" fill="#FED080"/>
<ellipse cx="18.1895" cy="10.749" rx="18.1895" ry="10.749" transform="matrix(0.930138 -0.36721 0.375592 0.926785 4.0639 63.4261)" fill="#BF8969"/>
<g style="mix-blend-mode:multiply">
<ellipse cx="12.5694" cy="7.42788" rx="12.5694" ry="7.42788" transform="matrix(0.930138 -0.36721 0.375592 0.926785 10.5387 64.4404)" fill="#BF8969"/>
</g>
<ellipse cx="18.1895" cy="10.749" rx="18.1895" ry="10.749" transform="matrix(-0.930138 -0.36721 -0.375592 0.926785 133.976 63.4261)" fill="#BF8969"/>
<g style="mix-blend-mode:multiply">
<ellipse cx="12.5694" cy="7.42788" rx="12.5694" ry="7.42788" transform="matrix(-0.930138 -0.36721 -0.375592 0.926785 127.501 64.4404)" fill="#BF8969"/>
</g>
<path d="M66.7968 27.0612C66.7653 24.866 67.9275 23.0482 69.3926 23.0009C70.8578 22.9537 72.0712 24.6949 72.1027 26.8901L72.1475 30.0053L72.8522 27.1045C73.3534 25.0412 74.8761 23.9774 76.2533 24.7284C77.6304 25.4793 78.3405 27.7607 77.8392 29.824L75.4191 39.7862C74.9178 41.8495 73.3951 42.9133 72.0179 42.1623C71.577 41.9219 71.2045 41.5246 70.9182 41.0278C70.5464 41.3466 70.1176 41.5347 69.6591 41.5495C69.2835 41.5616 68.9244 41.4561 68.5975 41.2556C68.3529 42.3769 67.7793 43.3244 66.9821 43.7592C65.6049 44.5101 64.0822 43.4463 63.5809 41.383L61.1608 31.4208C60.6595 29.3575 61.3696 27.0761 62.7467 26.3252C64.1239 25.5742 65.6466 26.638 66.1478 28.7013L66.8626 31.6437L66.7968 27.0612Z" fill="#BF8969"/>
<path d="M26.9886 71.2904C29.2686 49.5268 47.6173 33 69.5 33V33C91.3827 33 109.731 49.5268 112.011 71.2905L114.323 93.3597C116.823 117.223 98.1095 138 74.1154 138H64.8846C40.8905 138 22.1766 117.223 24.6766 93.3596L26.9886 71.2904Z" fill="#BF8969"/>
<ellipse cx="69.5" cy="111.5" rx="48.5" ry="25.5" fill="#FED080"/>
<ellipse cx="40" cy="86.4" rx="4" ry="2.4" fill="#FFCEB9"/>
<ellipse cx="99" cy="86.4" rx="4" ry="2.4" fill="#FFCEB9"/>
<circle cx="9" cy="9" r="9" transform="matrix(-1 0 0 1 55 65)" fill="#4B2B1D"/>
<circle cx="3" cy="3" r="3" transform="matrix(-1 0 0 1 52 68)" fill="white"/>
<circle cx="1.5" cy="1.5" r="1.5" transform="matrix(-1 0 0 1 46 75)" fill="white"/>
<circle cx="93" cy="74" r="9" fill="#4B2B1D"/>
<circle cx="90" cy="71" r="3" fill="white"/>
<circle cx="94.5" cy="76.5" r="1.5" fill="white"/>
<path d="M62.1356 100.54L68.5 98L75.5761 100.54V103.229C75.5761 106.94 72.5673 109.949 68.8558 109.949V109.949C65.1443 109.949 62.1356 106.94 62.1356 103.229V100.54Z" fill="#FEB1AA"/>
<path d="M77.6438 87.8156C77.6438 90.3137 73.7093 92.3389 68.8558 92.3389C64.0023 92.3389 60.0677 90.3137 60.0677 87.8156C60.0677 85.3175 64.0023 82 68.8558 82C73.7093 82 77.6438 85.3175 77.6438 87.8156Z" fill="#4B2B1D"/>
<circle cx="72.7329" cy="85.3601" r="1.29236" fill="white"/>
<path d="M68.816 86.056V95.202C68.816 98.1887 71.2373 100.61 74.2241 100.61H74.9796C77.5491 100.61 79.6321 98.527 79.6321 95.9575V95.9575" stroke="#4B2B1D" stroke-width="2.27455" stroke-linecap="round" stroke-linejoin="round"/>
<path d="M68.8161 86.056V95.202C68.8161 98.1887 66.3948 100.61 63.408 100.61H62.6525C60.083 100.61 58 98.527 58 95.9575V95.9575" stroke="#4B2B1D" stroke-width="2.27455" stroke-linecap="round" stroke-linejoin="round"/>
<path fill-rule="evenodd" clip-rule="evenodd" d="M85.1365 121.757C83.9504 121.757 83.023 122.784 83.1603 123.962C84.3945 134.555 86.3113 140.637 93.4722 148.41C93.9123 148.888 94.563 149.111 95.2058 149.017L95.7586 148.936C96.3748 150.416 97.4139 151.57 98.6003 152.581C99.0206 152.939 99.6518 152.889 100.01 152.468C100.368 152.048 100.318 151.417 99.8975 151.058C98.9954 150.29 98.2918 149.515 97.8252 148.634L100.715 148.211C101.313 149.829 102.407 151.064 103.668 152.139C104.089 152.497 104.72 152.446 105.078 152.026C105.436 151.606 105.386 150.975 104.966 150.616C103.969 149.767 103.215 148.911 102.755 147.912L105.302 147.539C105.915 149.054 106.968 150.227 108.173 151.254C108.593 151.613 109.225 151.562 109.583 151.142C109.941 150.722 109.891 150.09 109.47 149.732C108.545 148.943 107.828 148.148 107.362 147.238L109.897 146.867C110.519 148.28 111.53 149.392 112.678 150.37C113.098 150.728 113.73 150.678 114.088 150.258C114.446 149.837 114.396 149.206 113.975 148.848C113.121 148.12 112.444 147.386 111.979 146.562L114.498 146.193C115.126 147.507 116.092 148.557 117.183 149.486C117.603 149.844 118.234 149.794 118.593 149.374C118.951 148.953 118.901 148.322 118.48 147.964C117.698 147.297 117.065 146.626 116.606 145.885L119.107 145.518C119.735 146.735 120.656 147.722 121.688 148.602C122.108 148.96 122.739 148.91 123.098 148.489C123.456 148.069 123.405 147.438 122.985 147.08C122.276 146.475 121.689 145.867 121.244 145.206L123.724 144.843C124.347 145.965 125.22 146.889 126.193 147.718C126.613 148.076 127.244 148.026 127.602 147.605C127.961 147.185 127.91 146.554 127.49 146.196C126.636 145.468 125.96 144.735 125.494 143.911C125.931 143.248 125.978 142.338 125.462 141.603C120.833 135.014 118.512 130.403 116.541 123.257C116.299 122.377 115.504 121.757 114.591 121.757H85.1365Z" fill="#C03A2B"/>
<path d="M22.1652 102.733C22.2848 101.968 23.1942 101.621 23.8058 102.097C49.5807 122.131 90.8344 121.243 114.787 102.072C115.379 101.598 116.274 101.907 116.429 102.65L120.758 123.43C121.492 126.952 119.793 130.557 116.517 132.043C85.691 146.026 51.7973 146.001 22.9583 131.97C19.9401 130.501 18.3445 127.186 18.8626 123.87L22.1652 102.733Z" fill="#E64C3C"/>
<circle cx="26" cy="27" r="2" fill="white"/>
<circle cx="125" cy="61" r="2" fill="white"/>
<circle cx="108" cy="28" r="2" fill="white"/>
<circle cx="17" cy="144" r="2" fill="white"/>
<circle cx="104" cy="118" r="2" fill="white"/>
<circle cx="32" cy="118" r="2" fill="white"/>
<circle cx="17" cy="49" r="2" fill="white"/>
<circle cx="127" cy="23" r="2" fill="white"/>
<circle cx="131.5" cy="125.5" r="1.5" fill="white"/>
<circle cx="125.5" cy="144.5" r="1.5" fill="white"/>
<circle cx="6.5" cy="127.5" r="1.5" fill="white"/>
<circle cx="76" cy="133" r="2" fill="white"/>
<circle cx="113" cy="140" r="2" fill="white"/>
</svg>
