<svg width="140" height="156" viewBox="0 0 140 156" fill="none" xmlns="http://www.w3.org/2000/svg">
<rect width="140" height="156" rx="4" fill="#F0F0F0"/>
<path d="M63.3391 75.4117C63.3391 92.7274 56.0683 105.559 36.0172 105.559C15.9661 105.559 3.18575 100.735 8.02563 73.6028C12.8655 46.4706 38.2403 32 55.0421 32C71.8439 32 63.3391 58.0959 63.3391 75.4117Z" fill="#B37B5E"/>
<path d="M76.6609 75.4117C76.6609 92.7274 83.9317 105.559 103.983 105.559C124.034 105.559 136.814 100.735 131.974 73.6028C127.134 46.4706 101.76 32 84.9579 32C68.1561 32 76.6609 58.0959 76.6609 75.4117Z" fill="#B37B5E"/>
<path d="M53.5714 21.1266C58.1279 25.1548 61.7076 28.9396 65.1387 36.4277C65.1797 36.5171 65.2696 36.5761 65.368 36.5761H77.7738C77.9325 36.5761 78.0501 36.4251 78.0208 36.2691C76.4896 28.1051 81.638 26.3653 87.4518 21.6002C87.6369 21.4485 87.5184 21.1512 87.2793 21.1605C82.9128 21.3292 81.4688 21.1535 76.8663 24.8979C76.6621 25.064 76.3601 24.8457 76.458 24.6013C77.8353 21.1597 78.3666 18.8445 78.1975 15.5124C78.1831 15.2291 77.7767 15.1947 77.6952 15.4664C76.802 18.4482 75.3948 20.5693 72.0855 24.0933C71.9546 24.2326 71.7216 24.18 71.6672 23.9968C70.5946 20.3819 70.9767 18.4379 71.8892 15.1533C71.9619 14.8915 71.6291 14.719 71.4605 14.932C69.2383 17.7404 68.066 19.8301 67.4336 23.4433C67.3889 23.6985 67.0221 23.738 66.9236 23.4984C65.0468 18.9301 63.5146 17.7595 61.0623 15.2193C60.8623 15.0121 60.5111 15.2513 60.6346 15.5115C62.3788 19.1855 63.1511 20.8293 63.2414 26.1274C63.2452 26.3494 62.9792 26.4632 62.8197 26.3089C59.0082 22.6216 58.1828 21.5579 53.7804 20.6971C53.5315 20.6485 53.3814 20.9586 53.5714 21.1266Z" fill="#DCAD8F"/>
<path d="M114.355 83.558C114.355 114.178 107.237 107.338 70.4572 108.067C33.6778 108.797 26.5592 114.178 26.5592 83.558C26.5592 52.9385 36.7964 30.305 68.6775 30.305C100.559 30.305 114.355 52.9385 114.355 83.558Z" fill="#DCAD8F"/>
<path d="M111.847 108.033C111.847 120.483 93.0352 129.389 69.83 129.389C46.6249 129.389 27.8134 120.483 27.8134 108.033C27.8134 95.5835 43.4913 85.491 69.83 85.491C96.1688 85.491 111.847 95.5835 111.847 108.033Z" fill="#C9936D"/>
<ellipse cx="51.4887" cy="80.4741" rx="5.01691" ry="7.52537" fill="#3A211F"/>
<circle cx="52.9676" cy="77.067" r="1.3234" fill="white"/>
<ellipse cx="5.01691" cy="7.52537" rx="5.01691" ry="7.52537" transform="matrix(-1 0 0 1 95.3866 72.9487)" fill="#3A211F"/>
<circle cx="1.3234" cy="1.3234" r="1.3234" transform="matrix(-1 0 0 1 93.8004 75.7436)" fill="white"/>
<circle cx="43.0721" cy="103.027" r="7.69369" fill="#FFA98E"/>
<circle cx="96.9279" cy="103.027" r="7.69369" fill="#FFA98E"/>
<rect x="70" y="102" width="3" height="13" rx="1.5" fill="#3A211F"/>
<path d="M82.1172 97.1041C82.1172 94.3051 77.39 92.036 71.5586 92.036C65.7272 92.036 61 94.3051 61 97.1041C61 99.9032 65.7273 106.554 71.5587 106.554C77.39 106.554 82.1172 99.9032 82.1172 97.1041Z" fill="#3A211F"/>
<circle cx="65.6194" cy="96.6554" r="1.97974" fill="white"/>
<path d="M71.3617 30.4181C70.9685 30.5866 70.5224 30.6753 70.0684 30.6753H68.8895C68.4355 30.6753 67.9894 30.5866 67.5962 30.4181L57.9321 26.2771C56.1211 25.5011 53.8793 26.5598 54.0116 28.1087C54.3723 32.3335 54.3651 35.6652 54.0055 39.8907C53.8739 41.438 56.1133 42.4936 57.9223 41.7184L67.9739 37.4114C68.3671 37.2429 68.8131 37.1542 69.2672 37.1542H69.6907C70.1448 37.1542 70.5908 37.2429 70.984 37.4114L81.0847 41.7395C82.8841 42.5105 85.1136 41.4701 84.9955 39.9305C84.669 35.6751 84.6539 32.3306 84.9831 28.0775C85.1025 26.5346 82.8679 25.4878 81.0645 26.2605L71.3617 30.4181Z" fill="#F0836B"/>
<path fill-rule="evenodd" clip-rule="evenodd" d="M63.2183 135.056C65.2607 135.056 67.1165 134.347 68.5926 133.516C68.2093 135.616 68.2412 137.502 68.2714 139.284L68.2779 139.678C68.3221 142.51 68.2892 145.132 66.6876 148.381C66.4099 148.944 66.6415 149.626 67.2049 149.904C67.7683 150.182 68.4501 149.95 68.7279 149.387C70.5797 145.63 70.5977 142.55 70.5523 139.642L70.5469 139.307C70.5088 136.988 70.4727 134.788 71.2327 132.241C72.6304 134.484 73.2782 136.689 73.9284 138.912L73.9458 138.971C74.7018 141.555 75.487 144.24 77.6334 146.648C78.0513 147.117 78.7703 147.158 79.2392 146.74C79.7081 146.322 79.7494 145.603 79.3314 145.134C77.5551 143.141 76.8861 140.92 76.1116 138.273L76.0921 138.206C75.7202 136.935 75.3248 135.583 74.755 134.182C75.9545 134.693 77.3204 135.056 78.7817 135.056C81.1457 135.056 83.3417 134.597 84.9892 133.804C86.5558 133.05 88 131.788 88 130.028C88 128.268 86.5558 127.007 84.9892 126.252C83.3417 125.459 81.1457 125 78.7817 125C75.3632 125 72.4674 126.986 71 128.208C69.5326 126.986 66.6368 125 63.2183 125C60.8543 125 58.6583 125.459 57.0108 126.252C55.4442 127.007 54 128.268 54 130.028C54 131.788 55.4442 133.05 57.0108 133.804C58.6583 134.597 60.8543 135.056 63.2183 135.056ZM57.9976 128.302C56.6395 128.956 56.2746 129.639 56.2746 130.028C56.2746 130.417 56.6395 131.101 57.9976 131.755C59.2749 132.37 61.1193 132.782 63.2183 132.782C65.8814 132.782 68.2855 131.154 69.5784 130.071L69.6041 130.006C68.3175 128.924 65.8992 127.275 63.2183 127.275C61.1193 127.275 59.2749 127.687 57.9976 128.302ZM72.6533 130.261C72.5852 130.163 72.5157 130.064 72.4447 129.966C73.743 128.883 76.1343 127.275 78.7817 127.275C80.8807 127.275 82.7252 127.687 84.0024 128.302C85.3605 128.956 85.7254 129.639 85.7254 130.028C85.7254 130.417 85.3605 131.101 84.0024 131.755C82.7252 132.37 80.8807 132.782 78.7817 132.782C76.2703 132.782 73.9893 131.334 72.6533 130.261Z" fill="#513831"/>
</svg>
