<svg width="116" height="48" viewBox="0 0 116 48" fill="none" xmlns="http://www.w3.org/2000/svg">
<path d="M48.4643 23.7857C48.4643 36.1805 37.9475 46.3214 24.8571 46.3214C11.7668 46.3214 1.25 36.1805 1.25 23.7857C1.25 11.3909 11.7668 1.25 24.8571 1.25C37.9475 1.25 48.4643 11.3909 48.4643 23.7857Z" stroke="#323232" stroke-width="2.5"/>
<path d="M114.75 23.7857C114.75 36.1805 104.233 46.3214 91.1428 46.3214C78.0525 46.3214 67.5357 36.1805 67.5357 23.7857C67.5357 11.3909 78.0525 1.25 91.1428 1.25C104.233 1.25 114.75 11.3909 114.75 23.7857Z" stroke="#323232" stroke-width="2.5"/>
<path d="M48.6095 22.0382C55.6834 20.8335 59.8348 20.8552 67.3905 22.0382V26.4285C60.1753 25.3306 56.0612 25.3151 48.6095 26.4285V22.0382Z" fill="#242424"/>
</svg>
