<svg width="80" height="80" viewBox="0 0 80 80" fill="none" xmlns="http://www.w3.org/2000/svg">
<g clip-path="url(#clip0_418_1033)">
<rect width="80" height="80" rx="15" fill="#1E1E1E"/>
<g clip-path="url(#clip1_418_1033)">
<path d="M40 40.5C40 37.9804 41.0009 35.5641 42.7825 33.7825C44.5641 32.0009 46.9804 31 49.5 31C52.0196 31 54.4359 32.0009 56.2175 33.7825C57.9991 35.5641 59 37.9804 59 40.5C59 43.0196 57.9991 45.4359 56.2175 47.2175C54.4359 48.9991 52.0196 50 49.5 50C46.9804 50 44.5641 48.9991 42.7825 47.2175C41.0009 45.4359 40 43.0196 40 40.5V40.5Z" fill="#1ABCFE"/>
<path d="M21 59.5C21 56.9804 22.0009 54.5641 23.7825 52.7825C25.5641 51.0009 27.9804 50 30.5 50H40V59.5C40 62.0196 38.9991 64.4359 37.2175 66.2175C35.4359 67.9991 33.0196 69 30.5 69C27.9804 69 25.5641 67.9991 23.7825 66.2175C22.0009 64.4359 21 62.0196 21 59.5V59.5Z" fill="#0ACF83"/>
<path d="M40 12V31H49.5C52.0196 31 54.4359 29.9991 56.2175 28.2175C57.9991 26.4359 59 24.0196 59 21.5C59 18.9804 57.9991 16.5641 56.2175 14.7825C54.4359 13.0009 52.0196 12 49.5 12H40Z" fill="#FF7262"/>
<path d="M21 21.5C21 24.0196 22.0009 26.4359 23.7825 28.2175C25.5641 29.9991 27.9804 31 30.5 31H40V12H30.5C27.9804 12 25.5641 13.0009 23.7825 14.7825C22.0009 16.5641 21 18.9804 21 21.5V21.5Z" fill="#F24E1E"/>
<path d="M21 40.5C21 43.0196 22.0009 45.4359 23.7825 47.2175C25.5641 48.9991 27.9804 50 30.5 50H40V31H30.5C27.9804 31 25.5641 32.0009 23.7825 33.7825C22.0009 35.5641 21 37.9804 21 40.5V40.5Z" fill="#A259FF"/>
</g>
</g>
<defs>
<clipPath id="clip0_418_1033">
<rect width="80" height="80" fill="white"/>
</clipPath>
<clipPath id="clip1_418_1033">
<rect width="38" height="57" fill="white" transform="translate(21 12)"/>
</clipPath>
</defs>
</svg>
