<svg width="80" height="80" viewBox="0 0 80 80" fill="none" xmlns="http://www.w3.org/2000/svg">
<g clip-path="url(#clip0_418_982)">
<rect x="6.10352e-05" width="80" height="80" rx="15" fill="#7E12F9"/>
<g filter="url(#filter0_d_418_982)">
<path d="M41.3334 62C50.5238 62 56.0621 57.3042 56.0621 49.5595C56.0621 43.7048 52.1107 39.4666 46.243 38.7954V38.5518C50.5539 37.8198 53.9366 33.6424 53.9366 28.9773C53.9366 22.33 48.9076 18 41.2436 18H24V62H41.3334ZM30.7058 23.5801H39.627C44.4768 23.5801 47.2309 25.8364 47.2309 29.9224C47.2309 34.2829 44.0278 36.7221 38.2201 36.7221H30.7058V23.5801ZM30.7058 56.4201V41.9365H39.567C45.9138 41.9365 49.2067 44.3757 49.2067 49.1326C49.2067 53.8891 46.0036 56.4201 39.9562 56.4201H30.7058Z" fill="url(#paint0_linear_418_982)"/>
<path d="M41.3334 62C50.5238 62 56.0621 57.3042 56.0621 49.5595C56.0621 43.7048 52.1107 39.4666 46.243 38.7954V38.5518C50.5539 37.8198 53.9366 33.6424 53.9366 28.9773C53.9366 22.33 48.9076 18 41.2436 18H24V62H41.3334ZM30.7058 23.5801H39.627C44.4768 23.5801 47.2309 25.8364 47.2309 29.9224C47.2309 34.2829 44.0278 36.7221 38.2201 36.7221H30.7058V23.5801ZM30.7058 56.4201V41.9365H39.567C45.9138 41.9365 49.2067 44.3757 49.2067 49.1326C49.2067 53.8891 46.0036 56.4201 39.9562 56.4201H30.7058Z" fill="white"/>
</g>
</g>
<defs>
<filter id="filter0_d_418_982" x="8" y="6" width="64.0621" height="76" filterUnits="userSpaceOnUse" color-interpolation-filters="sRGB">
<feFlood flood-opacity="0" result="BackgroundImageFix"/>
<feColorMatrix in="SourceAlpha" type="matrix" values="0 0 0 0 0 0 0 0 0 0 0 0 0 0 0 0 0 0 127 0" result="hardAlpha"/>
<feOffset dy="4"/>
<feGaussianBlur stdDeviation="8"/>
<feColorMatrix type="matrix" values="0 0 0 0 0 0 0 0 0 0 0 0 0 0 0 0 0 0 0.15 0"/>
<feBlend mode="normal" in2="BackgroundImageFix" result="effect1_dropShadow_418_982"/>
<feBlend mode="normal" in="SourceGraphic" in2="effect1_dropShadow_418_982" result="shape"/>
</filter>
<linearGradient id="paint0_linear_418_982" x1="27.0328" y1="20.8961" x2="47.7158" y2="54.4186" gradientUnits="userSpaceOnUse">
<stop stop-color="white"/>
<stop offset="1" stop-color="#F1E5FC"/>
</linearGradient>
<clipPath id="clip0_418_982">
<rect width="80" height="80" fill="white"/>
</clipPath>
</defs>
</svg>
