<svg width="80" height="80" viewBox="0 0 80 80" fill="none" xmlns="http://www.w3.org/2000/svg">
<g clip-path="url(#clip0_418_859)">
<path d="M61.25 0H18.75C8.39466 0 0 8.39466 0 18.75V61.25C0 71.6053 8.39466 80 18.75 80H61.25C71.6053 80 80 71.6053 80 61.25V18.75C80 8.39466 71.6053 0 61.25 0Z" fill="#E7FCFF"/>
<path d="M20.5582 51.5958C20.1045 52.3655 19.5907 53.2677 19.1852 53.9819C19.0958 54.1412 19.0391 54.3184 19.0133 54.501C18.9888 54.6844 18.9982 54.8709 19.0408 55.0506C19.082 55.2314 19.1577 55.3996 19.2608 55.55C19.3639 55.7004 19.4945 55.8292 19.644 55.9295L28.7569 61.7812C28.9133 61.8832 29.0903 61.9512 29.2742 61.9817C29.4564 62.0121 29.6454 62.0049 29.8258 61.9584C30.0063 61.9119 30.1764 61.8295 30.3259 61.7149C30.4754 61.6004 30.6008 61.4554 30.6954 61.2889C31.0631 60.6517 31.5288 59.8264 32.0289 58.9457C35.6411 52.7754 39.3014 53.5308 45.8401 56.769L54.8792 61.2334C55.0484 61.318 55.2322 61.3662 55.4197 61.3751C55.6072 61.384 55.7945 61.3535 55.9704 61.2853C56.1457 61.2173 56.3072 61.1135 56.443 60.9792C56.5804 60.845 56.6887 60.6839 56.7643 60.5049L61.1034 50.3141C61.1773 50.1422 61.2185 49.9579 61.2237 49.7699C61.2306 49.5837 61.2014 49.3958 61.1395 49.2204C61.0776 49.0449 60.9848 48.882 60.8645 48.7424C60.7443 48.6028 60.5999 48.49 60.4367 48.4059C58.5309 47.4715 54.7383 45.6331 51.3392 43.9003C38.9749 37.687 28.5421 38.0969 20.5582 51.5958V51.5958Z" fill="url(#paint0_linear_418_859)"/>
<path d="M59.6631 28.4306C60.122 27.6609 60.6358 26.7605 61.0362 26.0463C61.1273 25.8834 61.1874 25.7026 61.2132 25.5146C61.239 25.3284 61.2287 25.1369 61.184 24.9543C61.1383 24.7713 61.0589 24.5992 60.9503 24.4477C60.8418 24.2958 60.7058 24.1675 60.5499 24.07L51.4507 18.2183C51.2926 18.1163 51.1173 18.0483 50.9334 18.0178C50.7495 17.9874 50.5622 17.9964 50.3818 18.0411C50.2013 18.0877 50.0312 18.17 49.8817 18.2846C49.7322 18.3991 49.6068 18.5441 49.5105 18.7106C49.1514 19.3479 48.6771 20.1731 48.177 21.0538C44.5511 27.2528 40.9251 26.4973 34.3795 23.2591L25.349 18.7929C25.1806 18.7088 24.9985 18.6587 24.8129 18.6479C24.6273 18.6354 24.44 18.6641 24.2647 18.7285C24.0894 18.7929 23.9279 18.8932 23.7904 19.0239C23.6512 19.1545 23.5412 19.3121 23.4622 19.4875L19.1231 29.7069C18.974 30.0535 18.9598 30.4469 19.0836 30.8042C19.1454 30.9814 19.2399 31.1443 19.3602 31.284C19.4805 31.4236 19.6266 31.5381 19.7898 31.6205C21.7025 32.5567 25.4951 34.3933 28.8873 36.1279C41.219 42.3394 51.6844 41.9312 59.6631 28.4306V28.4306Z" fill="url(#paint1_linear_418_859)"/>
</g>
<defs>
<linearGradient id="paint0_linear_418_859" x1="60.8113" y1="64.8114" x2="32.7349" y2="49.3211" gradientUnits="userSpaceOnUse">
<stop stop-color="#0052CC"/>
<stop offset="0.92" stop-color="#2380FB"/>
<stop offset="1" stop-color="#2684FF"/>
</linearGradient>
<linearGradient id="paint1_linear_418_859" x1="19.4089" y1="15.2092" x2="47.4918" y2="30.6994" gradientUnits="userSpaceOnUse">
<stop stop-color="#0052CC"/>
<stop offset="0.92" stop-color="#2380FB"/>
<stop offset="1" stop-color="#2684FF"/>
</linearGradient>
<clipPath id="clip0_418_859">
<rect width="80" height="80" fill="white"/>
</clipPath>
</defs>
</svg>
