<svg width="80" height="80" viewBox="0 0 80 80" fill="none" xmlns="http://www.w3.org/2000/svg">
<g clip-path="url(#clip0_418_912)">
<rect width="80" height="80" rx="15" fill="#242938"/>
<path d="M28.0556 60.6019C25.7937 58.8228 23.3808 57.1172 21.7321 54.7153C18.2628 50.4797 15.5916 45.5756 13.7654 40.4225C12.6617 37.0713 12.2836 33.4788 10.8607 30.2572C9.37222 27.9174 11.1158 25.3596 13.6787 24.6158C14.8198 24.3968 16.8262 23.3205 14.4043 24.0898C12.233 25.6829 12.0229 22.6438 14.2494 22.4513C15.7689 22.2493 16.3282 21.0054 15.8086 19.8856C14.1775 18.822 19.7638 17.653 16.953 16.0659C14.0249 12.9068 21.0487 12.2987 19.3158 15.8864C18.9011 18.6452 24.2238 15.3808 22.9888 18.5666C24.244 20.0965 27.6893 18.9148 27.6039 21.0612C29.4324 21.1869 30.06 22.7254 31.7766 22.8435C33.5556 23.6469 36.7806 24.28 37.3859 26.2848C35.6209 27.6821 31.5341 23.3984 31.3375 27.2664C31.8706 32.9803 31.735 38.8666 33.8256 44.3078C34.8144 47.6025 37.2116 50.1963 39.3762 52.7622C41.4478 55.2753 44.2534 57.0447 47.1131 58.5344C49.6219 59.7175 52.3262 60.5022 55.0603 60.9944C56.1691 60.1463 58.1269 56.9931 59.8569 58.3228C59.9387 59.8169 56.4234 61.4459 59.6912 61.2806C61.6103 60.7019 62.9412 62.765 64.5216 60.9041C65.9775 62.6284 70.5728 59.8022 69.5369 63.3272C68.1362 64.2309 66.0931 63.6847 64.6903 64.9278C62.3769 63.7725 60.5353 65.9619 57.9744 65.685C55.1303 66.1944 52.2369 66.4 49.3534 66.4044C44.6231 66.0306 39.7925 65.8731 35.2925 64.2263C32.7575 63.4897 30.2836 62.0459 28.0556 60.6019ZM32.0506 62.3328C34.5259 63.4034 36.9466 64.5316 39.6594 64.8719C43.9634 65.4706 48.4081 66.3913 52.7275 65.5516C50.7725 64.6688 48.7516 65.8953 46.8037 64.9203C44.4681 65.4228 41.9612 64.7922 39.5869 64.4816C36.8862 63.2788 33.9722 62.4519 31.4434 60.8903C28.2836 59.7363 33.0775 62.3706 33.9309 62.5838C35.9062 63.705 31.7587 62.0091 31.174 61.5431C29.5196 60.615 29.3087 60.8091 31.0102 61.7516C31.3528 61.9519 31.6916 62.1622 32.0506 62.3328ZM27.3403 59.0041C29.7391 59.8928 27.3297 57.3175 26.2306 57.4669C25.7436 56.6222 24.3699 56.0884 25.3389 55.6344C23.5959 56.2397 23.5131 53.3334 22.6938 53.7488C20.8499 53.1666 21.9761 51.1038 19.7797 49.8372C19.5792 48.5025 17.5975 47.345 16.9654 45.3319C16.6862 44.3013 14.7264 41.3413 15.9303 44.0959C16.9554 46.7478 18.7589 49.0188 20.2597 51.2869C21.4252 53.4466 22.8013 55.7038 24.9237 57.0513C25.6392 57.7375 26.33 58.7891 27.3403 59.0041ZM20.4301 51.4172C20.5138 51.055 20.8688 52.2013 20.4301 51.4172V51.4172ZM30.213 60.0694C30.7442 59.8316 29.4492 59.7697 30.213 60.0694V60.0694ZM31.5153 60.5444C31.3803 59.8884 30.9207 60.9109 31.5153 60.5444V60.5444ZM33.145 61.2241C33.9209 60.4853 31.9491 60.7584 33.145 61.2241V61.2241ZM35.9387 62.7813C36.4103 62.0841 34.4294 62.5181 35.9387 62.7813V62.7813ZM30.5742 59.0416C31.7794 58.2619 29.0175 59.0309 30.5742 59.0416V59.0416ZM31.7969 59.6513C31.7628 59.2391 31.3612 59.8359 31.7969 59.6513V59.6513ZM37.9081 63.4656C38.8903 64.0856 43.6447 64.8244 40.6678 63.7197C40.1697 63.8247 35.1475 62.2994 37.9081 63.4656ZM28.2065 55.9097C28.111 55.4963 26.6817 55.4534 28.2065 55.9097V55.9097ZM31.0514 57.5678C31.7919 57.0516 29.5147 57.1694 31.0514 57.5678V57.5678ZM33.4444 59.035C34.5069 58.6344 31.7209 58.6325 33.4444 59.035V59.035ZM27.0489 54.6491C28.2017 55.5331 31.6978 54.7622 28.8143 54.1213C27.5018 53.4216 24.5438 52.9428 26.5601 54.5431L27.0489 54.6491ZM35.0653 59.5416C35.5453 58.7234 33.0516 59.0744 35.0653 59.5416V59.5416ZM32.6294 57.6056C35.4481 58.4031 30.2589 55.8231 31.9337 57.3122L32.305 57.4803L32.6294 57.6056ZM37.5131 60.4284C40.1828 60.4541 35.1019 60.0603 37.5131 60.4284V60.4284ZM26.0217 53.1044C25.9175 52.6072 25.3629 53.1463 26.0217 53.1044V53.1044ZM42.0287 62.9616C42.1 62.0634 41.1578 63.6297 42.0287 62.9616V62.9616ZM30.5774 55.8944C30.416 55.4216 29.7433 55.875 30.5774 55.8944V55.8944ZM26.2749 52.7925C27.8075 52.7003 24.1767 52.1172 26.2749 52.7925V52.7925ZM21.178 49.4978C20.9872 48.7631 19.5102 48.1772 21.178 49.4978V49.4978ZM34.5587 57.9897C34.2778 57.6694 34.4266 58.0597 34.5587 57.9897V57.9897ZM42.8872 63.1006C42.8606 62.6113 42.4337 63.2856 42.8872 63.1006V63.1006ZM33.8216 57.2284C33.9716 56.5981 32.5147 57.0375 33.8216 57.2284V57.2284ZM27.6169 53.2963C28.7571 53.1741 25.7904 52.5253 27.6169 53.2963V53.2963ZM38.1125 59.8181C39.8894 59.1141 36.3809 59.4744 38.1125 59.8181V59.8181ZM32.6531 56.1122C34.7009 56.3763 30.2167 54.7194 32.2037 55.9638L32.6531 56.1122ZM39.77 60.4881C41.6819 59.345 41.0516 63.1644 43.0137 60.8106C44.9491 59.3975 41.3422 62.5578 43.7275 61.0628C45.4525 59.9091 48.0003 61.6097 49.61 62.1644C50.7675 62.1075 51.8925 63.1653 53.0794 62.5219C55.3634 61.9066 48.6125 61.6094 50.3822 60.5178C48.2919 61.1259 46.7478 59.7925 45.7194 58.4538C43.3747 57.9122 40.6641 56.7138 39.4941 54.6391C39.0169 53.86 40.1831 54.7488 39.0822 53.4753C37.6694 52.2188 36.9641 50.7925 36.0156 49.265C34.8825 48.6606 34.7506 46.8816 34.6362 49.2053C34.645 47.7388 33.2681 46.7516 32.9322 47.1619C32.9262 45.7497 34.4056 46.4575 33.37 45.4125C33.1472 43.9488 32.4131 42.4231 32.1925 40.7703C31.8497 39.9738 32.1441 38.2675 31.0225 40.0709C30.6138 41.9772 30.8868 37.7288 31.5222 39.1297C32.3566 37.7 31.2229 37.8681 31.1764 38.0666C31.7197 36.8606 31.5203 35.1497 31.0347 35.8022C31.3241 34.5238 31.4922 31.0974 30.6013 31.7047C31.1413 30.3678 31.6253 25.5875 29.2814 27.4101C28.3315 27.4234 26.6864 27.7549 25.9088 28.1416C28.3469 29.4856 25.6636 28.627 24.6711 28.4134C24.5418 29.6569 23.5588 29.1191 22.3307 29.1313C24.2922 29.3739 21.3755 31.1374 20.2502 30.4524C18.7888 31.1509 21.5115 32.8944 20.2795 33.4334C20.4309 34.2463 18.0406 33.14 18.2283 35.0169C16.8096 34.42 18.033 37.2431 18.7428 36.2884C21.1558 36.9416 20.4415 38.4303 20.503 39.8447C20.1098 40.6691 18.5618 37.9075 20.1582 38.0356C18.8988 35.9897 18.7651 37.2959 17.7186 38.2466C17.4751 38.3153 20.388 39.5988 18.56 40.2334C20.1683 40.4816 20.214 41.8888 20.5414 42.7794C21.5081 43.7863 21.3102 41.6678 22.4669 42.8775C21.735 41.7997 18.59 39.8403 21.1221 40.4688C21.1086 39.3838 20.6642 38.5091 21.4399 38.5303C22.2082 37.1391 20.6353 41.9606 22.367 40.1925C22.8463 39.9831 22.9651 38.7994 23.8267 40.3041C25.0782 41.5353 24.2787 42.4275 22.5134 41.3C22.8292 42.3716 24.875 42.7544 24.4905 44.43C24.8981 45.9034 25.4683 45.3609 25.9653 45.2756C26.3552 46.7075 26.5766 45.6547 26.5951 44.9731C28.3802 45.3553 27.9621 46.4106 28.5206 47.1478C29.7507 47.7031 26.7599 43.3841 28.8718 45.8491C31.0937 47.8553 29.7051 48.6928 27.7111 48.3713C28.9732 48.2694 29.3802 50.0775 30.9587 50.0141C32.3981 50.6988 33.3728 53.3291 30.8916 52.2341C30.031 51.4581 26.9855 50.5009 29.473 51.9769C31.7703 53.0406 33.595 53.6772 35.8109 55.0125C37.3966 56.1447 38.0816 57.4413 38.6828 57.6978C37.35 58.3344 34.6662 57.1897 36.6591 56.8388C35.4162 56.6125 34.0181 55.9838 35.2087 57.5325C36.2209 58.3778 38.7953 58.2881 39.2569 58.3838C38.8656 59.2459 38.1944 59.3144 39.2728 59.3813C38.0697 60.0225 39.6584 60.1216 39.77 60.4881ZM37.3097 53.54C36.5775 52.7744 36.3884 51.3403 37.1797 52.5881C37.5853 52.7509 38.4797 54.9313 37.3097 53.54ZM45.3225 58.6297C45.7791 58.6 45.3356 58.9766 45.3225 58.6297V58.6297ZM36.1537 51.6628C36.1256 50.5053 36.4184 52.5553 36.1537 51.6628V51.6628ZM35.3575 50.5913C34.4366 48.8122 36.5181 51.095 35.3575 50.5913V50.5913ZM25.7067 43.9303C26.2476 43.7859 25.9728 44.8556 25.7067 43.9303V43.9303ZM33.3875 48.0934C33.7197 46.8459 33.7778 49.1403 33.3875 48.0934V48.0934ZM27.9612 44.3206C27.5787 43.6322 28.7613 44.9663 27.9612 44.3206V44.3206ZM32.6181 45.8134C31.7456 43.8588 33.2356 44.7456 32.8109 46.1338L32.6181 45.8134ZM24.5873 40.4575C24.1973 39.8166 23.5522 37.935 23.7598 37.3606C23.9477 38.2959 25.7489 41.3859 24.6434 38.6406C23.4217 36.3394 26.1038 39.3878 26.3797 39.9616C26.5082 40.5328 25.6259 39.8056 26.2237 41.1447C25.1335 39.6203 25.5801 41.9866 24.5873 40.4575ZM22.1053 38.7475C22.2075 37.2566 22.6735 39.7697 22.1053 38.7475V38.7475ZM23.2217 39.1316C23.7545 38.0066 24.1251 40.7003 23.2217 39.1316V39.1316ZM20.5362 37.0541C19.6122 36.1359 18.9435 35.2897 20.5794 36.4844C21.2098 36.5091 19.1789 34.5594 20.7312 35.8653C22.3636 36.1628 21.5373 38.5416 20.5362 37.0541ZM21.9469 37.0172C22.4835 36.4856 22.2317 37.5409 21.9469 37.0172V37.0172ZM22.8149 37.2956C22.0013 35.7706 23.8022 37.935 22.8149 37.2956V37.2956ZM21.0893 35.6466C18.4031 33.2559 24.4648 36.8966 21.5282 36.0897L21.0893 35.6466H21.0893ZM28.7858 40.1184C27.6234 39.4216 28.4778 35.2116 28.8742 38.0909C30.0043 37.7253 28.8118 39.5778 29.6547 39.5606C29.5219 40.7294 29.1448 41.1497 28.7858 40.1184ZM31.6325 41.8009C31.7466 40.5322 31.8725 42.6684 31.6325 41.8009V41.8009ZM31.1381 41.3122C31.2662 40.7703 31.1514 41.9506 31.1381 41.3122V41.3122ZM21.6163 34.8609C19.8906 32.48 26.6317 37.2694 22.7216 35.465C22.313 35.3581 21.8214 35.32 21.6163 34.8609ZM27.0982 37.7675C26.9349 35.7628 27.4629 38.0997 27.0981 37.7675H27.0982ZM31.2603 40.4375C31.5822 39.2953 31.2844 41.1928 31.2603 40.4375V40.4375ZM21.8807 33.9522C22.9063 33.7328 26.1312 35.7538 23.1697 34.5294C22.8407 34.1653 22.1392 34.3306 21.8807 33.9522ZM30.6884 38.3422C30.798 36.2922 31.3006 37.1175 30.6922 38.6356L30.6884 38.3422H30.6884ZM22.6442 33.2391C23.0621 32.6259 21.5348 30.4674 22.8643 32.4647C23.4388 32.9213 24.5276 33.2294 23.5663 33.4216C25.0782 34.7553 23.1975 33.7828 22.6442 33.2391ZM30.2527 37.7019C30.5415 35.3666 30.5074 39.07 30.2527 37.7019V37.7019ZM21.7713 31.0821C22.0905 30.9457 21.9399 31.5075 21.7713 31.0821V31.0821ZM23.756 32.2634C24.2667 31.1916 24.6982 33.4588 23.756 32.2634V32.2634ZM29.3542 35.3775C29.3488 34.9659 29.4598 35.9763 29.3542 35.3775V35.3775ZM29.0299 34.6597C28.2529 32.7428 29.7527 35.6747 29.0299 34.6597V34.6597ZM28.5528 33.4028C28.4224 32.6106 28.9961 34.3978 28.5528 33.4028V33.4028ZM29.3292 32.1406C28.7961 31.201 30.0026 27.9999 30.1372 29.9852C29.5744 31.5322 29.9749 32.3975 30.3675 30.3227C31.0925 28.6898 30.2108 33.545 29.3292 32.1406ZM30.1272 27.3801C30.3596 27.0947 30.1787 27.724 30.1272 27.3801V27.3801ZM28.7947 53.6369C28.4786 53.3609 28.8344 53.8125 28.7947 53.6369V53.6369ZM31.5397 55.0256C33.0666 55.4172 33.0587 54.7878 31.6787 54.6009C30.9365 53.9103 28.5943 53.1781 30.6907 54.5153C30.8296 54.8669 31.2681 54.8588 31.5397 55.0256ZM26.1183 51.4247C26.9596 52.0519 29.2869 53.2025 27.3167 51.6634C27.981 50.8916 26.0453 50.4809 26.6874 49.9647C25.0542 48.9653 25.399 49.0541 26.5432 49.0856C24.5804 48.2081 26.8266 48.2738 26.7208 47.8244C25.964 47.6747 22.9615 46.4897 24.7278 47.9216C22.9323 47.0063 24.3 48.2628 23.7572 48.13C21.9212 47.6291 25.3924 49.5281 23.4657 49.0569C24.519 49.8916 26.3009 51.195 23.911 49.9403C23.5961 50.3934 25.6212 51.0806 26.1183 51.4247ZM28.9893 53.0741C32.4803 54.1988 27.2779 51.6997 28.9893 53.0741V53.0741ZM43.6859 61.9772C43.7309 61.2847 43.2091 62.5681 43.6859 61.9772V61.9772ZM45.1966 62.6131C46.0019 61.8325 45.2294 63.8563 46.5312 62.4219C46.5453 61.3953 46.4909 60.7888 45.0353 62.0359C44.6341 62.2584 44.455 63.2047 45.1966 62.6131ZM21.2183 47.5544C20.971 46.5819 19.4846 46.5869 21.2183 47.5544V47.5544ZM22.8313 48.6113C22.2323 47.6181 20.6942 47.7122 22.8313 48.6113V48.6113ZM32.0075 54.1453C32.9034 54.9409 36.1225 54.7291 33.0959 54.2431C32.6475 53.5803 30.2494 53.74 32.0075 54.1453ZM44.6222 61.9356C46.0009 60.7788 43.2859 62.4519 44.6222 61.9356V61.9356ZM47.4897 63.9063C47.4984 63.535 46.8956 64.0691 47.4897 63.9063V63.9063ZM47.4944 63.3866C49.0212 61.7688 46.0147 63.4822 47.4944 63.3866V63.3866ZM17.2511 44.2328C15.9497 42.3759 16.4421 41.5413 15.1871 40.0253C14.9495 38.8659 13.0341 36.2347 14.1964 39.0222C15.261 40.6522 15.5774 43.1763 17.2511 44.2328ZM47.0153 62.8722C49.8244 61.0566 45.8622 62.0813 47.0153 62.8722V62.8722ZM49.1597 63.7125C50.5666 62.5044 48.27 63.4597 49.1597 63.7125V63.7125ZM20.7402 45.5019C21.1428 44.9028 19.7004 45.425 20.7402 45.5019V45.5019ZM48.7119 63.1388C50.0741 62.2606 48.3981 62.3953 48.465 63.2197L48.7119 63.1388ZM30.2267 51.4875C30.1798 50.8944 29.5074 51.5378 30.2267 51.4875V51.4875ZM31.3691 52.1447C31.006 51.4106 30.8108 52.26 31.3691 52.1447V52.1447ZM50.8975 63.7322C52.6425 62.4734 49.8397 63.4913 50.5312 63.9706L50.8975 63.7322ZM50.2294 63.4094C51.6509 62.2181 48.7284 63.9372 50.2294 63.4094V63.4094ZM53.6434 65.6828C54.5978 65.0438 52.4837 65.4759 53.6434 65.6828V65.6828ZM21.6156 45.0697C22.8949 45.3566 26.7282 48.2206 24.4667 45.2678C23.3085 44.925 24.0032 42.0938 22.8217 42.595C23.6147 43.9197 23.4741 44.4834 21.8092 43.6484C19.7168 42.6269 20.6333 44.1544 21.0423 44.5756C20.485 44.7022 21.7794 45.0591 21.6156 45.0697ZM15.7868 40.4666C16.0158 39.5194 13.6778 35.255 14.6827 38.33C15.0455 38.9741 15.0086 40.1947 15.7868 40.4666ZM26.4851 47.0622C25.8263 46.5113 26.4538 46.9844 26.4851 47.0622V47.0622ZM28.1074 47.44C28.1066 46.4363 26.3142 47.0325 28.1074 47.44V47.44ZM42.1659 56.3025C41.8978 55.6169 41.1059 56.2866 42.1659 56.3025V56.3025ZM42.8409 56.7956C42.7412 56.4119 42.4516 56.8697 42.8409 56.7956V56.7956ZM48.4131 60.3053C48.9491 59.9094 47.7444 60.255 48.4131 60.3053V60.3053ZM18.6983 41.21C20.2312 40.6163 17.0559 40.7866 18.6983 41.21V41.21ZM40.9281 55.215C40.9112 54.2225 39.9509 55.4609 40.9281 55.215V55.215ZM18.0927 39.7984C19.0773 39.4659 17.1817 39.5794 18.0927 39.7984V39.7984ZM20.9507 41.1831C20.9328 40.8569 20.6484 41.3066 20.9507 41.1831V41.1831ZM55.8103 62.5594C57.0766 62.3028 59.9619 63.2038 60.4284 62.2238C58.8906 62.1863 55.1084 61.1388 54.9294 62.4738L55.2662 62.5266L55.8103 62.5594ZM21.8591 41.4119C21.8811 40.4063 21.0749 41.3744 21.8591 41.4119V41.4119ZM14.3445 36.1994C14.0032 34.2831 13.0466 35.9094 14.3445 36.1994V36.1994ZM16.1365 36.6497C16.1585 36.0344 14.4963 36.0959 16.1365 36.6497V36.6497ZM17.1605 37.1525C16.8645 36.9128 16.9288 37.4556 17.1605 37.1525V37.1525ZM23.6039 41.2859C23.9073 41.0075 22.8858 41.0797 23.6039 41.2859V41.2859ZM16.4784 36.0184C16.3052 34.5713 14.403 35.8016 16.4784 36.0184V36.0184ZM12.8047 33.6347C12.7524 32.9666 12.4467 33.8866 12.8047 33.6347V33.6347ZM13.3512 33.2219C13.262 32.43 12.882 33.3225 13.3512 33.2219V33.2219ZM16.3705 35.0241C17.6472 34.5225 14.0449 33.9869 16.1096 34.9294L16.3705 35.0241ZM56.7794 59.9841C57.5966 59.235 55.7409 59.7525 56.7794 59.9841V59.9841ZM61.6612 62.5147C61.9887 61.5459 60.8366 62.6422 61.6612 62.5147V62.5147ZM16.679 33.4416C16.8135 32.5047 15.6668 33.6275 16.679 33.4416V33.4416ZM12.3833 30.5635C12.1525 29.2406 12.1841 26.9185 14.3914 27.7032C11.445 28.2882 16.4306 31.3653 15.801 28.9358C17.0399 28.9965 18.2246 28.2036 17.5744 29.4068C20.0154 29.1372 21.7077 27.0206 24.0655 27.3172C25.9021 27.0741 27.9102 26.8898 29.8894 26.1505C31.5166 26.0333 33.0831 24.2813 32.1912 23.2428C29.9721 23.055 27.6491 23.3327 25.1963 23.8202C22.4784 24.3852 20.0096 25.4588 17.2672 25.9195C14.5942 26.2786 17.8048 26.9089 17.0392 27.0493C15.6443 27.5333 18.7026 27.8596 16.8583 28.3698C15.7193 28.1533 14.5338 27.7619 15.0203 26.5616C12.4598 26.8939 10.2098 27.9566 12.2328 30.5623L12.3833 30.5634V30.5633V30.5635ZM18.5532 27.4211C19.1536 25.2095 21.7696 29.2411 19.5372 27.7149C19.2706 27.5154 18.8321 27.3525 18.5532 27.4211ZM18.67 26.3489C19.5365 25.7034 19.1306 26.7108 18.67 26.3489V26.3489ZM19.7702 26.3663C19.8485 25.3486 22.2889 26.9051 20.1727 26.7327L19.7702 26.3663ZM21.2753 25.7612C21.8249 25.119 21.4332 26.3324 21.2753 25.7612V25.7612ZM21.6603 25.5034C22.5754 24.4038 26.8429 24.8016 23.7193 25.3962C22.882 24.7659 22.2402 25.7678 21.6603 25.5034ZM27.2294 24.6449C27.0902 21.6413 29.9962 25.7123 27.2294 24.6449V24.6449ZM28.8097 24.6363C29.3874 23.1224 31.0516 24.0288 29.077 24.3321C29.1199 24.4932 29.0191 25.1136 28.8097 24.6363ZM16.0559 32.6647C17.7821 31.6075 14.2234 31.7475 16.0559 32.6647V32.6647ZM17.3322 33.0191C17.9375 32.3756 16.0172 32.7581 17.3322 33.0191V33.0191ZM13.5716 30.3502C14.5579 29.5925 12.4043 30.0621 13.5716 30.3502V30.3502ZM64.5425 62.2378C64.5712 61.3588 63.7887 62.6338 64.5425 62.2378V62.2378ZM59.3634 58.7031C59.5106 57.6913 58.6978 58.7916 59.3634 58.7031V58.7031ZM65.9669 62.5784C67.3459 62.5831 70.1453 62.1503 67.1447 62.1516C66.6737 62.225 64.4012 62.2094 65.9669 62.5784ZM18.455 32.3988C19.571 32.3222 20.2011 31.1678 18.2391 31.2341C15.1983 30.9193 20.922 32.2753 17.849 31.8875C17.4361 32.1609 18.431 32.4744 18.455 32.3988ZM19.4379 32.8963C19.3214 32.1797 19.0928 33.2772 19.4379 32.8963V32.8963ZM20.6039 29.7873C21.0882 29.1865 19.9337 29.6267 20.6039 29.7873V29.7873ZM16.8921 23.5829C18.884 22.9052 21.6078 22.1438 22.5483 23.9165C21.5912 22.7645 22.1621 21.6304 23.0661 23.3147C24.3444 25.0189 24.9844 22.5396 24.1529 21.968C25.1004 23.1453 26.1781 23.7016 24.7873 22.0424C26.2986 20.2244 21.7612 22.2805 20.7299 22.2598C20.2337 22.4825 15.6069 23.4397 16.8921 23.5829ZM18.0595 21.3472C19.1954 20.4898 21.9883 21.8572 20.1962 20.4951C20.0209 20.3403 16.2713 21.528 18.0595 21.3472ZM22.2009 21.5181C23.5304 21.5521 21.6274 19.7321 23.2117 20.5568C22.9515 19.7068 21.3672 19.5476 20.5926 19.208C20.1545 19.9852 21.4843 21.5286 22.2009 21.5181ZM18.7857 17.7587C19.2456 17.1352 17.9796 18.0749 18.7857 17.7587V17.7587ZM20.4783 18.1639C22.6208 17.8797 19.9322 17.2412 20.0466 18.141L20.4783 18.1639ZM17.3177 15.6908C15.8092 13.7215 20.1548 16.0219 18.6221 13.9599C17.3321 12.9327 16.0925 15.1159 17.3177 15.6908ZM36.6778 26.1187C37.3697 24.8921 33.8212 24.4654 36.2116 25.684C36.4319 25.7575 36.3819 26.2035 36.6778 26.1187Z" fill="white"/>
</g>
<defs>
<clipPath id="clip0_418_912">
<rect width="80" height="80" fill="white"/>
</clipPath>
</defs>
</svg>
